  0
SECTION
  2
HEADER
  9
$ANGBASE
  50
0.0
  9
$ANGDIR
  70
1
  9
$MEASUREMENT
  70
1
  0
ENDSEC
  0
SECTION
  2
TABLES
  0
TABLE
  2
LTYPE
  70
4
  0
LTYPE
  5
40F
  2
CONTINUOUS
  70
0
  3
Solid line
  72
65
  73
0
  40
0.0
  0
LTYPE
  5
410
  2
DASHDOT
 70
0
  3
Dash Dot ____ _ ____ _
 72
65
 73
4
 40
2.0
 49
1.25
 49
-0.25
 49
0.25
 49
-0.25
  0
LTYPE
  5
411
  2
DASHED
 70
0
  3
Dashed __ __ __ __ __
 72
65
 73
2
 40
0.75
 49
0.5
 49
-0.25
  0
LTYPE
  5
43B
  2
DOTTED
 70
0
  3
Dotted .  .  .  .
 72
65
 73
2
 40
0.2
 49
0.0
 49
-0.2
  0
ENDTAB
  0
TABLE
  2
STYLE
  70
4
  0
STYLE
  2
KICAD
  70
0
  40
0
  41
1
  42
1
  50
0
  71
0
  3
isocp.shx
  0
STYLE
  2
KICADB
  70
0
  40
0
  41
1
  42
1
  50
0
  71
0
  3
isocp.shx
  0
STYLE
  2
KICADI
  70
0
  40
0
  41
1
  42
1
  50
15
  71
0
  3
isocp.shx
  0
STYLE
  2
KICADBI
  70
0
  40
0
  41
1
  42
1
  50
15
  71
0
  3
isocp.shx
  0
ENDTAB
  0
TABLE
  2
LAYER
  70
1
  0
LAYER
  2
BLACK
  70
0
  62
7
  6
CONTINUOUS
  0
ENDTAB
  0
ENDSEC
  0
SECTION
  2
ENTITIES
0
LINE
8
BLACK
6
CONTINUOUS
10
146.25
20
-75.7
11
147.75
21
-75.7
0
LINE
8
BLACK
6
CONTINUOUS
10
146.25
20
-70.3
11
146.25
21
-75.7
0
LINE
8
BLACK
6
CONTINUOUS
10
147.75
20
-70.3
11
146.25
21
-70.3
0
LINE
8
BLACK
6
CONTINUOUS
10
147.75
20
-75.7
11
147.75
21
-70.3
0
LINE
8
BLACK
6
CONTINUOUS
10
147.5
20
-72.5
11
146.5
21
-72.5
0
LINE
8
BLACK
6
CONTINUOUS
10
146.5
20
-73.5
11
147
21
-72.6
0
LINE
8
BLACK
6
CONTINUOUS
10
147.5
20
-73.5
11
146.5
21
-73.5
0
LINE
8
BLACK
6
CONTINUOUS
10
147
20
-72.6
11
147.5
21
-73.5
0
LINE
8
BLACK
6
CONTINUOUS
10
125.997
20
-39.3747
11
126.021
21
-39.391
0
LINE
8
BLACK
6
CONTINUOUS
10
126.021
20
-39.391
11
127.037
21
-40.407
0
LINE
8
BLACK
6
CONTINUOUS
10
127.037
20
-40.407
11
127.053
21
-40.4313
0
LINE
8
BLACK
6
CONTINUOUS
10
127.053
20
-40.4313
11
127.059
21
-40.46
0
LINE
8
BLACK
6
CONTINUOUS
10
127.059
20
-40.46
11
127.053
21
-40.4887
0
LINE
8
BLACK
6
CONTINUOUS
10
127.053
20
-40.4887
11
127.037
21
-40.513
0
LINE
8
BLACK
6
CONTINUOUS
10
127.037
20
-40.513
11
127.013
21
-40.5293
0
LINE
8
BLACK
6
CONTINUOUS
10
127.013
20
-40.5293
11
126.984
21
-40.535
0
LINE
8
BLACK
6
CONTINUOUS
10
126.984
20
-40.535
11
126.955
21
-40.5293
0
LINE
8
BLACK
6
CONTINUOUS
10
126.955
20
-40.5293
11
126.931
21
-40.513
0
LINE
8
BLACK
6
CONTINUOUS
10
126.931
20
-40.513
11
126.878
21
-40.46
0
LINE
8
BLACK
6
CONTINUOUS
10
126.878
20
-40.46
11
126.043
21
-40.46
0
LINE
8
BLACK
6
CONTINUOUS
10
126.043
20
-40.46
11
126.037
21
-40.4887
0
LINE
8
BLACK
6
CONTINUOUS
10
126.037
20
-40.4887
11
126.021
21
-40.513
0
LINE
8
BLACK
6
CONTINUOUS
10
126.021
20
-40.513
11
125.997
21
-40.5293
0
LINE
8
BLACK
6
CONTINUOUS
10
125.997
20
-40.5293
11
125.968
21
-40.535
0
LINE
8
BLACK
6
CONTINUOUS
10
125.968
20
-40.535
11
125.939
21
-40.5293
0
LINE
8
BLACK
6
CONTINUOUS
10
125.939
20
-40.5293
11
125.915
21
-40.513
0
LINE
8
BLACK
6
CONTINUOUS
10
125.915
20
-40.513
11
125.899
21
-40.4887
0
LINE
8
BLACK
6
CONTINUOUS
10
125.899
20
-40.4887
11
125.893
21
-40.46
0
LINE
8
BLACK
6
CONTINUOUS
10
125.893
20
-40.46
11
125.893
21
-39.444
0
LINE
8
BLACK
6
CONTINUOUS
10
125.893
20
-39.444
11
125.899
21
-39.4153
0
LINE
8
BLACK
6
CONTINUOUS
10
125.899
20
-39.4153
11
125.915
21
-39.391
0
LINE
8
BLACK
6
CONTINUOUS
10
125.915
20
-39.391
11
125.939
21
-39.3747
0
LINE
8
BLACK
6
CONTINUOUS
10
125.939
20
-39.3747
11
125.968
21
-39.369
0
LINE
8
BLACK
6
CONTINUOUS
10
125.968
20
-39.369
11
125.997
21
-39.3747
0
LINE
8
BLACK
6
CONTINUOUS
10
132.997
20
-39.3747
11
133.021
21
-39.391
0
LINE
8
BLACK
6
CONTINUOUS
10
133.021
20
-39.391
11
134.037
21
-40.407
0
LINE
8
BLACK
6
CONTINUOUS
10
134.037
20
-40.407
11
134.053
21
-40.4313
0
LINE
8
BLACK
6
CONTINUOUS
10
134.053
20
-40.4313
11
134.059
21
-40.46
0
LINE
8
BLACK
6
CONTINUOUS
10
134.059
20
-40.46
11
134.053
21
-40.4887
0
LINE
8
BLACK
6
CONTINUOUS
10
134.053
20
-40.4887
11
134.037
21
-40.513
0
LINE
8
BLACK
6
CONTINUOUS
10
134.037
20
-40.513
11
134.013
21
-40.5293
0
LINE
8
BLACK
6
CONTINUOUS
10
134.013
20
-40.5293
11
133.984
21
-40.535
0
LINE
8
BLACK
6
CONTINUOUS
10
133.984
20
-40.535
11
133.955
21
-40.5293
0
LINE
8
BLACK
6
CONTINUOUS
10
133.955
20
-40.5293
11
133.931
21
-40.513
0
LINE
8
BLACK
6
CONTINUOUS
10
133.931
20
-40.513
11
133.878
21
-40.46
0
LINE
8
BLACK
6
CONTINUOUS
10
133.878
20
-40.46
11
133.043
21
-40.46
0
LINE
8
BLACK
6
CONTINUOUS
10
133.043
20
-40.46
11
133.037
21
-40.4887
0
LINE
8
BLACK
6
CONTINUOUS
10
133.037
20
-40.4887
11
133.021
21
-40.513
0
LINE
8
BLACK
6
CONTINUOUS
10
133.021
20
-40.513
11
132.997
21
-40.5293
0
LINE
8
BLACK
6
CONTINUOUS
10
132.997
20
-40.5293
11
132.968
21
-40.535
0
LINE
8
BLACK
6
CONTINUOUS
10
132.968
20
-40.535
11
132.939
21
-40.5293
0
LINE
8
BLACK
6
CONTINUOUS
10
132.939
20
-40.5293
11
132.915
21
-40.513
0
LINE
8
BLACK
6
CONTINUOUS
10
132.915
20
-40.513
11
132.899
21
-40.4887
0
LINE
8
BLACK
6
CONTINUOUS
10
132.899
20
-40.4887
11
132.893
21
-40.46
0
LINE
8
BLACK
6
CONTINUOUS
10
132.893
20
-40.46
11
132.893
21
-39.444
0
LINE
8
BLACK
6
CONTINUOUS
10
132.893
20
-39.444
11
132.899
21
-39.4153
0
LINE
8
BLACK
6
CONTINUOUS
10
132.899
20
-39.4153
11
132.915
21
-39.391
0
LINE
8
BLACK
6
CONTINUOUS
10
132.915
20
-39.391
11
132.939
21
-39.3747
0
LINE
8
BLACK
6
CONTINUOUS
10
132.939
20
-39.3747
11
132.968
21
-39.369
0
LINE
8
BLACK
6
CONTINUOUS
10
132.968
20
-39.369
11
132.997
21
-39.3747
0
LINE
8
BLACK
6
CONTINUOUS
10
139.997
20
-39.3747
11
140.021
21
-39.391
0
LINE
8
BLACK
6
CONTINUOUS
10
140.021
20
-39.391
11
141.037
21
-40.407
0
LINE
8
BLACK
6
CONTINUOUS
10
141.037
20
-40.407
11
141.053
21
-40.4313
0
LINE
8
BLACK
6
CONTINUOUS
10
141.053
20
-40.4313
11
141.059
21
-40.46
0
LINE
8
BLACK
6
CONTINUOUS
10
141.059
20
-40.46
11
141.053
21
-40.4887
0
LINE
8
BLACK
6
CONTINUOUS
10
141.053
20
-40.4887
11
141.037
21
-40.513
0
LINE
8
BLACK
6
CONTINUOUS
10
141.037
20
-40.513
11
141.013
21
-40.5293
0
LINE
8
BLACK
6
CONTINUOUS
10
141.013
20
-40.5293
11
140.984
21
-40.535
0
LINE
8
BLACK
6
CONTINUOUS
10
140.984
20
-40.535
11
140.955
21
-40.5293
0
LINE
8
BLACK
6
CONTINUOUS
10
140.955
20
-40.5293
11
140.931
21
-40.513
0
LINE
8
BLACK
6
CONTINUOUS
10
140.931
20
-40.513
11
140.878
21
-40.46
0
LINE
8
BLACK
6
CONTINUOUS
10
140.878
20
-40.46
11
140.043
21
-40.46
0
LINE
8
BLACK
6
CONTINUOUS
10
140.043
20
-40.46
11
140.037
21
-40.4887
0
LINE
8
BLACK
6
CONTINUOUS
10
140.037
20
-40.4887
11
140.021
21
-40.513
0
LINE
8
BLACK
6
CONTINUOUS
10
140.021
20
-40.513
11
139.997
21
-40.5293
0
LINE
8
BLACK
6
CONTINUOUS
10
139.997
20
-40.5293
11
139.968
21
-40.535
0
LINE
8
BLACK
6
CONTINUOUS
10
139.968
20
-40.535
11
139.939
21
-40.5293
0
LINE
8
BLACK
6
CONTINUOUS
10
139.939
20
-40.5293
11
139.915
21
-40.513
0
LINE
8
BLACK
6
CONTINUOUS
10
139.915
20
-40.513
11
139.899
21
-40.4887
0
LINE
8
BLACK
6
CONTINUOUS
10
139.899
20
-40.4887
11
139.893
21
-40.46
0
LINE
8
BLACK
6
CONTINUOUS
10
139.893
20
-40.46
11
139.893
21
-39.444
0
LINE
8
BLACK
6
CONTINUOUS
10
139.893
20
-39.444
11
139.899
21
-39.4153
0
LINE
8
BLACK
6
CONTINUOUS
10
139.899
20
-39.4153
11
139.915
21
-39.391
0
LINE
8
BLACK
6
CONTINUOUS
10
139.915
20
-39.391
11
139.939
21
-39.3747
0
LINE
8
BLACK
6
CONTINUOUS
10
139.939
20
-39.3747
11
139.968
21
-39.369
0
LINE
8
BLACK
6
CONTINUOUS
10
139.968
20
-39.369
11
139.997
21
-39.3747
0
LINE
8
BLACK
6
CONTINUOUS
10
146.997
20
-39.3747
11
147.021
21
-39.391
0
LINE
8
BLACK
6
CONTINUOUS
10
147.021
20
-39.391
11
148.037
21
-40.407
0
LINE
8
BLACK
6
CONTINUOUS
10
148.037
20
-40.407
11
148.053
21
-40.4313
0
LINE
8
BLACK
6
CONTINUOUS
10
148.053
20
-40.4313
11
148.059
21
-40.46
0
LINE
8
BLACK
6
CONTINUOUS
10
148.059
20
-40.46
11
148.053
21
-40.4887
0
LINE
8
BLACK
6
CONTINUOUS
10
148.053
20
-40.4887
11
148.037
21
-40.513
0
LINE
8
BLACK
6
CONTINUOUS
10
148.037
20
-40.513
11
148.013
21
-40.5293
0
LINE
8
BLACK
6
CONTINUOUS
10
148.013
20
-40.5293
11
147.984
21
-40.535
0
LINE
8
BLACK
6
CONTINUOUS
10
147.984
20
-40.535
11
147.955
21
-40.5293
0
LINE
8
BLACK
6
CONTINUOUS
10
147.955
20
-40.5293
11
147.931
21
-40.513
0
LINE
8
BLACK
6
CONTINUOUS
10
147.931
20
-40.513
11
147.878
21
-40.46
0
LINE
8
BLACK
6
CONTINUOUS
10
147.878
20
-40.46
11
147.043
21
-40.46
0
LINE
8
BLACK
6
CONTINUOUS
10
147.043
20
-40.46
11
147.037
21
-40.4887
0
LINE
8
BLACK
6
CONTINUOUS
10
147.037
20
-40.4887
11
147.021
21
-40.513
0
LINE
8
BLACK
6
CONTINUOUS
10
147.021
20
-40.513
11
146.997
21
-40.5293
0
LINE
8
BLACK
6
CONTINUOUS
10
146.997
20
-40.5293
11
146.968
21
-40.535
0
LINE
8
BLACK
6
CONTINUOUS
10
146.968
20
-40.535
11
146.939
21
-40.5293
0
LINE
8
BLACK
6
CONTINUOUS
10
146.939
20
-40.5293
11
146.915
21
-40.513
0
LINE
8
BLACK
6
CONTINUOUS
10
146.915
20
-40.513
11
146.899
21
-40.4887
0
LINE
8
BLACK
6
CONTINUOUS
10
146.899
20
-40.4887
11
146.893
21
-40.46
0
LINE
8
BLACK
6
CONTINUOUS
10
146.893
20
-40.46
11
146.893
21
-39.444
0
LINE
8
BLACK
6
CONTINUOUS
10
146.893
20
-39.444
11
146.899
21
-39.4153
0
LINE
8
BLACK
6
CONTINUOUS
10
146.899
20
-39.4153
11
146.915
21
-39.391
0
LINE
8
BLACK
6
CONTINUOUS
10
146.915
20
-39.391
11
146.939
21
-39.3747
0
LINE
8
BLACK
6
CONTINUOUS
10
146.939
20
-39.3747
11
146.968
21
-39.369
0
LINE
8
BLACK
6
CONTINUOUS
10
146.968
20
-39.369
11
146.997
21
-39.3747
0
LINE
8
BLACK
6
CONTINUOUS
10
153.997
20
-39.3747
11
154.021
21
-39.391
0
LINE
8
BLACK
6
CONTINUOUS
10
154.021
20
-39.391
11
155.037
21
-40.407
0
LINE
8
BLACK
6
CONTINUOUS
10
155.037
20
-40.407
11
155.053
21
-40.4313
0
LINE
8
BLACK
6
CONTINUOUS
10
155.053
20
-40.4313
11
155.059
21
-40.46
0
LINE
8
BLACK
6
CONTINUOUS
10
155.059
20
-40.46
11
155.053
21
-40.4887
0
LINE
8
BLACK
6
CONTINUOUS
10
155.053
20
-40.4887
11
155.037
21
-40.513
0
LINE
8
BLACK
6
CONTINUOUS
10
155.037
20
-40.513
11
155.013
21
-40.5293
0
LINE
8
BLACK
6
CONTINUOUS
10
155.013
20
-40.5293
11
154.984
21
-40.535
0
LINE
8
BLACK
6
CONTINUOUS
10
154.984
20
-40.535
11
154.955
21
-40.5293
0
LINE
8
BLACK
6
CONTINUOUS
10
154.955
20
-40.5293
11
154.931
21
-40.513
0
LINE
8
BLACK
6
CONTINUOUS
10
154.931
20
-40.513
11
154.878
21
-40.46
0
LINE
8
BLACK
6
CONTINUOUS
10
154.878
20
-40.46
11
154.043
21
-40.46
0
LINE
8
BLACK
6
CONTINUOUS
10
154.043
20
-40.46
11
154.037
21
-40.4887
0
LINE
8
BLACK
6
CONTINUOUS
10
154.037
20
-40.4887
11
154.021
21
-40.513
0
LINE
8
BLACK
6
CONTINUOUS
10
154.021
20
-40.513
11
153.997
21
-40.5293
0
LINE
8
BLACK
6
CONTINUOUS
10
153.997
20
-40.5293
11
153.968
21
-40.535
0
LINE
8
BLACK
6
CONTINUOUS
10
153.968
20
-40.535
11
153.939
21
-40.5293
0
LINE
8
BLACK
6
CONTINUOUS
10
153.939
20
-40.5293
11
153.915
21
-40.513
0
LINE
8
BLACK
6
CONTINUOUS
10
153.915
20
-40.513
11
153.899
21
-40.4887
0
LINE
8
BLACK
6
CONTINUOUS
10
153.899
20
-40.4887
11
153.893
21
-40.46
0
LINE
8
BLACK
6
CONTINUOUS
10
153.893
20
-40.46
11
153.893
21
-39.444
0
LINE
8
BLACK
6
CONTINUOUS
10
153.893
20
-39.444
11
153.899
21
-39.4153
0
LINE
8
BLACK
6
CONTINUOUS
10
153.899
20
-39.4153
11
153.915
21
-39.391
0
LINE
8
BLACK
6
CONTINUOUS
10
153.915
20
-39.391
11
153.939
21
-39.3747
0
LINE
8
BLACK
6
CONTINUOUS
10
153.939
20
-39.3747
11
153.968
21
-39.369
0
LINE
8
BLACK
6
CONTINUOUS
10
153.968
20
-39.369
11
153.997
21
-39.3747
0
LINE
8
BLACK
6
CONTINUOUS
10
139.5
20
-97.25
11
139.5
21
-97.5
0
LINE
8
BLACK
6
CONTINUOUS
10
145.5
20
-97.25
11
139.5
21
-97.25
0
LINE
8
BLACK
6
CONTINUOUS
10
145.5
20
-97.25
11
145.5
21
-97.5
0
LINE
8
BLACK
6
CONTINUOUS
10
145.5
20
-100.75
11
145.5
21
-100.5
0
LINE
8
BLACK
6
CONTINUOUS
10
139.5
20
-100.75
11
139.5
21
-100.5
0
LINE
8
BLACK
6
CONTINUOUS
10
145.5
20
-100.75
11
139.5
21
-100.75
0
LINE
8
BLACK
6
CONTINUOUS
10
154.55
20
-45.4
11
154.55
21
-44.39
0
LINE
8
BLACK
6
CONTINUOUS
10
154.55
20
-27.6
11
154.55
21
-28.6
0
LINE
8
BLACK
6
CONTINUOUS
10
153.55
20
-45.4
11
154.55
21
-45.4
0
LINE
8
BLACK
6
CONTINUOUS
10
153.5
20
-27.6
11
154.55
21
-27.6
0
LINE
8
BLACK
6
CONTINUOUS
10
121.5
20
-45.4
11
121.5
21
-44.45
0
LINE
8
BLACK
6
CONTINUOUS
10
121.5
20
-27.6
11
121.5
21
-28.6
0
LINE
8
BLACK
6
CONTINUOUS
10
121.5
20
-45.4
11
122.5
21
-45.4
0
LINE
8
BLACK
6
CONTINUOUS
10
121.5
20
-27.6
11
122.5
21
-27.6
0
LINE
8
BLACK
6
CONTINUOUS
10
118.6
20
-32.75
11
119.9
21
-32.75
0
LINE
8
BLACK
6
CONTINUOUS
10
119.9
20
-32.75
11
119.9
21
-40.25
0
LINE
8
BLACK
6
CONTINUOUS
10
119.9
20
-40.25
11
118.6
21
-40.25
0
LINE
8
BLACK
6
CONTINUOUS
10
118.6
20
-40.25
11
118.6
21
-32.75
0
LINE
8
BLACK
6
CONTINUOUS
10
118.95
20
-36
11
118.95
21
-37
0
LINE
8
BLACK
6
CONTINUOUS
10
118.95
20
-37
11
119.6
21
-36.5
0
LINE
8
BLACK
6
CONTINUOUS
10
119.6
20
-36.5
11
118.95
21
-36
0
LINE
8
BLACK
6
CONTINUOUS
10
119.1
20
-36.15
11
119.1
21
-36.85
0
LINE
8
BLACK
6
CONTINUOUS
10
119.25
20
-36.25
11
119.25
21
-36.75
0
LINE
8
BLACK
6
CONTINUOUS
10
119.4
20
-36.35
11
119.4
21
-36.65
0
LINE
8
BLACK
6
CONTINUOUS
10
125.652
20
-36.4833
11
125.652
21
-36.0071
0
LINE
8
BLACK
6
CONTINUOUS
10
125.652
20
-36.0071
11
124.652
21
-36.0071
0
LINE
8
BLACK
6
CONTINUOUS
10
125.652
20
-37.3405
11
125.652
21
-36.769
0
LINE
8
BLACK
6
CONTINUOUS
10
125.652
20
-37.0548
11
124.652
21
-37.0548
0
LINE
8
BLACK
6
CONTINUOUS
10
124.652
20
-37.0548
11
124.795
21
-36.9595
0
LINE
8
BLACK
6
CONTINUOUS
10
124.795
20
-36.9595
11
124.89
21
-36.8643
0
LINE
8
BLACK
6
CONTINUOUS
10
124.89
20
-36.8643
11
124.938
21
-36.769
0
LINE
8
BLACK
6
CONTINUOUS
10
132.652
20
-36.4833
11
132.652
21
-36.0071
0
LINE
8
BLACK
6
CONTINUOUS
10
132.652
20
-36.0071
11
131.652
21
-36.0071
0
LINE
8
BLACK
6
CONTINUOUS
10
131.748
20
-36.769
11
131.7
21
-36.8167
0
LINE
8
BLACK
6
CONTINUOUS
10
131.7
20
-36.8167
11
131.652
21
-36.9119
0
LINE
8
BLACK
6
CONTINUOUS
10
131.652
20
-36.9119
11
131.652
21
-37.15
0
LINE
8
BLACK
6
CONTINUOUS
10
131.652
20
-37.15
11
131.7
21
-37.2452
0
LINE
8
BLACK
6
CONTINUOUS
10
131.7
20
-37.2452
11
131.748
21
-37.2929
0
LINE
8
BLACK
6
CONTINUOUS
10
131.748
20
-37.2929
11
131.843
21
-37.3405
0
LINE
8
BLACK
6
CONTINUOUS
10
131.843
20
-37.3405
11
131.938
21
-37.3405
0
LINE
8
BLACK
6
CONTINUOUS
10
131.938
20
-37.3405
11
132.081
21
-37.2929
0
LINE
8
BLACK
6
CONTINUOUS
10
132.081
20
-37.2929
11
132.652
21
-36.7214
0
LINE
8
BLACK
6
CONTINUOUS
10
132.652
20
-36.7214
11
132.652
21
-37.3405
0
LINE
8
BLACK
6
CONTINUOUS
10
139.652
20
-36.4833
11
139.652
21
-36.0071
0
LINE
8
BLACK
6
CONTINUOUS
10
139.652
20
-36.0071
11
138.652
21
-36.0071
0
LINE
8
BLACK
6
CONTINUOUS
10
138.652
20
-36.7214
11
138.652
21
-37.3405
0
LINE
8
BLACK
6
CONTINUOUS
10
138.652
20
-37.3405
11
139.033
21
-37.0071
0
LINE
8
BLACK
6
CONTINUOUS
10
139.033
20
-37.0071
11
139.033
21
-37.15
0
LINE
8
BLACK
6
CONTINUOUS
10
139.033
20
-37.15
11
139.081
21
-37.2452
0
LINE
8
BLACK
6
CONTINUOUS
10
139.081
20
-37.2452
11
139.129
21
-37.2929
0
LINE
8
BLACK
6
CONTINUOUS
10
139.129
20
-37.2929
11
139.224
21
-37.3405
0
LINE
8
BLACK
6
CONTINUOUS
10
139.224
20
-37.3405
11
139.462
21
-37.3405
0
LINE
8
BLACK
6
CONTINUOUS
10
139.462
20
-37.3405
11
139.557
21
-37.2929
0
LINE
8
BLACK
6
CONTINUOUS
10
139.557
20
-37.2929
11
139.605
21
-37.2452
0
LINE
8
BLACK
6
CONTINUOUS
10
139.605
20
-37.2452
11
139.652
21
-37.15
0
LINE
8
BLACK
6
CONTINUOUS
10
139.652
20
-37.15
11
139.652
21
-36.8643
0
LINE
8
BLACK
6
CONTINUOUS
10
139.652
20
-36.8643
11
139.605
21
-36.769
0
LINE
8
BLACK
6
CONTINUOUS
10
139.605
20
-36.769
11
139.557
21
-36.7214
0
LINE
8
BLACK
6
CONTINUOUS
10
146.652
20
-36.4833
11
146.652
21
-36.0071
0
LINE
8
BLACK
6
CONTINUOUS
10
146.652
20
-36.0071
11
145.652
21
-36.0071
0
LINE
8
BLACK
6
CONTINUOUS
10
145.986
20
-37.2452
11
146.652
21
-37.2452
0
LINE
8
BLACK
6
CONTINUOUS
10
145.605
20
-37.0071
11
146.319
21
-36.769
0
LINE
8
BLACK
6
CONTINUOUS
10
146.319
20
-36.769
11
146.319
21
-37.3881
0
LINE
8
BLACK
6
CONTINUOUS
10
153.652
20
-36.4833
11
153.652
21
-36.0071
0
LINE
8
BLACK
6
CONTINUOUS
10
153.652
20
-36.0071
11
152.652
21
-36.0071
0
LINE
8
BLACK
6
CONTINUOUS
10
152.652
20
-37.2929
11
152.652
21
-36.8167
0
LINE
8
BLACK
6
CONTINUOUS
10
152.652
20
-36.8167
11
153.129
21
-36.769
0
LINE
8
BLACK
6
CONTINUOUS
10
153.129
20
-36.769
11
153.081
21
-36.8167
0
LINE
8
BLACK
6
CONTINUOUS
10
153.081
20
-36.8167
11
153.033
21
-36.9119
0
LINE
8
BLACK
6
CONTINUOUS
10
153.033
20
-36.9119
11
153.033
21
-37.15
0
LINE
8
BLACK
6
CONTINUOUS
10
153.033
20
-37.15
11
153.081
21
-37.2452
0
LINE
8
BLACK
6
CONTINUOUS
10
153.081
20
-37.2452
11
153.129
21
-37.2929
0
LINE
8
BLACK
6
CONTINUOUS
10
153.129
20
-37.2929
11
153.224
21
-37.3405
0
LINE
8
BLACK
6
CONTINUOUS
10
153.224
20
-37.3405
11
153.462
21
-37.3405
0
LINE
8
BLACK
6
CONTINUOUS
10
153.462
20
-37.3405
11
153.557
21
-37.2929
0
LINE
8
BLACK
6
CONTINUOUS
10
153.557
20
-37.2929
11
153.605
21
-37.2452
0
LINE
8
BLACK
6
CONTINUOUS
10
153.605
20
-37.2452
11
153.652
21
-37.15
0
LINE
8
BLACK
6
CONTINUOUS
10
153.652
20
-37.15
11
153.652
21
-36.9119
0
LINE
8
BLACK
6
CONTINUOUS
10
153.652
20
-36.9119
11
153.605
21
-36.8167
0
LINE
8
BLACK
6
CONTINUOUS
10
153.605
20
-36.8167
11
153.557
21
-36.769
0
LINE
8
BLACK
6
CONTINUOUS
10
143.952
20
-99.4524
11
144.286
21
-98.9762
0
LINE
8
BLACK
6
CONTINUOUS
10
144.524
20
-99.4524
11
144.524
21
-98.4524
0
LINE
8
BLACK
6
CONTINUOUS
10
144.524
20
-98.4524
11
144.143
21
-98.4524
0
LINE
8
BLACK
6
CONTINUOUS
10
144.143
20
-98.4524
11
144.048
21
-98.5
0
LINE
8
BLACK
6
CONTINUOUS
10
144.048
20
-98.5
11
144
21
-98.5476
0
LINE
8
BLACK
6
CONTINUOUS
10
144
20
-98.5476
11
143.952
21
-98.6429
0
LINE
8
BLACK
6
CONTINUOUS
10
143.952
20
-98.6429
11
143.952
21
-98.7857
0
LINE
8
BLACK
6
CONTINUOUS
10
143.952
20
-98.7857
11
144
21
-98.881
0
LINE
8
BLACK
6
CONTINUOUS
10
144
20
-98.881
11
144.048
21
-98.9286
0
LINE
8
BLACK
6
CONTINUOUS
10
144.048
20
-98.9286
11
144.143
21
-98.9762
0
LINE
8
BLACK
6
CONTINUOUS
10
144.143
20
-98.9762
11
144.524
21
-98.9762
0
LINE
8
BLACK
6
CONTINUOUS
10
143.524
20
-98.9286
11
143.19
21
-98.9286
0
LINE
8
BLACK
6
CONTINUOUS
10
143.048
20
-99.4524
11
143.524
21
-99.4524
0
LINE
8
BLACK
6
CONTINUOUS
10
143.524
20
-99.4524
11
143.524
21
-98.4524
0
LINE
8
BLACK
6
CONTINUOUS
10
143.524
20
-98.4524
11
143.048
21
-98.4524
0
LINE
8
BLACK
6
CONTINUOUS
10
142.667
20
-99.4048
11
142.524
21
-99.4524
0
LINE
8
BLACK
6
CONTINUOUS
10
142.524
20
-99.4524
11
142.286
21
-99.4524
0
LINE
8
BLACK
6
CONTINUOUS
10
142.286
20
-99.4524
11
142.19
21
-99.4048
0
LINE
8
BLACK
6
CONTINUOUS
10
142.19
20
-99.4048
11
142.143
21
-99.3571
0
LINE
8
BLACK
6
CONTINUOUS
10
142.143
20
-99.3571
11
142.095
21
-99.2619
0
LINE
8
BLACK
6
CONTINUOUS
10
142.095
20
-99.2619
11
142.095
21
-99.1667
0
LINE
8
BLACK
6
CONTINUOUS
10
142.095
20
-99.1667
11
142.143
21
-99.0714
0
LINE
8
BLACK
6
CONTINUOUS
10
142.143
20
-99.0714
11
142.19
21
-99.0238
0
LINE
8
BLACK
6
CONTINUOUS
10
142.19
20
-99.0238
11
142.286
21
-98.9762
0
LINE
8
BLACK
6
CONTINUOUS
10
142.286
20
-98.9762
11
142.476
21
-98.9286
0
LINE
8
BLACK
6
CONTINUOUS
10
142.476
20
-98.9286
11
142.571
21
-98.881
0
LINE
8
BLACK
6
CONTINUOUS
10
142.571
20
-98.881
11
142.619
21
-98.8333
0
LINE
8
BLACK
6
CONTINUOUS
10
142.619
20
-98.8333
11
142.667
21
-98.7381
0
LINE
8
BLACK
6
CONTINUOUS
10
142.667
20
-98.7381
11
142.667
21
-98.6429
0
LINE
8
BLACK
6
CONTINUOUS
10
142.667
20
-98.6429
11
142.619
21
-98.5476
0
LINE
8
BLACK
6
CONTINUOUS
10
142.619
20
-98.5476
11
142.571
21
-98.5
0
LINE
8
BLACK
6
CONTINUOUS
10
142.571
20
-98.5
11
142.476
21
-98.4524
0
LINE
8
BLACK
6
CONTINUOUS
10
142.476
20
-98.4524
11
142.238
21
-98.4524
0
LINE
8
BLACK
6
CONTINUOUS
10
142.238
20
-98.4524
11
142.095
21
-98.5
0
LINE
8
BLACK
6
CONTINUOUS
10
141.667
20
-98.9286
11
141.333
21
-98.9286
0
LINE
8
BLACK
6
CONTINUOUS
10
141.19
20
-99.4524
11
141.667
21
-99.4524
0
LINE
8
BLACK
6
CONTINUOUS
10
141.667
20
-99.4524
11
141.667
21
-98.4524
0
LINE
8
BLACK
6
CONTINUOUS
10
141.667
20
-98.4524
11
141.19
21
-98.4524
0
LINE
8
BLACK
6
CONTINUOUS
10
140.905
20
-98.4524
11
140.333
21
-98.4524
0
LINE
8
BLACK
6
CONTINUOUS
10
140.619
20
-99.4524
11
140.619
21
-98.4524
0
LINE
8
BLACK
6
CONTINUOUS
10
121.189
20
-34.0036
11
120.439
21
-34.0036
0
LINE
8
BLACK
6
CONTINUOUS
10
120.439
20
-34.0036
11
120.975
21
-34.2536
0
LINE
8
BLACK
6
CONTINUOUS
10
120.975
20
-34.2536
11
120.439
21
-34.5036
0
LINE
8
BLACK
6
CONTINUOUS
10
120.439
20
-34.5036
11
121.189
21
-34.5036
0
LINE
8
BLACK
6
CONTINUOUS
10
121.189
20
-34.8607
11
120.689
21
-34.8607
0
LINE
8
BLACK
6
CONTINUOUS
10
120.439
20
-34.8607
11
120.475
21
-34.825
0
LINE
8
BLACK
6
CONTINUOUS
10
120.475
20
-34.825
11
120.511
21
-34.8607
0
LINE
8
BLACK
6
CONTINUOUS
10
120.511
20
-34.8607
11
120.475
21
-34.8964
0
LINE
8
BLACK
6
CONTINUOUS
10
120.475
20
-34.8964
11
120.439
21
-34.8607
0
LINE
8
BLACK
6
CONTINUOUS
10
120.439
20
-34.8607
11
120.511
21
-34.8607
0
LINE
8
BLACK
6
CONTINUOUS
10
121.154
20
-35.5393
11
121.189
21
-35.4679
0
LINE
8
BLACK
6
CONTINUOUS
10
121.189
20
-35.4679
11
121.189
21
-35.325
0
LINE
8
BLACK
6
CONTINUOUS
10
121.189
20
-35.325
11
121.154
21
-35.2536
0
LINE
8
BLACK
6
CONTINUOUS
10
121.154
20
-35.2536
11
121.118
21
-35.2179
0
LINE
8
BLACK
6
CONTINUOUS
10
121.118
20
-35.2179
11
121.046
21
-35.1821
0
LINE
8
BLACK
6
CONTINUOUS
10
121.046
20
-35.1821
11
120.832
21
-35.1821
0
LINE
8
BLACK
6
CONTINUOUS
10
120.832
20
-35.1821
11
120.761
21
-35.2179
0
LINE
8
BLACK
6
CONTINUOUS
10
120.761
20
-35.2179
11
120.725
21
-35.2536
0
LINE
8
BLACK
6
CONTINUOUS
10
120.725
20
-35.2536
11
120.689
21
-35.325
0
LINE
8
BLACK
6
CONTINUOUS
10
120.689
20
-35.325
11
120.689
21
-35.4679
0
LINE
8
BLACK
6
CONTINUOUS
10
120.689
20
-35.4679
11
120.725
21
-35.5393
0
LINE
8
BLACK
6
CONTINUOUS
10
121.189
20
-35.8607
11
120.689
21
-35.8607
0
LINE
8
BLACK
6
CONTINUOUS
10
120.832
20
-35.8607
11
120.761
21
-35.8964
0
LINE
8
BLACK
6
CONTINUOUS
10
120.761
20
-35.8964
11
120.725
21
-35.9321
0
LINE
8
BLACK
6
CONTINUOUS
10
120.725
20
-35.9321
11
120.689
21
-36.0036
0
LINE
8
BLACK
6
CONTINUOUS
10
120.689
20
-36.0036
11
120.689
21
-36.075
0
LINE
8
BLACK
6
CONTINUOUS
10
121.189
20
-36.4321
11
121.154
21
-36.3607
0
LINE
8
BLACK
6
CONTINUOUS
10
121.154
20
-36.3607
11
121.118
21
-36.325
0
LINE
8
BLACK
6
CONTINUOUS
10
121.118
20
-36.325
11
121.046
21
-36.2893
0
LINE
8
BLACK
6
CONTINUOUS
10
121.046
20
-36.2893
11
120.832
21
-36.2893
0
LINE
8
BLACK
6
CONTINUOUS
10
120.832
20
-36.2893
11
120.761
21
-36.325
0
LINE
8
BLACK
6
CONTINUOUS
10
120.761
20
-36.325
11
120.725
21
-36.3607
0
LINE
8
BLACK
6
CONTINUOUS
10
120.725
20
-36.3607
11
120.689
21
-36.4321
0
LINE
8
BLACK
6
CONTINUOUS
10
120.689
20
-36.4321
11
120.689
21
-36.5393
0
LINE
8
BLACK
6
CONTINUOUS
10
120.689
20
-36.5393
11
120.725
21
-36.6107
0
LINE
8
BLACK
6
CONTINUOUS
10
120.725
20
-36.6107
11
120.761
21
-36.6464
0
LINE
8
BLACK
6
CONTINUOUS
10
120.761
20
-36.6464
11
120.832
21
-36.6821
0
LINE
8
BLACK
6
CONTINUOUS
10
120.832
20
-36.6821
11
121.046
21
-36.6821
0
LINE
8
BLACK
6
CONTINUOUS
10
121.046
20
-36.6821
11
121.118
21
-36.6464
0
LINE
8
BLACK
6
CONTINUOUS
10
121.118
20
-36.6464
11
121.154
21
-36.6107
0
LINE
8
BLACK
6
CONTINUOUS
10
121.154
20
-36.6107
11
121.189
21
-36.5393
0
LINE
8
BLACK
6
CONTINUOUS
10
121.189
20
-36.5393
11
121.189
21
-36.4321
0
LINE
8
BLACK
6
CONTINUOUS
10
120.439
20
-37.0036
11
121.046
21
-37.0036
0
LINE
8
BLACK
6
CONTINUOUS
10
121.046
20
-37.0036
11
121.118
21
-37.0393
0
LINE
8
BLACK
6
CONTINUOUS
10
121.118
20
-37.0393
11
121.154
21
-37.075
0
LINE
8
BLACK
6
CONTINUOUS
10
121.154
20
-37.075
11
121.189
21
-37.1464
0
LINE
8
BLACK
6
CONTINUOUS
10
121.189
20
-37.1464
11
121.189
21
-37.2893
0
LINE
8
BLACK
6
CONTINUOUS
10
121.189
20
-37.2893
11
121.154
21
-37.3607
0
LINE
8
BLACK
6
CONTINUOUS
10
121.154
20
-37.3607
11
121.118
21
-37.3964
0
LINE
8
BLACK
6
CONTINUOUS
10
121.118
20
-37.3964
11
121.046
21
-37.4321
0
LINE
8
BLACK
6
CONTINUOUS
10
121.046
20
-37.4321
11
120.439
21
-37.4321
0
LINE
8
BLACK
6
CONTINUOUS
10
121.154
20
-37.7536
11
121.189
21
-37.8607
0
LINE
8
BLACK
6
CONTINUOUS
10
121.189
20
-37.8607
11
121.189
21
-38.0393
0
LINE
8
BLACK
6
CONTINUOUS
10
121.189
20
-38.0393
11
121.154
21
-38.1107
0
LINE
8
BLACK
6
CONTINUOUS
10
121.154
20
-38.1107
11
121.118
21
-38.1464
0
LINE
8
BLACK
6
CONTINUOUS
10
121.118
20
-38.1464
11
121.046
21
-38.1821
0
LINE
8
BLACK
6
CONTINUOUS
10
121.046
20
-38.1821
11
120.975
21
-38.1821
0
LINE
8
BLACK
6
CONTINUOUS
10
120.975
20
-38.1821
11
120.904
21
-38.1464
0
LINE
8
BLACK
6
CONTINUOUS
10
120.904
20
-38.1464
11
120.868
21
-38.1107
0
LINE
8
BLACK
6
CONTINUOUS
10
120.868
20
-38.1107
11
120.832
21
-38.0393
0
LINE
8
BLACK
6
CONTINUOUS
10
120.832
20
-38.0393
11
120.796
21
-37.8964
0
LINE
8
BLACK
6
CONTINUOUS
10
120.796
20
-37.8964
11
120.761
21
-37.825
0
LINE
8
BLACK
6
CONTINUOUS
10
120.761
20
-37.825
11
120.725
21
-37.7893
0
LINE
8
BLACK
6
CONTINUOUS
10
120.725
20
-37.7893
11
120.654
21
-37.7536
0
LINE
8
BLACK
6
CONTINUOUS
10
120.654
20
-37.7536
11
120.582
21
-37.7536
0
LINE
8
BLACK
6
CONTINUOUS
10
120.582
20
-37.7536
11
120.511
21
-37.7893
0
LINE
8
BLACK
6
CONTINUOUS
10
120.511
20
-37.7893
11
120.475
21
-37.825
0
LINE
8
BLACK
6
CONTINUOUS
10
120.475
20
-37.825
11
120.439
21
-37.8964
0
LINE
8
BLACK
6
CONTINUOUS
10
120.439
20
-37.8964
11
120.439
21
-38.075
0
LINE
8
BLACK
6
CONTINUOUS
10
120.439
20
-38.075
11
120.475
21
-38.1821
0
LINE
8
BLACK
6
CONTINUOUS
10
120.796
20
-38.7536
11
120.832
21
-38.8607
0
LINE
8
BLACK
6
CONTINUOUS
10
120.832
20
-38.8607
11
120.868
21
-38.8964
0
LINE
8
BLACK
6
CONTINUOUS
10
120.868
20
-38.8964
11
120.939
21
-38.9321
0
LINE
8
BLACK
6
CONTINUOUS
10
120.939
20
-38.9321
11
121.046
21
-38.9321
0
LINE
8
BLACK
6
CONTINUOUS
10
121.046
20
-38.9321
11
121.118
21
-38.8964
0
LINE
8
BLACK
6
CONTINUOUS
10
121.118
20
-38.8964
11
121.154
21
-38.8607
0
LINE
8
BLACK
6
CONTINUOUS
10
121.154
20
-38.8607
11
121.189
21
-38.7893
0
LINE
8
BLACK
6
CONTINUOUS
10
121.189
20
-38.7893
11
121.189
21
-38.5036
0
LINE
8
BLACK
6
CONTINUOUS
10
121.189
20
-38.5036
11
120.439
21
-38.5036
0
LINE
8
BLACK
6
CONTINUOUS
10
120.439
20
-38.5036
11
120.439
21
-38.7536
0
LINE
8
BLACK
6
CONTINUOUS
10
120.439
20
-38.7536
11
120.475
21
-38.825
0
LINE
8
BLACK
6
CONTINUOUS
10
120.475
20
-38.825
11
120.511
21
-38.8607
0
LINE
8
BLACK
6
CONTINUOUS
10
120.511
20
-38.8607
11
120.582
21
-38.8964
0
LINE
8
BLACK
6
CONTINUOUS
10
120.582
20
-38.8964
11
120.654
21
-38.8964
0
LINE
8
BLACK
6
CONTINUOUS
10
120.654
20
-38.8964
11
120.725
21
-38.8607
0
LINE
8
BLACK
6
CONTINUOUS
10
120.725
20
-38.8607
11
120.761
21
-38.825
0
LINE
8
BLACK
6
CONTINUOUS
10
120.761
20
-38.825
11
120.796
21
-38.7536
0
LINE
8
BLACK
6
CONTINUOUS
10
120.796
20
-38.7536
11
120.796
21
-38.5036
0
LINE
8
BLACK
6
CONTINUOUS
10
150.754
20
-48.0462
11
150.718
21
-47.9505
0
LINE
8
BLACK
6
CONTINUOUS
10
150.718
20
-47.9505
11
150.682
21
-47.9186
0
LINE
8
BLACK
6
CONTINUOUS
10
150.682
20
-47.9186
11
150.611
21
-47.8867
0
LINE
8
BLACK
6
CONTINUOUS
10
150.611
20
-47.8867
11
150.504
21
-47.8867
0
LINE
8
BLACK
6
CONTINUOUS
10
150.504
20
-47.8867
11
150.432
21
-47.9186
0
LINE
8
BLACK
6
CONTINUOUS
10
150.432
20
-47.9186
11
150.396
21
-47.9505
0
LINE
8
BLACK
6
CONTINUOUS
10
150.396
20
-47.9505
11
150.361
21
-48.0143
0
LINE
8
BLACK
6
CONTINUOUS
10
150.361
20
-48.0143
11
150.361
21
-48.2695
0
LINE
8
BLACK
6
CONTINUOUS
10
150.361
20
-48.2695
11
151.111
21
-48.2695
0
LINE
8
BLACK
6
CONTINUOUS
10
151.111
20
-48.2695
11
151.111
21
-48.0462
0
LINE
8
BLACK
6
CONTINUOUS
10
151.111
20
-48.0462
11
151.075
21
-47.9824
0
LINE
8
BLACK
6
CONTINUOUS
10
151.075
20
-47.9824
11
151.039
21
-47.9505
0
LINE
8
BLACK
6
CONTINUOUS
10
151.039
20
-47.9505
11
150.968
21
-47.9186
0
LINE
8
BLACK
6
CONTINUOUS
10
150.968
20
-47.9186
11
150.896
21
-47.9186
0
LINE
8
BLACK
6
CONTINUOUS
10
150.896
20
-47.9186
11
150.825
21
-47.9505
0
LINE
8
BLACK
6
CONTINUOUS
10
150.825
20
-47.9505
11
150.789
21
-47.9824
0
LINE
8
BLACK
6
CONTINUOUS
10
150.789
20
-47.9824
11
150.754
21
-48.0462
0
LINE
8
BLACK
6
CONTINUOUS
10
150.754
20
-48.0462
11
150.754
21
-48.2695
0
LINE
8
BLACK
6
CONTINUOUS
10
150.861
20
-47.3124
11
150.361
21
-47.3124
0
LINE
8
BLACK
6
CONTINUOUS
10
151.146
20
-47.4719
11
150.611
21
-47.6314
0
LINE
8
BLACK
6
CONTINUOUS
10
150.611
20
-47.6314
11
150.611
21
-47.2167
0
LINE
8
BLACK
6
CONTINUOUS
10
151.146
20
-46.4829
11
150.182
21
-47.0571
0
LINE
8
BLACK
6
CONTINUOUS
10
150.789
20
-46.1638
11
150.825
21
-46.2276
0
LINE
8
BLACK
6
CONTINUOUS
10
150.825
20
-46.2276
11
150.861
21
-46.2595
0
LINE
8
BLACK
6
CONTINUOUS
10
150.861
20
-46.2595
11
150.932
21
-46.2914
0
LINE
8
BLACK
6
CONTINUOUS
10
150.932
20
-46.2914
11
150.968
21
-46.2914
0
LINE
8
BLACK
6
CONTINUOUS
10
150.968
20
-46.2914
11
151.039
21
-46.2595
0
LINE
8
BLACK
6
CONTINUOUS
10
151.039
20
-46.2595
11
151.075
21
-46.2276
0
LINE
8
BLACK
6
CONTINUOUS
10
151.075
20
-46.2276
11
151.111
21
-46.1638
0
LINE
8
BLACK
6
CONTINUOUS
10
151.111
20
-46.1638
11
151.111
21
-46.0362
0
LINE
8
BLACK
6
CONTINUOUS
10
151.111
20
-46.0362
11
151.075
21
-45.9724
0
LINE
8
BLACK
6
CONTINUOUS
10
151.075
20
-45.9724
11
151.039
21
-45.9405
0
LINE
8
BLACK
6
CONTINUOUS
10
151.039
20
-45.9405
11
150.968
21
-45.9086
0
LINE
8
BLACK
6
CONTINUOUS
10
150.968
20
-45.9086
11
150.932
21
-45.9086
0
LINE
8
BLACK
6
CONTINUOUS
10
150.932
20
-45.9086
11
150.861
21
-45.9405
0
LINE
8
BLACK
6
CONTINUOUS
10
150.861
20
-45.9405
11
150.825
21
-45.9724
0
LINE
8
BLACK
6
CONTINUOUS
10
150.825
20
-45.9724
11
150.789
21
-46.0362
0
LINE
8
BLACK
6
CONTINUOUS
10
150.789
20
-46.0362
11
150.789
21
-46.1638
0
LINE
8
BLACK
6
CONTINUOUS
10
150.789
20
-46.1638
11
150.754
21
-46.2276
0
LINE
8
BLACK
6
CONTINUOUS
10
150.754
20
-46.2276
11
150.718
21
-46.2595
0
LINE
8
BLACK
6
CONTINUOUS
10
150.718
20
-46.2595
11
150.646
21
-46.2914
0
LINE
8
BLACK
6
CONTINUOUS
10
150.646
20
-46.2914
11
150.504
21
-46.2914
0
LINE
8
BLACK
6
CONTINUOUS
10
150.504
20
-46.2914
11
150.432
21
-46.2595
0
LINE
8
BLACK
6
CONTINUOUS
10
150.432
20
-46.2595
11
150.396
21
-46.2276
0
LINE
8
BLACK
6
CONTINUOUS
10
150.396
20
-46.2276
11
150.361
21
-46.1638
0
LINE
8
BLACK
6
CONTINUOUS
10
150.361
20
-46.1638
11
150.361
21
-46.0362
0
LINE
8
BLACK
6
CONTINUOUS
10
150.361
20
-46.0362
11
150.396
21
-45.9724
0
LINE
8
BLACK
6
CONTINUOUS
10
150.396
20
-45.9724
11
150.432
21
-45.9405
0
LINE
8
BLACK
6
CONTINUOUS
10
150.432
20
-45.9405
11
150.504
21
-45.9086
0
LINE
8
BLACK
6
CONTINUOUS
10
150.504
20
-45.9086
11
150.646
21
-45.9086
0
LINE
8
BLACK
6
CONTINUOUS
10
150.646
20
-45.9086
11
150.718
21
-45.9405
0
LINE
8
BLACK
6
CONTINUOUS
10
150.718
20
-45.9405
11
150.754
21
-45.9724
0
LINE
8
BLACK
6
CONTINUOUS
10
150.754
20
-45.9724
11
150.789
21
-46.0362
0
LINE
8
BLACK
6
CONTINUOUS
10
127.561
20
-49.3736
11
128.311
21
-49.3736
0
LINE
8
BLACK
6
CONTINUOUS
10
128.311
20
-49.3736
11
128.311
21
-49.214
0
LINE
8
BLACK
6
CONTINUOUS
10
128.311
20
-49.214
11
128.275
21
-49.1183
0
LINE
8
BLACK
6
CONTINUOUS
10
128.275
20
-49.1183
11
128.204
21
-49.0545
0
LINE
8
BLACK
6
CONTINUOUS
10
128.204
20
-49.0545
11
128.132
21
-49.0226
0
LINE
8
BLACK
6
CONTINUOUS
10
128.132
20
-49.0226
11
127.989
21
-48.9907
0
LINE
8
BLACK
6
CONTINUOUS
10
127.989
20
-48.9907
11
127.882
21
-48.9907
0
LINE
8
BLACK
6
CONTINUOUS
10
127.882
20
-48.9907
11
127.739
21
-49.0226
0
LINE
8
BLACK
6
CONTINUOUS
10
127.739
20
-49.0226
11
127.668
21
-49.0545
0
LINE
8
BLACK
6
CONTINUOUS
10
127.668
20
-49.0545
11
127.596
21
-49.1183
0
LINE
8
BLACK
6
CONTINUOUS
10
127.596
20
-49.1183
11
127.561
21
-49.214
0
LINE
8
BLACK
6
CONTINUOUS
10
127.561
20
-49.214
11
127.561
21
-49.3736
0
LINE
8
BLACK
6
CONTINUOUS
10
128.239
20
-48.7355
11
128.275
21
-48.7036
0
LINE
8
BLACK
6
CONTINUOUS
10
128.275
20
-48.7036
11
128.311
21
-48.6398
0
LINE
8
BLACK
6
CONTINUOUS
10
128.311
20
-48.6398
11
128.311
21
-48.4802
0
LINE
8
BLACK
6
CONTINUOUS
10
128.311
20
-48.4802
11
128.275
21
-48.4164
0
LINE
8
BLACK
6
CONTINUOUS
10
128.275
20
-48.4164
11
128.239
21
-48.3845
0
LINE
8
BLACK
6
CONTINUOUS
10
128.239
20
-48.3845
11
128.168
21
-48.3526
0
LINE
8
BLACK
6
CONTINUOUS
10
128.168
20
-48.3526
11
128.096
21
-48.3526
0
LINE
8
BLACK
6
CONTINUOUS
10
128.096
20
-48.3526
11
127.989
21
-48.3845
0
LINE
8
BLACK
6
CONTINUOUS
10
127.989
20
-48.3845
11
127.561
21
-48.7674
0
LINE
8
BLACK
6
CONTINUOUS
10
127.561
20
-48.7674
11
127.561
21
-48.3526
0
LINE
8
BLACK
6
CONTINUOUS
10
128.346
20
-47.5869
11
127.382
21
-48.1612
0
LINE
8
BLACK
6
CONTINUOUS
10
127.561
20
-46.9807
11
127.918
21
-47.204
0
LINE
8
BLACK
6
CONTINUOUS
10
127.561
20
-47.3636
11
128.311
21
-47.3636
0
LINE
8
BLACK
6
CONTINUOUS
10
128.311
20
-47.3636
11
128.311
21
-47.1083
0
LINE
8
BLACK
6
CONTINUOUS
10
128.311
20
-47.1083
11
128.275
21
-47.0445
0
LINE
8
BLACK
6
CONTINUOUS
10
128.275
20
-47.0445
11
128.239
21
-47.0126
0
LINE
8
BLACK
6
CONTINUOUS
10
128.239
20
-47.0126
11
128.168
21
-46.9807
0
LINE
8
BLACK
6
CONTINUOUS
10
128.168
20
-46.9807
11
128.061
21
-46.9807
0
LINE
8
BLACK
6
CONTINUOUS
10
128.061
20
-46.9807
11
127.989
21
-47.0126
0
LINE
8
BLACK
6
CONTINUOUS
10
127.989
20
-47.0126
11
127.954
21
-47.0445
0
LINE
8
BLACK
6
CONTINUOUS
10
127.954
20
-47.0445
11
127.918
21
-47.1083
0
LINE
8
BLACK
6
CONTINUOUS
10
127.918
20
-47.1083
11
127.918
21
-47.3636
0
LINE
8
BLACK
6
CONTINUOUS
10
128.311
20
-46.7574
11
127.561
21
-46.3107
0
LINE
8
BLACK
6
CONTINUOUS
10
128.311
20
-46.3107
11
127.561
21
-46.7574
0
LINE
8
BLACK
6
CONTINUOUS
10
127.561
20
-45.7045
11
127.561
21
-46.0874
0
LINE
8
BLACK
6
CONTINUOUS
10
127.561
20
-45.896
11
128.311
21
-45.896
0
LINE
8
BLACK
6
CONTINUOUS
10
128.311
20
-45.896
11
128.204
21
-45.9598
0
LINE
8
BLACK
6
CONTINUOUS
10
128.204
20
-45.9598
11
128.132
21
-46.0236
0
LINE
8
BLACK
6
CONTINUOUS
10
128.132
20
-46.0236
11
128.096
21
-46.0874
0
LINE
8
BLACK
6
CONTINUOUS
10
153.254
20
-48.0462
11
153.218
21
-47.9505
0
LINE
8
BLACK
6
CONTINUOUS
10
153.218
20
-47.9505
11
153.182
21
-47.9186
0
LINE
8
BLACK
6
CONTINUOUS
10
153.182
20
-47.9186
11
153.111
21
-47.8867
0
LINE
8
BLACK
6
CONTINUOUS
10
153.111
20
-47.8867
11
153.004
21
-47.8867
0
LINE
8
BLACK
6
CONTINUOUS
10
153.004
20
-47.8867
11
152.932
21
-47.9186
0
LINE
8
BLACK
6
CONTINUOUS
10
152.932
20
-47.9186
11
152.896
21
-47.9505
0
LINE
8
BLACK
6
CONTINUOUS
10
152.896
20
-47.9505
11
152.861
21
-48.0143
0
LINE
8
BLACK
6
CONTINUOUS
10
152.861
20
-48.0143
11
152.861
21
-48.2695
0
LINE
8
BLACK
6
CONTINUOUS
10
152.861
20
-48.2695
11
153.611
21
-48.2695
0
LINE
8
BLACK
6
CONTINUOUS
10
153.611
20
-48.2695
11
153.611
21
-48.0462
0
LINE
8
BLACK
6
CONTINUOUS
10
153.611
20
-48.0462
11
153.575
21
-47.9824
0
LINE
8
BLACK
6
CONTINUOUS
10
153.575
20
-47.9824
11
153.539
21
-47.9505
0
LINE
8
BLACK
6
CONTINUOUS
10
153.539
20
-47.9505
11
153.468
21
-47.9186
0
LINE
8
BLACK
6
CONTINUOUS
10
153.468
20
-47.9186
11
153.396
21
-47.9186
0
LINE
8
BLACK
6
CONTINUOUS
10
153.396
20
-47.9186
11
153.325
21
-47.9505
0
LINE
8
BLACK
6
CONTINUOUS
10
153.325
20
-47.9505
11
153.289
21
-47.9824
0
LINE
8
BLACK
6
CONTINUOUS
10
153.289
20
-47.9824
11
153.254
21
-48.0462
0
LINE
8
BLACK
6
CONTINUOUS
10
153.254
20
-48.0462
11
153.254
21
-48.2695
0
LINE
8
BLACK
6
CONTINUOUS
10
153.611
20
-47.2805
11
153.611
21
-47.5995
0
LINE
8
BLACK
6
CONTINUOUS
10
153.611
20
-47.5995
11
153.254
21
-47.6314
0
LINE
8
BLACK
6
CONTINUOUS
10
153.254
20
-47.6314
11
153.289
21
-47.5995
0
LINE
8
BLACK
6
CONTINUOUS
10
153.289
20
-47.5995
11
153.325
21
-47.5357
0
LINE
8
BLACK
6
CONTINUOUS
10
153.325
20
-47.5357
11
153.325
21
-47.3762
0
LINE
8
BLACK
6
CONTINUOUS
10
153.325
20
-47.3762
11
153.289
21
-47.3124
0
LINE
8
BLACK
6
CONTINUOUS
10
153.289
20
-47.3124
11
153.254
21
-47.2805
0
LINE
8
BLACK
6
CONTINUOUS
10
153.254
20
-47.2805
11
153.182
21
-47.2486
0
LINE
8
BLACK
6
CONTINUOUS
10
153.182
20
-47.2486
11
153.004
21
-47.2486
0
LINE
8
BLACK
6
CONTINUOUS
10
153.004
20
-47.2486
11
152.932
21
-47.2805
0
LINE
8
BLACK
6
CONTINUOUS
10
152.932
20
-47.2805
11
152.896
21
-47.3124
0
LINE
8
BLACK
6
CONTINUOUS
10
152.896
20
-47.3124
11
152.861
21
-47.3762
0
LINE
8
BLACK
6
CONTINUOUS
10
152.861
20
-47.3762
11
152.861
21
-47.5357
0
LINE
8
BLACK
6
CONTINUOUS
10
152.861
20
-47.5357
11
152.896
21
-47.5995
0
LINE
8
BLACK
6
CONTINUOUS
10
152.896
20
-47.5995
11
152.932
21
-47.6314
0
LINE
8
BLACK
6
CONTINUOUS
10
153.646
20
-46.4829
11
152.682
21
-47.0571
0
LINE
8
BLACK
6
CONTINUOUS
10
152.861
20
-46.2276
11
152.861
21
-46.1
0
LINE
8
BLACK
6
CONTINUOUS
10
152.861
20
-46.1
11
152.896
21
-46.0362
0
LINE
8
BLACK
6
CONTINUOUS
10
152.896
20
-46.0362
11
152.932
21
-46.0043
0
LINE
8
BLACK
6
CONTINUOUS
10
152.932
20
-46.0043
11
153.039
21
-45.9405
0
LINE
8
BLACK
6
CONTINUOUS
10
153.039
20
-45.9405
11
153.182
21
-45.9086
0
LINE
8
BLACK
6
CONTINUOUS
10
153.182
20
-45.9086
11
153.468
21
-45.9086
0
LINE
8
BLACK
6
CONTINUOUS
10
153.468
20
-45.9086
11
153.539
21
-45.9405
0
LINE
8
BLACK
6
CONTINUOUS
10
153.539
20
-45.9405
11
153.575
21
-45.9724
0
LINE
8
BLACK
6
CONTINUOUS
10
153.575
20
-45.9724
11
153.611
21
-46.0362
0
LINE
8
BLACK
6
CONTINUOUS
10
153.611
20
-46.0362
11
153.611
21
-46.1638
0
LINE
8
BLACK
6
CONTINUOUS
10
153.611
20
-46.1638
11
153.575
21
-46.2276
0
LINE
8
BLACK
6
CONTINUOUS
10
153.575
20
-46.2276
11
153.539
21
-46.2595
0
LINE
8
BLACK
6
CONTINUOUS
10
153.539
20
-46.2595
11
153.468
21
-46.2914
0
LINE
8
BLACK
6
CONTINUOUS
10
153.468
20
-46.2914
11
153.289
21
-46.2914
0
LINE
8
BLACK
6
CONTINUOUS
10
153.289
20
-46.2914
11
153.218
21
-46.2595
0
LINE
8
BLACK
6
CONTINUOUS
10
153.218
20
-46.2595
11
153.182
21
-46.2276
0
LINE
8
BLACK
6
CONTINUOUS
10
153.182
20
-46.2276
11
153.146
21
-46.1638
0
LINE
8
BLACK
6
CONTINUOUS
10
153.146
20
-46.1638
11
153.146
21
-46.0362
0
LINE
8
BLACK
6
CONTINUOUS
10
153.146
20
-46.0362
11
153.182
21
-45.9724
0
LINE
8
BLACK
6
CONTINUOUS
10
153.182
20
-45.9724
11
153.218
21
-45.9405
0
LINE
8
BLACK
6
CONTINUOUS
10
153.218
20
-45.9405
11
153.289
21
-45.9086
0
LINE
8
BLACK
6
CONTINUOUS
10
142.782
20
-47.8867
11
142.746
21
-47.9186
0
LINE
8
BLACK
6
CONTINUOUS
10
142.746
20
-47.9186
11
142.711
21
-48.0143
0
LINE
8
BLACK
6
CONTINUOUS
10
142.711
20
-48.0143
11
142.711
21
-48.0781
0
LINE
8
BLACK
6
CONTINUOUS
10
142.711
20
-48.0781
11
142.746
21
-48.1738
0
LINE
8
BLACK
6
CONTINUOUS
10
142.746
20
-48.1738
11
142.818
21
-48.2376
0
LINE
8
BLACK
6
CONTINUOUS
10
142.818
20
-48.2376
11
142.889
21
-48.2695
0
LINE
8
BLACK
6
CONTINUOUS
10
142.889
20
-48.2695
11
143.032
21
-48.3014
0
LINE
8
BLACK
6
CONTINUOUS
10
143.032
20
-48.3014
11
143.139
21
-48.3014
0
LINE
8
BLACK
6
CONTINUOUS
10
143.139
20
-48.3014
11
143.282
21
-48.2695
0
LINE
8
BLACK
6
CONTINUOUS
10
143.282
20
-48.2695
11
143.354
21
-48.2376
0
LINE
8
BLACK
6
CONTINUOUS
10
143.354
20
-48.2376
11
143.425
21
-48.1738
0
LINE
8
BLACK
6
CONTINUOUS
10
143.425
20
-48.1738
11
143.461
21
-48.0781
0
LINE
8
BLACK
6
CONTINUOUS
10
143.461
20
-48.0781
11
143.461
21
-48.0143
0
LINE
8
BLACK
6
CONTINUOUS
10
143.461
20
-48.0143
11
143.425
21
-47.9186
0
LINE
8
BLACK
6
CONTINUOUS
10
143.425
20
-47.9186
11
143.389
21
-47.8867
0
LINE
8
BLACK
6
CONTINUOUS
10
143.461
20
-47.3124
11
143.461
21
-47.44
0
LINE
8
BLACK
6
CONTINUOUS
10
143.461
20
-47.44
11
143.425
21
-47.5038
0
LINE
8
BLACK
6
CONTINUOUS
10
143.425
20
-47.5038
11
143.389
21
-47.5357
0
LINE
8
BLACK
6
CONTINUOUS
10
143.389
20
-47.5357
11
143.282
21
-47.5995
0
LINE
8
BLACK
6
CONTINUOUS
10
143.282
20
-47.5995
11
143.139
21
-47.6314
0
LINE
8
BLACK
6
CONTINUOUS
10
143.139
20
-47.6314
11
142.854
21
-47.6314
0
LINE
8
BLACK
6
CONTINUOUS
10
142.854
20
-47.6314
11
142.782
21
-47.5995
0
LINE
8
BLACK
6
CONTINUOUS
10
142.782
20
-47.5995
11
142.746
21
-47.5676
0
LINE
8
BLACK
6
CONTINUOUS
10
142.746
20
-47.5676
11
142.711
21
-47.5038
0
LINE
8
BLACK
6
CONTINUOUS
10
142.711
20
-47.5038
11
142.711
21
-47.3762
0
LINE
8
BLACK
6
CONTINUOUS
10
142.711
20
-47.3762
11
142.746
21
-47.3124
0
LINE
8
BLACK
6
CONTINUOUS
10
142.746
20
-47.3124
11
142.782
21
-47.2805
0
LINE
8
BLACK
6
CONTINUOUS
10
142.782
20
-47.2805
11
142.854
21
-47.2486
0
LINE
8
BLACK
6
CONTINUOUS
10
142.854
20
-47.2486
11
143.032
21
-47.2486
0
LINE
8
BLACK
6
CONTINUOUS
10
143.032
20
-47.2486
11
143.104
21
-47.2805
0
LINE
8
BLACK
6
CONTINUOUS
10
143.104
20
-47.2805
11
143.139
21
-47.3124
0
LINE
8
BLACK
6
CONTINUOUS
10
143.139
20
-47.3124
11
143.175
21
-47.3762
0
LINE
8
BLACK
6
CONTINUOUS
10
143.175
20
-47.3762
11
143.175
21
-47.5038
0
LINE
8
BLACK
6
CONTINUOUS
10
143.175
20
-47.5038
11
143.139
21
-47.5676
0
LINE
8
BLACK
6
CONTINUOUS
10
143.139
20
-47.5676
11
143.104
21
-47.5995
0
LINE
8
BLACK
6
CONTINUOUS
10
143.104
20
-47.5995
11
143.032
21
-47.6314
0
LINE
8
BLACK
6
CONTINUOUS
10
143.496
20
-46.4829
11
142.532
21
-47.0571
0
LINE
8
BLACK
6
CONTINUOUS
10
143.461
20
-45.9405
11
143.461
21
-46.2595
0
LINE
8
BLACK
6
CONTINUOUS
10
143.461
20
-46.2595
11
143.104
21
-46.2914
0
LINE
8
BLACK
6
CONTINUOUS
10
143.104
20
-46.2914
11
143.139
21
-46.2595
0
LINE
8
BLACK
6
CONTINUOUS
10
143.139
20
-46.2595
11
143.175
21
-46.1957
0
LINE
8
BLACK
6
CONTINUOUS
10
143.175
20
-46.1957
11
143.175
21
-46.0362
0
LINE
8
BLACK
6
CONTINUOUS
10
143.175
20
-46.0362
11
143.139
21
-45.9724
0
LINE
8
BLACK
6
CONTINUOUS
10
143.139
20
-45.9724
11
143.104
21
-45.9405
0
LINE
8
BLACK
6
CONTINUOUS
10
143.104
20
-45.9405
11
143.032
21
-45.9086
0
LINE
8
BLACK
6
CONTINUOUS
10
143.032
20
-45.9086
11
142.854
21
-45.9086
0
LINE
8
BLACK
6
CONTINUOUS
10
142.854
20
-45.9086
11
142.782
21
-45.9405
0
LINE
8
BLACK
6
CONTINUOUS
10
142.782
20
-45.9405
11
142.746
21
-45.9724
0
LINE
8
BLACK
6
CONTINUOUS
10
142.746
20
-45.9724
11
142.711
21
-46.0362
0
LINE
8
BLACK
6
CONTINUOUS
10
142.711
20
-46.0362
11
142.711
21
-46.1957
0
LINE
8
BLACK
6
CONTINUOUS
10
142.711
20
-46.1957
11
142.746
21
-46.2595
0
LINE
8
BLACK
6
CONTINUOUS
10
142.746
20
-46.2595
11
142.782
21
-46.2914
0
LINE
8
BLACK
6
CONTINUOUS
10
137.796
20
-50.7276
11
137.761
21
-50.6319
0
LINE
8
BLACK
6
CONTINUOUS
10
137.761
20
-50.6319
11
137.761
21
-50.4724
0
LINE
8
BLACK
6
CONTINUOUS
10
137.761
20
-50.4724
11
137.796
21
-50.4086
0
LINE
8
BLACK
6
CONTINUOUS
10
137.796
20
-50.4086
11
137.832
21
-50.3767
0
LINE
8
BLACK
6
CONTINUOUS
10
137.832
20
-50.3767
11
137.904
21
-50.3448
0
LINE
8
BLACK
6
CONTINUOUS
10
137.904
20
-50.3448
11
137.975
21
-50.3448
0
LINE
8
BLACK
6
CONTINUOUS
10
137.975
20
-50.3448
11
138.046
21
-50.3767
0
LINE
8
BLACK
6
CONTINUOUS
10
138.046
20
-50.3767
11
138.082
21
-50.4086
0
LINE
8
BLACK
6
CONTINUOUS
10
138.082
20
-50.4086
11
138.118
21
-50.4724
0
LINE
8
BLACK
6
CONTINUOUS
10
138.118
20
-50.4724
11
138.154
21
-50.6
0
LINE
8
BLACK
6
CONTINUOUS
10
138.154
20
-50.6
11
138.189
21
-50.6638
0
LINE
8
BLACK
6
CONTINUOUS
10
138.189
20
-50.6638
11
138.225
21
-50.6957
0
LINE
8
BLACK
6
CONTINUOUS
10
138.225
20
-50.6957
11
138.296
21
-50.7276
0
LINE
8
BLACK
6
CONTINUOUS
10
138.296
20
-50.7276
11
138.368
21
-50.7276
0
LINE
8
BLACK
6
CONTINUOUS
10
138.368
20
-50.7276
11
138.439
21
-50.6957
0
LINE
8
BLACK
6
CONTINUOUS
10
138.439
20
-50.6957
11
138.475
21
-50.6638
0
LINE
8
BLACK
6
CONTINUOUS
10
138.475
20
-50.6638
11
138.511
21
-50.6
0
LINE
8
BLACK
6
CONTINUOUS
10
138.511
20
-50.6
11
138.511
21
-50.4405
0
LINE
8
BLACK
6
CONTINUOUS
10
138.511
20
-50.4405
11
138.475
21
-50.3448
0
LINE
8
BLACK
6
CONTINUOUS
10
137.832
20
-49.6748
11
137.796
21
-49.7067
0
LINE
8
BLACK
6
CONTINUOUS
10
137.796
20
-49.7067
11
137.761
21
-49.8024
0
LINE
8
BLACK
6
CONTINUOUS
10
137.761
20
-49.8024
11
137.761
21
-49.8662
0
LINE
8
BLACK
6
CONTINUOUS
10
137.761
20
-49.8662
11
137.796
21
-49.9619
0
LINE
8
BLACK
6
CONTINUOUS
10
137.796
20
-49.9619
11
137.868
21
-50.0257
0
LINE
8
BLACK
6
CONTINUOUS
10
137.868
20
-50.0257
11
137.939
21
-50.0576
0
LINE
8
BLACK
6
CONTINUOUS
10
137.939
20
-50.0576
11
138.082
21
-50.0895
0
LINE
8
BLACK
6
CONTINUOUS
10
138.082
20
-50.0895
11
138.189
21
-50.0895
0
LINE
8
BLACK
6
CONTINUOUS
10
138.189
20
-50.0895
11
138.332
21
-50.0576
0
LINE
8
BLACK
6
CONTINUOUS
10
138.332
20
-50.0576
11
138.404
21
-50.0257
0
LINE
8
BLACK
6
CONTINUOUS
10
138.404
20
-50.0257
11
138.475
21
-49.9619
0
LINE
8
BLACK
6
CONTINUOUS
10
138.475
20
-49.9619
11
138.511
21
-49.8662
0
LINE
8
BLACK
6
CONTINUOUS
10
138.511
20
-49.8662
11
138.511
21
-49.8024
0
LINE
8
BLACK
6
CONTINUOUS
10
138.511
20
-49.8024
11
138.475
21
-49.7067
0
LINE
8
BLACK
6
CONTINUOUS
10
138.475
20
-49.7067
11
138.439
21
-49.6748
0
LINE
8
BLACK
6
CONTINUOUS
10
137.761
20
-49.0686
11
137.761
21
-49.3876
0
LINE
8
BLACK
6
CONTINUOUS
10
137.761
20
-49.3876
11
138.511
21
-49.3876
0
LINE
8
BLACK
6
CONTINUOUS
10
138.546
20
-48.3667
11
137.582
21
-48.941
0
LINE
8
BLACK
6
CONTINUOUS
10
137.761
20
-48.1433
11
138.511
21
-48.1433
0
LINE
8
BLACK
6
CONTINUOUS
10
138.511
20
-48.1433
11
138.511
21
-47.9838
0
LINE
8
BLACK
6
CONTINUOUS
10
138.511
20
-47.9838
11
138.475
21
-47.8881
0
LINE
8
BLACK
6
CONTINUOUS
10
138.475
20
-47.8881
11
138.404
21
-47.8243
0
LINE
8
BLACK
6
CONTINUOUS
10
138.404
20
-47.8243
11
138.332
21
-47.7924
0
LINE
8
BLACK
6
CONTINUOUS
10
138.332
20
-47.7924
11
138.189
21
-47.7605
0
LINE
8
BLACK
6
CONTINUOUS
10
138.189
20
-47.7605
11
138.082
21
-47.7605
0
LINE
8
BLACK
6
CONTINUOUS
10
138.082
20
-47.7605
11
137.939
21
-47.7924
0
LINE
8
BLACK
6
CONTINUOUS
10
137.939
20
-47.7924
11
137.868
21
-47.8243
0
LINE
8
BLACK
6
CONTINUOUS
10
137.868
20
-47.8243
11
137.796
21
-47.8881
0
LINE
8
BLACK
6
CONTINUOUS
10
137.796
20
-47.8881
11
137.761
21
-47.9838
0
LINE
8
BLACK
6
CONTINUOUS
10
137.761
20
-47.9838
11
137.761
21
-48.1433
0
LINE
8
BLACK
6
CONTINUOUS
10
138.511
20
-47.3457
11
138.511
21
-47.2819
0
LINE
8
BLACK
6
CONTINUOUS
10
138.511
20
-47.2819
11
138.475
21
-47.2181
0
LINE
8
BLACK
6
CONTINUOUS
10
138.475
20
-47.2181
11
138.439
21
-47.1862
0
LINE
8
BLACK
6
CONTINUOUS
10
138.439
20
-47.1862
11
138.368
21
-47.1543
0
LINE
8
BLACK
6
CONTINUOUS
10
138.368
20
-47.1543
11
138.225
21
-47.1224
0
LINE
8
BLACK
6
CONTINUOUS
10
138.225
20
-47.1224
11
138.046
21
-47.1224
0
LINE
8
BLACK
6
CONTINUOUS
10
138.046
20
-47.1224
11
137.904
21
-47.1543
0
LINE
8
BLACK
6
CONTINUOUS
10
137.904
20
-47.1543
11
137.832
21
-47.1862
0
LINE
8
BLACK
6
CONTINUOUS
10
137.832
20
-47.1862
11
137.796
21
-47.2181
0
LINE
8
BLACK
6
CONTINUOUS
10
137.796
20
-47.2181
11
137.761
21
-47.2819
0
LINE
8
BLACK
6
CONTINUOUS
10
137.761
20
-47.2819
11
137.761
21
-47.3457
0
LINE
8
BLACK
6
CONTINUOUS
10
137.761
20
-47.3457
11
137.796
21
-47.4095
0
LINE
8
BLACK
6
CONTINUOUS
10
137.796
20
-47.4095
11
137.832
21
-47.4414
0
LINE
8
BLACK
6
CONTINUOUS
10
137.832
20
-47.4414
11
137.904
21
-47.4733
0
LINE
8
BLACK
6
CONTINUOUS
10
137.904
20
-47.4733
11
138.046
21
-47.5052
0
LINE
8
BLACK
6
CONTINUOUS
10
138.046
20
-47.5052
11
138.225
21
-47.5052
0
LINE
8
BLACK
6
CONTINUOUS
10
138.225
20
-47.5052
11
138.368
21
-47.4733
0
LINE
8
BLACK
6
CONTINUOUS
10
138.368
20
-47.4733
11
138.439
21
-47.4414
0
LINE
8
BLACK
6
CONTINUOUS
10
138.439
20
-47.4414
11
138.475
21
-47.4095
0
LINE
8
BLACK
6
CONTINUOUS
10
138.475
20
-47.4095
11
138.511
21
-47.3457
0
LINE
8
BLACK
6
CONTINUOUS
10
138.546
20
-46.3567
11
137.582
21
-46.931
0
LINE
8
BLACK
6
CONTINUOUS
10
138.511
20
-46.1971
11
138.511
21
-45.7824
0
LINE
8
BLACK
6
CONTINUOUS
10
138.511
20
-45.7824
11
138.225
21
-46.0057
0
LINE
8
BLACK
6
CONTINUOUS
10
138.225
20
-46.0057
11
138.225
21
-45.91
0
LINE
8
BLACK
6
CONTINUOUS
10
138.225
20
-45.91
11
138.189
21
-45.8462
0
LINE
8
BLACK
6
CONTINUOUS
10
138.189
20
-45.8462
11
138.154
21
-45.8143
0
LINE
8
BLACK
6
CONTINUOUS
10
138.154
20
-45.8143
11
138.082
21
-45.7824
0
LINE
8
BLACK
6
CONTINUOUS
10
138.082
20
-45.7824
11
137.904
21
-45.7824
0
LINE
8
BLACK
6
CONTINUOUS
10
137.904
20
-45.7824
11
137.832
21
-45.8143
0
LINE
8
BLACK
6
CONTINUOUS
10
137.832
20
-45.8143
11
137.796
21
-45.8462
0
LINE
8
BLACK
6
CONTINUOUS
10
137.796
20
-45.8462
11
137.761
21
-45.91
0
LINE
8
BLACK
6
CONTINUOUS
10
137.761
20
-45.91
11
137.761
21
-46.1014
0
LINE
8
BLACK
6
CONTINUOUS
10
137.761
20
-46.1014
11
137.796
21
-46.1652
0
LINE
8
BLACK
6
CONTINUOUS
10
137.796
20
-46.1652
11
137.832
21
-46.1971
0
LINE
8
BLACK
6
CONTINUOUS
10
135.296
20
-50.7436
11
135.261
21
-50.6479
0
LINE
8
BLACK
6
CONTINUOUS
10
135.261
20
-50.6479
11
135.261
21
-50.4883
0
LINE
8
BLACK
6
CONTINUOUS
10
135.261
20
-50.4883
11
135.296
21
-50.4245
0
LINE
8
BLACK
6
CONTINUOUS
10
135.296
20
-50.4245
11
135.332
21
-50.3926
0
LINE
8
BLACK
6
CONTINUOUS
10
135.332
20
-50.3926
11
135.404
21
-50.3607
0
LINE
8
BLACK
6
CONTINUOUS
10
135.404
20
-50.3607
11
135.475
21
-50.3607
0
LINE
8
BLACK
6
CONTINUOUS
10
135.475
20
-50.3607
11
135.546
21
-50.3926
0
LINE
8
BLACK
6
CONTINUOUS
10
135.546
20
-50.3926
11
135.582
21
-50.4245
0
LINE
8
BLACK
6
CONTINUOUS
10
135.582
20
-50.4245
11
135.618
21
-50.4883
0
LINE
8
BLACK
6
CONTINUOUS
10
135.618
20
-50.4883
11
135.654
21
-50.616
0
LINE
8
BLACK
6
CONTINUOUS
10
135.654
20
-50.616
11
135.689
21
-50.6798
0
LINE
8
BLACK
6
CONTINUOUS
10
135.689
20
-50.6798
11
135.725
21
-50.7117
0
LINE
8
BLACK
6
CONTINUOUS
10
135.725
20
-50.7117
11
135.796
21
-50.7436
0
LINE
8
BLACK
6
CONTINUOUS
10
135.796
20
-50.7436
11
135.868
21
-50.7436
0
LINE
8
BLACK
6
CONTINUOUS
10
135.868
20
-50.7436
11
135.939
21
-50.7117
0
LINE
8
BLACK
6
CONTINUOUS
10
135.939
20
-50.7117
11
135.975
21
-50.6798
0
LINE
8
BLACK
6
CONTINUOUS
10
135.975
20
-50.6798
11
136.011
21
-50.616
0
LINE
8
BLACK
6
CONTINUOUS
10
136.011
20
-50.616
11
136.011
21
-50.4564
0
LINE
8
BLACK
6
CONTINUOUS
10
136.011
20
-50.4564
11
135.975
21
-50.3607
0
LINE
8
BLACK
6
CONTINUOUS
10
135.261
20
-50.0736
11
136.011
21
-50.0736
0
LINE
8
BLACK
6
CONTINUOUS
10
136.011
20
-50.0736
11
136.011
21
-49.914
0
LINE
8
BLACK
6
CONTINUOUS
10
136.011
20
-49.914
11
135.975
21
-49.8183
0
LINE
8
BLACK
6
CONTINUOUS
10
135.975
20
-49.8183
11
135.904
21
-49.7545
0
LINE
8
BLACK
6
CONTINUOUS
10
135.904
20
-49.7545
11
135.832
21
-49.7226
0
LINE
8
BLACK
6
CONTINUOUS
10
135.832
20
-49.7226
11
135.689
21
-49.6907
0
LINE
8
BLACK
6
CONTINUOUS
10
135.689
20
-49.6907
11
135.582
21
-49.6907
0
LINE
8
BLACK
6
CONTINUOUS
10
135.582
20
-49.6907
11
135.439
21
-49.7226
0
LINE
8
BLACK
6
CONTINUOUS
10
135.439
20
-49.7226
11
135.368
21
-49.7545
0
LINE
8
BLACK
6
CONTINUOUS
10
135.368
20
-49.7545
11
135.296
21
-49.8183
0
LINE
8
BLACK
6
CONTINUOUS
10
135.296
20
-49.8183
11
135.261
21
-49.914
0
LINE
8
BLACK
6
CONTINUOUS
10
135.261
20
-49.914
11
135.261
21
-50.0736
0
LINE
8
BLACK
6
CONTINUOUS
10
135.475
20
-49.4355
11
135.475
21
-49.1164
0
LINE
8
BLACK
6
CONTINUOUS
10
135.261
20
-49.4993
11
136.011
21
-49.276
0
LINE
8
BLACK
6
CONTINUOUS
10
136.011
20
-49.276
11
135.261
21
-49.0526
0
LINE
8
BLACK
6
CONTINUOUS
10
136.046
20
-48.3507
11
135.082
21
-48.925
0
LINE
8
BLACK
6
CONTINUOUS
10
135.261
20
-48.1274
11
136.011
21
-48.1274
0
LINE
8
BLACK
6
CONTINUOUS
10
136.011
20
-48.1274
11
136.011
21
-47.9679
0
LINE
8
BLACK
6
CONTINUOUS
10
136.011
20
-47.9679
11
135.975
21
-47.8721
0
LINE
8
BLACK
6
CONTINUOUS
10
135.975
20
-47.8721
11
135.904
21
-47.8083
0
LINE
8
BLACK
6
CONTINUOUS
10
135.904
20
-47.8083
11
135.832
21
-47.7764
0
LINE
8
BLACK
6
CONTINUOUS
10
135.832
20
-47.7764
11
135.689
21
-47.7445
0
LINE
8
BLACK
6
CONTINUOUS
10
135.689
20
-47.7445
11
135.582
21
-47.7445
0
LINE
8
BLACK
6
CONTINUOUS
10
135.582
20
-47.7445
11
135.439
21
-47.7764
0
LINE
8
BLACK
6
CONTINUOUS
10
135.439
20
-47.7764
11
135.368
21
-47.8083
0
LINE
8
BLACK
6
CONTINUOUS
10
135.368
20
-47.8083
11
135.296
21
-47.8721
0
LINE
8
BLACK
6
CONTINUOUS
10
135.296
20
-47.8721
11
135.261
21
-47.9679
0
LINE
8
BLACK
6
CONTINUOUS
10
135.261
20
-47.9679
11
135.261
21
-48.1274
0
LINE
8
BLACK
6
CONTINUOUS
10
135.261
20
-47.1064
11
135.261
21
-47.4893
0
LINE
8
BLACK
6
CONTINUOUS
10
135.261
20
-47.2979
11
136.011
21
-47.2979
0
LINE
8
BLACK
6
CONTINUOUS
10
136.011
20
-47.2979
11
135.904
21
-47.3617
0
LINE
8
BLACK
6
CONTINUOUS
10
135.904
20
-47.3617
11
135.832
21
-47.4255
0
LINE
8
BLACK
6
CONTINUOUS
10
135.832
20
-47.4255
11
135.796
21
-47.4893
0
LINE
8
BLACK
6
CONTINUOUS
10
136.046
20
-46.3407
11
135.082
21
-46.915
0
LINE
8
BLACK
6
CONTINUOUS
10
135.939
20
-46.1493
11
135.975
21
-46.1174
0
LINE
8
BLACK
6
CONTINUOUS
10
135.975
20
-46.1174
11
136.011
21
-46.0536
0
LINE
8
BLACK
6
CONTINUOUS
10
136.011
20
-46.0536
11
136.011
21
-45.894
0
LINE
8
BLACK
6
CONTINUOUS
10
136.011
20
-45.894
11
135.975
21
-45.8302
0
LINE
8
BLACK
6
CONTINUOUS
10
135.975
20
-45.8302
11
135.939
21
-45.7983
0
LINE
8
BLACK
6
CONTINUOUS
10
135.939
20
-45.7983
11
135.868
21
-45.7664
0
LINE
8
BLACK
6
CONTINUOUS
10
135.868
20
-45.7664
11
135.796
21
-45.7664
0
LINE
8
BLACK
6
CONTINUOUS
10
135.796
20
-45.7664
11
135.689
21
-45.7983
0
LINE
8
BLACK
6
CONTINUOUS
10
135.689
20
-45.7983
11
135.261
21
-46.1812
0
LINE
8
BLACK
6
CONTINUOUS
10
135.261
20
-46.1812
11
135.261
21
-45.7664
0
LINE
8
BLACK
6
CONTINUOUS
10
140.161
20
-48.2695
11
140.911
21
-48.2695
0
LINE
8
BLACK
6
CONTINUOUS
10
140.911
20
-48.2695
11
140.911
21
-48.11
0
LINE
8
BLACK
6
CONTINUOUS
10
140.911
20
-48.11
11
140.875
21
-48.0143
0
LINE
8
BLACK
6
CONTINUOUS
10
140.875
20
-48.0143
11
140.804
21
-47.9505
0
LINE
8
BLACK
6
CONTINUOUS
10
140.804
20
-47.9505
11
140.732
21
-47.9186
0
LINE
8
BLACK
6
CONTINUOUS
10
140.732
20
-47.9186
11
140.589
21
-47.8867
0
LINE
8
BLACK
6
CONTINUOUS
10
140.589
20
-47.8867
11
140.482
21
-47.8867
0
LINE
8
BLACK
6
CONTINUOUS
10
140.482
20
-47.8867
11
140.339
21
-47.9186
0
LINE
8
BLACK
6
CONTINUOUS
10
140.339
20
-47.9186
11
140.268
21
-47.9505
0
LINE
8
BLACK
6
CONTINUOUS
10
140.268
20
-47.9505
11
140.196
21
-48.0143
0
LINE
8
BLACK
6
CONTINUOUS
10
140.196
20
-48.0143
11
140.161
21
-48.11
0
LINE
8
BLACK
6
CONTINUOUS
10
140.161
20
-48.11
11
140.161
21
-48.2695
0
LINE
8
BLACK
6
CONTINUOUS
10
140.661
20
-47.3124
11
140.161
21
-47.3124
0
LINE
8
BLACK
6
CONTINUOUS
10
140.946
20
-47.4719
11
140.411
21
-47.6314
0
LINE
8
BLACK
6
CONTINUOUS
10
140.411
20
-47.6314
11
140.411
21
-47.2167
0
LINE
8
BLACK
6
CONTINUOUS
10
140.946
20
-46.4829
11
139.982
21
-47.0571
0
LINE
8
BLACK
6
CONTINUOUS
10
140.661
20
-45.9724
11
140.161
21
-45.9724
0
LINE
8
BLACK
6
CONTINUOUS
10
140.946
20
-46.1319
11
140.411
21
-46.2914
0
LINE
8
BLACK
6
CONTINUOUS
10
140.411
20
-46.2914
11
140.411
21
-45.8767
0
LINE
8
BLACK
6
CONTINUOUS
10
125.011
20
-49.2938
11
125.761
21
-49.2938
0
LINE
8
BLACK
6
CONTINUOUS
10
125.761
20
-49.2938
11
125.761
21
-49.1343
0
LINE
8
BLACK
6
CONTINUOUS
10
125.761
20
-49.1343
11
125.725
21
-49.0386
0
LINE
8
BLACK
6
CONTINUOUS
10
125.725
20
-49.0386
11
125.654
21
-48.9748
0
LINE
8
BLACK
6
CONTINUOUS
10
125.654
20
-48.9748
11
125.582
21
-48.9429
0
LINE
8
BLACK
6
CONTINUOUS
10
125.582
20
-48.9429
11
125.439
21
-48.911
0
LINE
8
BLACK
6
CONTINUOUS
10
125.439
20
-48.911
11
125.332
21
-48.911
0
LINE
8
BLACK
6
CONTINUOUS
10
125.332
20
-48.911
11
125.189
21
-48.9429
0
LINE
8
BLACK
6
CONTINUOUS
10
125.189
20
-48.9429
11
125.118
21
-48.9748
0
LINE
8
BLACK
6
CONTINUOUS
10
125.118
20
-48.9748
11
125.046
21
-49.0386
0
LINE
8
BLACK
6
CONTINUOUS
10
125.046
20
-49.0386
11
125.011
21
-49.1343
0
LINE
8
BLACK
6
CONTINUOUS
10
125.011
20
-49.1343
11
125.011
21
-49.2938
0
LINE
8
BLACK
6
CONTINUOUS
10
125.761
20
-48.6876
11
125.761
21
-48.2729
0
LINE
8
BLACK
6
CONTINUOUS
10
125.761
20
-48.2729
11
125.475
21
-48.4962
0
LINE
8
BLACK
6
CONTINUOUS
10
125.475
20
-48.4962
11
125.475
21
-48.4005
0
LINE
8
BLACK
6
CONTINUOUS
10
125.475
20
-48.4005
11
125.439
21
-48.3367
0
LINE
8
BLACK
6
CONTINUOUS
10
125.439
20
-48.3367
11
125.404
21
-48.3048
0
LINE
8
BLACK
6
CONTINUOUS
10
125.404
20
-48.3048
11
125.332
21
-48.2729
0
LINE
8
BLACK
6
CONTINUOUS
10
125.332
20
-48.2729
11
125.154
21
-48.2729
0
LINE
8
BLACK
6
CONTINUOUS
10
125.154
20
-48.2729
11
125.082
21
-48.3048
0
LINE
8
BLACK
6
CONTINUOUS
10
125.082
20
-48.3048
11
125.046
21
-48.3367
0
LINE
8
BLACK
6
CONTINUOUS
10
125.046
20
-48.3367
11
125.011
21
-48.4005
0
LINE
8
BLACK
6
CONTINUOUS
10
125.011
20
-48.4005
11
125.011
21
-48.5919
0
LINE
8
BLACK
6
CONTINUOUS
10
125.011
20
-48.5919
11
125.046
21
-48.6557
0
LINE
8
BLACK
6
CONTINUOUS
10
125.046
20
-48.6557
11
125.082
21
-48.6876
0
LINE
8
BLACK
6
CONTINUOUS
10
125.796
20
-47.5071
11
124.832
21
-48.0814
0
LINE
8
BLACK
6
CONTINUOUS
10
125.761
20
-47.3795
11
125.761
21
-46.9967
0
LINE
8
BLACK
6
CONTINUOUS
10
125.011
20
-47.1881
11
125.761
21
-47.1881
0
LINE
8
BLACK
6
CONTINUOUS
10
125.761
20
-46.8371
11
125.011
21
-46.3905
0
LINE
8
BLACK
6
CONTINUOUS
10
125.761
20
-46.3905
11
125.011
21
-46.8371
0
LINE
8
BLACK
6
CONTINUOUS
10
125.761
20
-46.0076
11
125.761
21
-45.9438
0
LINE
8
BLACK
6
CONTINUOUS
10
125.761
20
-45.9438
11
125.725
21
-45.88
0
LINE
8
BLACK
6
CONTINUOUS
10
125.725
20
-45.88
11
125.689
21
-45.8481
0
LINE
8
BLACK
6
CONTINUOUS
10
125.689
20
-45.8481
11
125.618
21
-45.8162
0
LINE
8
BLACK
6
CONTINUOUS
10
125.618
20
-45.8162
11
125.475
21
-45.7843
0
LINE
8
BLACK
6
CONTINUOUS
10
125.475
20
-45.7843
11
125.296
21
-45.7843
0
LINE
8
BLACK
6
CONTINUOUS
10
125.296
20
-45.7843
11
125.154
21
-45.8162
0
LINE
8
BLACK
6
CONTINUOUS
10
125.154
20
-45.8162
11
125.082
21
-45.8481
0
LINE
8
BLACK
6
CONTINUOUS
10
125.082
20
-45.8481
11
125.046
21
-45.88
0
LINE
8
BLACK
6
CONTINUOUS
10
125.046
20
-45.88
11
125.011
21
-45.9438
0
LINE
8
BLACK
6
CONTINUOUS
10
125.011
20
-45.9438
11
125.011
21
-46.0076
0
LINE
8
BLACK
6
CONTINUOUS
10
125.011
20
-46.0076
11
125.046
21
-46.0714
0
LINE
8
BLACK
6
CONTINUOUS
10
125.046
20
-46.0714
11
125.082
21
-46.1033
0
LINE
8
BLACK
6
CONTINUOUS
10
125.082
20
-46.1033
11
125.154
21
-46.1352
0
LINE
8
BLACK
6
CONTINUOUS
10
125.154
20
-46.1352
11
125.296
21
-46.1671
0
LINE
8
BLACK
6
CONTINUOUS
10
125.296
20
-46.1671
11
125.475
21
-46.1671
0
LINE
8
BLACK
6
CONTINUOUS
10
125.475
20
-46.1671
11
125.618
21
-46.1352
0
LINE
8
BLACK
6
CONTINUOUS
10
125.618
20
-46.1352
11
125.689
21
-46.1033
0
LINE
8
BLACK
6
CONTINUOUS
10
125.689
20
-46.1033
11
125.725
21
-46.0714
0
LINE
8
BLACK
6
CONTINUOUS
10
125.725
20
-46.0714
11
125.761
21
-46.0076
0
LINE
8
BLACK
6
CONTINUOUS
10
133.325
20
-47.1155
11
133.361
21
-47.1793
0
LINE
8
BLACK
6
CONTINUOUS
10
133.361
20
-47.1793
11
133.361
21
-47.275
0
LINE
8
BLACK
6
CONTINUOUS
10
133.361
20
-47.275
11
133.325
21
-47.3707
0
LINE
8
BLACK
6
CONTINUOUS
10
133.325
20
-47.3707
11
133.254
21
-47.4345
0
LINE
8
BLACK
6
CONTINUOUS
10
133.254
20
-47.4345
11
133.182
21
-47.4664
0
LINE
8
BLACK
6
CONTINUOUS
10
133.182
20
-47.4664
11
133.039
21
-47.4983
0
LINE
8
BLACK
6
CONTINUOUS
10
133.039
20
-47.4983
11
132.932
21
-47.4983
0
LINE
8
BLACK
6
CONTINUOUS
10
132.932
20
-47.4983
11
132.789
21
-47.4664
0
LINE
8
BLACK
6
CONTINUOUS
10
132.789
20
-47.4664
11
132.718
21
-47.4345
0
LINE
8
BLACK
6
CONTINUOUS
10
132.718
20
-47.4345
11
132.646
21
-47.3707
0
LINE
8
BLACK
6
CONTINUOUS
10
132.646
20
-47.3707
11
132.611
21
-47.275
0
LINE
8
BLACK
6
CONTINUOUS
10
132.611
20
-47.275
11
132.611
21
-47.2112
0
LINE
8
BLACK
6
CONTINUOUS
10
132.611
20
-47.2112
11
132.646
21
-47.1155
0
LINE
8
BLACK
6
CONTINUOUS
10
132.646
20
-47.1155
11
132.682
21
-47.0836
0
LINE
8
BLACK
6
CONTINUOUS
10
132.682
20
-47.0836
11
132.932
21
-47.0836
0
LINE
8
BLACK
6
CONTINUOUS
10
132.932
20
-47.0836
11
132.932
21
-47.2112
0
LINE
8
BLACK
6
CONTINUOUS
10
132.611
20
-46.7964
11
133.361
21
-46.7964
0
LINE
8
BLACK
6
CONTINUOUS
10
133.361
20
-46.7964
11
132.611
21
-46.4136
0
LINE
8
BLACK
6
CONTINUOUS
10
132.611
20
-46.4136
11
133.361
21
-46.4136
0
LINE
8
BLACK
6
CONTINUOUS
10
132.611
20
-46.0945
11
133.361
21
-46.0945
0
LINE
8
BLACK
6
CONTINUOUS
10
133.361
20
-46.0945
11
133.361
21
-45.935
0
LINE
8
BLACK
6
CONTINUOUS
10
133.361
20
-45.935
11
133.325
21
-45.8393
0
LINE
8
BLACK
6
CONTINUOUS
10
133.325
20
-45.8393
11
133.254
21
-45.7755
0
LINE
8
BLACK
6
CONTINUOUS
10
133.254
20
-45.7755
11
133.182
21
-45.7436
0
LINE
8
BLACK
6
CONTINUOUS
10
133.182
20
-45.7436
11
133.039
21
-45.7117
0
LINE
8
BLACK
6
CONTINUOUS
10
133.039
20
-45.7117
11
132.932
21
-45.7117
0
LINE
8
BLACK
6
CONTINUOUS
10
132.932
20
-45.7117
11
132.789
21
-45.7436
0
LINE
8
BLACK
6
CONTINUOUS
10
132.789
20
-45.7436
11
132.718
21
-45.7755
0
LINE
8
BLACK
6
CONTINUOUS
10
132.718
20
-45.7755
11
132.646
21
-45.8393
0
LINE
8
BLACK
6
CONTINUOUS
10
132.646
20
-45.8393
11
132.611
21
-45.935
0
LINE
8
BLACK
6
CONTINUOUS
10
132.611
20
-45.935
11
132.611
21
-46.0945
0
LINE
8
BLACK
6
CONTINUOUS
10
130.875
20
-47.1155
11
130.911
21
-47.1793
0
LINE
8
BLACK
6
CONTINUOUS
10
130.911
20
-47.1793
11
130.911
21
-47.275
0
LINE
8
BLACK
6
CONTINUOUS
10
130.911
20
-47.275
11
130.875
21
-47.3707
0
LINE
8
BLACK
6
CONTINUOUS
10
130.875
20
-47.3707
11
130.804
21
-47.4345
0
LINE
8
BLACK
6
CONTINUOUS
10
130.804
20
-47.4345
11
130.732
21
-47.4664
0
LINE
8
BLACK
6
CONTINUOUS
10
130.732
20
-47.4664
11
130.589
21
-47.4983
0
LINE
8
BLACK
6
CONTINUOUS
10
130.589
20
-47.4983
11
130.482
21
-47.4983
0
LINE
8
BLACK
6
CONTINUOUS
10
130.482
20
-47.4983
11
130.339
21
-47.4664
0
LINE
8
BLACK
6
CONTINUOUS
10
130.339
20
-47.4664
11
130.268
21
-47.4345
0
LINE
8
BLACK
6
CONTINUOUS
10
130.268
20
-47.4345
11
130.196
21
-47.3707
0
LINE
8
BLACK
6
CONTINUOUS
10
130.196
20
-47.3707
11
130.161
21
-47.275
0
LINE
8
BLACK
6
CONTINUOUS
10
130.161
20
-47.275
11
130.161
21
-47.2112
0
LINE
8
BLACK
6
CONTINUOUS
10
130.161
20
-47.2112
11
130.196
21
-47.1155
0
LINE
8
BLACK
6
CONTINUOUS
10
130.196
20
-47.1155
11
130.232
21
-47.0836
0
LINE
8
BLACK
6
CONTINUOUS
10
130.232
20
-47.0836
11
130.482
21
-47.0836
0
LINE
8
BLACK
6
CONTINUOUS
10
130.482
20
-47.0836
11
130.482
21
-47.2112
0
LINE
8
BLACK
6
CONTINUOUS
10
130.161
20
-46.7964
11
130.911
21
-46.7964
0
LINE
8
BLACK
6
CONTINUOUS
10
130.911
20
-46.7964
11
130.161
21
-46.4136
0
LINE
8
BLACK
6
CONTINUOUS
10
130.161
20
-46.4136
11
130.911
21
-46.4136
0
LINE
8
BLACK
6
CONTINUOUS
10
130.161
20
-46.0945
11
130.911
21
-46.0945
0
LINE
8
BLACK
6
CONTINUOUS
10
130.911
20
-46.0945
11
130.911
21
-45.935
0
LINE
8
BLACK
6
CONTINUOUS
10
130.911
20
-45.935
11
130.875
21
-45.8393
0
LINE
8
BLACK
6
CONTINUOUS
10
130.875
20
-45.8393
11
130.804
21
-45.7755
0
LINE
8
BLACK
6
CONTINUOUS
10
130.804
20
-45.7755
11
130.732
21
-45.7436
0
LINE
8
BLACK
6
CONTINUOUS
10
130.732
20
-45.7436
11
130.589
21
-45.7117
0
LINE
8
BLACK
6
CONTINUOUS
10
130.589
20
-45.7117
11
130.482
21
-45.7117
0
LINE
8
BLACK
6
CONTINUOUS
10
130.482
20
-45.7117
11
130.339
21
-45.7436
0
LINE
8
BLACK
6
CONTINUOUS
10
130.339
20
-45.7436
11
130.268
21
-45.7755
0
LINE
8
BLACK
6
CONTINUOUS
10
130.268
20
-45.7755
11
130.196
21
-45.8393
0
LINE
8
BLACK
6
CONTINUOUS
10
130.196
20
-45.8393
11
130.161
21
-45.935
0
LINE
8
BLACK
6
CONTINUOUS
10
130.161
20
-45.935
11
130.161
21
-46.0945
0
LINE
8
BLACK
6
CONTINUOUS
10
145.261
20
-48.2695
11
146.011
21
-48.2695
0
LINE
8
BLACK
6
CONTINUOUS
10
146.011
20
-48.2695
11
146.011
21
-48.11
0
LINE
8
BLACK
6
CONTINUOUS
10
146.011
20
-48.11
11
145.975
21
-48.0143
0
LINE
8
BLACK
6
CONTINUOUS
10
145.975
20
-48.0143
11
145.904
21
-47.9505
0
LINE
8
BLACK
6
CONTINUOUS
10
145.904
20
-47.9505
11
145.832
21
-47.9186
0
LINE
8
BLACK
6
CONTINUOUS
10
145.832
20
-47.9186
11
145.689
21
-47.8867
0
LINE
8
BLACK
6
CONTINUOUS
10
145.689
20
-47.8867
11
145.582
21
-47.8867
0
LINE
8
BLACK
6
CONTINUOUS
10
145.582
20
-47.8867
11
145.439
21
-47.9186
0
LINE
8
BLACK
6
CONTINUOUS
10
145.439
20
-47.9186
11
145.368
21
-47.9505
0
LINE
8
BLACK
6
CONTINUOUS
10
145.368
20
-47.9505
11
145.296
21
-48.0143
0
LINE
8
BLACK
6
CONTINUOUS
10
145.296
20
-48.0143
11
145.261
21
-48.11
0
LINE
8
BLACK
6
CONTINUOUS
10
145.261
20
-48.11
11
145.261
21
-48.2695
0
LINE
8
BLACK
6
CONTINUOUS
10
146.011
20
-47.6633
11
146.011
21
-47.2167
0
LINE
8
BLACK
6
CONTINUOUS
10
146.011
20
-47.2167
11
145.261
21
-47.5038
0
LINE
8
BLACK
6
CONTINUOUS
10
146.046
20
-46.4829
11
145.082
21
-47.0571
0
LINE
8
BLACK
6
CONTINUOUS
10
146.011
20
-45.9724
11
146.011
21
-46.1
0
LINE
8
BLACK
6
CONTINUOUS
10
146.011
20
-46.1
11
145.975
21
-46.1638
0
LINE
8
BLACK
6
CONTINUOUS
10
145.975
20
-46.1638
11
145.939
21
-46.1957
0
LINE
8
BLACK
6
CONTINUOUS
10
145.939
20
-46.1957
11
145.832
21
-46.2595
0
LINE
8
BLACK
6
CONTINUOUS
10
145.832
20
-46.2595
11
145.689
21
-46.2914
0
LINE
8
BLACK
6
CONTINUOUS
10
145.689
20
-46.2914
11
145.404
21
-46.2914
0
LINE
8
BLACK
6
CONTINUOUS
10
145.404
20
-46.2914
11
145.332
21
-46.2595
0
LINE
8
BLACK
6
CONTINUOUS
10
145.332
20
-46.2595
11
145.296
21
-46.2276
0
LINE
8
BLACK
6
CONTINUOUS
10
145.296
20
-46.2276
11
145.261
21
-46.1638
0
LINE
8
BLACK
6
CONTINUOUS
10
145.261
20
-46.1638
11
145.261
21
-46.0362
0
LINE
8
BLACK
6
CONTINUOUS
10
145.261
20
-46.0362
11
145.296
21
-45.9724
0
LINE
8
BLACK
6
CONTINUOUS
10
145.296
20
-45.9724
11
145.332
21
-45.9405
0
LINE
8
BLACK
6
CONTINUOUS
10
145.332
20
-45.9405
11
145.404
21
-45.9086
0
LINE
8
BLACK
6
CONTINUOUS
10
145.404
20
-45.9086
11
145.582
21
-45.9086
0
LINE
8
BLACK
6
CONTINUOUS
10
145.582
20
-45.9086
11
145.654
21
-45.9405
0
LINE
8
BLACK
6
CONTINUOUS
10
145.654
20
-45.9405
11
145.689
21
-45.9724
0
LINE
8
BLACK
6
CONTINUOUS
10
145.689
20
-45.9724
11
145.725
21
-46.0362
0
LINE
8
BLACK
6
CONTINUOUS
10
145.725
20
-46.0362
11
145.725
21
-46.1638
0
LINE
8
BLACK
6
CONTINUOUS
10
145.725
20
-46.1638
11
145.689
21
-46.2276
0
LINE
8
BLACK
6
CONTINUOUS
10
145.689
20
-46.2276
11
145.654
21
-46.2595
0
LINE
8
BLACK
6
CONTINUOUS
10
145.654
20
-46.2595
11
145.582
21
-46.2914
0
LINE
8
BLACK
6
CONTINUOUS
10
148.204
20
-48.2376
11
148.204
21
-48.0143
0
LINE
8
BLACK
6
CONTINUOUS
10
147.811
20
-47.9186
11
147.811
21
-48.2376
0
LINE
8
BLACK
6
CONTINUOUS
10
147.811
20
-48.2376
11
148.561
21
-48.2376
0
LINE
8
BLACK
6
CONTINUOUS
10
148.561
20
-48.2376
11
148.561
21
-47.9186
0
LINE
8
BLACK
6
CONTINUOUS
10
148.561
20
-47.3443
11
148.561
21
-47.4719
0
LINE
8
BLACK
6
CONTINUOUS
10
148.561
20
-47.4719
11
148.525
21
-47.5357
0
LINE
8
BLACK
6
CONTINUOUS
10
148.525
20
-47.5357
11
148.489
21
-47.5676
0
LINE
8
BLACK
6
CONTINUOUS
10
148.489
20
-47.5676
11
148.382
21
-47.6314
0
LINE
8
BLACK
6
CONTINUOUS
10
148.382
20
-47.6314
11
148.239
21
-47.6633
0
LINE
8
BLACK
6
CONTINUOUS
10
148.239
20
-47.6633
11
147.954
21
-47.6633
0
LINE
8
BLACK
6
CONTINUOUS
10
147.954
20
-47.6633
11
147.882
21
-47.6314
0
LINE
8
BLACK
6
CONTINUOUS
10
147.882
20
-47.6314
11
147.846
21
-47.5995
0
LINE
8
BLACK
6
CONTINUOUS
10
147.846
20
-47.5995
11
147.811
21
-47.5357
0
LINE
8
BLACK
6
CONTINUOUS
10
147.811
20
-47.5357
11
147.811
21
-47.4081
0
LINE
8
BLACK
6
CONTINUOUS
10
147.811
20
-47.4081
11
147.846
21
-47.3443
0
LINE
8
BLACK
6
CONTINUOUS
10
147.846
20
-47.3443
11
147.882
21
-47.3124
0
LINE
8
BLACK
6
CONTINUOUS
10
147.882
20
-47.3124
11
147.954
21
-47.2805
0
LINE
8
BLACK
6
CONTINUOUS
10
147.954
20
-47.2805
11
148.132
21
-47.2805
0
LINE
8
BLACK
6
CONTINUOUS
10
148.132
20
-47.2805
11
148.204
21
-47.3124
0
LINE
8
BLACK
6
CONTINUOUS
10
148.204
20
-47.3124
11
148.239
21
-47.3443
0
LINE
8
BLACK
6
CONTINUOUS
10
148.239
20
-47.3443
11
148.275
21
-47.4081
0
LINE
8
BLACK
6
CONTINUOUS
10
148.275
20
-47.4081
11
148.275
21
-47.5357
0
LINE
8
BLACK
6
CONTINUOUS
10
148.275
20
-47.5357
11
148.239
21
-47.5995
0
LINE
8
BLACK
6
CONTINUOUS
10
148.239
20
-47.5995
11
148.204
21
-47.6314
0
LINE
8
BLACK
6
CONTINUOUS
10
148.204
20
-47.6314
11
148.132
21
-47.6633
0
LINE
8
BLACK
6
CONTINUOUS
10
148.596
20
-46.5148
11
147.632
21
-47.089
0
LINE
8
BLACK
6
CONTINUOUS
10
148.561
20
-46.3552
11
148.561
21
-45.9086
0
LINE
8
BLACK
6
CONTINUOUS
10
148.561
20
-45.9086
11
147.811
21
-46.1957
0
LINE
8
BLACK
6
CONTINUOUS
10
150.411
20
-26.7876
11
150.411
21
-27.1705
0
LINE
8
BLACK
6
CONTINUOUS
10
150.411
20
-26.979
11
151.161
21
-26.979
0
LINE
8
BLACK
6
CONTINUOUS
10
151.161
20
-26.979
11
151.054
21
-27.0429
0
LINE
8
BLACK
6
CONTINUOUS
10
151.054
20
-27.0429
11
150.982
21
-27.1067
0
LINE
8
BLACK
6
CONTINUOUS
10
150.982
20
-27.1067
11
150.946
21
-27.1705
0
LINE
8
BLACK
6
CONTINUOUS
10
151.161
20
-26.2133
11
151.161
21
-26.341
0
LINE
8
BLACK
6
CONTINUOUS
10
151.161
20
-26.341
11
151.125
21
-26.4048
0
LINE
8
BLACK
6
CONTINUOUS
10
151.125
20
-26.4048
11
151.089
21
-26.4367
0
LINE
8
BLACK
6
CONTINUOUS
10
151.089
20
-26.4367
11
150.982
21
-26.5005
0
LINE
8
BLACK
6
CONTINUOUS
10
150.982
20
-26.5005
11
150.839
21
-26.5324
0
LINE
8
BLACK
6
CONTINUOUS
10
150.839
20
-26.5324
11
150.554
21
-26.5324
0
LINE
8
BLACK
6
CONTINUOUS
10
150.554
20
-26.5324
11
150.482
21
-26.5005
0
LINE
8
BLACK
6
CONTINUOUS
10
150.482
20
-26.5005
11
150.446
21
-26.4686
0
LINE
8
BLACK
6
CONTINUOUS
10
150.446
20
-26.4686
11
150.411
21
-26.4048
0
LINE
8
BLACK
6
CONTINUOUS
10
150.411
20
-26.4048
11
150.411
21
-26.2771
0
LINE
8
BLACK
6
CONTINUOUS
10
150.411
20
-26.2771
11
150.446
21
-26.2133
0
LINE
8
BLACK
6
CONTINUOUS
10
150.446
20
-26.2133
11
150.482
21
-26.1814
0
LINE
8
BLACK
6
CONTINUOUS
10
150.482
20
-26.1814
11
150.554
21
-26.1495
0
LINE
8
BLACK
6
CONTINUOUS
10
150.554
20
-26.1495
11
150.732
21
-26.1495
0
LINE
8
BLACK
6
CONTINUOUS
10
150.732
20
-26.1495
11
150.804
21
-26.1814
0
LINE
8
BLACK
6
CONTINUOUS
10
150.804
20
-26.1814
11
150.839
21
-26.2133
0
LINE
8
BLACK
6
CONTINUOUS
10
150.839
20
-26.2133
11
150.875
21
-26.2771
0
LINE
8
BLACK
6
CONTINUOUS
10
150.875
20
-26.2771
11
150.875
21
-26.4048
0
LINE
8
BLACK
6
CONTINUOUS
10
150.875
20
-26.4048
11
150.839
21
-26.4686
0
LINE
8
BLACK
6
CONTINUOUS
10
150.839
20
-26.4686
11
150.804
21
-26.5005
0
LINE
8
BLACK
6
CONTINUOUS
10
150.804
20
-26.5005
11
150.732
21
-26.5324
0
LINE
8
BLACK
6
CONTINUOUS
10
151.196
20
-25.3838
11
150.232
21
-25.9581
0
LINE
8
BLACK
6
CONTINUOUS
10
150.804
20
-24.9371
11
150.768
21
-24.8414
0
LINE
8
BLACK
6
CONTINUOUS
10
150.768
20
-24.8414
11
150.732
21
-24.8095
0
LINE
8
BLACK
6
CONTINUOUS
10
150.732
20
-24.8095
11
150.661
21
-24.7776
0
LINE
8
BLACK
6
CONTINUOUS
10
150.661
20
-24.7776
11
150.554
21
-24.7776
0
LINE
8
BLACK
6
CONTINUOUS
10
150.554
20
-24.7776
11
150.482
21
-24.8095
0
LINE
8
BLACK
6
CONTINUOUS
10
150.482
20
-24.8095
11
150.446
21
-24.8414
0
LINE
8
BLACK
6
CONTINUOUS
10
150.446
20
-24.8414
11
150.411
21
-24.9052
0
LINE
8
BLACK
6
CONTINUOUS
10
150.411
20
-24.9052
11
150.411
21
-25.1605
0
LINE
8
BLACK
6
CONTINUOUS
10
150.411
20
-25.1605
11
151.161
21
-25.1605
0
LINE
8
BLACK
6
CONTINUOUS
10
151.161
20
-25.1605
11
151.161
21
-24.9371
0
LINE
8
BLACK
6
CONTINUOUS
10
151.161
20
-24.9371
11
151.125
21
-24.8733
0
LINE
8
BLACK
6
CONTINUOUS
10
151.125
20
-24.8733
11
151.089
21
-24.8414
0
LINE
8
BLACK
6
CONTINUOUS
10
151.089
20
-24.8414
11
151.018
21
-24.8095
0
LINE
8
BLACK
6
CONTINUOUS
10
151.018
20
-24.8095
11
150.946
21
-24.8095
0
LINE
8
BLACK
6
CONTINUOUS
10
150.946
20
-24.8095
11
150.875
21
-24.8414
0
LINE
8
BLACK
6
CONTINUOUS
10
150.875
20
-24.8414
11
150.839
21
-24.8733
0
LINE
8
BLACK
6
CONTINUOUS
10
150.839
20
-24.8733
11
150.804
21
-24.9371
0
LINE
8
BLACK
6
CONTINUOUS
10
150.804
20
-24.9371
11
150.804
21
-25.1605
0
LINE
8
BLACK
6
CONTINUOUS
10
151.089
20
-24.5224
11
151.125
21
-24.4905
0
LINE
8
BLACK
6
CONTINUOUS
10
151.125
20
-24.4905
11
151.161
21
-24.4267
0
LINE
8
BLACK
6
CONTINUOUS
10
151.161
20
-24.4267
11
151.161
21
-24.2671
0
LINE
8
BLACK
6
CONTINUOUS
10
151.161
20
-24.2671
11
151.125
21
-24.2033
0
LINE
8
BLACK
6
CONTINUOUS
10
151.125
20
-24.2033
11
151.089
21
-24.1714
0
LINE
8
BLACK
6
CONTINUOUS
10
151.089
20
-24.1714
11
151.018
21
-24.1395
0
LINE
8
BLACK
6
CONTINUOUS
10
151.018
20
-24.1395
11
150.946
21
-24.1395
0
LINE
8
BLACK
6
CONTINUOUS
10
150.946
20
-24.1395
11
150.839
21
-24.1714
0
LINE
8
BLACK
6
CONTINUOUS
10
150.839
20
-24.1714
11
150.411
21
-24.5543
0
LINE
8
BLACK
6
CONTINUOUS
10
150.411
20
-24.5543
11
150.411
21
-24.1395
0
LINE
8
BLACK
6
CONTINUOUS
10
152.911
20
-26.7876
11
152.911
21
-27.1705
0
LINE
8
BLACK
6
CONTINUOUS
10
152.911
20
-26.979
11
153.661
21
-26.979
0
LINE
8
BLACK
6
CONTINUOUS
10
153.661
20
-26.979
11
153.554
21
-27.0429
0
LINE
8
BLACK
6
CONTINUOUS
10
153.554
20
-27.0429
11
153.482
21
-27.1067
0
LINE
8
BLACK
6
CONTINUOUS
10
153.482
20
-27.1067
11
153.446
21
-27.1705
0
LINE
8
BLACK
6
CONTINUOUS
10
153.661
20
-26.3729
11
153.661
21
-26.309
0
LINE
8
BLACK
6
CONTINUOUS
10
153.661
20
-26.309
11
153.625
21
-26.2452
0
LINE
8
BLACK
6
CONTINUOUS
10
153.625
20
-26.2452
11
153.589
21
-26.2133
0
LINE
8
BLACK
6
CONTINUOUS
10
153.589
20
-26.2133
11
153.518
21
-26.1814
0
LINE
8
BLACK
6
CONTINUOUS
10
153.518
20
-26.1814
11
153.375
21
-26.1495
0
LINE
8
BLACK
6
CONTINUOUS
10
153.375
20
-26.1495
11
153.196
21
-26.1495
0
LINE
8
BLACK
6
CONTINUOUS
10
153.196
20
-26.1495
11
153.054
21
-26.1814
0
LINE
8
BLACK
6
CONTINUOUS
10
153.054
20
-26.1814
11
152.982
21
-26.2133
0
LINE
8
BLACK
6
CONTINUOUS
10
152.982
20
-26.2133
11
152.946
21
-26.2452
0
LINE
8
BLACK
6
CONTINUOUS
10
152.946
20
-26.2452
11
152.911
21
-26.309
0
LINE
8
BLACK
6
CONTINUOUS
10
152.911
20
-26.309
11
152.911
21
-26.3729
0
LINE
8
BLACK
6
CONTINUOUS
10
152.911
20
-26.3729
11
152.946
21
-26.4367
0
LINE
8
BLACK
6
CONTINUOUS
10
152.946
20
-26.4367
11
152.982
21
-26.4686
0
LINE
8
BLACK
6
CONTINUOUS
10
152.982
20
-26.4686
11
153.054
21
-26.5005
0
LINE
8
BLACK
6
CONTINUOUS
10
153.054
20
-26.5005
11
153.196
21
-26.5324
0
LINE
8
BLACK
6
CONTINUOUS
10
153.196
20
-26.5324
11
153.375
21
-26.5324
0
LINE
8
BLACK
6
CONTINUOUS
10
153.375
20
-26.5324
11
153.518
21
-26.5005
0
LINE
8
BLACK
6
CONTINUOUS
10
153.518
20
-26.5005
11
153.589
21
-26.4686
0
LINE
8
BLACK
6
CONTINUOUS
10
153.589
20
-26.4686
11
153.625
21
-26.4367
0
LINE
8
BLACK
6
CONTINUOUS
10
153.625
20
-26.4367
11
153.661
21
-26.3729
0
LINE
8
BLACK
6
CONTINUOUS
10
153.696
20
-25.3838
11
152.732
21
-25.9581
0
LINE
8
BLACK
6
CONTINUOUS
10
153.304
20
-24.9371
11
153.268
21
-24.8414
0
LINE
8
BLACK
6
CONTINUOUS
10
153.268
20
-24.8414
11
153.232
21
-24.8095
0
LINE
8
BLACK
6
CONTINUOUS
10
153.232
20
-24.8095
11
153.161
21
-24.7776
0
LINE
8
BLACK
6
CONTINUOUS
10
153.161
20
-24.7776
11
153.054
21
-24.7776
0
LINE
8
BLACK
6
CONTINUOUS
10
153.054
20
-24.7776
11
152.982
21
-24.8095
0
LINE
8
BLACK
6
CONTINUOUS
10
152.982
20
-24.8095
11
152.946
21
-24.8414
0
LINE
8
BLACK
6
CONTINUOUS
10
152.946
20
-24.8414
11
152.911
21
-24.9052
0
LINE
8
BLACK
6
CONTINUOUS
10
152.911
20
-24.9052
11
152.911
21
-25.1605
0
LINE
8
BLACK
6
CONTINUOUS
10
152.911
20
-25.1605
11
153.661
21
-25.1605
0
LINE
8
BLACK
6
CONTINUOUS
10
153.661
20
-25.1605
11
153.661
21
-24.9371
0
LINE
8
BLACK
6
CONTINUOUS
10
153.661
20
-24.9371
11
153.625
21
-24.8733
0
LINE
8
BLACK
6
CONTINUOUS
10
153.625
20
-24.8733
11
153.589
21
-24.8414
0
LINE
8
BLACK
6
CONTINUOUS
10
153.589
20
-24.8414
11
153.518
21
-24.8095
0
LINE
8
BLACK
6
CONTINUOUS
10
153.518
20
-24.8095
11
153.446
21
-24.8095
0
LINE
8
BLACK
6
CONTINUOUS
10
153.446
20
-24.8095
11
153.375
21
-24.8414
0
LINE
8
BLACK
6
CONTINUOUS
10
153.375
20
-24.8414
11
153.339
21
-24.8733
0
LINE
8
BLACK
6
CONTINUOUS
10
153.339
20
-24.8733
11
153.304
21
-24.9371
0
LINE
8
BLACK
6
CONTINUOUS
10
153.304
20
-24.9371
11
153.304
21
-25.1605
0
LINE
8
BLACK
6
CONTINUOUS
10
153.661
20
-24.2033
11
153.661
21
-24.331
0
LINE
8
BLACK
6
CONTINUOUS
10
153.661
20
-24.331
11
153.625
21
-24.3948
0
LINE
8
BLACK
6
CONTINUOUS
10
153.625
20
-24.3948
11
153.589
21
-24.4267
0
LINE
8
BLACK
6
CONTINUOUS
10
153.589
20
-24.4267
11
153.482
21
-24.4905
0
LINE
8
BLACK
6
CONTINUOUS
10
153.482
20
-24.4905
11
153.339
21
-24.5224
0
LINE
8
BLACK
6
CONTINUOUS
10
153.339
20
-24.5224
11
153.054
21
-24.5224
0
LINE
8
BLACK
6
CONTINUOUS
10
153.054
20
-24.5224
11
152.982
21
-24.4905
0
LINE
8
BLACK
6
CONTINUOUS
10
152.982
20
-24.4905
11
152.946
21
-24.4586
0
LINE
8
BLACK
6
CONTINUOUS
10
152.946
20
-24.4586
11
152.911
21
-24.3948
0
LINE
8
BLACK
6
CONTINUOUS
10
152.911
20
-24.3948
11
152.911
21
-24.2671
0
LINE
8
BLACK
6
CONTINUOUS
10
152.911
20
-24.2671
11
152.946
21
-24.2033
0
LINE
8
BLACK
6
CONTINUOUS
10
152.946
20
-24.2033
11
152.982
21
-24.1714
0
LINE
8
BLACK
6
CONTINUOUS
10
152.982
20
-24.1714
11
153.054
21
-24.1395
0
LINE
8
BLACK
6
CONTINUOUS
10
153.054
20
-24.1395
11
153.232
21
-24.1395
0
LINE
8
BLACK
6
CONTINUOUS
10
153.232
20
-24.1395
11
153.304
21
-24.1714
0
LINE
8
BLACK
6
CONTINUOUS
10
153.304
20
-24.1714
11
153.339
21
-24.2033
0
LINE
8
BLACK
6
CONTINUOUS
10
153.339
20
-24.2033
11
153.375
21
-24.2671
0
LINE
8
BLACK
6
CONTINUOUS
10
153.375
20
-24.2671
11
153.375
21
-24.3948
0
LINE
8
BLACK
6
CONTINUOUS
10
153.375
20
-24.3948
11
153.339
21
-24.4586
0
LINE
8
BLACK
6
CONTINUOUS
10
153.339
20
-24.4586
11
153.304
21
-24.4905
0
LINE
8
BLACK
6
CONTINUOUS
10
153.304
20
-24.4905
11
153.232
21
-24.5224
0
LINE
8
BLACK
6
CONTINUOUS
10
147.861
20
-26.7876
11
147.861
21
-27.1705
0
LINE
8
BLACK
6
CONTINUOUS
10
147.861
20
-26.979
11
148.611
21
-26.979
0
LINE
8
BLACK
6
CONTINUOUS
10
148.611
20
-26.979
11
148.504
21
-27.0429
0
LINE
8
BLACK
6
CONTINUOUS
10
148.504
20
-27.0429
11
148.432
21
-27.1067
0
LINE
8
BLACK
6
CONTINUOUS
10
148.432
20
-27.1067
11
148.396
21
-27.1705
0
LINE
8
BLACK
6
CONTINUOUS
10
148.361
20
-26.2133
11
147.861
21
-26.2133
0
LINE
8
BLACK
6
CONTINUOUS
10
148.646
20
-26.3729
11
148.111
21
-26.5324
0
LINE
8
BLACK
6
CONTINUOUS
10
148.111
20
-26.5324
11
148.111
21
-26.1176
0
LINE
8
BLACK
6
CONTINUOUS
10
148.646
20
-25.3838
11
147.682
21
-25.9581
0
LINE
8
BLACK
6
CONTINUOUS
10
148.254
20
-24.9371
11
148.218
21
-24.8414
0
LINE
8
BLACK
6
CONTINUOUS
10
148.218
20
-24.8414
11
148.182
21
-24.8095
0
LINE
8
BLACK
6
CONTINUOUS
10
148.182
20
-24.8095
11
148.111
21
-24.7776
0
LINE
8
BLACK
6
CONTINUOUS
10
148.111
20
-24.7776
11
148.004
21
-24.7776
0
LINE
8
BLACK
6
CONTINUOUS
10
148.004
20
-24.7776
11
147.932
21
-24.8095
0
LINE
8
BLACK
6
CONTINUOUS
10
147.932
20
-24.8095
11
147.896
21
-24.8414
0
LINE
8
BLACK
6
CONTINUOUS
10
147.896
20
-24.8414
11
147.861
21
-24.9052
0
LINE
8
BLACK
6
CONTINUOUS
10
147.861
20
-24.9052
11
147.861
21
-25.1605
0
LINE
8
BLACK
6
CONTINUOUS
10
147.861
20
-25.1605
11
148.611
21
-25.1605
0
LINE
8
BLACK
6
CONTINUOUS
10
148.611
20
-25.1605
11
148.611
21
-24.9371
0
LINE
8
BLACK
6
CONTINUOUS
10
148.611
20
-24.9371
11
148.575
21
-24.8733
0
LINE
8
BLACK
6
CONTINUOUS
10
148.575
20
-24.8733
11
148.539
21
-24.8414
0
LINE
8
BLACK
6
CONTINUOUS
10
148.539
20
-24.8414
11
148.468
21
-24.8095
0
LINE
8
BLACK
6
CONTINUOUS
10
148.468
20
-24.8095
11
148.396
21
-24.8095
0
LINE
8
BLACK
6
CONTINUOUS
10
148.396
20
-24.8095
11
148.325
21
-24.8414
0
LINE
8
BLACK
6
CONTINUOUS
10
148.325
20
-24.8414
11
148.289
21
-24.8733
0
LINE
8
BLACK
6
CONTINUOUS
10
148.289
20
-24.8733
11
148.254
21
-24.9371
0
LINE
8
BLACK
6
CONTINUOUS
10
148.254
20
-24.9371
11
148.254
21
-25.1605
0
LINE
8
BLACK
6
CONTINUOUS
10
148.611
20
-24.5543
11
148.611
21
-24.1395
0
LINE
8
BLACK
6
CONTINUOUS
10
148.611
20
-24.1395
11
148.325
21
-24.3629
0
LINE
8
BLACK
6
CONTINUOUS
10
148.325
20
-24.3629
11
148.325
21
-24.2671
0
LINE
8
BLACK
6
CONTINUOUS
10
148.325
20
-24.2671
11
148.289
21
-24.2033
0
LINE
8
BLACK
6
CONTINUOUS
10
148.289
20
-24.2033
11
148.254
21
-24.1714
0
LINE
8
BLACK
6
CONTINUOUS
10
148.254
20
-24.1714
11
148.182
21
-24.1395
0
LINE
8
BLACK
6
CONTINUOUS
10
148.182
20
-24.1395
11
148.004
21
-24.1395
0
LINE
8
BLACK
6
CONTINUOUS
10
148.004
20
-24.1395
11
147.932
21
-24.1714
0
LINE
8
BLACK
6
CONTINUOUS
10
147.932
20
-24.1714
11
147.896
21
-24.2033
0
LINE
8
BLACK
6
CONTINUOUS
10
147.896
20
-24.2033
11
147.861
21
-24.2671
0
LINE
8
BLACK
6
CONTINUOUS
10
147.861
20
-24.2671
11
147.861
21
-24.4586
0
LINE
8
BLACK
6
CONTINUOUS
10
147.861
20
-24.4586
11
147.896
21
-24.5224
0
LINE
8
BLACK
6
CONTINUOUS
10
147.896
20
-24.5224
11
147.932
21
-24.5543
0
LINE
8
BLACK
6
CONTINUOUS
10
145.311
20
-26.7876
11
145.311
21
-27.1705
0
LINE
8
BLACK
6
CONTINUOUS
10
145.311
20
-26.979
11
146.061
21
-26.979
0
LINE
8
BLACK
6
CONTINUOUS
10
146.061
20
-26.979
11
145.954
21
-27.0429
0
LINE
8
BLACK
6
CONTINUOUS
10
145.954
20
-27.0429
11
145.882
21
-27.1067
0
LINE
8
BLACK
6
CONTINUOUS
10
145.882
20
-27.1067
11
145.846
21
-27.1705
0
LINE
8
BLACK
6
CONTINUOUS
10
146.061
20
-26.1814
11
146.061
21
-26.5005
0
LINE
8
BLACK
6
CONTINUOUS
10
146.061
20
-26.5005
11
145.704
21
-26.5324
0
LINE
8
BLACK
6
CONTINUOUS
10
145.704
20
-26.5324
11
145.739
21
-26.5005
0
LINE
8
BLACK
6
CONTINUOUS
10
145.739
20
-26.5005
11
145.775
21
-26.4367
0
LINE
8
BLACK
6
CONTINUOUS
10
145.775
20
-26.4367
11
145.775
21
-26.2771
0
LINE
8
BLACK
6
CONTINUOUS
10
145.775
20
-26.2771
11
145.739
21
-26.2133
0
LINE
8
BLACK
6
CONTINUOUS
10
145.739
20
-26.2133
11
145.704
21
-26.1814
0
LINE
8
BLACK
6
CONTINUOUS
10
145.704
20
-26.1814
11
145.632
21
-26.1495
0
LINE
8
BLACK
6
CONTINUOUS
10
145.632
20
-26.1495
11
145.454
21
-26.1495
0
LINE
8
BLACK
6
CONTINUOUS
10
145.454
20
-26.1495
11
145.382
21
-26.1814
0
LINE
8
BLACK
6
CONTINUOUS
10
145.382
20
-26.1814
11
145.346
21
-26.2133
0
LINE
8
BLACK
6
CONTINUOUS
10
145.346
20
-26.2133
11
145.311
21
-26.2771
0
LINE
8
BLACK
6
CONTINUOUS
10
145.311
20
-26.2771
11
145.311
21
-26.4367
0
LINE
8
BLACK
6
CONTINUOUS
10
145.311
20
-26.4367
11
145.346
21
-26.5005
0
LINE
8
BLACK
6
CONTINUOUS
10
145.346
20
-26.5005
11
145.382
21
-26.5324
0
LINE
8
BLACK
6
CONTINUOUS
10
146.096
20
-25.3838
11
145.132
21
-25.9581
0
LINE
8
BLACK
6
CONTINUOUS
10
145.704
20
-24.9371
11
145.668
21
-24.8414
0
LINE
8
BLACK
6
CONTINUOUS
10
145.668
20
-24.8414
11
145.632
21
-24.8095
0
LINE
8
BLACK
6
CONTINUOUS
10
145.632
20
-24.8095
11
145.561
21
-24.7776
0
LINE
8
BLACK
6
CONTINUOUS
10
145.561
20
-24.7776
11
145.454
21
-24.7776
0
LINE
8
BLACK
6
CONTINUOUS
10
145.454
20
-24.7776
11
145.382
21
-24.8095
0
LINE
8
BLACK
6
CONTINUOUS
10
145.382
20
-24.8095
11
145.346
21
-24.8414
0
LINE
8
BLACK
6
CONTINUOUS
10
145.346
20
-24.8414
11
145.311
21
-24.9052
0
LINE
8
BLACK
6
CONTINUOUS
10
145.311
20
-24.9052
11
145.311
21
-25.1605
0
LINE
8
BLACK
6
CONTINUOUS
10
145.311
20
-25.1605
11
146.061
21
-25.1605
0
LINE
8
BLACK
6
CONTINUOUS
10
146.061
20
-25.1605
11
146.061
21
-24.9371
0
LINE
8
BLACK
6
CONTINUOUS
10
146.061
20
-24.9371
11
146.025
21
-24.8733
0
LINE
8
BLACK
6
CONTINUOUS
10
146.025
20
-24.8733
11
145.989
21
-24.8414
0
LINE
8
BLACK
6
CONTINUOUS
10
145.989
20
-24.8414
11
145.918
21
-24.8095
0
LINE
8
BLACK
6
CONTINUOUS
10
145.918
20
-24.8095
11
145.846
21
-24.8095
0
LINE
8
BLACK
6
CONTINUOUS
10
145.846
20
-24.8095
11
145.775
21
-24.8414
0
LINE
8
BLACK
6
CONTINUOUS
10
145.775
20
-24.8414
11
145.739
21
-24.8733
0
LINE
8
BLACK
6
CONTINUOUS
10
145.739
20
-24.8733
11
145.704
21
-24.9371
0
LINE
8
BLACK
6
CONTINUOUS
10
145.704
20
-24.9371
11
145.704
21
-25.1605
0
LINE
8
BLACK
6
CONTINUOUS
10
145.311
20
-24.1395
11
145.311
21
-24.5224
0
LINE
8
BLACK
6
CONTINUOUS
10
145.311
20
-24.331
11
146.061
21
-24.331
0
LINE
8
BLACK
6
CONTINUOUS
10
146.061
20
-24.331
11
145.954
21
-24.3948
0
LINE
8
BLACK
6
CONTINUOUS
10
145.954
20
-24.3948
11
145.882
21
-24.4586
0
LINE
8
BLACK
6
CONTINUOUS
10
145.882
20
-24.4586
11
145.846
21
-24.5224
0
LINE
8
BLACK
6
CONTINUOUS
10
142.975
20
-27.0907
11
142.975
21
-26.7717
0
LINE
8
BLACK
6
CONTINUOUS
10
142.761
20
-27.1545
11
143.511
21
-26.9312
0
LINE
8
BLACK
6
CONTINUOUS
10
143.511
20
-26.9312
11
142.761
21
-26.7079
0
LINE
8
BLACK
6
CONTINUOUS
10
143.511
20
-26.3569
11
143.511
21
-26.2931
0
LINE
8
BLACK
6
CONTINUOUS
10
143.511
20
-26.2931
11
143.475
21
-26.2293
0
LINE
8
BLACK
6
CONTINUOUS
10
143.475
20
-26.2293
11
143.439
21
-26.1974
0
LINE
8
BLACK
6
CONTINUOUS
10
143.439
20
-26.1974
11
143.368
21
-26.1655
0
LINE
8
BLACK
6
CONTINUOUS
10
143.368
20
-26.1655
11
143.225
21
-26.1336
0
LINE
8
BLACK
6
CONTINUOUS
10
143.225
20
-26.1336
11
143.046
21
-26.1336
0
LINE
8
BLACK
6
CONTINUOUS
10
143.046
20
-26.1336
11
142.904
21
-26.1655
0
LINE
8
BLACK
6
CONTINUOUS
10
142.904
20
-26.1655
11
142.832
21
-26.1974
0
LINE
8
BLACK
6
CONTINUOUS
10
142.832
20
-26.1974
11
142.796
21
-26.2293
0
LINE
8
BLACK
6
CONTINUOUS
10
142.796
20
-26.2293
11
142.761
21
-26.2931
0
LINE
8
BLACK
6
CONTINUOUS
10
142.761
20
-26.2931
11
142.761
21
-26.3569
0
LINE
8
BLACK
6
CONTINUOUS
10
142.761
20
-26.3569
11
142.796
21
-26.4207
0
LINE
8
BLACK
6
CONTINUOUS
10
142.796
20
-26.4207
11
142.832
21
-26.4526
0
LINE
8
BLACK
6
CONTINUOUS
10
142.832
20
-26.4526
11
142.904
21
-26.4845
0
LINE
8
BLACK
6
CONTINUOUS
10
142.904
20
-26.4845
11
143.046
21
-26.5164
0
LINE
8
BLACK
6
CONTINUOUS
10
143.046
20
-26.5164
11
143.225
21
-26.5164
0
LINE
8
BLACK
6
CONTINUOUS
10
143.225
20
-26.5164
11
143.368
21
-26.4845
0
LINE
8
BLACK
6
CONTINUOUS
10
143.368
20
-26.4845
11
143.439
21
-26.4526
0
LINE
8
BLACK
6
CONTINUOUS
10
143.439
20
-26.4526
11
143.475
21
-26.4207
0
LINE
8
BLACK
6
CONTINUOUS
10
143.475
20
-26.4207
11
143.511
21
-26.3569
0
LINE
8
BLACK
6
CONTINUOUS
10
143.546
20
-25.3679
11
142.582
21
-25.9421
0
LINE
8
BLACK
6
CONTINUOUS
10
143.154
20
-24.9212
11
143.154
21
-25.1445
0
LINE
8
BLACK
6
CONTINUOUS
10
142.761
20
-25.1445
11
143.511
21
-25.1445
0
LINE
8
BLACK
6
CONTINUOUS
10
143.511
20
-25.1445
11
143.511
21
-24.8255
0
LINE
8
BLACK
6
CONTINUOUS
10
143.511
20
-24.634
11
143.511
21
-24.1874
0
LINE
8
BLACK
6
CONTINUOUS
10
143.511
20
-24.1874
11
142.761
21
-24.4745
0
LINE
8
BLACK
6
CONTINUOUS
10
140.425
20
-27.0907
11
140.425
21
-26.7717
0
LINE
8
BLACK
6
CONTINUOUS
10
140.211
20
-27.1545
11
140.961
21
-26.9312
0
LINE
8
BLACK
6
CONTINUOUS
10
140.961
20
-26.9312
11
140.211
21
-26.7079
0
LINE
8
BLACK
6
CONTINUOUS
10
140.211
20
-26.1336
11
140.211
21
-26.5164
0
LINE
8
BLACK
6
CONTINUOUS
10
140.211
20
-26.325
11
140.961
21
-26.325
0
LINE
8
BLACK
6
CONTINUOUS
10
140.961
20
-26.325
11
140.854
21
-26.3888
0
LINE
8
BLACK
6
CONTINUOUS
10
140.854
20
-26.3888
11
140.782
21
-26.4526
0
LINE
8
BLACK
6
CONTINUOUS
10
140.782
20
-26.4526
11
140.746
21
-26.5164
0
LINE
8
BLACK
6
CONTINUOUS
10
140.996
20
-25.3679
11
140.032
21
-25.9421
0
LINE
8
BLACK
6
CONTINUOUS
10
140.604
20
-24.9212
11
140.604
21
-25.1445
0
LINE
8
BLACK
6
CONTINUOUS
10
140.211
20
-25.1445
11
140.961
21
-25.1445
0
LINE
8
BLACK
6
CONTINUOUS
10
140.961
20
-25.1445
11
140.961
21
-24.8255
0
LINE
8
BLACK
6
CONTINUOUS
10
140.961
20
-24.2831
11
140.961
21
-24.4107
0
LINE
8
BLACK
6
CONTINUOUS
10
140.961
20
-24.4107
11
140.925
21
-24.4745
0
LINE
8
BLACK
6
CONTINUOUS
10
140.925
20
-24.4745
11
140.889
21
-24.5064
0
LINE
8
BLACK
6
CONTINUOUS
10
140.889
20
-24.5064
11
140.782
21
-24.5702
0
LINE
8
BLACK
6
CONTINUOUS
10
140.782
20
-24.5702
11
140.639
21
-24.6021
0
LINE
8
BLACK
6
CONTINUOUS
10
140.639
20
-24.6021
11
140.354
21
-24.6021
0
LINE
8
BLACK
6
CONTINUOUS
10
140.354
20
-24.6021
11
140.282
21
-24.5702
0
LINE
8
BLACK
6
CONTINUOUS
10
140.282
20
-24.5702
11
140.246
21
-24.5383
0
LINE
8
BLACK
6
CONTINUOUS
10
140.246
20
-24.5383
11
140.211
21
-24.4745
0
LINE
8
BLACK
6
CONTINUOUS
10
140.211
20
-24.4745
11
140.211
21
-24.3469
0
LINE
8
BLACK
6
CONTINUOUS
10
140.211
20
-24.3469
11
140.246
21
-24.2831
0
LINE
8
BLACK
6
CONTINUOUS
10
140.246
20
-24.2831
11
140.282
21
-24.2512
0
LINE
8
BLACK
6
CONTINUOUS
10
140.282
20
-24.2512
11
140.354
21
-24.2193
0
LINE
8
BLACK
6
CONTINUOUS
10
140.354
20
-24.2193
11
140.532
21
-24.2193
0
LINE
8
BLACK
6
CONTINUOUS
10
140.532
20
-24.2193
11
140.604
21
-24.2512
0
LINE
8
BLACK
6
CONTINUOUS
10
140.604
20
-24.2512
11
140.639
21
-24.2831
0
LINE
8
BLACK
6
CONTINUOUS
10
140.639
20
-24.2831
11
140.675
21
-24.3469
0
LINE
8
BLACK
6
CONTINUOUS
10
140.675
20
-24.3469
11
140.675
21
-24.4745
0
LINE
8
BLACK
6
CONTINUOUS
10
140.675
20
-24.4745
11
140.639
21
-24.5383
0
LINE
8
BLACK
6
CONTINUOUS
10
140.639
20
-24.5383
11
140.604
21
-24.5702
0
LINE
8
BLACK
6
CONTINUOUS
10
140.604
20
-24.5702
11
140.532
21
-24.6021
0
LINE
8
BLACK
6
CONTINUOUS
10
137.925
20
-27.0907
11
137.925
21
-26.7717
0
LINE
8
BLACK
6
CONTINUOUS
10
137.711
20
-27.1545
11
138.461
21
-26.9312
0
LINE
8
BLACK
6
CONTINUOUS
10
138.461
20
-26.9312
11
137.711
21
-26.7079
0
LINE
8
BLACK
6
CONTINUOUS
10
138.389
20
-26.5164
11
138.425
21
-26.4845
0
LINE
8
BLACK
6
CONTINUOUS
10
138.425
20
-26.4845
11
138.461
21
-26.4207
0
LINE
8
BLACK
6
CONTINUOUS
10
138.461
20
-26.4207
11
138.461
21
-26.2612
0
LINE
8
BLACK
6
CONTINUOUS
10
138.461
20
-26.2612
11
138.425
21
-26.1974
0
LINE
8
BLACK
6
CONTINUOUS
10
138.425
20
-26.1974
11
138.389
21
-26.1655
0
LINE
8
BLACK
6
CONTINUOUS
10
138.389
20
-26.1655
11
138.318
21
-26.1336
0
LINE
8
BLACK
6
CONTINUOUS
10
138.318
20
-26.1336
11
138.246
21
-26.1336
0
LINE
8
BLACK
6
CONTINUOUS
10
138.246
20
-26.1336
11
138.139
21
-26.1655
0
LINE
8
BLACK
6
CONTINUOUS
10
138.139
20
-26.1655
11
137.711
21
-26.5483
0
LINE
8
BLACK
6
CONTINUOUS
10
137.711
20
-26.5483
11
137.711
21
-26.1336
0
LINE
8
BLACK
6
CONTINUOUS
10
138.496
20
-25.3679
11
137.532
21
-25.9421
0
LINE
8
BLACK
6
CONTINUOUS
10
138.104
20
-24.9212
11
138.104
21
-25.1445
0
LINE
8
BLACK
6
CONTINUOUS
10
137.711
20
-25.1445
11
138.461
21
-25.1445
0
LINE
8
BLACK
6
CONTINUOUS
10
138.461
20
-25.1445
11
138.461
21
-24.8255
0
LINE
8
BLACK
6
CONTINUOUS
10
138.461
20
-24.2512
11
138.461
21
-24.5702
0
LINE
8
BLACK
6
CONTINUOUS
10
138.461
20
-24.5702
11
138.104
21
-24.6021
0
LINE
8
BLACK
6
CONTINUOUS
10
138.104
20
-24.6021
11
138.139
21
-24.5702
0
LINE
8
BLACK
6
CONTINUOUS
10
138.139
20
-24.5702
11
138.175
21
-24.5064
0
LINE
8
BLACK
6
CONTINUOUS
10
138.175
20
-24.5064
11
138.175
21
-24.3469
0
LINE
8
BLACK
6
CONTINUOUS
10
138.175
20
-24.3469
11
138.139
21
-24.2831
0
LINE
8
BLACK
6
CONTINUOUS
10
138.139
20
-24.2831
11
138.104
21
-24.2512
0
LINE
8
BLACK
6
CONTINUOUS
10
138.104
20
-24.2512
11
138.032
21
-24.2193
0
LINE
8
BLACK
6
CONTINUOUS
10
138.032
20
-24.2193
11
137.854
21
-24.2193
0
LINE
8
BLACK
6
CONTINUOUS
10
137.854
20
-24.2193
11
137.782
21
-24.2512
0
LINE
8
BLACK
6
CONTINUOUS
10
137.782
20
-24.2512
11
137.746
21
-24.2831
0
LINE
8
BLACK
6
CONTINUOUS
10
137.746
20
-24.2831
11
137.711
21
-24.3469
0
LINE
8
BLACK
6
CONTINUOUS
10
137.711
20
-24.3469
11
137.711
21
-24.5064
0
LINE
8
BLACK
6
CONTINUOUS
10
137.711
20
-24.5064
11
137.746
21
-24.5702
0
LINE
8
BLACK
6
CONTINUOUS
10
137.746
20
-24.5702
11
137.782
21
-24.6021
0
LINE
8
BLACK
6
CONTINUOUS
10
135.425
20
-27.0907
11
135.425
21
-26.7717
0
LINE
8
BLACK
6
CONTINUOUS
10
135.211
20
-27.1545
11
135.961
21
-26.9312
0
LINE
8
BLACK
6
CONTINUOUS
10
135.961
20
-26.9312
11
135.211
21
-26.7079
0
LINE
8
BLACK
6
CONTINUOUS
10
135.961
20
-26.5483
11
135.961
21
-26.1336
0
LINE
8
BLACK
6
CONTINUOUS
10
135.961
20
-26.1336
11
135.675
21
-26.3569
0
LINE
8
BLACK
6
CONTINUOUS
10
135.675
20
-26.3569
11
135.675
21
-26.2612
0
LINE
8
BLACK
6
CONTINUOUS
10
135.675
20
-26.2612
11
135.639
21
-26.1974
0
LINE
8
BLACK
6
CONTINUOUS
10
135.639
20
-26.1974
11
135.604
21
-26.1655
0
LINE
8
BLACK
6
CONTINUOUS
10
135.604
20
-26.1655
11
135.532
21
-26.1336
0
LINE
8
BLACK
6
CONTINUOUS
10
135.532
20
-26.1336
11
135.354
21
-26.1336
0
LINE
8
BLACK
6
CONTINUOUS
10
135.354
20
-26.1336
11
135.282
21
-26.1655
0
LINE
8
BLACK
6
CONTINUOUS
10
135.282
20
-26.1655
11
135.246
21
-26.1974
0
LINE
8
BLACK
6
CONTINUOUS
10
135.246
20
-26.1974
11
135.211
21
-26.2612
0
LINE
8
BLACK
6
CONTINUOUS
10
135.211
20
-26.2612
11
135.211
21
-26.4526
0
LINE
8
BLACK
6
CONTINUOUS
10
135.211
20
-26.4526
11
135.246
21
-26.5164
0
LINE
8
BLACK
6
CONTINUOUS
10
135.246
20
-26.5164
11
135.282
21
-26.5483
0
LINE
8
BLACK
6
CONTINUOUS
10
135.996
20
-25.3679
11
135.032
21
-25.9421
0
LINE
8
BLACK
6
CONTINUOUS
10
135.604
20
-24.9212
11
135.604
21
-25.1445
0
LINE
8
BLACK
6
CONTINUOUS
10
135.211
20
-25.1445
11
135.961
21
-25.1445
0
LINE
8
BLACK
6
CONTINUOUS
10
135.961
20
-25.1445
11
135.961
21
-24.8255
0
LINE
8
BLACK
6
CONTINUOUS
10
135.711
20
-24.2831
11
135.211
21
-24.2831
0
LINE
8
BLACK
6
CONTINUOUS
10
135.996
20
-24.4426
11
135.461
21
-24.6021
0
LINE
8
BLACK
6
CONTINUOUS
10
135.461
20
-24.6021
11
135.461
21
-24.1874
0
LINE
8
BLACK
6
CONTINUOUS
10
133.261
20
-27.1983
11
132.511
21
-26.975
0
LINE
8
BLACK
6
CONTINUOUS
10
132.511
20
-26.975
11
133.261
21
-26.7517
0
LINE
8
BLACK
6
CONTINUOUS
10
132.582
20
-26.1455
11
132.546
21
-26.1774
0
LINE
8
BLACK
6
CONTINUOUS
10
132.546
20
-26.1774
11
132.511
21
-26.2731
0
LINE
8
BLACK
6
CONTINUOUS
10
132.511
20
-26.2731
11
132.511
21
-26.3369
0
LINE
8
BLACK
6
CONTINUOUS
10
132.511
20
-26.3369
11
132.546
21
-26.4326
0
LINE
8
BLACK
6
CONTINUOUS
10
132.546
20
-26.4326
11
132.618
21
-26.4964
0
LINE
8
BLACK
6
CONTINUOUS
10
132.618
20
-26.4964
11
132.689
21
-26.5283
0
LINE
8
BLACK
6
CONTINUOUS
10
132.689
20
-26.5283
11
132.832
21
-26.5602
0
LINE
8
BLACK
6
CONTINUOUS
10
132.832
20
-26.5602
11
132.939
21
-26.5602
0
LINE
8
BLACK
6
CONTINUOUS
10
132.939
20
-26.5602
11
133.082
21
-26.5283
0
LINE
8
BLACK
6
CONTINUOUS
10
133.082
20
-26.5283
11
133.154
21
-26.4964
0
LINE
8
BLACK
6
CONTINUOUS
10
133.154
20
-26.4964
11
133.225
21
-26.4326
0
LINE
8
BLACK
6
CONTINUOUS
10
133.225
20
-26.4326
11
133.261
21
-26.3369
0
LINE
8
BLACK
6
CONTINUOUS
10
133.261
20
-26.3369
11
133.261
21
-26.2731
0
LINE
8
BLACK
6
CONTINUOUS
10
133.261
20
-26.2731
11
133.225
21
-26.1774
0
LINE
8
BLACK
6
CONTINUOUS
10
133.225
20
-26.1774
11
133.189
21
-26.1455
0
LINE
8
BLACK
6
CONTINUOUS
10
132.582
20
-25.4755
11
132.546
21
-25.5074
0
LINE
8
BLACK
6
CONTINUOUS
10
132.546
20
-25.5074
11
132.511
21
-25.6031
0
LINE
8
BLACK
6
CONTINUOUS
10
132.511
20
-25.6031
11
132.511
21
-25.6669
0
LINE
8
BLACK
6
CONTINUOUS
10
132.511
20
-25.6669
11
132.546
21
-25.7626
0
LINE
8
BLACK
6
CONTINUOUS
10
132.546
20
-25.7626
11
132.618
21
-25.8264
0
LINE
8
BLACK
6
CONTINUOUS
10
132.618
20
-25.8264
11
132.689
21
-25.8583
0
LINE
8
BLACK
6
CONTINUOUS
10
132.689
20
-25.8583
11
132.832
21
-25.8902
0
LINE
8
BLACK
6
CONTINUOUS
10
132.832
20
-25.8902
11
132.939
21
-25.8902
0
LINE
8
BLACK
6
CONTINUOUS
10
132.939
20
-25.8902
11
133.082
21
-25.8583
0
LINE
8
BLACK
6
CONTINUOUS
10
133.082
20
-25.8583
11
133.154
21
-25.8264
0
LINE
8
BLACK
6
CONTINUOUS
10
133.154
20
-25.8264
11
133.225
21
-25.7626
0
LINE
8
BLACK
6
CONTINUOUS
10
133.225
20
-25.7626
11
133.261
21
-25.6669
0
LINE
8
BLACK
6
CONTINUOUS
10
133.261
20
-25.6669
11
133.261
21
-25.6031
0
LINE
8
BLACK
6
CONTINUOUS
10
133.261
20
-25.6031
11
133.225
21
-25.5074
0
LINE
8
BLACK
6
CONTINUOUS
10
133.225
20
-25.5074
11
133.189
21
-25.4755
0
LINE
8
BLACK
6
CONTINUOUS
10
130.061
20
-26.6719
11
130.418
21
-26.8952
0
LINE
8
BLACK
6
CONTINUOUS
10
130.061
20
-27.0548
11
130.811
21
-27.0548
0
LINE
8
BLACK
6
CONTINUOUS
10
130.811
20
-27.0548
11
130.811
21
-26.7995
0
LINE
8
BLACK
6
CONTINUOUS
10
130.811
20
-26.7995
11
130.775
21
-26.7357
0
LINE
8
BLACK
6
CONTINUOUS
10
130.775
20
-26.7357
11
130.739
21
-26.7038
0
LINE
8
BLACK
6
CONTINUOUS
10
130.739
20
-26.7038
11
130.668
21
-26.6719
0
LINE
8
BLACK
6
CONTINUOUS
10
130.668
20
-26.6719
11
130.561
21
-26.6719
0
LINE
8
BLACK
6
CONTINUOUS
10
130.561
20
-26.6719
11
130.489
21
-26.7038
0
LINE
8
BLACK
6
CONTINUOUS
10
130.489
20
-26.7038
11
130.454
21
-26.7357
0
LINE
8
BLACK
6
CONTINUOUS
10
130.454
20
-26.7357
11
130.418
21
-26.7995
0
LINE
8
BLACK
6
CONTINUOUS
10
130.418
20
-26.7995
11
130.418
21
-27.0548
0
LINE
8
BLACK
6
CONTINUOUS
10
130.096
20
-26.4167
11
130.061
21
-26.321
0
LINE
8
BLACK
6
CONTINUOUS
10
130.061
20
-26.321
11
130.061
21
-26.1614
0
LINE
8
BLACK
6
CONTINUOUS
10
130.061
20
-26.1614
11
130.096
21
-26.0976
0
LINE
8
BLACK
6
CONTINUOUS
10
130.096
20
-26.0976
11
130.132
21
-26.0657
0
LINE
8
BLACK
6
CONTINUOUS
10
130.132
20
-26.0657
11
130.204
21
-26.0338
0
LINE
8
BLACK
6
CONTINUOUS
10
130.204
20
-26.0338
11
130.275
21
-26.0338
0
LINE
8
BLACK
6
CONTINUOUS
10
130.275
20
-26.0338
11
130.346
21
-26.0657
0
LINE
8
BLACK
6
CONTINUOUS
10
130.346
20
-26.0657
11
130.382
21
-26.0976
0
LINE
8
BLACK
6
CONTINUOUS
10
130.382
20
-26.0976
11
130.418
21
-26.1614
0
LINE
8
BLACK
6
CONTINUOUS
10
130.418
20
-26.1614
11
130.454
21
-26.289
0
LINE
8
BLACK
6
CONTINUOUS
10
130.454
20
-26.289
11
130.489
21
-26.3529
0
LINE
8
BLACK
6
CONTINUOUS
10
130.489
20
-26.3529
11
130.525
21
-26.3848
0
LINE
8
BLACK
6
CONTINUOUS
10
130.525
20
-26.3848
11
130.596
21
-26.4167
0
LINE
8
BLACK
6
CONTINUOUS
10
130.596
20
-26.4167
11
130.668
21
-26.4167
0
LINE
8
BLACK
6
CONTINUOUS
10
130.668
20
-26.4167
11
130.739
21
-26.3848
0
LINE
8
BLACK
6
CONTINUOUS
10
130.739
20
-26.3848
11
130.775
21
-26.3529
0
LINE
8
BLACK
6
CONTINUOUS
10
130.775
20
-26.3529
11
130.811
21
-26.289
0
LINE
8
BLACK
6
CONTINUOUS
10
130.811
20
-26.289
11
130.811
21
-26.1295
0
LINE
8
BLACK
6
CONTINUOUS
10
130.811
20
-26.1295
11
130.775
21
-26.0338
0
LINE
8
BLACK
6
CONTINUOUS
10
130.811
20
-25.8424
11
130.811
21
-25.4595
0
LINE
8
BLACK
6
CONTINUOUS
10
130.061
20
-25.651
11
130.811
21
-25.651
0
LINE
8
BLACK
6
CONTINUOUS
10
127.475
20
-25.7945
11
127.439
21
-25.7307
0
LINE
8
BLACK
6
CONTINUOUS
10
127.439
20
-25.7307
11
127.439
21
-25.635
0
LINE
8
BLACK
6
CONTINUOUS
10
127.439
20
-25.635
11
127.475
21
-25.5393
0
LINE
8
BLACK
6
CONTINUOUS
10
127.475
20
-25.5393
11
127.546
21
-25.4755
0
LINE
8
BLACK
6
CONTINUOUS
10
127.546
20
-25.4755
11
127.618
21
-25.4436
0
LINE
8
BLACK
6
CONTINUOUS
10
127.618
20
-25.4436
11
127.761
21
-25.4117
0
LINE
8
BLACK
6
CONTINUOUS
10
127.761
20
-25.4117
11
127.868
21
-25.4117
0
LINE
8
BLACK
6
CONTINUOUS
10
127.868
20
-25.4117
11
128.011
21
-25.4436
0
LINE
8
BLACK
6
CONTINUOUS
10
128.011
20
-25.4436
11
128.082
21
-25.4755
0
LINE
8
BLACK
6
CONTINUOUS
10
128.082
20
-25.4755
11
128.154
21
-25.5393
0
LINE
8
BLACK
6
CONTINUOUS
10
128.154
20
-25.5393
11
128.189
21
-25.635
0
LINE
8
BLACK
6
CONTINUOUS
10
128.189
20
-25.635
11
128.189
21
-25.6988
0
LINE
8
BLACK
6
CONTINUOUS
10
128.189
20
-25.6988
11
128.154
21
-25.7945
0
LINE
8
BLACK
6
CONTINUOUS
10
128.154
20
-25.7945
11
128.118
21
-25.8264
0
LINE
8
BLACK
6
CONTINUOUS
10
128.118
20
-25.8264
11
127.868
21
-25.8264
0
LINE
8
BLACK
6
CONTINUOUS
10
127.868
20
-25.8264
11
127.868
21
-25.6988
0
LINE
8
BLACK
6
CONTINUOUS
10
128.189
20
-26.1136
11
127.439
21
-26.1136
0
LINE
8
BLACK
6
CONTINUOUS
10
127.439
20
-26.1136
11
128.189
21
-26.4964
0
LINE
8
BLACK
6
CONTINUOUS
10
128.189
20
-26.4964
11
127.439
21
-26.4964
0
LINE
8
BLACK
6
CONTINUOUS
10
128.189
20
-26.8155
11
127.439
21
-26.8155
0
LINE
8
BLACK
6
CONTINUOUS
10
127.439
20
-26.8155
11
127.439
21
-26.975
0
LINE
8
BLACK
6
CONTINUOUS
10
127.439
20
-26.975
11
127.475
21
-27.0707
0
LINE
8
BLACK
6
CONTINUOUS
10
127.475
20
-27.0707
11
127.546
21
-27.1345
0
LINE
8
BLACK
6
CONTINUOUS
10
127.546
20
-27.1345
11
127.618
21
-27.1664
0
LINE
8
BLACK
6
CONTINUOUS
10
127.618
20
-27.1664
11
127.761
21
-27.1983
0
LINE
8
BLACK
6
CONTINUOUS
10
127.761
20
-27.1983
11
127.868
21
-27.1983
0
LINE
8
BLACK
6
CONTINUOUS
10
127.868
20
-27.1983
11
128.011
21
-27.1664
0
LINE
8
BLACK
6
CONTINUOUS
10
128.011
20
-27.1664
11
128.082
21
-27.1345
0
LINE
8
BLACK
6
CONTINUOUS
10
128.082
20
-27.1345
11
128.154
21
-27.0707
0
LINE
8
BLACK
6
CONTINUOUS
10
128.154
20
-27.0707
11
128.189
21
-26.975
0
LINE
8
BLACK
6
CONTINUOUS
10
128.189
20
-26.975
11
128.189
21
-26.8155
0
LINE
8
BLACK
6
CONTINUOUS
10
124.961
20
-26.7676
11
125.318
21
-26.991
0
LINE
8
BLACK
6
CONTINUOUS
10
124.961
20
-27.1505
11
125.711
21
-27.1505
0
LINE
8
BLACK
6
CONTINUOUS
10
125.711
20
-27.1505
11
125.711
21
-26.8952
0
LINE
8
BLACK
6
CONTINUOUS
10
125.711
20
-26.8952
11
125.675
21
-26.8314
0
LINE
8
BLACK
6
CONTINUOUS
10
125.675
20
-26.8314
11
125.639
21
-26.7995
0
LINE
8
BLACK
6
CONTINUOUS
10
125.639
20
-26.7995
11
125.568
21
-26.7676
0
LINE
8
BLACK
6
CONTINUOUS
10
125.568
20
-26.7676
11
125.461
21
-26.7676
0
LINE
8
BLACK
6
CONTINUOUS
10
125.461
20
-26.7676
11
125.389
21
-26.7995
0
LINE
8
BLACK
6
CONTINUOUS
10
125.389
20
-26.7995
11
125.354
21
-26.8314
0
LINE
8
BLACK
6
CONTINUOUS
10
125.354
20
-26.8314
11
125.318
21
-26.8952
0
LINE
8
BLACK
6
CONTINUOUS
10
125.318
20
-26.8952
11
125.318
21
-27.1505
0
LINE
8
BLACK
6
CONTINUOUS
10
125.175
20
-26.5124
11
125.175
21
-26.1933
0
LINE
8
BLACK
6
CONTINUOUS
10
124.961
20
-26.5762
11
125.711
21
-26.3529
0
LINE
8
BLACK
6
CONTINUOUS
10
125.711
20
-26.3529
11
124.961
21
-26.1295
0
LINE
8
BLACK
6
CONTINUOUS
10
125.711
20
-25.97
11
124.961
21
-25.8105
0
LINE
8
BLACK
6
CONTINUOUS
10
124.961
20
-25.8105
11
125.496
21
-25.6829
0
LINE
8
BLACK
6
CONTINUOUS
10
125.496
20
-25.6829
11
124.961
21
-25.5552
0
LINE
8
BLACK
6
CONTINUOUS
10
124.961
20
-25.5552
11
125.711
21
-25.3957
  0
ENDSEC
  0
EOF
