  0
SECTION
  2
HEADER
  9
$ANGBASE
  50
0.0
  9
$ANGDIR
  70
1
  9
$MEASUREMENT
  70
1
  0
ENDSEC
  0
SECTION
  2
TABLES
  0
TABLE
  2
LTYPE
  70
4
  0
LTYPE
  5
40F
  2
CONTINUOUS
  70
0
  3
Solid line
  72
65
  73
0
  40
0.0
  0
LTYPE
  5
410
  2
DASHDOT
 70
0
  3
Dash Dot ____ _ ____ _
 72
65
 73
4
 40
2.0
 49
1.25
 49
-0.25
 49
0.25
 49
-0.25
  0
LTYPE
  5
411
  2
DASHED
 70
0
  3
Dashed __ __ __ __ __
 72
65
 73
2
 40
0.75
 49
0.5
 49
-0.25
  0
LTYPE
  5
43B
  2
DOTTED
 70
0
  3
Dotted .  .  .  .
 72
65
 73
2
 40
0.2
 49
0.0
 49
-0.2
  0
ENDTAB
  0
TABLE
  2
STYLE
  70
4
  0
STYLE
  2
KICAD
  70
0
  40
0
  41
1
  42
1
  50
0
  71
0
  3
isocp.shx
  0
STYLE
  2
KICADB
  70
0
  40
0
  41
1
  42
1
  50
0
  71
0
  3
isocp.shx
  0
STYLE
  2
KICADI
  70
0
  40
0
  41
1
  42
1
  50
15
  71
0
  3
isocp.shx
  0
STYLE
  2
KICADBI
  70
0
  40
0
  41
1
  42
1
  50
15
  71
0
  3
isocp.shx
  0
ENDTAB
  0
TABLE
  2
LAYER
  70
1
  0
LAYER
  2
BLACK
  70
0
  62
7
  6
CONTINUOUS
  0
ENDTAB
  0
ENDSEC
  0
SECTION
  2
ENTITIES
0
LINE
8
BLACK
6
CONTINUOUS
10
146.25
20
-75.7
11
147.75
21
-75.7
0
LINE
8
BLACK
6
CONTINUOUS
10
146.25
20
-70.3
11
146.25
21
-75.7
0
LINE
8
BLACK
6
CONTINUOUS
10
147.75
20
-70.3
11
146.25
21
-70.3
0
LINE
8
BLACK
6
CONTINUOUS
10
147.75
20
-75.7
11
147.75
21
-70.3
0
LINE
8
BLACK
6
CONTINUOUS
10
147.5
20
-72.5
11
146.5
21
-72.5
0
LINE
8
BLACK
6
CONTINUOUS
10
146.5
20
-73.5
11
147
21
-72.6
0
LINE
8
BLACK
6
CONTINUOUS
10
147.5
20
-73.5
11
146.5
21
-73.5
0
LINE
8
BLACK
6
CONTINUOUS
10
147
20
-72.6
11
147.5
21
-73.5
0
LINE
8
BLACK
6
CONTINUOUS
10
148.2
20
-66.2
11
148.2
21
-53.8
0
LINE
8
BLACK
6
CONTINUOUS
10
135.8
20
-53.8
11
135.8
21
-66.2
0
LINE
8
BLACK
6
CONTINUOUS
10
148.2
20
-53.8
11
144.5
21
-53.8
0
LINE
8
BLACK
6
CONTINUOUS
10
148.2
20
-66.2
11
144.5
21
-66.2
0
LINE
8
BLACK
6
CONTINUOUS
10
135.8
20
-53.8
11
139.5
21
-53.8
0
LINE
8
BLACK
6
CONTINUOUS
10
135.8
20
-66.2
11
139.5
21
-66.2
0
LINE
8
BLACK
6
CONTINUOUS
10
147.5
20
-59.1
11
147.5
21
-60.9
0
LINE
8
BLACK
6
CONTINUOUS
10
136.5
20
-56.8
11
136.5
21
-63.2
0
LINE
8
BLACK
6
CONTINUOUS
10
137.238
20
-75.794
11
136.984
21
-75.54
0
LINE
8
BLACK
6
CONTINUOUS
10
136.984
20
-75.54
11
136.984
21
-75.286
0
LINE
8
BLACK
6
CONTINUOUS
10
136.984
20
-75.286
11
137.238
21
-75.032
0
LINE
8
BLACK
6
CONTINUOUS
10
137.238
20
-75.032
11
137.238
21
-70.968
0
LINE
8
BLACK
6
CONTINUOUS
10
137.238
20
-70.968
11
136.984
21
-70.714
0
LINE
8
BLACK
6
CONTINUOUS
10
136.984
20
-70.714
11
136.984
21
-70.46
0
LINE
8
BLACK
6
CONTINUOUS
10
136.984
20
-70.46
11
137.238
21
-70.206
0
LINE
8
BLACK
6
CONTINUOUS
10
137.238
20
-70.206
11
138.762
21
-70.206
0
LINE
8
BLACK
6
CONTINUOUS
10
138.762
20
-70.206
11
139.016
21
-70.46
0
LINE
8
BLACK
6
CONTINUOUS
10
139.016
20
-70.46
11
139.016
21
-70.714
0
LINE
8
BLACK
6
CONTINUOUS
10
139.016
20
-70.714
11
138.762
21
-70.968
0
LINE
8
BLACK
6
CONTINUOUS
10
138.762
20
-70.968
11
138.762
21
-75.032
0
LINE
8
BLACK
6
CONTINUOUS
10
138.762
20
-75.032
11
139.016
21
-75.286
0
LINE
8
BLACK
6
CONTINUOUS
10
139.016
20
-75.286
11
139.016
21
-75.54
0
LINE
8
BLACK
6
CONTINUOUS
10
139.016
20
-75.54
11
138.762
21
-75.794
0
LINE
8
BLACK
6
CONTINUOUS
10
138.762
20
-75.794
11
137.238
21
-75.794
0
LINE
8
BLACK
6
CONTINUOUS
10
138
20
-76.302
11
138
21
-75.794
0
LINE
8
BLACK
6
CONTINUOUS
10
138
20
-70.206
11
138
21
-69.698
0
CIRCLE
8
BLACK
10
142.5
20
-85.5
40
3
0
LINE
8
BLACK
6
CONTINUOUS
10
136.2
20
-83.7
11
136.2
21
-78.8
0
LINE
8
BLACK
6
CONTINUOUS
10
136.2
20
-78.8
11
148.8
21
-78.8
0
LINE
8
BLACK
6
CONTINUOUS
10
148.8
20
-78.8
11
148.8
21
-83.7
0
LINE
8
BLACK
6
CONTINUOUS
10
148.8
20
-87.3
11
148.8
21
-92.2
0
LINE
8
BLACK
6
CONTINUOUS
10
148.8
20
-92.2
11
146
21
-92.2
0
LINE
8
BLACK
6
CONTINUOUS
10
136.2
20
-87.4
11
136.2
21
-92.2
0
LINE
8
BLACK
6
CONTINUOUS
10
136.2
20
-92.2
11
138.7
21
-92.2
0
LINE
8
BLACK
6
CONTINUOUS
10
138.7
20
-93
11
138.4
21
-93.3
0
LINE
8
BLACK
6
CONTINUOUS
10
138.4
20
-93.3
11
138.4
21
-92.7
0
LINE
8
BLACK
6
CONTINUOUS
10
138.4
20
-92.7
11
138.7
21
-93
0
LINE
8
BLACK
6
CONTINUOUS
10
142
20
-85.5
11
143
21
-85.5
0
LINE
8
BLACK
6
CONTINUOUS
10
142.5
20
-86
11
142.5
21
-85
0
LINE
8
BLACK
6
CONTINUOUS
10
133
20
-55.25
11
133
21
-55.5
0
LINE
8
BLACK
6
CONTINUOUS
10
127
20
-55.25
11
133
21
-55.25
0
LINE
8
BLACK
6
CONTINUOUS
10
127
20
-55.25
11
127
21
-55.5
0
LINE
8
BLACK
6
CONTINUOUS
10
127
20
-58.75
11
127
21
-58.5
0
LINE
8
BLACK
6
CONTINUOUS
10
133
20
-58.75
11
133
21
-58.5
0
LINE
8
BLACK
6
CONTINUOUS
10
127
20
-58.75
11
133
21
-58.75
0
LINE
8
BLACK
6
CONTINUOUS
10
152
20
-58.75
11
158
21
-58.75
0
LINE
8
BLACK
6
CONTINUOUS
10
158
20
-58.75
11
158
21
-58.5
0
LINE
8
BLACK
6
CONTINUOUS
10
152
20
-58.75
11
152
21
-58.5
0
LINE
8
BLACK
6
CONTINUOUS
10
152
20
-55.25
11
152
21
-55.5
0
LINE
8
BLACK
6
CONTINUOUS
10
152
20
-55.25
11
158
21
-55.25
0
LINE
8
BLACK
6
CONTINUOUS
10
158
20
-55.25
11
158
21
-55.5
0
LINE
8
BLACK
6
CONTINUOUS
10
133
20
-62.25
11
133
21
-62.5
0
LINE
8
BLACK
6
CONTINUOUS
10
127
20
-62.25
11
133
21
-62.25
0
LINE
8
BLACK
6
CONTINUOUS
10
127
20
-62.25
11
127
21
-62.5
0
LINE
8
BLACK
6
CONTINUOUS
10
127
20
-65.75
11
127
21
-65.5
0
LINE
8
BLACK
6
CONTINUOUS
10
133
20
-65.75
11
133
21
-65.5
0
LINE
8
BLACK
6
CONTINUOUS
10
127
20
-65.75
11
133
21
-65.75
0
LINE
8
BLACK
6
CONTINUOUS
10
152
20
-65.75
11
158
21
-65.75
0
LINE
8
BLACK
6
CONTINUOUS
10
158
20
-65.75
11
158
21
-65.5
0
LINE
8
BLACK
6
CONTINUOUS
10
152
20
-65.75
11
152
21
-65.5
0
LINE
8
BLACK
6
CONTINUOUS
10
152
20
-62.25
11
152
21
-62.5
0
LINE
8
BLACK
6
CONTINUOUS
10
152
20
-62.25
11
158
21
-62.25
0
LINE
8
BLACK
6
CONTINUOUS
10
158
20
-62.25
11
158
21
-62.5
0
LINE
8
BLACK
6
CONTINUOUS
10
133
20
-69.25
11
133
21
-69.5
0
LINE
8
BLACK
6
CONTINUOUS
10
127
20
-69.25
11
133
21
-69.25
0
LINE
8
BLACK
6
CONTINUOUS
10
127
20
-69.25
11
127
21
-69.5
0
LINE
8
BLACK
6
CONTINUOUS
10
127
20
-72.75
11
127
21
-72.5
0
LINE
8
BLACK
6
CONTINUOUS
10
133
20
-72.75
11
133
21
-72.5
0
LINE
8
BLACK
6
CONTINUOUS
10
127
20
-72.75
11
133
21
-72.75
0
LINE
8
BLACK
6
CONTINUOUS
10
152
20
-72.75
11
158
21
-72.75
0
LINE
8
BLACK
6
CONTINUOUS
10
158
20
-72.75
11
158
21
-72.5
0
LINE
8
BLACK
6
CONTINUOUS
10
152
20
-72.75
11
152
21
-72.5
0
LINE
8
BLACK
6
CONTINUOUS
10
152
20
-69.25
11
152
21
-69.5
0
LINE
8
BLACK
6
CONTINUOUS
10
152
20
-69.25
11
158
21
-69.25
0
LINE
8
BLACK
6
CONTINUOUS
10
158
20
-69.25
11
158
21
-69.5
0
LINE
8
BLACK
6
CONTINUOUS
10
133
20
-76.25
11
133
21
-76.5
0
LINE
8
BLACK
6
CONTINUOUS
10
127
20
-76.25
11
133
21
-76.25
0
LINE
8
BLACK
6
CONTINUOUS
10
127
20
-76.25
11
127
21
-76.5
0
LINE
8
BLACK
6
CONTINUOUS
10
127
20
-79.75
11
127
21
-79.5
0
LINE
8
BLACK
6
CONTINUOUS
10
133
20
-79.75
11
133
21
-79.5
0
LINE
8
BLACK
6
CONTINUOUS
10
127
20
-79.75
11
133
21
-79.75
0
LINE
8
BLACK
6
CONTINUOUS
10
152
20
-79.75
11
158
21
-79.75
0
LINE
8
BLACK
6
CONTINUOUS
10
158
20
-79.75
11
158
21
-79.5
0
LINE
8
BLACK
6
CONTINUOUS
10
152
20
-79.75
11
152
21
-79.5
0
LINE
8
BLACK
6
CONTINUOUS
10
152
20
-76.25
11
152
21
-76.5
0
LINE
8
BLACK
6
CONTINUOUS
10
152
20
-76.25
11
158
21
-76.25
0
LINE
8
BLACK
6
CONTINUOUS
10
158
20
-76.25
11
158
21
-76.5
0
LINE
8
BLACK
6
CONTINUOUS
10
133
20
-83.25
11
133
21
-83.5
0
LINE
8
BLACK
6
CONTINUOUS
10
127
20
-83.25
11
133
21
-83.25
0
LINE
8
BLACK
6
CONTINUOUS
10
127
20
-83.25
11
127
21
-83.5
0
LINE
8
BLACK
6
CONTINUOUS
10
127
20
-86.75
11
127
21
-86.5
0
LINE
8
BLACK
6
CONTINUOUS
10
133
20
-86.75
11
133
21
-86.5
0
LINE
8
BLACK
6
CONTINUOUS
10
127
20
-86.75
11
133
21
-86.75
0
LINE
8
BLACK
6
CONTINUOUS
10
152
20
-86.75
11
158
21
-86.75
0
LINE
8
BLACK
6
CONTINUOUS
10
158
20
-86.75
11
158
21
-86.5
0
LINE
8
BLACK
6
CONTINUOUS
10
152
20
-86.75
11
152
21
-86.5
0
LINE
8
BLACK
6
CONTINUOUS
10
152
20
-83.25
11
152
21
-83.5
0
LINE
8
BLACK
6
CONTINUOUS
10
152
20
-83.25
11
158
21
-83.25
0
LINE
8
BLACK
6
CONTINUOUS
10
158
20
-83.25
11
158
21
-83.5
0
LINE
8
BLACK
6
CONTINUOUS
10
133
20
-90.25
11
133
21
-90.5
0
LINE
8
BLACK
6
CONTINUOUS
10
127
20
-90.25
11
133
21
-90.25
0
LINE
8
BLACK
6
CONTINUOUS
10
127
20
-90.25
11
127
21
-90.5
0
LINE
8
BLACK
6
CONTINUOUS
10
127
20
-93.75
11
127
21
-93.5
0
LINE
8
BLACK
6
CONTINUOUS
10
133
20
-93.75
11
133
21
-93.5
0
LINE
8
BLACK
6
CONTINUOUS
10
127
20
-93.75
11
133
21
-93.75
0
LINE
8
BLACK
6
CONTINUOUS
10
152
20
-93.75
11
158
21
-93.75
0
LINE
8
BLACK
6
CONTINUOUS
10
158
20
-93.75
11
158
21
-93.5
0
LINE
8
BLACK
6
CONTINUOUS
10
152
20
-93.75
11
152
21
-93.5
0
LINE
8
BLACK
6
CONTINUOUS
10
152
20
-90.25
11
152
21
-90.5
0
LINE
8
BLACK
6
CONTINUOUS
10
152
20
-90.25
11
158
21
-90.25
0
LINE
8
BLACK
6
CONTINUOUS
10
158
20
-90.25
11
158
21
-90.5
0
LINE
8
BLACK
6
CONTINUOUS
10
145.362
20
-73.5905
11
144.562
21
-73.5905
0
LINE
8
BLACK
6
CONTINUOUS
10
144.562
20
-73.5905
11
144.562
21
-73.4
0
LINE
8
BLACK
6
CONTINUOUS
10
144.562
20
-73.4
11
144.6
21
-73.2857
0
LINE
8
BLACK
6
CONTINUOUS
10
144.6
20
-73.2857
11
144.676
21
-73.2095
0
LINE
8
BLACK
6
CONTINUOUS
10
144.676
20
-73.2095
11
144.752
21
-73.1714
0
LINE
8
BLACK
6
CONTINUOUS
10
144.752
20
-73.1714
11
144.905
21
-73.1333
0
LINE
8
BLACK
6
CONTINUOUS
10
144.905
20
-73.1333
11
145.019
21
-73.1333
0
LINE
8
BLACK
6
CONTINUOUS
10
145.019
20
-73.1333
11
145.171
21
-73.1714
0
LINE
8
BLACK
6
CONTINUOUS
10
145.171
20
-73.1714
11
145.248
21
-73.2095
0
LINE
8
BLACK
6
CONTINUOUS
10
145.248
20
-73.2095
11
145.324
21
-73.2857
0
LINE
8
BLACK
6
CONTINUOUS
10
145.324
20
-73.2857
11
145.362
21
-73.4
0
LINE
8
BLACK
6
CONTINUOUS
10
145.362
20
-73.4
11
145.362
21
-73.5905
0
LINE
8
BLACK
6
CONTINUOUS
10
145.362
20
-72.3714
11
145.362
21
-72.8286
0
LINE
8
BLACK
6
CONTINUOUS
10
145.362
20
-72.6
11
144.562
21
-72.6
0
LINE
8
BLACK
6
CONTINUOUS
10
144.562
20
-72.6
11
144.676
21
-72.6762
0
LINE
8
BLACK
6
CONTINUOUS
10
144.676
20
-72.6762
11
144.752
21
-72.7524
0
LINE
8
BLACK
6
CONTINUOUS
10
144.752
20
-72.7524
11
144.79
21
-72.8286
0
LINE
8
BLACK
6
CONTINUOUS
10
142.405
20
-63.119
11
142.452
21
-62.9762
0
LINE
8
BLACK
6
CONTINUOUS
10
142.452
20
-62.9762
11
142.452
21
-62.7381
0
LINE
8
BLACK
6
CONTINUOUS
10
142.452
20
-62.7381
11
142.405
21
-62.6429
0
LINE
8
BLACK
6
CONTINUOUS
10
142.405
20
-62.6429
11
142.357
21
-62.5952
0
LINE
8
BLACK
6
CONTINUOUS
10
142.357
20
-62.5952
11
142.262
21
-62.5476
0
LINE
8
BLACK
6
CONTINUOUS
10
142.262
20
-62.5476
11
142.167
21
-62.5476
0
LINE
8
BLACK
6
CONTINUOUS
10
142.167
20
-62.5476
11
142.071
21
-62.5952
0
LINE
8
BLACK
6
CONTINUOUS
10
142.071
20
-62.5952
11
142.024
21
-62.6429
0
LINE
8
BLACK
6
CONTINUOUS
10
142.024
20
-62.6429
11
141.976
21
-62.7381
0
LINE
8
BLACK
6
CONTINUOUS
10
141.976
20
-62.7381
11
141.929
21
-62.9286
0
LINE
8
BLACK
6
CONTINUOUS
10
141.929
20
-62.9286
11
141.881
21
-63.0238
0
LINE
8
BLACK
6
CONTINUOUS
10
141.881
20
-63.0238
11
141.833
21
-63.0714
0
LINE
8
BLACK
6
CONTINUOUS
10
141.833
20
-63.0714
11
141.738
21
-63.119
0
LINE
8
BLACK
6
CONTINUOUS
10
141.738
20
-63.119
11
141.643
21
-63.119
0
LINE
8
BLACK
6
CONTINUOUS
10
141.643
20
-63.119
11
141.548
21
-63.0714
0
LINE
8
BLACK
6
CONTINUOUS
10
141.548
20
-63.0714
11
141.5
21
-63.0238
0
LINE
8
BLACK
6
CONTINUOUS
10
141.5
20
-63.0238
11
141.452
21
-62.9286
0
LINE
8
BLACK
6
CONTINUOUS
10
141.452
20
-62.9286
11
141.452
21
-62.6905
0
LINE
8
BLACK
6
CONTINUOUS
10
141.452
20
-62.6905
11
141.5
21
-62.5476
0
LINE
8
BLACK
6
CONTINUOUS
10
142.452
20
-62.119
11
141.452
21
-62.119
0
LINE
8
BLACK
6
CONTINUOUS
10
141.452
20
-62.119
11
141.452
21
-61.7381
0
LINE
8
BLACK
6
CONTINUOUS
10
141.452
20
-61.7381
11
141.5
21
-61.6429
0
LINE
8
BLACK
6
CONTINUOUS
10
141.5
20
-61.6429
11
141.548
21
-61.5952
0
LINE
8
BLACK
6
CONTINUOUS
10
141.548
20
-61.5952
11
141.643
21
-61.5476
0
LINE
8
BLACK
6
CONTINUOUS
10
141.643
20
-61.5476
11
141.786
21
-61.5476
0
LINE
8
BLACK
6
CONTINUOUS
10
141.786
20
-61.5476
11
141.881
21
-61.5952
0
LINE
8
BLACK
6
CONTINUOUS
10
141.881
20
-61.5952
11
141.929
21
-61.6429
0
LINE
8
BLACK
6
CONTINUOUS
10
141.929
20
-61.6429
11
141.976
21
-61.7381
0
LINE
8
BLACK
6
CONTINUOUS
10
141.976
20
-61.7381
11
141.976
21
-62.119
0
LINE
8
BLACK
6
CONTINUOUS
10
141.929
20
-61.119
11
141.929
21
-60.7857
0
LINE
8
BLACK
6
CONTINUOUS
10
142.452
20
-60.6429
11
142.452
21
-61.119
0
LINE
8
BLACK
6
CONTINUOUS
10
142.452
20
-61.119
11
141.452
21
-61.119
0
LINE
8
BLACK
6
CONTINUOUS
10
141.452
20
-61.119
11
141.452
21
-60.6429
0
LINE
8
BLACK
6
CONTINUOUS
10
142.167
20
-60.2619
11
142.167
21
-59.7857
0
LINE
8
BLACK
6
CONTINUOUS
10
142.452
20
-60.3571
11
141.452
21
-60.0238
0
LINE
8
BLACK
6
CONTINUOUS
10
141.452
20
-60.0238
11
142.452
21
-59.6905
0
LINE
8
BLACK
6
CONTINUOUS
10
142.452
20
-59.3571
11
141.452
21
-59.3571
0
LINE
8
BLACK
6
CONTINUOUS
10
142.452
20
-58.7857
11
141.881
21
-59.2143
0
LINE
8
BLACK
6
CONTINUOUS
10
141.452
20
-58.7857
11
142.024
21
-59.3571
0
LINE
8
BLACK
6
CONTINUOUS
10
141.929
20
-58.3571
11
141.929
21
-58.0238
0
LINE
8
BLACK
6
CONTINUOUS
10
142.452
20
-57.881
11
142.452
21
-58.3571
0
LINE
8
BLACK
6
CONTINUOUS
10
142.452
20
-58.3571
11
141.452
21
-58.3571
0
LINE
8
BLACK
6
CONTINUOUS
10
141.452
20
-58.3571
11
141.452
21
-57.881
0
LINE
8
BLACK
6
CONTINUOUS
10
142.452
20
-56.881
11
141.976
21
-57.2143
0
LINE
8
BLACK
6
CONTINUOUS
10
142.452
20
-57.4524
11
141.452
21
-57.4524
0
LINE
8
BLACK
6
CONTINUOUS
10
141.452
20
-57.4524
11
141.452
21
-57.0714
0
LINE
8
BLACK
6
CONTINUOUS
10
141.452
20
-57.0714
11
141.5
21
-56.9762
0
LINE
8
BLACK
6
CONTINUOUS
10
141.5
20
-56.9762
11
141.548
21
-56.9286
0
LINE
8
BLACK
6
CONTINUOUS
10
141.548
20
-56.9286
11
141.643
21
-56.881
0
LINE
8
BLACK
6
CONTINUOUS
10
141.643
20
-56.881
11
141.786
21
-56.881
0
LINE
8
BLACK
6
CONTINUOUS
10
141.786
20
-56.881
11
141.881
21
-56.9286
0
LINE
8
BLACK
6
CONTINUOUS
10
141.881
20
-56.9286
11
141.929
21
-56.9762
0
LINE
8
BLACK
6
CONTINUOUS
10
141.929
20
-56.9762
11
141.976
21
-57.0714
0
LINE
8
BLACK
6
CONTINUOUS
10
141.976
20
-57.0714
11
141.976
21
-57.4524
0
LINE
8
BLACK
6
CONTINUOUS
10
139.862
20
-73.1587
11
139.481
21
-73.4254
0
LINE
8
BLACK
6
CONTINUOUS
10
139.862
20
-73.6159
11
139.062
21
-73.6159
0
LINE
8
BLACK
6
CONTINUOUS
10
139.062
20
-73.6159
11
139.062
21
-73.3111
0
LINE
8
BLACK
6
CONTINUOUS
10
139.062
20
-73.3111
11
139.1
21
-73.2349
0
LINE
8
BLACK
6
CONTINUOUS
10
139.1
20
-73.2349
11
139.138
21
-73.1968
0
LINE
8
BLACK
6
CONTINUOUS
10
139.138
20
-73.1968
11
139.214
21
-73.1587
0
LINE
8
BLACK
6
CONTINUOUS
10
139.214
20
-73.1587
11
139.329
21
-73.1587
0
LINE
8
BLACK
6
CONTINUOUS
10
139.329
20
-73.1587
11
139.405
21
-73.1968
0
LINE
8
BLACK
6
CONTINUOUS
10
139.405
20
-73.1968
11
139.443
21
-73.2349
0
LINE
8
BLACK
6
CONTINUOUS
10
139.443
20
-73.2349
11
139.481
21
-73.3111
0
LINE
8
BLACK
6
CONTINUOUS
10
139.481
20
-73.3111
11
139.481
21
-73.6159
0
LINE
8
BLACK
6
CONTINUOUS
10
139.862
20
-72.3968
11
139.862
21
-72.854
0
LINE
8
BLACK
6
CONTINUOUS
10
139.862
20
-72.6254
11
139.062
21
-72.6254
0
LINE
8
BLACK
6
CONTINUOUS
10
139.062
20
-72.6254
11
139.176
21
-72.7016
0
LINE
8
BLACK
6
CONTINUOUS
10
139.176
20
-72.7016
11
139.252
21
-72.7778
0
LINE
8
BLACK
6
CONTINUOUS
10
139.252
20
-72.7778
11
139.29
21
-72.854
0
LINE
8
BLACK
6
CONTINUOUS
10
136.264
20
-95.6024
11
135.931
21
-95.1262
0
LINE
8
BLACK
6
CONTINUOUS
10
135.693
20
-95.6024
11
135.693
21
-94.6024
0
LINE
8
BLACK
6
CONTINUOUS
10
135.693
20
-94.6024
11
136.074
21
-94.6024
0
LINE
8
BLACK
6
CONTINUOUS
10
136.074
20
-94.6024
11
136.169
21
-94.65
0
LINE
8
BLACK
6
CONTINUOUS
10
136.169
20
-94.65
11
136.217
21
-94.6976
0
LINE
8
BLACK
6
CONTINUOUS
10
136.217
20
-94.6976
11
136.264
21
-94.7929
0
LINE
8
BLACK
6
CONTINUOUS
10
136.264
20
-94.7929
11
136.264
21
-94.9357
0
LINE
8
BLACK
6
CONTINUOUS
10
136.264
20
-94.9357
11
136.217
21
-95.031
0
LINE
8
BLACK
6
CONTINUOUS
10
136.217
20
-95.031
11
136.169
21
-95.0786
0
LINE
8
BLACK
6
CONTINUOUS
10
136.169
20
-95.0786
11
136.074
21
-95.1262
0
LINE
8
BLACK
6
CONTINUOUS
10
136.074
20
-95.1262
11
135.693
21
-95.1262
0
LINE
8
BLACK
6
CONTINUOUS
10
136.883
20
-94.6024
11
137.074
21
-94.6024
0
LINE
8
BLACK
6
CONTINUOUS
10
137.074
20
-94.6024
11
137.169
21
-94.65
0
LINE
8
BLACK
6
CONTINUOUS
10
137.169
20
-94.65
11
137.264
21
-94.7452
0
LINE
8
BLACK
6
CONTINUOUS
10
137.264
20
-94.7452
11
137.312
21
-94.9357
0
LINE
8
BLACK
6
CONTINUOUS
10
137.312
20
-94.9357
11
137.312
21
-95.269
0
LINE
8
BLACK
6
CONTINUOUS
10
137.312
20
-95.269
11
137.264
21
-95.4595
0
LINE
8
BLACK
6
CONTINUOUS
10
137.264
20
-95.4595
11
137.169
21
-95.5548
0
LINE
8
BLACK
6
CONTINUOUS
10
137.169
20
-95.5548
11
137.074
21
-95.6024
0
LINE
8
BLACK
6
CONTINUOUS
10
137.074
20
-95.6024
11
136.883
21
-95.6024
0
LINE
8
BLACK
6
CONTINUOUS
10
136.883
20
-95.6024
11
136.788
21
-95.5548
0
LINE
8
BLACK
6
CONTINUOUS
10
136.788
20
-95.5548
11
136.693
21
-95.4595
0
LINE
8
BLACK
6
CONTINUOUS
10
136.693
20
-95.4595
11
136.645
21
-95.269
0
LINE
8
BLACK
6
CONTINUOUS
10
136.645
20
-95.269
11
136.645
21
-94.9357
0
LINE
8
BLACK
6
CONTINUOUS
10
136.645
20
-94.9357
11
136.693
21
-94.7452
0
LINE
8
BLACK
6
CONTINUOUS
10
136.693
20
-94.7452
11
136.788
21
-94.65
0
LINE
8
BLACK
6
CONTINUOUS
10
136.788
20
-94.65
11
136.883
21
-94.6024
0
LINE
8
BLACK
6
CONTINUOUS
10
137.598
20
-94.6024
11
138.169
21
-94.6024
0
LINE
8
BLACK
6
CONTINUOUS
10
137.883
20
-95.6024
11
137.883
21
-94.6024
0
LINE
8
BLACK
6
CONTINUOUS
10
138.455
20
-95.3167
11
138.931
21
-95.3167
0
LINE
8
BLACK
6
CONTINUOUS
10
138.36
20
-95.6024
11
138.693
21
-94.6024
0
LINE
8
BLACK
6
CONTINUOUS
10
138.693
20
-94.6024
11
139.026
21
-95.6024
0
LINE
8
BLACK
6
CONTINUOUS
10
139.931
20
-95.6024
11
139.598
21
-95.1262
0
LINE
8
BLACK
6
CONTINUOUS
10
139.36
20
-95.6024
11
139.36
21
-94.6024
0
LINE
8
BLACK
6
CONTINUOUS
10
139.36
20
-94.6024
11
139.74
21
-94.6024
0
LINE
8
BLACK
6
CONTINUOUS
10
139.74
20
-94.6024
11
139.836
21
-94.65
0
LINE
8
BLACK
6
CONTINUOUS
10
139.836
20
-94.65
11
139.883
21
-94.6976
0
LINE
8
BLACK
6
CONTINUOUS
10
139.883
20
-94.6976
11
139.931
21
-94.7929
0
LINE
8
BLACK
6
CONTINUOUS
10
139.931
20
-94.7929
11
139.931
21
-94.9357
0
LINE
8
BLACK
6
CONTINUOUS
10
139.931
20
-94.9357
11
139.883
21
-95.031
0
LINE
8
BLACK
6
CONTINUOUS
10
139.883
20
-95.031
11
139.836
21
-95.0786
0
LINE
8
BLACK
6
CONTINUOUS
10
139.836
20
-95.0786
11
139.74
21
-95.1262
0
LINE
8
BLACK
6
CONTINUOUS
10
139.74
20
-95.1262
11
139.36
21
-95.1262
0
LINE
8
BLACK
6
CONTINUOUS
10
140.55
20
-95.1262
11
140.55
21
-95.6024
0
LINE
8
BLACK
6
CONTINUOUS
10
140.217
20
-94.6024
11
140.55
21
-95.1262
0
LINE
8
BLACK
6
CONTINUOUS
10
140.55
20
-95.1262
11
140.883
21
-94.6024
0
LINE
8
BLACK
6
CONTINUOUS
10
140.979
20
-95.6976
11
141.74
21
-95.6976
0
LINE
8
BLACK
6
CONTINUOUS
10
141.979
20
-95.0786
11
142.312
21
-95.0786
0
LINE
8
BLACK
6
CONTINUOUS
10
142.455
20
-95.6024
11
141.979
21
-95.6024
0
LINE
8
BLACK
6
CONTINUOUS
10
141.979
20
-95.6024
11
141.979
21
-94.6024
0
LINE
8
BLACK
6
CONTINUOUS
10
141.979
20
-94.6024
11
142.455
21
-94.6024
0
LINE
8
BLACK
6
CONTINUOUS
10
142.883
20
-95.6024
11
142.883
21
-94.6024
0
LINE
8
BLACK
6
CONTINUOUS
10
142.883
20
-94.6024
11
143.455
21
-95.6024
0
LINE
8
BLACK
6
CONTINUOUS
10
143.455
20
-95.6024
11
143.455
21
-94.6024
0
LINE
8
BLACK
6
CONTINUOUS
10
144.502
20
-95.5071
11
144.455
21
-95.5548
0
LINE
8
BLACK
6
CONTINUOUS
10
144.455
20
-95.5548
11
144.312
21
-95.6024
0
LINE
8
BLACK
6
CONTINUOUS
10
144.312
20
-95.6024
11
144.217
21
-95.6024
0
LINE
8
BLACK
6
CONTINUOUS
10
144.217
20
-95.6024
11
144.074
21
-95.5548
0
LINE
8
BLACK
6
CONTINUOUS
10
144.074
20
-95.5548
11
143.979
21
-95.4595
0
LINE
8
BLACK
6
CONTINUOUS
10
143.979
20
-95.4595
11
143.931
21
-95.3643
0
LINE
8
BLACK
6
CONTINUOUS
10
143.931
20
-95.3643
11
143.883
21
-95.1738
0
LINE
8
BLACK
6
CONTINUOUS
10
143.883
20
-95.1738
11
143.883
21
-95.031
0
LINE
8
BLACK
6
CONTINUOUS
10
143.883
20
-95.031
11
143.931
21
-94.8405
0
LINE
8
BLACK
6
CONTINUOUS
10
143.931
20
-94.8405
11
143.979
21
-94.7452
0
LINE
8
BLACK
6
CONTINUOUS
10
143.979
20
-94.7452
11
144.074
21
-94.65
0
LINE
8
BLACK
6
CONTINUOUS
10
144.074
20
-94.65
11
144.217
21
-94.6024
0
LINE
8
BLACK
6
CONTINUOUS
10
144.217
20
-94.6024
11
144.312
21
-94.6024
0
LINE
8
BLACK
6
CONTINUOUS
10
144.312
20
-94.6024
11
144.455
21
-94.65
0
LINE
8
BLACK
6
CONTINUOUS
10
144.455
20
-94.65
11
144.502
21
-94.6976
0
LINE
8
BLACK
6
CONTINUOUS
10
145.121
20
-94.6024
11
145.312
21
-94.6024
0
LINE
8
BLACK
6
CONTINUOUS
10
145.312
20
-94.6024
11
145.407
21
-94.65
0
LINE
8
BLACK
6
CONTINUOUS
10
145.407
20
-94.65
11
145.502
21
-94.7452
0
LINE
8
BLACK
6
CONTINUOUS
10
145.502
20
-94.7452
11
145.55
21
-94.9357
0
LINE
8
BLACK
6
CONTINUOUS
10
145.55
20
-94.9357
11
145.55
21
-95.269
0
LINE
8
BLACK
6
CONTINUOUS
10
145.55
20
-95.269
11
145.502
21
-95.4595
0
LINE
8
BLACK
6
CONTINUOUS
10
145.502
20
-95.4595
11
145.407
21
-95.5548
0
LINE
8
BLACK
6
CONTINUOUS
10
145.407
20
-95.5548
11
145.312
21
-95.6024
0
LINE
8
BLACK
6
CONTINUOUS
10
145.312
20
-95.6024
11
145.121
21
-95.6024
0
LINE
8
BLACK
6
CONTINUOUS
10
145.121
20
-95.6024
11
145.026
21
-95.5548
0
LINE
8
BLACK
6
CONTINUOUS
10
145.026
20
-95.5548
11
144.931
21
-95.4595
0
LINE
8
BLACK
6
CONTINUOUS
10
144.931
20
-95.4595
11
144.883
21
-95.269
0
LINE
8
BLACK
6
CONTINUOUS
10
144.883
20
-95.269
11
144.883
21
-94.9357
0
LINE
8
BLACK
6
CONTINUOUS
10
144.883
20
-94.9357
11
144.931
21
-94.7452
0
LINE
8
BLACK
6
CONTINUOUS
10
144.931
20
-94.7452
11
145.026
21
-94.65
0
LINE
8
BLACK
6
CONTINUOUS
10
145.026
20
-94.65
11
145.121
21
-94.6024
0
LINE
8
BLACK
6
CONTINUOUS
10
145.979
20
-95.6024
11
145.979
21
-94.6024
0
LINE
8
BLACK
6
CONTINUOUS
10
145.979
20
-94.6024
11
146.217
21
-94.6024
0
LINE
8
BLACK
6
CONTINUOUS
10
146.217
20
-94.6024
11
146.36
21
-94.65
0
LINE
8
BLACK
6
CONTINUOUS
10
146.36
20
-94.65
11
146.455
21
-94.7452
0
LINE
8
BLACK
6
CONTINUOUS
10
146.455
20
-94.7452
11
146.502
21
-94.8405
0
LINE
8
BLACK
6
CONTINUOUS
10
146.502
20
-94.8405
11
146.55
21
-95.031
0
LINE
8
BLACK
6
CONTINUOUS
10
146.55
20
-95.031
11
146.55
21
-95.1738
0
LINE
8
BLACK
6
CONTINUOUS
10
146.55
20
-95.1738
11
146.502
21
-95.3643
0
LINE
8
BLACK
6
CONTINUOUS
10
146.502
20
-95.3643
11
146.455
21
-95.4595
0
LINE
8
BLACK
6
CONTINUOUS
10
146.455
20
-95.4595
11
146.36
21
-95.5548
0
LINE
8
BLACK
6
CONTINUOUS
10
146.36
20
-95.5548
11
146.217
21
-95.6024
0
LINE
8
BLACK
6
CONTINUOUS
10
146.217
20
-95.6024
11
145.979
21
-95.6024
0
LINE
8
BLACK
6
CONTINUOUS
10
146.979
20
-95.0786
11
147.312
21
-95.0786
0
LINE
8
BLACK
6
CONTINUOUS
10
147.455
20
-95.6024
11
146.979
21
-95.6024
0
LINE
8
BLACK
6
CONTINUOUS
10
146.979
20
-95.6024
11
146.979
21
-94.6024
0
LINE
8
BLACK
6
CONTINUOUS
10
146.979
20
-94.6024
11
147.455
21
-94.6024
0
LINE
8
BLACK
6
CONTINUOUS
10
148.455
20
-95.6024
11
148.121
21
-95.1262
0
LINE
8
BLACK
6
CONTINUOUS
10
147.883
20
-95.6024
11
147.883
21
-94.6024
0
LINE
8
BLACK
6
CONTINUOUS
10
147.883
20
-94.6024
11
148.264
21
-94.6024
0
LINE
8
BLACK
6
CONTINUOUS
10
148.264
20
-94.6024
11
148.36
21
-94.65
0
LINE
8
BLACK
6
CONTINUOUS
10
148.36
20
-94.65
11
148.407
21
-94.6976
0
LINE
8
BLACK
6
CONTINUOUS
10
148.407
20
-94.6976
11
148.455
21
-94.7929
0
LINE
8
BLACK
6
CONTINUOUS
10
148.455
20
-94.7929
11
148.455
21
-94.9357
0
LINE
8
BLACK
6
CONTINUOUS
10
148.455
20
-94.9357
11
148.407
21
-95.031
0
LINE
8
BLACK
6
CONTINUOUS
10
148.407
20
-95.031
11
148.36
21
-95.0786
0
LINE
8
BLACK
6
CONTINUOUS
10
148.36
20
-95.0786
11
148.264
21
-95.1262
0
LINE
8
BLACK
6
CONTINUOUS
10
148.264
20
-95.1262
11
147.883
21
-95.1262
0
LINE
8
BLACK
6
CONTINUOUS
10
128.667
20
-60.0548
11
128.81
21
-60.1024
0
LINE
8
BLACK
6
CONTINUOUS
10
128.81
20
-60.1024
11
129.048
21
-60.1024
0
LINE
8
BLACK
6
CONTINUOUS
10
129.048
20
-60.1024
11
129.143
21
-60.0548
0
LINE
8
BLACK
6
CONTINUOUS
10
129.143
20
-60.0548
11
129.19
21
-60.0071
0
LINE
8
BLACK
6
CONTINUOUS
10
129.19
20
-60.0071
11
129.238
21
-59.9119
0
LINE
8
BLACK
6
CONTINUOUS
10
129.238
20
-59.9119
11
129.238
21
-59.8167
0
LINE
8
BLACK
6
CONTINUOUS
10
129.238
20
-59.8167
11
129.19
21
-59.7214
0
LINE
8
BLACK
6
CONTINUOUS
10
129.19
20
-59.7214
11
129.143
21
-59.6738
0
LINE
8
BLACK
6
CONTINUOUS
10
129.143
20
-59.6738
11
129.048
21
-59.6262
0
LINE
8
BLACK
6
CONTINUOUS
10
129.048
20
-59.6262
11
128.857
21
-59.5786
0
LINE
8
BLACK
6
CONTINUOUS
10
128.857
20
-59.5786
11
128.762
21
-59.531
0
LINE
8
BLACK
6
CONTINUOUS
10
128.762
20
-59.531
11
128.714
21
-59.4833
0
LINE
8
BLACK
6
CONTINUOUS
10
128.714
20
-59.4833
11
128.667
21
-59.3881
0
LINE
8
BLACK
6
CONTINUOUS
10
128.667
20
-59.3881
11
128.667
21
-59.2929
0
LINE
8
BLACK
6
CONTINUOUS
10
128.667
20
-59.2929
11
128.714
21
-59.1976
0
LINE
8
BLACK
6
CONTINUOUS
10
128.714
20
-59.1976
11
128.762
21
-59.15
0
LINE
8
BLACK
6
CONTINUOUS
10
128.762
20
-59.15
11
128.857
21
-59.1024
0
LINE
8
BLACK
6
CONTINUOUS
10
128.857
20
-59.1024
11
129.095
21
-59.1024
0
LINE
8
BLACK
6
CONTINUOUS
10
129.095
20
-59.1024
11
129.238
21
-59.15
0
LINE
8
BLACK
6
CONTINUOUS
10
129.571
20
-59.1024
11
129.81
21
-60.1024
0
LINE
8
BLACK
6
CONTINUOUS
10
129.81
20
-60.1024
11
130
21
-59.3881
0
LINE
8
BLACK
6
CONTINUOUS
10
130
20
-59.3881
11
130.19
21
-60.1024
0
LINE
8
BLACK
6
CONTINUOUS
10
130.19
20
-60.1024
11
130.429
21
-59.1024
0
LINE
8
BLACK
6
CONTINUOUS
10
131.333
20
-60.1024
11
130.762
21
-60.1024
0
LINE
8
BLACK
6
CONTINUOUS
10
131.048
20
-60.1024
11
131.048
21
-59.1024
0
LINE
8
BLACK
6
CONTINUOUS
10
131.048
20
-59.1024
11
130.952
21
-59.2452
0
LINE
8
BLACK
6
CONTINUOUS
10
130.952
20
-59.2452
11
130.857
21
-59.3405
0
LINE
8
BLACK
6
CONTINUOUS
10
130.857
20
-59.3405
11
130.762
21
-59.3881
0
LINE
8
BLACK
6
CONTINUOUS
10
153.667
20
-60.0548
11
153.81
21
-60.1024
0
LINE
8
BLACK
6
CONTINUOUS
10
153.81
20
-60.1024
11
154.048
21
-60.1024
0
LINE
8
BLACK
6
CONTINUOUS
10
154.048
20
-60.1024
11
154.143
21
-60.0548
0
LINE
8
BLACK
6
CONTINUOUS
10
154.143
20
-60.0548
11
154.19
21
-60.0071
0
LINE
8
BLACK
6
CONTINUOUS
10
154.19
20
-60.0071
11
154.238
21
-59.9119
0
LINE
8
BLACK
6
CONTINUOUS
10
154.238
20
-59.9119
11
154.238
21
-59.8167
0
LINE
8
BLACK
6
CONTINUOUS
10
154.238
20
-59.8167
11
154.19
21
-59.7214
0
LINE
8
BLACK
6
CONTINUOUS
10
154.19
20
-59.7214
11
154.143
21
-59.6738
0
LINE
8
BLACK
6
CONTINUOUS
10
154.143
20
-59.6738
11
154.048
21
-59.6262
0
LINE
8
BLACK
6
CONTINUOUS
10
154.048
20
-59.6262
11
153.857
21
-59.5786
0
LINE
8
BLACK
6
CONTINUOUS
10
153.857
20
-59.5786
11
153.762
21
-59.531
0
LINE
8
BLACK
6
CONTINUOUS
10
153.762
20
-59.531
11
153.714
21
-59.4833
0
LINE
8
BLACK
6
CONTINUOUS
10
153.714
20
-59.4833
11
153.667
21
-59.3881
0
LINE
8
BLACK
6
CONTINUOUS
10
153.667
20
-59.3881
11
153.667
21
-59.2929
0
LINE
8
BLACK
6
CONTINUOUS
10
153.667
20
-59.2929
11
153.714
21
-59.1976
0
LINE
8
BLACK
6
CONTINUOUS
10
153.714
20
-59.1976
11
153.762
21
-59.15
0
LINE
8
BLACK
6
CONTINUOUS
10
153.762
20
-59.15
11
153.857
21
-59.1024
0
LINE
8
BLACK
6
CONTINUOUS
10
153.857
20
-59.1024
11
154.095
21
-59.1024
0
LINE
8
BLACK
6
CONTINUOUS
10
154.095
20
-59.1024
11
154.238
21
-59.15
0
LINE
8
BLACK
6
CONTINUOUS
10
154.571
20
-59.1024
11
154.81
21
-60.1024
0
LINE
8
BLACK
6
CONTINUOUS
10
154.81
20
-60.1024
11
155
21
-59.3881
0
LINE
8
BLACK
6
CONTINUOUS
10
155
20
-59.3881
11
155.19
21
-60.1024
0
LINE
8
BLACK
6
CONTINUOUS
10
155.19
20
-60.1024
11
155.429
21
-59.1024
0
LINE
8
BLACK
6
CONTINUOUS
10
155.762
20
-59.1976
11
155.81
21
-59.15
0
LINE
8
BLACK
6
CONTINUOUS
10
155.81
20
-59.15
11
155.905
21
-59.1024
0
LINE
8
BLACK
6
CONTINUOUS
10
155.905
20
-59.1024
11
156.143
21
-59.1024
0
LINE
8
BLACK
6
CONTINUOUS
10
156.143
20
-59.1024
11
156.238
21
-59.15
0
LINE
8
BLACK
6
CONTINUOUS
10
156.238
20
-59.15
11
156.286
21
-59.1976
0
LINE
8
BLACK
6
CONTINUOUS
10
156.286
20
-59.1976
11
156.333
21
-59.2929
0
LINE
8
BLACK
6
CONTINUOUS
10
156.333
20
-59.2929
11
156.333
21
-59.3881
0
LINE
8
BLACK
6
CONTINUOUS
10
156.333
20
-59.3881
11
156.286
21
-59.531
0
LINE
8
BLACK
6
CONTINUOUS
10
156.286
20
-59.531
11
155.714
21
-60.1024
0
LINE
8
BLACK
6
CONTINUOUS
10
155.714
20
-60.1024
11
156.333
21
-60.1024
0
LINE
8
BLACK
6
CONTINUOUS
10
128.667
20
-67.0548
11
128.81
21
-67.1024
0
LINE
8
BLACK
6
CONTINUOUS
10
128.81
20
-67.1024
11
129.048
21
-67.1024
0
LINE
8
BLACK
6
CONTINUOUS
10
129.048
20
-67.1024
11
129.143
21
-67.0548
0
LINE
8
BLACK
6
CONTINUOUS
10
129.143
20
-67.0548
11
129.19
21
-67.0071
0
LINE
8
BLACK
6
CONTINUOUS
10
129.19
20
-67.0071
11
129.238
21
-66.9119
0
LINE
8
BLACK
6
CONTINUOUS
10
129.238
20
-66.9119
11
129.238
21
-66.8167
0
LINE
8
BLACK
6
CONTINUOUS
10
129.238
20
-66.8167
11
129.19
21
-66.7214
0
LINE
8
BLACK
6
CONTINUOUS
10
129.19
20
-66.7214
11
129.143
21
-66.6738
0
LINE
8
BLACK
6
CONTINUOUS
10
129.143
20
-66.6738
11
129.048
21
-66.6262
0
LINE
8
BLACK
6
CONTINUOUS
10
129.048
20
-66.6262
11
128.857
21
-66.5786
0
LINE
8
BLACK
6
CONTINUOUS
10
128.857
20
-66.5786
11
128.762
21
-66.531
0
LINE
8
BLACK
6
CONTINUOUS
10
128.762
20
-66.531
11
128.714
21
-66.4833
0
LINE
8
BLACK
6
CONTINUOUS
10
128.714
20
-66.4833
11
128.667
21
-66.3881
0
LINE
8
BLACK
6
CONTINUOUS
10
128.667
20
-66.3881
11
128.667
21
-66.2929
0
LINE
8
BLACK
6
CONTINUOUS
10
128.667
20
-66.2929
11
128.714
21
-66.1976
0
LINE
8
BLACK
6
CONTINUOUS
10
128.714
20
-66.1976
11
128.762
21
-66.15
0
LINE
8
BLACK
6
CONTINUOUS
10
128.762
20
-66.15
11
128.857
21
-66.1024
0
LINE
8
BLACK
6
CONTINUOUS
10
128.857
20
-66.1024
11
129.095
21
-66.1024
0
LINE
8
BLACK
6
CONTINUOUS
10
129.095
20
-66.1024
11
129.238
21
-66.15
0
LINE
8
BLACK
6
CONTINUOUS
10
129.571
20
-66.1024
11
129.81
21
-67.1024
0
LINE
8
BLACK
6
CONTINUOUS
10
129.81
20
-67.1024
11
130
21
-66.3881
0
LINE
8
BLACK
6
CONTINUOUS
10
130
20
-66.3881
11
130.19
21
-67.1024
0
LINE
8
BLACK
6
CONTINUOUS
10
130.19
20
-67.1024
11
130.429
21
-66.1024
0
LINE
8
BLACK
6
CONTINUOUS
10
130.714
20
-66.1024
11
131.333
21
-66.1024
0
LINE
8
BLACK
6
CONTINUOUS
10
131.333
20
-66.1024
11
131
21
-66.4833
0
LINE
8
BLACK
6
CONTINUOUS
10
131
20
-66.4833
11
131.143
21
-66.4833
0
LINE
8
BLACK
6
CONTINUOUS
10
131.143
20
-66.4833
11
131.238
21
-66.531
0
LINE
8
BLACK
6
CONTINUOUS
10
131.238
20
-66.531
11
131.286
21
-66.5786
0
LINE
8
BLACK
6
CONTINUOUS
10
131.286
20
-66.5786
11
131.333
21
-66.6738
0
LINE
8
BLACK
6
CONTINUOUS
10
131.333
20
-66.6738
11
131.333
21
-66.9119
0
LINE
8
BLACK
6
CONTINUOUS
10
131.333
20
-66.9119
11
131.286
21
-67.0071
0
LINE
8
BLACK
6
CONTINUOUS
10
131.286
20
-67.0071
11
131.238
21
-67.0548
0
LINE
8
BLACK
6
CONTINUOUS
10
131.238
20
-67.0548
11
131.143
21
-67.1024
0
LINE
8
BLACK
6
CONTINUOUS
10
131.143
20
-67.1024
11
130.857
21
-67.1024
0
LINE
8
BLACK
6
CONTINUOUS
10
130.857
20
-67.1024
11
130.762
21
-67.0548
0
LINE
8
BLACK
6
CONTINUOUS
10
130.762
20
-67.0548
11
130.714
21
-67.0071
0
LINE
8
BLACK
6
CONTINUOUS
10
153.667
20
-67.0548
11
153.81
21
-67.1024
0
LINE
8
BLACK
6
CONTINUOUS
10
153.81
20
-67.1024
11
154.048
21
-67.1024
0
LINE
8
BLACK
6
CONTINUOUS
10
154.048
20
-67.1024
11
154.143
21
-67.0548
0
LINE
8
BLACK
6
CONTINUOUS
10
154.143
20
-67.0548
11
154.19
21
-67.0071
0
LINE
8
BLACK
6
CONTINUOUS
10
154.19
20
-67.0071
11
154.238
21
-66.9119
0
LINE
8
BLACK
6
CONTINUOUS
10
154.238
20
-66.9119
11
154.238
21
-66.8167
0
LINE
8
BLACK
6
CONTINUOUS
10
154.238
20
-66.8167
11
154.19
21
-66.7214
0
LINE
8
BLACK
6
CONTINUOUS
10
154.19
20
-66.7214
11
154.143
21
-66.6738
0
LINE
8
BLACK
6
CONTINUOUS
10
154.143
20
-66.6738
11
154.048
21
-66.6262
0
LINE
8
BLACK
6
CONTINUOUS
10
154.048
20
-66.6262
11
153.857
21
-66.5786
0
LINE
8
BLACK
6
CONTINUOUS
10
153.857
20
-66.5786
11
153.762
21
-66.531
0
LINE
8
BLACK
6
CONTINUOUS
10
153.762
20
-66.531
11
153.714
21
-66.4833
0
LINE
8
BLACK
6
CONTINUOUS
10
153.714
20
-66.4833
11
153.667
21
-66.3881
0
LINE
8
BLACK
6
CONTINUOUS
10
153.667
20
-66.3881
11
153.667
21
-66.2929
0
LINE
8
BLACK
6
CONTINUOUS
10
153.667
20
-66.2929
11
153.714
21
-66.1976
0
LINE
8
BLACK
6
CONTINUOUS
10
153.714
20
-66.1976
11
153.762
21
-66.15
0
LINE
8
BLACK
6
CONTINUOUS
10
153.762
20
-66.15
11
153.857
21
-66.1024
0
LINE
8
BLACK
6
CONTINUOUS
10
153.857
20
-66.1024
11
154.095
21
-66.1024
0
LINE
8
BLACK
6
CONTINUOUS
10
154.095
20
-66.1024
11
154.238
21
-66.15
0
LINE
8
BLACK
6
CONTINUOUS
10
154.571
20
-66.1024
11
154.81
21
-67.1024
0
LINE
8
BLACK
6
CONTINUOUS
10
154.81
20
-67.1024
11
155
21
-66.3881
0
LINE
8
BLACK
6
CONTINUOUS
10
155
20
-66.3881
11
155.19
21
-67.1024
0
LINE
8
BLACK
6
CONTINUOUS
10
155.19
20
-67.1024
11
155.429
21
-66.1024
0
LINE
8
BLACK
6
CONTINUOUS
10
156.238
20
-66.4357
11
156.238
21
-67.1024
0
LINE
8
BLACK
6
CONTINUOUS
10
156
20
-66.0548
11
155.762
21
-66.769
0
LINE
8
BLACK
6
CONTINUOUS
10
155.762
20
-66.769
11
156.381
21
-66.769
0
LINE
8
BLACK
6
CONTINUOUS
10
128.667
20
-74.0548
11
128.81
21
-74.1024
0
LINE
8
BLACK
6
CONTINUOUS
10
128.81
20
-74.1024
11
129.048
21
-74.1024
0
LINE
8
BLACK
6
CONTINUOUS
10
129.048
20
-74.1024
11
129.143
21
-74.0548
0
LINE
8
BLACK
6
CONTINUOUS
10
129.143
20
-74.0548
11
129.19
21
-74.0071
0
LINE
8
BLACK
6
CONTINUOUS
10
129.19
20
-74.0071
11
129.238
21
-73.9119
0
LINE
8
BLACK
6
CONTINUOUS
10
129.238
20
-73.9119
11
129.238
21
-73.8167
0
LINE
8
BLACK
6
CONTINUOUS
10
129.238
20
-73.8167
11
129.19
21
-73.7214
0
LINE
8
BLACK
6
CONTINUOUS
10
129.19
20
-73.7214
11
129.143
21
-73.6738
0
LINE
8
BLACK
6
CONTINUOUS
10
129.143
20
-73.6738
11
129.048
21
-73.6262
0
LINE
8
BLACK
6
CONTINUOUS
10
129.048
20
-73.6262
11
128.857
21
-73.5786
0
LINE
8
BLACK
6
CONTINUOUS
10
128.857
20
-73.5786
11
128.762
21
-73.531
0
LINE
8
BLACK
6
CONTINUOUS
10
128.762
20
-73.531
11
128.714
21
-73.4833
0
LINE
8
BLACK
6
CONTINUOUS
10
128.714
20
-73.4833
11
128.667
21
-73.3881
0
LINE
8
BLACK
6
CONTINUOUS
10
128.667
20
-73.3881
11
128.667
21
-73.2929
0
LINE
8
BLACK
6
CONTINUOUS
10
128.667
20
-73.2929
11
128.714
21
-73.1976
0
LINE
8
BLACK
6
CONTINUOUS
10
128.714
20
-73.1976
11
128.762
21
-73.15
0
LINE
8
BLACK
6
CONTINUOUS
10
128.762
20
-73.15
11
128.857
21
-73.1024
0
LINE
8
BLACK
6
CONTINUOUS
10
128.857
20
-73.1024
11
129.095
21
-73.1024
0
LINE
8
BLACK
6
CONTINUOUS
10
129.095
20
-73.1024
11
129.238
21
-73.15
0
LINE
8
BLACK
6
CONTINUOUS
10
129.571
20
-73.1024
11
129.81
21
-74.1024
0
LINE
8
BLACK
6
CONTINUOUS
10
129.81
20
-74.1024
11
130
21
-73.3881
0
LINE
8
BLACK
6
CONTINUOUS
10
130
20
-73.3881
11
130.19
21
-74.1024
0
LINE
8
BLACK
6
CONTINUOUS
10
130.19
20
-74.1024
11
130.429
21
-73.1024
0
LINE
8
BLACK
6
CONTINUOUS
10
131.286
20
-73.1024
11
130.81
21
-73.1024
0
LINE
8
BLACK
6
CONTINUOUS
10
130.81
20
-73.1024
11
130.762
21
-73.5786
0
LINE
8
BLACK
6
CONTINUOUS
10
130.762
20
-73.5786
11
130.81
21
-73.531
0
LINE
8
BLACK
6
CONTINUOUS
10
130.81
20
-73.531
11
130.905
21
-73.4833
0
LINE
8
BLACK
6
CONTINUOUS
10
130.905
20
-73.4833
11
131.143
21
-73.4833
0
LINE
8
BLACK
6
CONTINUOUS
10
131.143
20
-73.4833
11
131.238
21
-73.531
0
LINE
8
BLACK
6
CONTINUOUS
10
131.238
20
-73.531
11
131.286
21
-73.5786
0
LINE
8
BLACK
6
CONTINUOUS
10
131.286
20
-73.5786
11
131.333
21
-73.6738
0
LINE
8
BLACK
6
CONTINUOUS
10
131.333
20
-73.6738
11
131.333
21
-73.9119
0
LINE
8
BLACK
6
CONTINUOUS
10
131.333
20
-73.9119
11
131.286
21
-74.0071
0
LINE
8
BLACK
6
CONTINUOUS
10
131.286
20
-74.0071
11
131.238
21
-74.0548
0
LINE
8
BLACK
6
CONTINUOUS
10
131.238
20
-74.0548
11
131.143
21
-74.1024
0
LINE
8
BLACK
6
CONTINUOUS
10
131.143
20
-74.1024
11
130.905
21
-74.1024
0
LINE
8
BLACK
6
CONTINUOUS
10
130.905
20
-74.1024
11
130.81
21
-74.0548
0
LINE
8
BLACK
6
CONTINUOUS
10
130.81
20
-74.0548
11
130.762
21
-74.0071
0
LINE
8
BLACK
6
CONTINUOUS
10
153.667
20
-74.0548
11
153.81
21
-74.1024
0
LINE
8
BLACK
6
CONTINUOUS
10
153.81
20
-74.1024
11
154.048
21
-74.1024
0
LINE
8
BLACK
6
CONTINUOUS
10
154.048
20
-74.1024
11
154.143
21
-74.0548
0
LINE
8
BLACK
6
CONTINUOUS
10
154.143
20
-74.0548
11
154.19
21
-74.0071
0
LINE
8
BLACK
6
CONTINUOUS
10
154.19
20
-74.0071
11
154.238
21
-73.9119
0
LINE
8
BLACK
6
CONTINUOUS
10
154.238
20
-73.9119
11
154.238
21
-73.8167
0
LINE
8
BLACK
6
CONTINUOUS
10
154.238
20
-73.8167
11
154.19
21
-73.7214
0
LINE
8
BLACK
6
CONTINUOUS
10
154.19
20
-73.7214
11
154.143
21
-73.6738
0
LINE
8
BLACK
6
CONTINUOUS
10
154.143
20
-73.6738
11
154.048
21
-73.6262
0
LINE
8
BLACK
6
CONTINUOUS
10
154.048
20
-73.6262
11
153.857
21
-73.5786
0
LINE
8
BLACK
6
CONTINUOUS
10
153.857
20
-73.5786
11
153.762
21
-73.531
0
LINE
8
BLACK
6
CONTINUOUS
10
153.762
20
-73.531
11
153.714
21
-73.4833
0
LINE
8
BLACK
6
CONTINUOUS
10
153.714
20
-73.4833
11
153.667
21
-73.3881
0
LINE
8
BLACK
6
CONTINUOUS
10
153.667
20
-73.3881
11
153.667
21
-73.2929
0
LINE
8
BLACK
6
CONTINUOUS
10
153.667
20
-73.2929
11
153.714
21
-73.1976
0
LINE
8
BLACK
6
CONTINUOUS
10
153.714
20
-73.1976
11
153.762
21
-73.15
0
LINE
8
BLACK
6
CONTINUOUS
10
153.762
20
-73.15
11
153.857
21
-73.1024
0
LINE
8
BLACK
6
CONTINUOUS
10
153.857
20
-73.1024
11
154.095
21
-73.1024
0
LINE
8
BLACK
6
CONTINUOUS
10
154.095
20
-73.1024
11
154.238
21
-73.15
0
LINE
8
BLACK
6
CONTINUOUS
10
154.571
20
-73.1024
11
154.81
21
-74.1024
0
LINE
8
BLACK
6
CONTINUOUS
10
154.81
20
-74.1024
11
155
21
-73.3881
0
LINE
8
BLACK
6
CONTINUOUS
10
155
20
-73.3881
11
155.19
21
-74.1024
0
LINE
8
BLACK
6
CONTINUOUS
10
155.19
20
-74.1024
11
155.429
21
-73.1024
0
LINE
8
BLACK
6
CONTINUOUS
10
156.238
20
-73.1024
11
156.048
21
-73.1024
0
LINE
8
BLACK
6
CONTINUOUS
10
156.048
20
-73.1024
11
155.952
21
-73.15
0
LINE
8
BLACK
6
CONTINUOUS
10
155.952
20
-73.15
11
155.905
21
-73.1976
0
LINE
8
BLACK
6
CONTINUOUS
10
155.905
20
-73.1976
11
155.81
21
-73.3405
0
LINE
8
BLACK
6
CONTINUOUS
10
155.81
20
-73.3405
11
155.762
21
-73.531
0
LINE
8
BLACK
6
CONTINUOUS
10
155.762
20
-73.531
11
155.762
21
-73.9119
0
LINE
8
BLACK
6
CONTINUOUS
10
155.762
20
-73.9119
11
155.81
21
-74.0071
0
LINE
8
BLACK
6
CONTINUOUS
10
155.81
20
-74.0071
11
155.857
21
-74.0548
0
LINE
8
BLACK
6
CONTINUOUS
10
155.857
20
-74.0548
11
155.952
21
-74.1024
0
LINE
8
BLACK
6
CONTINUOUS
10
155.952
20
-74.1024
11
156.143
21
-74.1024
0
LINE
8
BLACK
6
CONTINUOUS
10
156.143
20
-74.1024
11
156.238
21
-74.0548
0
LINE
8
BLACK
6
CONTINUOUS
10
156.238
20
-74.0548
11
156.286
21
-74.0071
0
LINE
8
BLACK
6
CONTINUOUS
10
156.286
20
-74.0071
11
156.333
21
-73.9119
0
LINE
8
BLACK
6
CONTINUOUS
10
156.333
20
-73.9119
11
156.333
21
-73.6738
0
LINE
8
BLACK
6
CONTINUOUS
10
156.333
20
-73.6738
11
156.286
21
-73.5786
0
LINE
8
BLACK
6
CONTINUOUS
10
156.286
20
-73.5786
11
156.238
21
-73.531
0
LINE
8
BLACK
6
CONTINUOUS
10
156.238
20
-73.531
11
156.143
21
-73.4833
0
LINE
8
BLACK
6
CONTINUOUS
10
156.143
20
-73.4833
11
155.952
21
-73.4833
0
LINE
8
BLACK
6
CONTINUOUS
10
155.952
20
-73.4833
11
155.857
21
-73.531
0
LINE
8
BLACK
6
CONTINUOUS
10
155.857
20
-73.531
11
155.81
21
-73.5786
0
LINE
8
BLACK
6
CONTINUOUS
10
155.81
20
-73.5786
11
155.762
21
-73.6738
0
LINE
8
BLACK
6
CONTINUOUS
10
128.667
20
-81.0548
11
128.81
21
-81.1024
0
LINE
8
BLACK
6
CONTINUOUS
10
128.81
20
-81.1024
11
129.048
21
-81.1024
0
LINE
8
BLACK
6
CONTINUOUS
10
129.048
20
-81.1024
11
129.143
21
-81.0548
0
LINE
8
BLACK
6
CONTINUOUS
10
129.143
20
-81.0548
11
129.19
21
-81.0071
0
LINE
8
BLACK
6
CONTINUOUS
10
129.19
20
-81.0071
11
129.238
21
-80.9119
0
LINE
8
BLACK
6
CONTINUOUS
10
129.238
20
-80.9119
11
129.238
21
-80.8167
0
LINE
8
BLACK
6
CONTINUOUS
10
129.238
20
-80.8167
11
129.19
21
-80.7214
0
LINE
8
BLACK
6
CONTINUOUS
10
129.19
20
-80.7214
11
129.143
21
-80.6738
0
LINE
8
BLACK
6
CONTINUOUS
10
129.143
20
-80.6738
11
129.048
21
-80.6262
0
LINE
8
BLACK
6
CONTINUOUS
10
129.048
20
-80.6262
11
128.857
21
-80.5786
0
LINE
8
BLACK
6
CONTINUOUS
10
128.857
20
-80.5786
11
128.762
21
-80.531
0
LINE
8
BLACK
6
CONTINUOUS
10
128.762
20
-80.531
11
128.714
21
-80.4833
0
LINE
8
BLACK
6
CONTINUOUS
10
128.714
20
-80.4833
11
128.667
21
-80.3881
0
LINE
8
BLACK
6
CONTINUOUS
10
128.667
20
-80.3881
11
128.667
21
-80.2929
0
LINE
8
BLACK
6
CONTINUOUS
10
128.667
20
-80.2929
11
128.714
21
-80.1976
0
LINE
8
BLACK
6
CONTINUOUS
10
128.714
20
-80.1976
11
128.762
21
-80.15
0
LINE
8
BLACK
6
CONTINUOUS
10
128.762
20
-80.15
11
128.857
21
-80.1024
0
LINE
8
BLACK
6
CONTINUOUS
10
128.857
20
-80.1024
11
129.095
21
-80.1024
0
LINE
8
BLACK
6
CONTINUOUS
10
129.095
20
-80.1024
11
129.238
21
-80.15
0
LINE
8
BLACK
6
CONTINUOUS
10
129.571
20
-80.1024
11
129.81
21
-81.1024
0
LINE
8
BLACK
6
CONTINUOUS
10
129.81
20
-81.1024
11
130
21
-80.3881
0
LINE
8
BLACK
6
CONTINUOUS
10
130
20
-80.3881
11
130.19
21
-81.1024
0
LINE
8
BLACK
6
CONTINUOUS
10
130.19
20
-81.1024
11
130.429
21
-80.1024
0
LINE
8
BLACK
6
CONTINUOUS
10
130.714
20
-80.1024
11
131.381
21
-80.1024
0
LINE
8
BLACK
6
CONTINUOUS
10
131.381
20
-80.1024
11
130.952
21
-81.1024
0
LINE
8
BLACK
6
CONTINUOUS
10
153.667
20
-81.0548
11
153.81
21
-81.1024
0
LINE
8
BLACK
6
CONTINUOUS
10
153.81
20
-81.1024
11
154.048
21
-81.1024
0
LINE
8
BLACK
6
CONTINUOUS
10
154.048
20
-81.1024
11
154.143
21
-81.0548
0
LINE
8
BLACK
6
CONTINUOUS
10
154.143
20
-81.0548
11
154.19
21
-81.0071
0
LINE
8
BLACK
6
CONTINUOUS
10
154.19
20
-81.0071
11
154.238
21
-80.9119
0
LINE
8
BLACK
6
CONTINUOUS
10
154.238
20
-80.9119
11
154.238
21
-80.8167
0
LINE
8
BLACK
6
CONTINUOUS
10
154.238
20
-80.8167
11
154.19
21
-80.7214
0
LINE
8
BLACK
6
CONTINUOUS
10
154.19
20
-80.7214
11
154.143
21
-80.6738
0
LINE
8
BLACK
6
CONTINUOUS
10
154.143
20
-80.6738
11
154.048
21
-80.6262
0
LINE
8
BLACK
6
CONTINUOUS
10
154.048
20
-80.6262
11
153.857
21
-80.5786
0
LINE
8
BLACK
6
CONTINUOUS
10
153.857
20
-80.5786
11
153.762
21
-80.531
0
LINE
8
BLACK
6
CONTINUOUS
10
153.762
20
-80.531
11
153.714
21
-80.4833
0
LINE
8
BLACK
6
CONTINUOUS
10
153.714
20
-80.4833
11
153.667
21
-80.3881
0
LINE
8
BLACK
6
CONTINUOUS
10
153.667
20
-80.3881
11
153.667
21
-80.2929
0
LINE
8
BLACK
6
CONTINUOUS
10
153.667
20
-80.2929
11
153.714
21
-80.1976
0
LINE
8
BLACK
6
CONTINUOUS
10
153.714
20
-80.1976
11
153.762
21
-80.15
0
LINE
8
BLACK
6
CONTINUOUS
10
153.762
20
-80.15
11
153.857
21
-80.1024
0
LINE
8
BLACK
6
CONTINUOUS
10
153.857
20
-80.1024
11
154.095
21
-80.1024
0
LINE
8
BLACK
6
CONTINUOUS
10
154.095
20
-80.1024
11
154.238
21
-80.15
0
LINE
8
BLACK
6
CONTINUOUS
10
154.571
20
-80.1024
11
154.81
21
-81.1024
0
LINE
8
BLACK
6
CONTINUOUS
10
154.81
20
-81.1024
11
155
21
-80.3881
0
LINE
8
BLACK
6
CONTINUOUS
10
155
20
-80.3881
11
155.19
21
-81.1024
0
LINE
8
BLACK
6
CONTINUOUS
10
155.19
20
-81.1024
11
155.429
21
-80.1024
0
LINE
8
BLACK
6
CONTINUOUS
10
155.952
20
-80.531
11
155.857
21
-80.4833
0
LINE
8
BLACK
6
CONTINUOUS
10
155.857
20
-80.4833
11
155.81
21
-80.4357
0
LINE
8
BLACK
6
CONTINUOUS
10
155.81
20
-80.4357
11
155.762
21
-80.3405
0
LINE
8
BLACK
6
CONTINUOUS
10
155.762
20
-80.3405
11
155.762
21
-80.2929
0
LINE
8
BLACK
6
CONTINUOUS
10
155.762
20
-80.2929
11
155.81
21
-80.1976
0
LINE
8
BLACK
6
CONTINUOUS
10
155.81
20
-80.1976
11
155.857
21
-80.15
0
LINE
8
BLACK
6
CONTINUOUS
10
155.857
20
-80.15
11
155.952
21
-80.1024
0
LINE
8
BLACK
6
CONTINUOUS
10
155.952
20
-80.1024
11
156.143
21
-80.1024
0
LINE
8
BLACK
6
CONTINUOUS
10
156.143
20
-80.1024
11
156.238
21
-80.15
0
LINE
8
BLACK
6
CONTINUOUS
10
156.238
20
-80.15
11
156.286
21
-80.1976
0
LINE
8
BLACK
6
CONTINUOUS
10
156.286
20
-80.1976
11
156.333
21
-80.2929
0
LINE
8
BLACK
6
CONTINUOUS
10
156.333
20
-80.2929
11
156.333
21
-80.3405
0
LINE
8
BLACK
6
CONTINUOUS
10
156.333
20
-80.3405
11
156.286
21
-80.4357
0
LINE
8
BLACK
6
CONTINUOUS
10
156.286
20
-80.4357
11
156.238
21
-80.4833
0
LINE
8
BLACK
6
CONTINUOUS
10
156.238
20
-80.4833
11
156.143
21
-80.531
0
LINE
8
BLACK
6
CONTINUOUS
10
156.143
20
-80.531
11
155.952
21
-80.531
0
LINE
8
BLACK
6
CONTINUOUS
10
155.952
20
-80.531
11
155.857
21
-80.5786
0
LINE
8
BLACK
6
CONTINUOUS
10
155.857
20
-80.5786
11
155.81
21
-80.6262
0
LINE
8
BLACK
6
CONTINUOUS
10
155.81
20
-80.6262
11
155.762
21
-80.7214
0
LINE
8
BLACK
6
CONTINUOUS
10
155.762
20
-80.7214
11
155.762
21
-80.9119
0
LINE
8
BLACK
6
CONTINUOUS
10
155.762
20
-80.9119
11
155.81
21
-81.0071
0
LINE
8
BLACK
6
CONTINUOUS
10
155.81
20
-81.0071
11
155.857
21
-81.0548
0
LINE
8
BLACK
6
CONTINUOUS
10
155.857
20
-81.0548
11
155.952
21
-81.1024
0
LINE
8
BLACK
6
CONTINUOUS
10
155.952
20
-81.1024
11
156.143
21
-81.1024
0
LINE
8
BLACK
6
CONTINUOUS
10
156.143
20
-81.1024
11
156.238
21
-81.0548
0
LINE
8
BLACK
6
CONTINUOUS
10
156.238
20
-81.0548
11
156.286
21
-81.0071
0
LINE
8
BLACK
6
CONTINUOUS
10
156.286
20
-81.0071
11
156.333
21
-80.9119
0
LINE
8
BLACK
6
CONTINUOUS
10
156.333
20
-80.9119
11
156.333
21
-80.7214
0
LINE
8
BLACK
6
CONTINUOUS
10
156.333
20
-80.7214
11
156.286
21
-80.6262
0
LINE
8
BLACK
6
CONTINUOUS
10
156.286
20
-80.6262
11
156.238
21
-80.5786
0
LINE
8
BLACK
6
CONTINUOUS
10
156.238
20
-80.5786
11
156.143
21
-80.531
0
LINE
8
BLACK
6
CONTINUOUS
10
128.667
20
-88.0548
11
128.81
21
-88.1024
0
LINE
8
BLACK
6
CONTINUOUS
10
128.81
20
-88.1024
11
129.048
21
-88.1024
0
LINE
8
BLACK
6
CONTINUOUS
10
129.048
20
-88.1024
11
129.143
21
-88.0548
0
LINE
8
BLACK
6
CONTINUOUS
10
129.143
20
-88.0548
11
129.19
21
-88.0071
0
LINE
8
BLACK
6
CONTINUOUS
10
129.19
20
-88.0071
11
129.238
21
-87.9119
0
LINE
8
BLACK
6
CONTINUOUS
10
129.238
20
-87.9119
11
129.238
21
-87.8167
0
LINE
8
BLACK
6
CONTINUOUS
10
129.238
20
-87.8167
11
129.19
21
-87.7214
0
LINE
8
BLACK
6
CONTINUOUS
10
129.19
20
-87.7214
11
129.143
21
-87.6738
0
LINE
8
BLACK
6
CONTINUOUS
10
129.143
20
-87.6738
11
129.048
21
-87.6262
0
LINE
8
BLACK
6
CONTINUOUS
10
129.048
20
-87.6262
11
128.857
21
-87.5786
0
LINE
8
BLACK
6
CONTINUOUS
10
128.857
20
-87.5786
11
128.762
21
-87.531
0
LINE
8
BLACK
6
CONTINUOUS
10
128.762
20
-87.531
11
128.714
21
-87.4833
0
LINE
8
BLACK
6
CONTINUOUS
10
128.714
20
-87.4833
11
128.667
21
-87.3881
0
LINE
8
BLACK
6
CONTINUOUS
10
128.667
20
-87.3881
11
128.667
21
-87.2929
0
LINE
8
BLACK
6
CONTINUOUS
10
128.667
20
-87.2929
11
128.714
21
-87.1976
0
LINE
8
BLACK
6
CONTINUOUS
10
128.714
20
-87.1976
11
128.762
21
-87.15
0
LINE
8
BLACK
6
CONTINUOUS
10
128.762
20
-87.15
11
128.857
21
-87.1024
0
LINE
8
BLACK
6
CONTINUOUS
10
128.857
20
-87.1024
11
129.095
21
-87.1024
0
LINE
8
BLACK
6
CONTINUOUS
10
129.095
20
-87.1024
11
129.238
21
-87.15
0
LINE
8
BLACK
6
CONTINUOUS
10
129.571
20
-87.1024
11
129.81
21
-88.1024
0
LINE
8
BLACK
6
CONTINUOUS
10
129.81
20
-88.1024
11
130
21
-87.3881
0
LINE
8
BLACK
6
CONTINUOUS
10
130
20
-87.3881
11
130.19
21
-88.1024
0
LINE
8
BLACK
6
CONTINUOUS
10
130.19
20
-88.1024
11
130.429
21
-87.1024
0
LINE
8
BLACK
6
CONTINUOUS
10
130.857
20
-88.1024
11
131.048
21
-88.1024
0
LINE
8
BLACK
6
CONTINUOUS
10
131.048
20
-88.1024
11
131.143
21
-88.0548
0
LINE
8
BLACK
6
CONTINUOUS
10
131.143
20
-88.0548
11
131.19
21
-88.0071
0
LINE
8
BLACK
6
CONTINUOUS
10
131.19
20
-88.0071
11
131.286
21
-87.8643
0
LINE
8
BLACK
6
CONTINUOUS
10
131.286
20
-87.8643
11
131.333
21
-87.6738
0
LINE
8
BLACK
6
CONTINUOUS
10
131.333
20
-87.6738
11
131.333
21
-87.2929
0
LINE
8
BLACK
6
CONTINUOUS
10
131.333
20
-87.2929
11
131.286
21
-87.1976
0
LINE
8
BLACK
6
CONTINUOUS
10
131.286
20
-87.1976
11
131.238
21
-87.15
0
LINE
8
BLACK
6
CONTINUOUS
10
131.238
20
-87.15
11
131.143
21
-87.1024
0
LINE
8
BLACK
6
CONTINUOUS
10
131.143
20
-87.1024
11
130.952
21
-87.1024
0
LINE
8
BLACK
6
CONTINUOUS
10
130.952
20
-87.1024
11
130.857
21
-87.15
0
LINE
8
BLACK
6
CONTINUOUS
10
130.857
20
-87.15
11
130.81
21
-87.1976
0
LINE
8
BLACK
6
CONTINUOUS
10
130.81
20
-87.1976
11
130.762
21
-87.2929
0
LINE
8
BLACK
6
CONTINUOUS
10
130.762
20
-87.2929
11
130.762
21
-87.531
0
LINE
8
BLACK
6
CONTINUOUS
10
130.762
20
-87.531
11
130.81
21
-87.6262
0
LINE
8
BLACK
6
CONTINUOUS
10
130.81
20
-87.6262
11
130.857
21
-87.6738
0
LINE
8
BLACK
6
CONTINUOUS
10
130.857
20
-87.6738
11
130.952
21
-87.7214
0
LINE
8
BLACK
6
CONTINUOUS
10
130.952
20
-87.7214
11
131.143
21
-87.7214
0
LINE
8
BLACK
6
CONTINUOUS
10
131.143
20
-87.7214
11
131.238
21
-87.6738
0
LINE
8
BLACK
6
CONTINUOUS
10
131.238
20
-87.6738
11
131.286
21
-87.6262
0
LINE
8
BLACK
6
CONTINUOUS
10
131.286
20
-87.6262
11
131.333
21
-87.531
0
LINE
8
BLACK
6
CONTINUOUS
10
153.19
20
-88.0548
11
153.333
21
-88.1024
0
LINE
8
BLACK
6
CONTINUOUS
10
153.333
20
-88.1024
11
153.571
21
-88.1024
0
LINE
8
BLACK
6
CONTINUOUS
10
153.571
20
-88.1024
11
153.667
21
-88.0548
0
LINE
8
BLACK
6
CONTINUOUS
10
153.667
20
-88.0548
11
153.714
21
-88.0071
0
LINE
8
BLACK
6
CONTINUOUS
10
153.714
20
-88.0071
11
153.762
21
-87.9119
0
LINE
8
BLACK
6
CONTINUOUS
10
153.762
20
-87.9119
11
153.762
21
-87.8167
0
LINE
8
BLACK
6
CONTINUOUS
10
153.762
20
-87.8167
11
153.714
21
-87.7214
0
LINE
8
BLACK
6
CONTINUOUS
10
153.714
20
-87.7214
11
153.667
21
-87.6738
0
LINE
8
BLACK
6
CONTINUOUS
10
153.667
20
-87.6738
11
153.571
21
-87.6262
0
LINE
8
BLACK
6
CONTINUOUS
10
153.571
20
-87.6262
11
153.381
21
-87.5786
0
LINE
8
BLACK
6
CONTINUOUS
10
153.381
20
-87.5786
11
153.286
21
-87.531
0
LINE
8
BLACK
6
CONTINUOUS
10
153.286
20
-87.531
11
153.238
21
-87.4833
0
LINE
8
BLACK
6
CONTINUOUS
10
153.238
20
-87.4833
11
153.19
21
-87.3881
0
LINE
8
BLACK
6
CONTINUOUS
10
153.19
20
-87.3881
11
153.19
21
-87.2929
0
LINE
8
BLACK
6
CONTINUOUS
10
153.19
20
-87.2929
11
153.238
21
-87.1976
0
LINE
8
BLACK
6
CONTINUOUS
10
153.238
20
-87.1976
11
153.286
21
-87.15
0
LINE
8
BLACK
6
CONTINUOUS
10
153.286
20
-87.15
11
153.381
21
-87.1024
0
LINE
8
BLACK
6
CONTINUOUS
10
153.381
20
-87.1024
11
153.619
21
-87.1024
0
LINE
8
BLACK
6
CONTINUOUS
10
153.619
20
-87.1024
11
153.762
21
-87.15
0
LINE
8
BLACK
6
CONTINUOUS
10
154.095
20
-87.1024
11
154.333
21
-88.1024
0
LINE
8
BLACK
6
CONTINUOUS
10
154.333
20
-88.1024
11
154.524
21
-87.3881
0
LINE
8
BLACK
6
CONTINUOUS
10
154.524
20
-87.3881
11
154.714
21
-88.1024
0
LINE
8
BLACK
6
CONTINUOUS
10
154.714
20
-88.1024
11
154.952
21
-87.1024
0
LINE
8
BLACK
6
CONTINUOUS
10
155.857
20
-88.1024
11
155.286
21
-88.1024
0
LINE
8
BLACK
6
CONTINUOUS
10
155.571
20
-88.1024
11
155.571
21
-87.1024
0
LINE
8
BLACK
6
CONTINUOUS
10
155.571
20
-87.1024
11
155.476
21
-87.2452
0
LINE
8
BLACK
6
CONTINUOUS
10
155.476
20
-87.2452
11
155.381
21
-87.3405
0
LINE
8
BLACK
6
CONTINUOUS
10
155.381
20
-87.3405
11
155.286
21
-87.3881
0
LINE
8
BLACK
6
CONTINUOUS
10
156.476
20
-87.1024
11
156.571
21
-87.1024
0
LINE
8
BLACK
6
CONTINUOUS
10
156.571
20
-87.1024
11
156.667
21
-87.15
0
LINE
8
BLACK
6
CONTINUOUS
10
156.667
20
-87.15
11
156.714
21
-87.1976
0
LINE
8
BLACK
6
CONTINUOUS
10
156.714
20
-87.1976
11
156.762
21
-87.2929
0
LINE
8
BLACK
6
CONTINUOUS
10
156.762
20
-87.2929
11
156.81
21
-87.4833
0
LINE
8
BLACK
6
CONTINUOUS
10
156.81
20
-87.4833
11
156.81
21
-87.7214
0
LINE
8
BLACK
6
CONTINUOUS
10
156.81
20
-87.7214
11
156.762
21
-87.9119
0
LINE
8
BLACK
6
CONTINUOUS
10
156.762
20
-87.9119
11
156.714
21
-88.0071
0
LINE
8
BLACK
6
CONTINUOUS
10
156.714
20
-88.0071
11
156.667
21
-88.0548
0
LINE
8
BLACK
6
CONTINUOUS
10
156.667
20
-88.0548
11
156.571
21
-88.1024
0
LINE
8
BLACK
6
CONTINUOUS
10
156.571
20
-88.1024
11
156.476
21
-88.1024
0
LINE
8
BLACK
6
CONTINUOUS
10
156.476
20
-88.1024
11
156.381
21
-88.0548
0
LINE
8
BLACK
6
CONTINUOUS
10
156.381
20
-88.0548
11
156.333
21
-88.0071
0
LINE
8
BLACK
6
CONTINUOUS
10
156.333
20
-88.0071
11
156.286
21
-87.9119
0
LINE
8
BLACK
6
CONTINUOUS
10
156.286
20
-87.9119
11
156.238
21
-87.7214
0
LINE
8
BLACK
6
CONTINUOUS
10
156.238
20
-87.7214
11
156.238
21
-87.4833
0
LINE
8
BLACK
6
CONTINUOUS
10
156.238
20
-87.4833
11
156.286
21
-87.2929
0
LINE
8
BLACK
6
CONTINUOUS
10
156.286
20
-87.2929
11
156.333
21
-87.1976
0
LINE
8
BLACK
6
CONTINUOUS
10
156.333
20
-87.1976
11
156.381
21
-87.15
0
LINE
8
BLACK
6
CONTINUOUS
10
156.381
20
-87.15
11
156.476
21
-87.1024
0
LINE
8
BLACK
6
CONTINUOUS
10
128.19
20
-95.0548
11
128.333
21
-95.1024
0
LINE
8
BLACK
6
CONTINUOUS
10
128.333
20
-95.1024
11
128.571
21
-95.1024
0
LINE
8
BLACK
6
CONTINUOUS
10
128.571
20
-95.1024
11
128.667
21
-95.0548
0
LINE
8
BLACK
6
CONTINUOUS
10
128.667
20
-95.0548
11
128.714
21
-95.0071
0
LINE
8
BLACK
6
CONTINUOUS
10
128.714
20
-95.0071
11
128.762
21
-94.9119
0
LINE
8
BLACK
6
CONTINUOUS
10
128.762
20
-94.9119
11
128.762
21
-94.8167
0
LINE
8
BLACK
6
CONTINUOUS
10
128.762
20
-94.8167
11
128.714
21
-94.7214
0
LINE
8
BLACK
6
CONTINUOUS
10
128.714
20
-94.7214
11
128.667
21
-94.6738
0
LINE
8
BLACK
6
CONTINUOUS
10
128.667
20
-94.6738
11
128.571
21
-94.6262
0
LINE
8
BLACK
6
CONTINUOUS
10
128.571
20
-94.6262
11
128.381
21
-94.5786
0
LINE
8
BLACK
6
CONTINUOUS
10
128.381
20
-94.5786
11
128.286
21
-94.531
0
LINE
8
BLACK
6
CONTINUOUS
10
128.286
20
-94.531
11
128.238
21
-94.4833
0
LINE
8
BLACK
6
CONTINUOUS
10
128.238
20
-94.4833
11
128.19
21
-94.3881
0
LINE
8
BLACK
6
CONTINUOUS
10
128.19
20
-94.3881
11
128.19
21
-94.2929
0
LINE
8
BLACK
6
CONTINUOUS
10
128.19
20
-94.2929
11
128.238
21
-94.1976
0
LINE
8
BLACK
6
CONTINUOUS
10
128.238
20
-94.1976
11
128.286
21
-94.15
0
LINE
8
BLACK
6
CONTINUOUS
10
128.286
20
-94.15
11
128.381
21
-94.1024
0
LINE
8
BLACK
6
CONTINUOUS
10
128.381
20
-94.1024
11
128.619
21
-94.1024
0
LINE
8
BLACK
6
CONTINUOUS
10
128.619
20
-94.1024
11
128.762
21
-94.15
0
LINE
8
BLACK
6
CONTINUOUS
10
129.095
20
-94.1024
11
129.333
21
-95.1024
0
LINE
8
BLACK
6
CONTINUOUS
10
129.333
20
-95.1024
11
129.524
21
-94.3881
0
LINE
8
BLACK
6
CONTINUOUS
10
129.524
20
-94.3881
11
129.714
21
-95.1024
0
LINE
8
BLACK
6
CONTINUOUS
10
129.714
20
-95.1024
11
129.952
21
-94.1024
0
LINE
8
BLACK
6
CONTINUOUS
10
130.857
20
-95.1024
11
130.286
21
-95.1024
0
LINE
8
BLACK
6
CONTINUOUS
10
130.571
20
-95.1024
11
130.571
21
-94.1024
0
LINE
8
BLACK
6
CONTINUOUS
10
130.571
20
-94.1024
11
130.476
21
-94.2452
0
LINE
8
BLACK
6
CONTINUOUS
10
130.476
20
-94.2452
11
130.381
21
-94.3405
0
LINE
8
BLACK
6
CONTINUOUS
10
130.381
20
-94.3405
11
130.286
21
-94.3881
0
LINE
8
BLACK
6
CONTINUOUS
10
131.81
20
-95.1024
11
131.238
21
-95.1024
0
LINE
8
BLACK
6
CONTINUOUS
10
131.524
20
-95.1024
11
131.524
21
-94.1024
0
LINE
8
BLACK
6
CONTINUOUS
10
131.524
20
-94.1024
11
131.429
21
-94.2452
0
LINE
8
BLACK
6
CONTINUOUS
10
131.429
20
-94.2452
11
131.333
21
-94.3405
0
LINE
8
BLACK
6
CONTINUOUS
10
131.333
20
-94.3405
11
131.238
21
-94.3881
0
LINE
8
BLACK
6
CONTINUOUS
10
153.19
20
-95.0548
11
153.333
21
-95.1024
0
LINE
8
BLACK
6
CONTINUOUS
10
153.333
20
-95.1024
11
153.571
21
-95.1024
0
LINE
8
BLACK
6
CONTINUOUS
10
153.571
20
-95.1024
11
153.667
21
-95.0548
0
LINE
8
BLACK
6
CONTINUOUS
10
153.667
20
-95.0548
11
153.714
21
-95.0071
0
LINE
8
BLACK
6
CONTINUOUS
10
153.714
20
-95.0071
11
153.762
21
-94.9119
0
LINE
8
BLACK
6
CONTINUOUS
10
153.762
20
-94.9119
11
153.762
21
-94.8167
0
LINE
8
BLACK
6
CONTINUOUS
10
153.762
20
-94.8167
11
153.714
21
-94.7214
0
LINE
8
BLACK
6
CONTINUOUS
10
153.714
20
-94.7214
11
153.667
21
-94.6738
0
LINE
8
BLACK
6
CONTINUOUS
10
153.667
20
-94.6738
11
153.571
21
-94.6262
0
LINE
8
BLACK
6
CONTINUOUS
10
153.571
20
-94.6262
11
153.381
21
-94.5786
0
LINE
8
BLACK
6
CONTINUOUS
10
153.381
20
-94.5786
11
153.286
21
-94.531
0
LINE
8
BLACK
6
CONTINUOUS
10
153.286
20
-94.531
11
153.238
21
-94.4833
0
LINE
8
BLACK
6
CONTINUOUS
10
153.238
20
-94.4833
11
153.19
21
-94.3881
0
LINE
8
BLACK
6
CONTINUOUS
10
153.19
20
-94.3881
11
153.19
21
-94.2929
0
LINE
8
BLACK
6
CONTINUOUS
10
153.19
20
-94.2929
11
153.238
21
-94.1976
0
LINE
8
BLACK
6
CONTINUOUS
10
153.238
20
-94.1976
11
153.286
21
-94.15
0
LINE
8
BLACK
6
CONTINUOUS
10
153.286
20
-94.15
11
153.381
21
-94.1024
0
LINE
8
BLACK
6
CONTINUOUS
10
153.381
20
-94.1024
11
153.619
21
-94.1024
0
LINE
8
BLACK
6
CONTINUOUS
10
153.619
20
-94.1024
11
153.762
21
-94.15
0
LINE
8
BLACK
6
CONTINUOUS
10
154.095
20
-94.1024
11
154.333
21
-95.1024
0
LINE
8
BLACK
6
CONTINUOUS
10
154.333
20
-95.1024
11
154.524
21
-94.3881
0
LINE
8
BLACK
6
CONTINUOUS
10
154.524
20
-94.3881
11
154.714
21
-95.1024
0
LINE
8
BLACK
6
CONTINUOUS
10
154.714
20
-95.1024
11
154.952
21
-94.1024
0
LINE
8
BLACK
6
CONTINUOUS
10
155.857
20
-95.1024
11
155.286
21
-95.1024
0
LINE
8
BLACK
6
CONTINUOUS
10
155.571
20
-95.1024
11
155.571
21
-94.1024
0
LINE
8
BLACK
6
CONTINUOUS
10
155.571
20
-94.1024
11
155.476
21
-94.2452
0
LINE
8
BLACK
6
CONTINUOUS
10
155.476
20
-94.2452
11
155.381
21
-94.3405
0
LINE
8
BLACK
6
CONTINUOUS
10
155.381
20
-94.3405
11
155.286
21
-94.3881
0
LINE
8
BLACK
6
CONTINUOUS
10
156.238
20
-94.1976
11
156.286
21
-94.15
0
LINE
8
BLACK
6
CONTINUOUS
10
156.286
20
-94.15
11
156.381
21
-94.1024
0
LINE
8
BLACK
6
CONTINUOUS
10
156.381
20
-94.1024
11
156.619
21
-94.1024
0
LINE
8
BLACK
6
CONTINUOUS
10
156.619
20
-94.1024
11
156.714
21
-94.15
0
LINE
8
BLACK
6
CONTINUOUS
10
156.714
20
-94.15
11
156.762
21
-94.1976
0
LINE
8
BLACK
6
CONTINUOUS
10
156.762
20
-94.1976
11
156.81
21
-94.2929
0
LINE
8
BLACK
6
CONTINUOUS
10
156.81
20
-94.2929
11
156.81
21
-94.3881
0
LINE
8
BLACK
6
CONTINUOUS
10
156.81
20
-94.3881
11
156.762
21
-94.531
0
LINE
8
BLACK
6
CONTINUOUS
10
156.762
20
-94.531
11
156.19
21
-95.1024
0
LINE
8
BLACK
6
CONTINUOUS
10
156.19
20
-95.1024
11
156.81
21
-95.1024
  0
ENDSEC
  0
EOF
