  0
SECTION
  2
HEADER
  9
$ANGBASE
  50
0.0
  9
$ANGDIR
  70
1
  9
$MEASUREMENT
  70
1
  0
ENDSEC
  0
SECTION
  2
TABLES
  0
TABLE
  2
LTYPE
  70
4
  0
LTYPE
  5
40F
  2
CONTINUOUS
  70
0
  3
Solid line
  72
65
  73
0
  40
0.0
  0
LTYPE
  5
410
  2
DASHDOT
 70
0
  3
Dash Dot ____ _ ____ _
 72
65
 73
4
 40
2.0
 49
1.25
 49
-0.25
 49
0.25
 49
-0.25
  0
LTYPE
  5
411
  2
DASHED
 70
0
  3
Dashed __ __ __ __ __
 72
65
 73
2
 40
0.75
 49
0.5
 49
-0.25
  0
LTYPE
  5
43B
  2
DOTTED
 70
0
  3
Dotted .  .  .  .
 72
65
 73
2
 40
0.2
 49
0.0
 49
-0.2
  0
ENDTAB
  0
TABLE
  2
STYLE
  70
4
  0
STYLE
  2
KICAD
  70
0
  40
0
  41
1
  42
1
  50
0
  71
0
  3
isocp.shx
  0
STYLE
  2
KICADB
  70
0
  40
0
  41
1
  42
1
  50
0
  71
0
  3
isocp.shx
  0
STYLE
  2
KICADI
  70
0
  40
0
  41
1
  42
1
  50
15
  71
0
  3
isocp.shx
  0
STYLE
  2
KICADBI
  70
0
  40
0
  41
1
  42
1
  50
15
  71
0
  3
isocp.shx
  0
ENDTAB
  0
TABLE
  2
LAYER
  70
1
  0
LAYER
  2
BLACK
  70
0
  62
7
  6
CONTINUOUS
  0
ENDTAB
  0
ENDSEC
  0
SECTION
  2
ENTITIES
0
ARC
8
BLACK
10
160.25
20
-21.8
40
4.4
50
-1.30218e-05
51
90
0
LINE
8
BLACK
6
CONTINUOUS
10
164.65
20
-101.75
11
164.65
21
-21.8
0
ARC
8
BLACK
10
160.25
20
-101.75
40
4.4
50
-90
51
-2.27374e-13
0
LINE
8
BLACK
6
CONTINUOUS
10
123
20
-106.15
11
160.25
21
-106.15
0
ARC
8
BLACK
10
123
20
-101.75
40
4.4
50
180
51
270
0
ARC
8
BLACK
10
123
20
-21.8
40
4.4
50
90
51
180
0
LINE
8
BLACK
6
CONTINUOUS
10
160.25
20
-17.4
11
123
21
-17.4
0
LINE
8
BLACK
6
CONTINUOUS
10
118.6
20
-101.75
11
118.6
21
-21.8
0
CIRCLE
8
BLACK
10
123
20
-101.75
40
1.2
0
CIRCLE
8
BLACK
10
160.25
20
-101.75
40
1.2
0
CIRCLE
8
BLACK
10
123
20
-51.2
40
1.2
0
CIRCLE
8
BLACK
10
160.25
20
-21.8
40
1.2
0
CIRCLE
8
BLACK
10
123
20
-21.8
40
1.2
0
LINE
8
BLACK
6
CONTINUOUS
10
129.5
20
-34.95
11
129.5
21
-38.35
0
LINE
8
BLACK
6
CONTINUOUS
10
126.5
20
-34.95
11
129.5
21
-34.95
0
LINE
8
BLACK
6
CONTINUOUS
10
126.5
20
-38.35
11
126.5
21
-34.95
0
LINE
8
BLACK
6
CONTINUOUS
10
129.5
20
-38.35
11
126.5
21
-38.35
0
LINE
8
BLACK
6
CONTINUOUS
10
136.5
20
-38.35
11
133.5
21
-38.35
0
LINE
8
BLACK
6
CONTINUOUS
10
133.5
20
-38.35
11
133.5
21
-34.95
0
LINE
8
BLACK
6
CONTINUOUS
10
133.5
20
-34.95
11
136.5
21
-34.95
0
LINE
8
BLACK
6
CONTINUOUS
10
136.5
20
-34.95
11
136.5
21
-38.35
0
LINE
8
BLACK
6
CONTINUOUS
10
143.5
20
-34.95
11
143.5
21
-38.35
0
LINE
8
BLACK
6
CONTINUOUS
10
140.5
20
-34.95
11
143.5
21
-34.95
0
LINE
8
BLACK
6
CONTINUOUS
10
140.5
20
-38.35
11
140.5
21
-34.95
0
LINE
8
BLACK
6
CONTINUOUS
10
143.5
20
-38.35
11
140.5
21
-38.35
0
LINE
8
BLACK
6
CONTINUOUS
10
150.5
20
-34.95
11
150.5
21
-38.35
0
LINE
8
BLACK
6
CONTINUOUS
10
147.5
20
-34.95
11
150.5
21
-34.95
0
LINE
8
BLACK
6
CONTINUOUS
10
147.5
20
-38.35
11
147.5
21
-34.95
0
LINE
8
BLACK
6
CONTINUOUS
10
150.5
20
-38.35
11
147.5
21
-38.35
0
LINE
8
BLACK
6
CONTINUOUS
10
157.5
20
-38.35
11
154.5
21
-38.35
0
LINE
8
BLACK
6
CONTINUOUS
10
154.5
20
-38.35
11
154.5
21
-34.95
0
LINE
8
BLACK
6
CONTINUOUS
10
154.5
20
-34.95
11
157.5
21
-34.95
0
LINE
8
BLACK
6
CONTINUOUS
10
157.5
20
-34.95
11
157.5
21
-38.35
  0
ENDSEC
  0
EOF
