  0
SECTION
  2
HEADER
  9
$ANGBASE
  50
0.0
  9
$ANGDIR
  70
1
  9
$MEASUREMENT
  70
1
  0
ENDSEC
  0
SECTION
  2
TABLES
  0
TABLE
  2
LTYPE
  70
4
  0
LTYPE
  5
40F
  2
CONTINUOUS
  70
0
  3
Solid line
  72
65
  73
0
  40
0.0
  0
LTYPE
  5
410
  2
DASHDOT
 70
0
  3
Dash Dot ____ _ ____ _
 72
65
 73
4
 40
2.0
 49
1.25
 49
-0.25
 49
0.25
 49
-0.25
  0
LTYPE
  5
411
  2
DASHED
 70
0
  3
Dashed __ __ __ __ __
 72
65
 73
2
 40
0.75
 49
0.5
 49
-0.25
  0
LTYPE
  5
43B
  2
DOTTED
 70
0
  3
Dotted .  .  .  .
 72
65
 73
2
 40
0.2
 49
0.0
 49
-0.2
  0
ENDTAB
  0
TABLE
  2
STYLE
  70
4
  0
STYLE
  2
KICAD
  70
0
  40
0
  41
1
  42
1
  50
0
  71
0
  3
isocp.shx
  0
STYLE
  2
KICADB
  70
0
  40
0
  41
1
  42
1
  50
0
  71
0
  3
isocp.shx
  0
STYLE
  2
KICADI
  70
0
  40
0
  41
1
  42
1
  50
15
  71
0
  3
isocp.shx
  0
STYLE
  2
KICADBI
  70
0
  40
0
  41
1
  42
1
  50
15
  71
0
  3
isocp.shx
  0
ENDTAB
  0
TABLE
  2
LAYER
  70
1
  0
LAYER
  2
BLACK
  70
0
  62
7
  6
CONTINUOUS
  0
ENDTAB
  0
ENDSEC
  0
SECTION
  2
ENTITIES
0
LINE
8
BLACK
6
CONTINUOUS
10
147.475
20
-75.425
11
146.525
21
-75.425
0
LINE
8
BLACK
6
CONTINUOUS
10
146.525
20
-75.425
11
146.525
21
-74.125
0
LINE
8
BLACK
6
CONTINUOUS
10
146.525
20
-74.125
11
147.475
21
-74.125
0
LINE
8
BLACK
6
CONTINUOUS
10
147.475
20
-74.125
11
147.475
21
-75.425
0
LINE
8
BLACK
6
CONTINUOUS
10
138.6
20
-75.1
11
137.4
21
-75.1
0
LINE
8
BLACK
6
CONTINUOUS
10
137.4
20
-75.1
11
137.4
21
-73.6
0
LINE
8
BLACK
6
CONTINUOUS
10
137.4
20
-73.6
11
138.6
21
-73.6
0
LINE
8
BLACK
6
CONTINUOUS
10
138.6
20
-73.6
11
138.6
21
-75.1
0
LINE
8
BLACK
6
CONTINUOUS
10
138.6
20
-72.4
11
137.4
21
-72.4
0
LINE
8
BLACK
6
CONTINUOUS
10
137.4
20
-72.4
11
137.4
21
-70.9
0
LINE
8
BLACK
6
CONTINUOUS
10
137.4
20
-70.9
11
138.6
21
-70.9
0
LINE
8
BLACK
6
CONTINUOUS
10
138.6
20
-70.9
11
138.6
21
-72.4
0
LINE
8
BLACK
6
CONTINUOUS
10
147.475
20
-71.875
11
146.525
21
-71.875
0
LINE
8
BLACK
6
CONTINUOUS
10
146.525
20
-71.875
11
146.525
21
-70.575
0
LINE
8
BLACK
6
CONTINUOUS
10
146.525
20
-70.575
11
147.475
21
-70.575
0
LINE
8
BLACK
6
CONTINUOUS
10
147.475
20
-70.575
11
147.475
21
-71.875
0
LINE
8
BLACK
6
CONTINUOUS
10
150.16
20
-40.05
11
149.34
21
-40.05
0
LINE
8
BLACK
6
CONTINUOUS
10
149.34
20
-40.05
11
149.34
21
-38.25
0
LINE
8
BLACK
6
CONTINUOUS
10
149.34
20
-38.25
11
150.16
21
-38.25
0
LINE
8
BLACK
6
CONTINUOUS
10
150.16
20
-38.25
11
150.16
21
-40.05
0
LINE
8
BLACK
6
CONTINUOUS
10
129.16
20
-40.05
11
128.34
21
-40.05
0
LINE
8
BLACK
6
CONTINUOUS
10
128.34
20
-40.05
11
128.34
21
-38.25
0
LINE
8
BLACK
6
CONTINUOUS
10
128.34
20
-38.25
11
129.16
21
-38.25
0
LINE
8
BLACK
6
CONTINUOUS
10
129.16
20
-38.25
11
129.16
21
-40.05
0
LINE
8
BLACK
6
CONTINUOUS
10
127.66
20
-40.05
11
126.84
21
-40.05
0
LINE
8
BLACK
6
CONTINUOUS
10
126.84
20
-40.05
11
126.84
21
-38.25
0
LINE
8
BLACK
6
CONTINUOUS
10
126.84
20
-38.25
11
127.66
21
-38.25
0
LINE
8
BLACK
6
CONTINUOUS
10
127.66
20
-38.25
11
127.66
21
-40.05
0
LINE
8
BLACK
6
CONTINUOUS
10
157.16
20
-40.05
11
156.34
21
-40.05
0
LINE
8
BLACK
6
CONTINUOUS
10
156.34
20
-40.05
11
156.34
21
-38.25
0
LINE
8
BLACK
6
CONTINUOUS
10
156.34
20
-38.25
11
157.16
21
-38.25
0
LINE
8
BLACK
6
CONTINUOUS
10
157.16
20
-38.25
11
157.16
21
-40.05
0
LINE
8
BLACK
6
CONTINUOUS
10
155.66
20
-40.05
11
154.84
21
-40.05
0
LINE
8
BLACK
6
CONTINUOUS
10
154.84
20
-40.05
11
154.84
21
-38.25
0
LINE
8
BLACK
6
CONTINUOUS
10
154.84
20
-38.25
11
155.66
21
-38.25
0
LINE
8
BLACK
6
CONTINUOUS
10
155.66
20
-38.25
11
155.66
21
-40.05
0
LINE
8
BLACK
6
CONTINUOUS
10
148.66
20
-40.05
11
147.84
21
-40.05
0
LINE
8
BLACK
6
CONTINUOUS
10
147.84
20
-40.05
11
147.84
21
-38.25
0
LINE
8
BLACK
6
CONTINUOUS
10
147.84
20
-38.25
11
148.66
21
-38.25
0
LINE
8
BLACK
6
CONTINUOUS
10
148.66
20
-38.25
11
148.66
21
-40.05
0
LINE
8
BLACK
6
CONTINUOUS
10
141.66
20
-40.05
11
140.84
21
-40.05
0
LINE
8
BLACK
6
CONTINUOUS
10
140.84
20
-40.05
11
140.84
21
-38.25
0
LINE
8
BLACK
6
CONTINUOUS
10
140.84
20
-38.25
11
141.66
21
-38.25
0
LINE
8
BLACK
6
CONTINUOUS
10
141.66
20
-38.25
11
141.66
21
-40.05
0
LINE
8
BLACK
6
CONTINUOUS
10
143.16
20
-40.05
11
142.34
21
-40.05
0
LINE
8
BLACK
6
CONTINUOUS
10
142.34
20
-40.05
11
142.34
21
-38.25
0
LINE
8
BLACK
6
CONTINUOUS
10
142.34
20
-38.25
11
143.16
21
-38.25
0
LINE
8
BLACK
6
CONTINUOUS
10
143.16
20
-38.25
11
143.16
21
-40.05
0
LINE
8
BLACK
6
CONTINUOUS
10
136.16
20
-40.05
11
135.34
21
-40.05
0
LINE
8
BLACK
6
CONTINUOUS
10
135.34
20
-40.05
11
135.34
21
-38.25
0
LINE
8
BLACK
6
CONTINUOUS
10
135.34
20
-38.25
11
136.16
21
-38.25
0
LINE
8
BLACK
6
CONTINUOUS
10
136.16
20
-38.25
11
136.16
21
-40.05
0
LINE
8
BLACK
6
CONTINUOUS
10
134.66
20
-40.05
11
133.84
21
-40.05
0
LINE
8
BLACK
6
CONTINUOUS
10
133.84
20
-40.05
11
133.84
21
-38.25
0
LINE
8
BLACK
6
CONTINUOUS
10
133.84
20
-38.25
11
134.66
21
-38.25
0
LINE
8
BLACK
6
CONTINUOUS
10
134.66
20
-38.25
11
134.66
21
-40.05
0
LINE
8
BLACK
6
CONTINUOUS
10
141.66
20
-35.05
11
140.84
21
-35.05
0
LINE
8
BLACK
6
CONTINUOUS
10
140.84
20
-35.05
11
140.84
21
-33.25
0
LINE
8
BLACK
6
CONTINUOUS
10
140.84
20
-33.25
11
141.66
21
-33.25
0
LINE
8
BLACK
6
CONTINUOUS
10
141.66
20
-33.25
11
141.66
21
-35.05
0
LINE
8
BLACK
6
CONTINUOUS
10
143.16
20
-35.05
11
142.34
21
-35.05
0
LINE
8
BLACK
6
CONTINUOUS
10
142.34
20
-35.05
11
142.34
21
-33.25
0
LINE
8
BLACK
6
CONTINUOUS
10
142.34
20
-33.25
11
143.16
21
-33.25
0
LINE
8
BLACK
6
CONTINUOUS
10
143.16
20
-33.25
11
143.16
21
-35.05
0
LINE
8
BLACK
6
CONTINUOUS
10
127.66
20
-35.05
11
126.84
21
-35.05
0
LINE
8
BLACK
6
CONTINUOUS
10
126.84
20
-35.05
11
126.84
21
-33.25
0
LINE
8
BLACK
6
CONTINUOUS
10
126.84
20
-33.25
11
127.66
21
-33.25
0
LINE
8
BLACK
6
CONTINUOUS
10
127.66
20
-33.25
11
127.66
21
-35.05
0
LINE
8
BLACK
6
CONTINUOUS
10
148.66
20
-35.05
11
147.84
21
-35.05
0
LINE
8
BLACK
6
CONTINUOUS
10
147.84
20
-35.05
11
147.84
21
-33.25
0
LINE
8
BLACK
6
CONTINUOUS
10
147.84
20
-33.25
11
148.66
21
-33.25
0
LINE
8
BLACK
6
CONTINUOUS
10
148.66
20
-33.25
11
148.66
21
-35.05
0
LINE
8
BLACK
6
CONTINUOUS
10
150.16
20
-35.05
11
149.34
21
-35.05
0
LINE
8
BLACK
6
CONTINUOUS
10
149.34
20
-35.05
11
149.34
21
-33.25
0
LINE
8
BLACK
6
CONTINUOUS
10
149.34
20
-33.25
11
150.16
21
-33.25
0
LINE
8
BLACK
6
CONTINUOUS
10
150.16
20
-33.25
11
150.16
21
-35.05
0
LINE
8
BLACK
6
CONTINUOUS
10
157.16
20
-35.05
11
156.34
21
-35.05
0
LINE
8
BLACK
6
CONTINUOUS
10
156.34
20
-35.05
11
156.34
21
-33.25
0
LINE
8
BLACK
6
CONTINUOUS
10
156.34
20
-33.25
11
157.16
21
-33.25
0
LINE
8
BLACK
6
CONTINUOUS
10
157.16
20
-33.25
11
157.16
21
-35.05
0
LINE
8
BLACK
6
CONTINUOUS
10
155.66
20
-35.05
11
154.84
21
-35.05
0
LINE
8
BLACK
6
CONTINUOUS
10
154.84
20
-35.05
11
154.84
21
-33.25
0
LINE
8
BLACK
6
CONTINUOUS
10
154.84
20
-33.25
11
155.66
21
-33.25
0
LINE
8
BLACK
6
CONTINUOUS
10
155.66
20
-33.25
11
155.66
21
-35.05
0
LINE
8
BLACK
6
CONTINUOUS
10
134.66
20
-35.05
11
133.84
21
-35.05
0
LINE
8
BLACK
6
CONTINUOUS
10
133.84
20
-35.05
11
133.84
21
-33.25
0
LINE
8
BLACK
6
CONTINUOUS
10
133.84
20
-33.25
11
134.66
21
-33.25
0
LINE
8
BLACK
6
CONTINUOUS
10
134.66
20
-33.25
11
134.66
21
-35.05
0
LINE
8
BLACK
6
CONTINUOUS
10
136.16
20
-35.05
11
135.34
21
-35.05
0
LINE
8
BLACK
6
CONTINUOUS
10
135.34
20
-35.05
11
135.34
21
-33.25
0
LINE
8
BLACK
6
CONTINUOUS
10
135.34
20
-33.25
11
136.16
21
-33.25
0
LINE
8
BLACK
6
CONTINUOUS
10
136.16
20
-33.25
11
136.16
21
-35.05
0
LINE
8
BLACK
6
CONTINUOUS
10
129.16
20
-35.05
11
128.34
21
-35.05
0
LINE
8
BLACK
6
CONTINUOUS
10
128.34
20
-35.05
11
128.34
21
-33.25
0
LINE
8
BLACK
6
CONTINUOUS
10
128.34
20
-33.25
11
129.16
21
-33.25
0
LINE
8
BLACK
6
CONTINUOUS
10
129.16
20
-33.25
11
129.16
21
-35.05
  0
ENDSEC
  0
EOF
