  0
SECTION
  2
HEADER
  9
$ANGBASE
  50
0.0
  9
$ANGDIR
  70
1
  9
$MEASUREMENT
  70
1
  0
ENDSEC
  0
SECTION
  2
TABLES
  0
TABLE
  2
LTYPE
  70
4
  0
LTYPE
  5
40F
  2
CONTINUOUS
  70
0
  3
Solid line
  72
65
  73
0
  40
0.0
  0
LTYPE
  5
410
  2
DASHDOT
 70
0
  3
Dash Dot ____ _ ____ _
 72
65
 73
4
 40
2.0
 49
1.25
 49
-0.25
 49
0.25
 49
-0.25
  0
LTYPE
  5
411
  2
DASHED
 70
0
  3
Dashed __ __ __ __ __
 72
65
 73
2
 40
0.75
 49
0.5
 49
-0.25
  0
LTYPE
  5
43B
  2
DOTTED
 70
0
  3
Dotted .  .  .  .
 72
65
 73
2
 40
0.2
 49
0.0
 49
-0.2
  0
ENDTAB
  0
TABLE
  2
STYLE
  70
4
  0
STYLE
  2
KICAD
  70
0
  40
0
  41
1
  42
1
  50
0
  71
0
  3
isocp.shx
  0
STYLE
  2
KICADB
  70
0
  40
0
  41
1
  42
1
  50
0
  71
0
  3
isocp.shx
  0
STYLE
  2
KICADI
  70
0
  40
0
  41
1
  42
1
  50
15
  71
0
  3
isocp.shx
  0
STYLE
  2
KICADBI
  70
0
  40
0
  41
1
  42
1
  50
15
  71
0
  3
isocp.shx
  0
ENDTAB
  0
TABLE
  2
LAYER
  70
1
  0
LAYER
  2
BLACK
  70
0
  62
7
  6
CONTINUOUS
  0
ENDTAB
  0
ENDSEC
  0
SECTION
  2
ENTITIES
0
LINE
8
BLACK
6
CONTINUOUS
10
123.506
20
-100.082
11
123.822
21
-100.212
0
LINE
8
BLACK
6
CONTINUOUS
10
123.822
20
-100.212
11
124.106
21
-100.402
0
LINE
8
BLACK
6
CONTINUOUS
10
124.106
20
-100.402
11
124.348
21
-100.644
0
LINE
8
BLACK
6
CONTINUOUS
10
124.348
20
-100.644
11
124.538
21
-100.928
0
LINE
8
BLACK
6
CONTINUOUS
10
124.538
20
-100.928
11
124.668
21
-101.244
0
LINE
8
BLACK
6
CONTINUOUS
10
124.668
20
-101.244
11
124.735
21
-101.579
0
LINE
8
BLACK
6
CONTINUOUS
10
124.735
20
-101.579
11
124.735
21
-101.921
0
LINE
8
BLACK
6
CONTINUOUS
10
124.735
20
-101.921
11
124.668
21
-102.256
0
LINE
8
BLACK
6
CONTINUOUS
10
124.668
20
-102.256
11
124.538
21
-102.572
0
LINE
8
BLACK
6
CONTINUOUS
10
124.538
20
-102.572
11
124.348
21
-102.856
0
LINE
8
BLACK
6
CONTINUOUS
10
124.348
20
-102.856
11
124.106
21
-103.098
0
LINE
8
BLACK
6
CONTINUOUS
10
124.106
20
-103.098
11
123.822
21
-103.288
0
LINE
8
BLACK
6
CONTINUOUS
10
123.822
20
-103.288
11
123.506
21
-103.418
0
LINE
8
BLACK
6
CONTINUOUS
10
123.506
20
-103.418
11
123.171
21
-103.485
0
LINE
8
BLACK
6
CONTINUOUS
10
123.171
20
-103.485
11
122.829
21
-103.485
0
LINE
8
BLACK
6
CONTINUOUS
10
122.829
20
-103.485
11
122.494
21
-103.418
0
LINE
8
BLACK
6
CONTINUOUS
10
122.494
20
-103.418
11
122.178
21
-103.288
0
LINE
8
BLACK
6
CONTINUOUS
10
122.178
20
-103.288
11
121.894
21
-103.098
0
LINE
8
BLACK
6
CONTINUOUS
10
121.894
20
-103.098
11
121.652
21
-102.856
0
LINE
8
BLACK
6
CONTINUOUS
10
121.652
20
-102.856
11
121.462
21
-102.572
0
LINE
8
BLACK
6
CONTINUOUS
10
121.462
20
-102.572
11
121.332
21
-102.256
0
LINE
8
BLACK
6
CONTINUOUS
10
121.332
20
-102.256
11
121.265
21
-101.921
0
LINE
8
BLACK
6
CONTINUOUS
10
121.265
20
-101.921
11
121.265
21
-101.579
0
LINE
8
BLACK
6
CONTINUOUS
10
121.265
20
-101.579
11
121.332
21
-101.244
0
LINE
8
BLACK
6
CONTINUOUS
10
121.332
20
-101.244
11
121.462
21
-100.928
0
LINE
8
BLACK
6
CONTINUOUS
10
121.462
20
-100.928
11
121.652
21
-100.644
0
LINE
8
BLACK
6
CONTINUOUS
10
121.652
20
-100.644
11
121.894
21
-100.402
0
LINE
8
BLACK
6
CONTINUOUS
10
121.894
20
-100.402
11
122.178
21
-100.212
0
LINE
8
BLACK
6
CONTINUOUS
10
122.178
20
-100.212
11
122.494
21
-100.082
0
LINE
8
BLACK
6
CONTINUOUS
10
122.494
20
-100.082
11
122.829
21
-100.015
0
LINE
8
BLACK
6
CONTINUOUS
10
122.829
20
-100.015
11
123.171
21
-100.015
0
LINE
8
BLACK
6
CONTINUOUS
10
123.171
20
-100.015
11
123.506
21
-100.082
0
LINE
8
BLACK
6
CONTINUOUS
10
160.756
20
-100.082
11
161.072
21
-100.212
0
LINE
8
BLACK
6
CONTINUOUS
10
161.072
20
-100.212
11
161.356
21
-100.402
0
LINE
8
BLACK
6
CONTINUOUS
10
161.356
20
-100.402
11
161.598
21
-100.644
0
LINE
8
BLACK
6
CONTINUOUS
10
161.598
20
-100.644
11
161.788
21
-100.928
0
LINE
8
BLACK
6
CONTINUOUS
10
161.788
20
-100.928
11
161.918
21
-101.244
0
LINE
8
BLACK
6
CONTINUOUS
10
161.918
20
-101.244
11
161.985
21
-101.579
0
LINE
8
BLACK
6
CONTINUOUS
10
161.985
20
-101.579
11
161.985
21
-101.921
0
LINE
8
BLACK
6
CONTINUOUS
10
161.985
20
-101.921
11
161.918
21
-102.256
0
LINE
8
BLACK
6
CONTINUOUS
10
161.918
20
-102.256
11
161.788
21
-102.572
0
LINE
8
BLACK
6
CONTINUOUS
10
161.788
20
-102.572
11
161.598
21
-102.856
0
LINE
8
BLACK
6
CONTINUOUS
10
161.598
20
-102.856
11
161.356
21
-103.098
0
LINE
8
BLACK
6
CONTINUOUS
10
161.356
20
-103.098
11
161.072
21
-103.288
0
LINE
8
BLACK
6
CONTINUOUS
10
161.072
20
-103.288
11
160.756
21
-103.418
0
LINE
8
BLACK
6
CONTINUOUS
10
160.756
20
-103.418
11
160.421
21
-103.485
0
LINE
8
BLACK
6
CONTINUOUS
10
160.421
20
-103.485
11
160.079
21
-103.485
0
LINE
8
BLACK
6
CONTINUOUS
10
160.079
20
-103.485
11
159.744
21
-103.418
0
LINE
8
BLACK
6
CONTINUOUS
10
159.744
20
-103.418
11
159.428
21
-103.288
0
LINE
8
BLACK
6
CONTINUOUS
10
159.428
20
-103.288
11
159.144
21
-103.098
0
LINE
8
BLACK
6
CONTINUOUS
10
159.144
20
-103.098
11
158.902
21
-102.856
0
LINE
8
BLACK
6
CONTINUOUS
10
158.902
20
-102.856
11
158.712
21
-102.572
0
LINE
8
BLACK
6
CONTINUOUS
10
158.712
20
-102.572
11
158.582
21
-102.256
0
LINE
8
BLACK
6
CONTINUOUS
10
158.582
20
-102.256
11
158.515
21
-101.921
0
LINE
8
BLACK
6
CONTINUOUS
10
158.515
20
-101.921
11
158.515
21
-101.579
0
LINE
8
BLACK
6
CONTINUOUS
10
158.515
20
-101.579
11
158.582
21
-101.244
0
LINE
8
BLACK
6
CONTINUOUS
10
158.582
20
-101.244
11
158.712
21
-100.928
0
LINE
8
BLACK
6
CONTINUOUS
10
158.712
20
-100.928
11
158.902
21
-100.644
0
LINE
8
BLACK
6
CONTINUOUS
10
158.902
20
-100.644
11
159.144
21
-100.402
0
LINE
8
BLACK
6
CONTINUOUS
10
159.144
20
-100.402
11
159.428
21
-100.212
0
LINE
8
BLACK
6
CONTINUOUS
10
159.428
20
-100.212
11
159.744
21
-100.082
0
LINE
8
BLACK
6
CONTINUOUS
10
159.744
20
-100.082
11
160.079
21
-100.015
0
LINE
8
BLACK
6
CONTINUOUS
10
160.079
20
-100.015
11
160.421
21
-100.015
0
LINE
8
BLACK
6
CONTINUOUS
10
160.421
20
-100.015
11
160.756
21
-100.082
0
LINE
8
BLACK
6
CONTINUOUS
10
146.042
20
-98.0384
11
146.224
21
-98.1138
0
LINE
8
BLACK
6
CONTINUOUS
10
146.224
20
-98.1138
11
146.387
21
-98.2232
0
LINE
8
BLACK
6
CONTINUOUS
10
146.387
20
-98.2232
11
146.527
21
-98.3625
0
LINE
8
BLACK
6
CONTINUOUS
10
146.527
20
-98.3625
11
146.636
21
-98.5263
0
LINE
8
BLACK
6
CONTINUOUS
10
146.636
20
-98.5263
11
146.712
21
-98.7083
0
LINE
8
BLACK
6
CONTINUOUS
10
146.712
20
-98.7083
11
146.75
21
-98.9015
0
LINE
8
BLACK
6
CONTINUOUS
10
146.75
20
-98.9015
11
146.75
21
-99.0985
0
LINE
8
BLACK
6
CONTINUOUS
10
146.75
20
-99.0985
11
146.712
21
-99.2917
0
LINE
8
BLACK
6
CONTINUOUS
10
146.712
20
-99.2917
11
146.636
21
-99.4737
0
LINE
8
BLACK
6
CONTINUOUS
10
146.636
20
-99.4737
11
146.527
21
-99.6375
0
LINE
8
BLACK
6
CONTINUOUS
10
146.527
20
-99.6375
11
146.387
21
-99.7768
0
LINE
8
BLACK
6
CONTINUOUS
10
146.387
20
-99.7768
11
146.224
21
-99.8862
0
LINE
8
BLACK
6
CONTINUOUS
10
146.224
20
-99.8862
11
146.042
21
-99.9616
0
LINE
8
BLACK
6
CONTINUOUS
10
146.042
20
-99.9616
11
145.848
21
-100
0
LINE
8
BLACK
6
CONTINUOUS
10
145.848
20
-100
11
145.652
21
-100
0
LINE
8
BLACK
6
CONTINUOUS
10
145.652
20
-100
11
145.458
21
-99.9616
0
LINE
8
BLACK
6
CONTINUOUS
10
145.458
20
-99.9616
11
145.276
21
-99.8862
0
LINE
8
BLACK
6
CONTINUOUS
10
145.276
20
-99.8862
11
145.113
21
-99.7768
0
LINE
8
BLACK
6
CONTINUOUS
10
145.113
20
-99.7768
11
144.973
21
-99.6375
0
LINE
8
BLACK
6
CONTINUOUS
10
144.973
20
-99.6375
11
144.864
21
-99.4737
0
LINE
8
BLACK
6
CONTINUOUS
10
144.864
20
-99.4737
11
144.788
21
-99.2917
0
LINE
8
BLACK
6
CONTINUOUS
10
144.788
20
-99.2917
11
144.75
21
-99.0985
0
LINE
8
BLACK
6
CONTINUOUS
10
144.75
20
-99.0985
11
144.75
21
-98.9015
0
LINE
8
BLACK
6
CONTINUOUS
10
144.75
20
-98.9015
11
144.788
21
-98.7083
0
LINE
8
BLACK
6
CONTINUOUS
10
144.788
20
-98.7083
11
144.864
21
-98.5263
0
LINE
8
BLACK
6
CONTINUOUS
10
144.864
20
-98.5263
11
144.973
21
-98.3625
0
LINE
8
BLACK
6
CONTINUOUS
10
144.973
20
-98.3625
11
145.113
21
-98.2232
0
LINE
8
BLACK
6
CONTINUOUS
10
145.113
20
-98.2232
11
145.276
21
-98.1138
0
LINE
8
BLACK
6
CONTINUOUS
10
145.276
20
-98.1138
11
145.458
21
-98.0384
0
LINE
8
BLACK
6
CONTINUOUS
10
145.458
20
-98.0384
11
145.652
21
-98
0
LINE
8
BLACK
6
CONTINUOUS
10
145.652
20
-98
11
145.848
21
-98
0
LINE
8
BLACK
6
CONTINUOUS
10
145.848
20
-98
11
146.042
21
-98.0384
0
LINE
8
BLACK
6
CONTINUOUS
10
139.542
20
-98.0384
11
139.724
21
-98.1138
0
LINE
8
BLACK
6
CONTINUOUS
10
139.724
20
-98.1138
11
139.887
21
-98.2232
0
LINE
8
BLACK
6
CONTINUOUS
10
139.887
20
-98.2232
11
140.027
21
-98.3625
0
LINE
8
BLACK
6
CONTINUOUS
10
140.027
20
-98.3625
11
140.136
21
-98.5263
0
LINE
8
BLACK
6
CONTINUOUS
10
140.136
20
-98.5263
11
140.212
21
-98.7083
0
LINE
8
BLACK
6
CONTINUOUS
10
140.212
20
-98.7083
11
140.25
21
-98.9015
0
LINE
8
BLACK
6
CONTINUOUS
10
140.25
20
-98.9015
11
140.25
21
-99.0985
0
LINE
8
BLACK
6
CONTINUOUS
10
140.25
20
-99.0985
11
140.212
21
-99.2917
0
LINE
8
BLACK
6
CONTINUOUS
10
140.212
20
-99.2917
11
140.136
21
-99.4737
0
LINE
8
BLACK
6
CONTINUOUS
10
140.136
20
-99.4737
11
140.027
21
-99.6375
0
LINE
8
BLACK
6
CONTINUOUS
10
140.027
20
-99.6375
11
139.887
21
-99.7768
0
LINE
8
BLACK
6
CONTINUOUS
10
139.887
20
-99.7768
11
139.724
21
-99.8862
0
LINE
8
BLACK
6
CONTINUOUS
10
139.724
20
-99.8862
11
139.542
21
-99.9616
0
LINE
8
BLACK
6
CONTINUOUS
10
139.542
20
-99.9616
11
139.348
21
-100
0
LINE
8
BLACK
6
CONTINUOUS
10
139.348
20
-100
11
139.152
21
-100
0
LINE
8
BLACK
6
CONTINUOUS
10
139.152
20
-100
11
138.958
21
-99.9616
0
LINE
8
BLACK
6
CONTINUOUS
10
138.958
20
-99.9616
11
138.776
21
-99.8862
0
LINE
8
BLACK
6
CONTINUOUS
10
138.776
20
-99.8862
11
138.613
21
-99.7768
0
LINE
8
BLACK
6
CONTINUOUS
10
138.613
20
-99.7768
11
138.473
21
-99.6375
0
LINE
8
BLACK
6
CONTINUOUS
10
138.473
20
-99.6375
11
138.364
21
-99.4737
0
LINE
8
BLACK
6
CONTINUOUS
10
138.364
20
-99.4737
11
138.288
21
-99.2917
0
LINE
8
BLACK
6
CONTINUOUS
10
138.288
20
-99.2917
11
138.25
21
-99.0985
0
LINE
8
BLACK
6
CONTINUOUS
10
138.25
20
-99.0985
11
138.25
21
-98.9015
0
LINE
8
BLACK
6
CONTINUOUS
10
138.25
20
-98.9015
11
138.288
21
-98.7083
0
LINE
8
BLACK
6
CONTINUOUS
10
138.288
20
-98.7083
11
138.364
21
-98.5263
0
LINE
8
BLACK
6
CONTINUOUS
10
138.364
20
-98.5263
11
138.473
21
-98.3625
0
LINE
8
BLACK
6
CONTINUOUS
10
138.473
20
-98.3625
11
138.613
21
-98.2232
0
LINE
8
BLACK
6
CONTINUOUS
10
138.613
20
-98.2232
11
138.776
21
-98.1138
0
LINE
8
BLACK
6
CONTINUOUS
10
138.776
20
-98.1138
11
138.958
21
-98.0384
0
LINE
8
BLACK
6
CONTINUOUS
10
138.958
20
-98.0384
11
139.152
21
-98
0
LINE
8
BLACK
6
CONTINUOUS
10
139.152
20
-98
11
139.348
21
-98
0
LINE
8
BLACK
6
CONTINUOUS
10
139.348
20
-98
11
139.542
21
-98.0384
0
LINE
8
BLACK
6
CONTINUOUS
10
141
20
-94
11
139
21
-94
0
LINE
8
BLACK
6
CONTINUOUS
10
139
20
-94
11
139
21
-92
0
LINE
8
BLACK
6
CONTINUOUS
10
139
20
-92
11
141
21
-92
0
LINE
8
BLACK
6
CONTINUOUS
10
141
20
-92
11
141
21
-94
0
LINE
8
BLACK
6
CONTINUOUS
10
142.792
20
-92.0384
11
142.974
21
-92.1138
0
LINE
8
BLACK
6
CONTINUOUS
10
142.974
20
-92.1138
11
143.137
21
-92.2232
0
LINE
8
BLACK
6
CONTINUOUS
10
143.137
20
-92.2232
11
143.277
21
-92.3625
0
LINE
8
BLACK
6
CONTINUOUS
10
143.277
20
-92.3625
11
143.386
21
-92.5263
0
LINE
8
BLACK
6
CONTINUOUS
10
143.386
20
-92.5263
11
143.462
21
-92.7083
0
LINE
8
BLACK
6
CONTINUOUS
10
143.462
20
-92.7083
11
143.5
21
-92.9015
0
LINE
8
BLACK
6
CONTINUOUS
10
143.5
20
-92.9015
11
143.5
21
-93.0985
0
LINE
8
BLACK
6
CONTINUOUS
10
143.5
20
-93.0985
11
143.462
21
-93.2917
0
LINE
8
BLACK
6
CONTINUOUS
10
143.462
20
-93.2917
11
143.386
21
-93.4737
0
LINE
8
BLACK
6
CONTINUOUS
10
143.386
20
-93.4737
11
143.277
21
-93.6375
0
LINE
8
BLACK
6
CONTINUOUS
10
143.277
20
-93.6375
11
143.137
21
-93.7768
0
LINE
8
BLACK
6
CONTINUOUS
10
143.137
20
-93.7768
11
142.974
21
-93.8862
0
LINE
8
BLACK
6
CONTINUOUS
10
142.974
20
-93.8862
11
142.792
21
-93.9616
0
LINE
8
BLACK
6
CONTINUOUS
10
142.792
20
-93.9616
11
142.598
21
-94
0
LINE
8
BLACK
6
CONTINUOUS
10
142.598
20
-94
11
142.402
21
-94
0
LINE
8
BLACK
6
CONTINUOUS
10
142.402
20
-94
11
142.208
21
-93.9616
0
LINE
8
BLACK
6
CONTINUOUS
10
142.208
20
-93.9616
11
142.026
21
-93.8862
0
LINE
8
BLACK
6
CONTINUOUS
10
142.026
20
-93.8862
11
141.863
21
-93.7768
0
LINE
8
BLACK
6
CONTINUOUS
10
141.863
20
-93.7768
11
141.723
21
-93.6375
0
LINE
8
BLACK
6
CONTINUOUS
10
141.723
20
-93.6375
11
141.614
21
-93.4737
0
LINE
8
BLACK
6
CONTINUOUS
10
141.614
20
-93.4737
11
141.538
21
-93.2917
0
LINE
8
BLACK
6
CONTINUOUS
10
141.538
20
-93.2917
11
141.5
21
-93.0985
0
LINE
8
BLACK
6
CONTINUOUS
10
141.5
20
-93.0985
11
141.5
21
-92.9015
0
LINE
8
BLACK
6
CONTINUOUS
10
141.5
20
-92.9015
11
141.538
21
-92.7083
0
LINE
8
BLACK
6
CONTINUOUS
10
141.538
20
-92.7083
11
141.614
21
-92.5263
0
LINE
8
BLACK
6
CONTINUOUS
10
141.614
20
-92.5263
11
141.723
21
-92.3625
0
LINE
8
BLACK
6
CONTINUOUS
10
141.723
20
-92.3625
11
141.863
21
-92.2232
0
LINE
8
BLACK
6
CONTINUOUS
10
141.863
20
-92.2232
11
142.026
21
-92.1138
0
LINE
8
BLACK
6
CONTINUOUS
10
142.026
20
-92.1138
11
142.208
21
-92.0384
0
LINE
8
BLACK
6
CONTINUOUS
10
142.208
20
-92.0384
11
142.402
21
-92
0
LINE
8
BLACK
6
CONTINUOUS
10
142.402
20
-92
11
142.598
21
-92
0
LINE
8
BLACK
6
CONTINUOUS
10
142.598
20
-92
11
142.792
21
-92.0384
0
LINE
8
BLACK
6
CONTINUOUS
10
145.292
20
-92.0384
11
145.474
21
-92.1138
0
LINE
8
BLACK
6
CONTINUOUS
10
145.474
20
-92.1138
11
145.637
21
-92.2232
0
LINE
8
BLACK
6
CONTINUOUS
10
145.637
20
-92.2232
11
145.777
21
-92.3625
0
LINE
8
BLACK
6
CONTINUOUS
10
145.777
20
-92.3625
11
145.886
21
-92.5263
0
LINE
8
BLACK
6
CONTINUOUS
10
145.886
20
-92.5263
11
145.962
21
-92.7083
0
LINE
8
BLACK
6
CONTINUOUS
10
145.962
20
-92.7083
11
146
21
-92.9015
0
LINE
8
BLACK
6
CONTINUOUS
10
146
20
-92.9015
11
146
21
-93.0985
0
LINE
8
BLACK
6
CONTINUOUS
10
146
20
-93.0985
11
145.962
21
-93.2917
0
LINE
8
BLACK
6
CONTINUOUS
10
145.962
20
-93.2917
11
145.886
21
-93.4737
0
LINE
8
BLACK
6
CONTINUOUS
10
145.886
20
-93.4737
11
145.777
21
-93.6375
0
LINE
8
BLACK
6
CONTINUOUS
10
145.777
20
-93.6375
11
145.637
21
-93.7768
0
LINE
8
BLACK
6
CONTINUOUS
10
145.637
20
-93.7768
11
145.474
21
-93.8862
0
LINE
8
BLACK
6
CONTINUOUS
10
145.474
20
-93.8862
11
145.292
21
-93.9616
0
LINE
8
BLACK
6
CONTINUOUS
10
145.292
20
-93.9616
11
145.098
21
-94
0
LINE
8
BLACK
6
CONTINUOUS
10
145.098
20
-94
11
144.902
21
-94
0
LINE
8
BLACK
6
CONTINUOUS
10
144.902
20
-94
11
144.708
21
-93.9616
0
LINE
8
BLACK
6
CONTINUOUS
10
144.708
20
-93.9616
11
144.526
21
-93.8862
0
LINE
8
BLACK
6
CONTINUOUS
10
144.526
20
-93.8862
11
144.363
21
-93.7768
0
LINE
8
BLACK
6
CONTINUOUS
10
144.363
20
-93.7768
11
144.223
21
-93.6375
0
LINE
8
BLACK
6
CONTINUOUS
10
144.223
20
-93.6375
11
144.114
21
-93.4737
0
LINE
8
BLACK
6
CONTINUOUS
10
144.114
20
-93.4737
11
144.038
21
-93.2917
0
LINE
8
BLACK
6
CONTINUOUS
10
144.038
20
-93.2917
11
144
21
-93.0985
0
LINE
8
BLACK
6
CONTINUOUS
10
144
20
-93.0985
11
144
21
-92.9015
0
LINE
8
BLACK
6
CONTINUOUS
10
144
20
-92.9015
11
144.038
21
-92.7083
0
LINE
8
BLACK
6
CONTINUOUS
10
144.038
20
-92.7083
11
144.114
21
-92.5263
0
LINE
8
BLACK
6
CONTINUOUS
10
144.114
20
-92.5263
11
144.223
21
-92.3625
0
LINE
8
BLACK
6
CONTINUOUS
10
144.223
20
-92.3625
11
144.363
21
-92.2232
0
LINE
8
BLACK
6
CONTINUOUS
10
144.363
20
-92.2232
11
144.526
21
-92.1138
0
LINE
8
BLACK
6
CONTINUOUS
10
144.526
20
-92.1138
11
144.708
21
-92.0384
0
LINE
8
BLACK
6
CONTINUOUS
10
144.708
20
-92.0384
11
144.902
21
-92
0
LINE
8
BLACK
6
CONTINUOUS
10
144.902
20
-92
11
145.098
21
-92
0
LINE
8
BLACK
6
CONTINUOUS
10
145.098
20
-92
11
145.292
21
-92.0384
0
LINE
8
BLACK
6
CONTINUOUS
10
158.542
20
-91.0384
11
158.724
21
-91.1138
0
LINE
8
BLACK
6
CONTINUOUS
10
158.724
20
-91.1138
11
158.887
21
-91.2232
0
LINE
8
BLACK
6
CONTINUOUS
10
158.887
20
-91.2232
11
159.027
21
-91.3625
0
LINE
8
BLACK
6
CONTINUOUS
10
159.027
20
-91.3625
11
159.136
21
-91.5263
0
LINE
8
BLACK
6
CONTINUOUS
10
159.136
20
-91.5263
11
159.212
21
-91.7083
0
LINE
8
BLACK
6
CONTINUOUS
10
159.212
20
-91.7083
11
159.25
21
-91.9015
0
LINE
8
BLACK
6
CONTINUOUS
10
159.25
20
-91.9015
11
159.25
21
-92.0985
0
LINE
8
BLACK
6
CONTINUOUS
10
159.25
20
-92.0985
11
159.212
21
-92.2917
0
LINE
8
BLACK
6
CONTINUOUS
10
159.212
20
-92.2917
11
159.136
21
-92.4737
0
LINE
8
BLACK
6
CONTINUOUS
10
159.136
20
-92.4737
11
159.027
21
-92.6375
0
LINE
8
BLACK
6
CONTINUOUS
10
159.027
20
-92.6375
11
158.887
21
-92.7768
0
LINE
8
BLACK
6
CONTINUOUS
10
158.887
20
-92.7768
11
158.724
21
-92.8862
0
LINE
8
BLACK
6
CONTINUOUS
10
158.724
20
-92.8862
11
158.542
21
-92.9616
0
LINE
8
BLACK
6
CONTINUOUS
10
158.542
20
-92.9616
11
158.348
21
-93
0
LINE
8
BLACK
6
CONTINUOUS
10
158.348
20
-93
11
158.152
21
-93
0
LINE
8
BLACK
6
CONTINUOUS
10
158.152
20
-93
11
157.958
21
-92.9616
0
LINE
8
BLACK
6
CONTINUOUS
10
157.958
20
-92.9616
11
157.776
21
-92.8862
0
LINE
8
BLACK
6
CONTINUOUS
10
157.776
20
-92.8862
11
157.613
21
-92.7768
0
LINE
8
BLACK
6
CONTINUOUS
10
157.613
20
-92.7768
11
157.473
21
-92.6375
0
LINE
8
BLACK
6
CONTINUOUS
10
157.473
20
-92.6375
11
157.364
21
-92.4737
0
LINE
8
BLACK
6
CONTINUOUS
10
157.364
20
-92.4737
11
157.288
21
-92.2917
0
LINE
8
BLACK
6
CONTINUOUS
10
157.288
20
-92.2917
11
157.25
21
-92.0985
0
LINE
8
BLACK
6
CONTINUOUS
10
157.25
20
-92.0985
11
157.25
21
-91.9015
0
LINE
8
BLACK
6
CONTINUOUS
10
157.25
20
-91.9015
11
157.288
21
-91.7083
0
LINE
8
BLACK
6
CONTINUOUS
10
157.288
20
-91.7083
11
157.364
21
-91.5263
0
LINE
8
BLACK
6
CONTINUOUS
10
157.364
20
-91.5263
11
157.473
21
-91.3625
0
LINE
8
BLACK
6
CONTINUOUS
10
157.473
20
-91.3625
11
157.613
21
-91.2232
0
LINE
8
BLACK
6
CONTINUOUS
10
157.613
20
-91.2232
11
157.776
21
-91.1138
0
LINE
8
BLACK
6
CONTINUOUS
10
157.776
20
-91.1138
11
157.958
21
-91.0384
0
LINE
8
BLACK
6
CONTINUOUS
10
157.958
20
-91.0384
11
158.152
21
-91
0
LINE
8
BLACK
6
CONTINUOUS
10
158.152
20
-91
11
158.348
21
-91
0
LINE
8
BLACK
6
CONTINUOUS
10
158.348
20
-91
11
158.542
21
-91.0384
0
LINE
8
BLACK
6
CONTINUOUS
10
152.042
20
-91.0384
11
152.224
21
-91.1138
0
LINE
8
BLACK
6
CONTINUOUS
10
152.224
20
-91.1138
11
152.387
21
-91.2232
0
LINE
8
BLACK
6
CONTINUOUS
10
152.387
20
-91.2232
11
152.527
21
-91.3625
0
LINE
8
BLACK
6
CONTINUOUS
10
152.527
20
-91.3625
11
152.636
21
-91.5263
0
LINE
8
BLACK
6
CONTINUOUS
10
152.636
20
-91.5263
11
152.712
21
-91.7083
0
LINE
8
BLACK
6
CONTINUOUS
10
152.712
20
-91.7083
11
152.75
21
-91.9015
0
LINE
8
BLACK
6
CONTINUOUS
10
152.75
20
-91.9015
11
152.75
21
-92.0985
0
LINE
8
BLACK
6
CONTINUOUS
10
152.75
20
-92.0985
11
152.712
21
-92.2917
0
LINE
8
BLACK
6
CONTINUOUS
10
152.712
20
-92.2917
11
152.636
21
-92.4737
0
LINE
8
BLACK
6
CONTINUOUS
10
152.636
20
-92.4737
11
152.527
21
-92.6375
0
LINE
8
BLACK
6
CONTINUOUS
10
152.527
20
-92.6375
11
152.387
21
-92.7768
0
LINE
8
BLACK
6
CONTINUOUS
10
152.387
20
-92.7768
11
152.224
21
-92.8862
0
LINE
8
BLACK
6
CONTINUOUS
10
152.224
20
-92.8862
11
152.042
21
-92.9616
0
LINE
8
BLACK
6
CONTINUOUS
10
152.042
20
-92.9616
11
151.848
21
-93
0
LINE
8
BLACK
6
CONTINUOUS
10
151.848
20
-93
11
151.652
21
-93
0
LINE
8
BLACK
6
CONTINUOUS
10
151.652
20
-93
11
151.458
21
-92.9616
0
LINE
8
BLACK
6
CONTINUOUS
10
151.458
20
-92.9616
11
151.276
21
-92.8862
0
LINE
8
BLACK
6
CONTINUOUS
10
151.276
20
-92.8862
11
151.113
21
-92.7768
0
LINE
8
BLACK
6
CONTINUOUS
10
151.113
20
-92.7768
11
150.973
21
-92.6375
0
LINE
8
BLACK
6
CONTINUOUS
10
150.973
20
-92.6375
11
150.864
21
-92.4737
0
LINE
8
BLACK
6
CONTINUOUS
10
150.864
20
-92.4737
11
150.788
21
-92.2917
0
LINE
8
BLACK
6
CONTINUOUS
10
150.788
20
-92.2917
11
150.75
21
-92.0985
0
LINE
8
BLACK
6
CONTINUOUS
10
150.75
20
-92.0985
11
150.75
21
-91.9015
0
LINE
8
BLACK
6
CONTINUOUS
10
150.75
20
-91.9015
11
150.788
21
-91.7083
0
LINE
8
BLACK
6
CONTINUOUS
10
150.788
20
-91.7083
11
150.864
21
-91.5263
0
LINE
8
BLACK
6
CONTINUOUS
10
150.864
20
-91.5263
11
150.973
21
-91.3625
0
LINE
8
BLACK
6
CONTINUOUS
10
150.973
20
-91.3625
11
151.113
21
-91.2232
0
LINE
8
BLACK
6
CONTINUOUS
10
151.113
20
-91.2232
11
151.276
21
-91.1138
0
LINE
8
BLACK
6
CONTINUOUS
10
151.276
20
-91.1138
11
151.458
21
-91.0384
0
LINE
8
BLACK
6
CONTINUOUS
10
151.458
20
-91.0384
11
151.652
21
-91
0
LINE
8
BLACK
6
CONTINUOUS
10
151.652
20
-91
11
151.848
21
-91
0
LINE
8
BLACK
6
CONTINUOUS
10
151.848
20
-91
11
152.042
21
-91.0384
0
LINE
8
BLACK
6
CONTINUOUS
10
127.042
20
-91.0384
11
127.224
21
-91.1138
0
LINE
8
BLACK
6
CONTINUOUS
10
127.224
20
-91.1138
11
127.387
21
-91.2232
0
LINE
8
BLACK
6
CONTINUOUS
10
127.387
20
-91.2232
11
127.527
21
-91.3625
0
LINE
8
BLACK
6
CONTINUOUS
10
127.527
20
-91.3625
11
127.636
21
-91.5263
0
LINE
8
BLACK
6
CONTINUOUS
10
127.636
20
-91.5263
11
127.712
21
-91.7083
0
LINE
8
BLACK
6
CONTINUOUS
10
127.712
20
-91.7083
11
127.75
21
-91.9015
0
LINE
8
BLACK
6
CONTINUOUS
10
127.75
20
-91.9015
11
127.75
21
-92.0985
0
LINE
8
BLACK
6
CONTINUOUS
10
127.75
20
-92.0985
11
127.712
21
-92.2917
0
LINE
8
BLACK
6
CONTINUOUS
10
127.712
20
-92.2917
11
127.636
21
-92.4737
0
LINE
8
BLACK
6
CONTINUOUS
10
127.636
20
-92.4737
11
127.527
21
-92.6375
0
LINE
8
BLACK
6
CONTINUOUS
10
127.527
20
-92.6375
11
127.387
21
-92.7768
0
LINE
8
BLACK
6
CONTINUOUS
10
127.387
20
-92.7768
11
127.224
21
-92.8862
0
LINE
8
BLACK
6
CONTINUOUS
10
127.224
20
-92.8862
11
127.042
21
-92.9616
0
LINE
8
BLACK
6
CONTINUOUS
10
127.042
20
-92.9616
11
126.848
21
-93
0
LINE
8
BLACK
6
CONTINUOUS
10
126.848
20
-93
11
126.652
21
-93
0
LINE
8
BLACK
6
CONTINUOUS
10
126.652
20
-93
11
126.458
21
-92.9616
0
LINE
8
BLACK
6
CONTINUOUS
10
126.458
20
-92.9616
11
126.276
21
-92.8862
0
LINE
8
BLACK
6
CONTINUOUS
10
126.276
20
-92.8862
11
126.113
21
-92.7768
0
LINE
8
BLACK
6
CONTINUOUS
10
126.113
20
-92.7768
11
125.973
21
-92.6375
0
LINE
8
BLACK
6
CONTINUOUS
10
125.973
20
-92.6375
11
125.864
21
-92.4737
0
LINE
8
BLACK
6
CONTINUOUS
10
125.864
20
-92.4737
11
125.788
21
-92.2917
0
LINE
8
BLACK
6
CONTINUOUS
10
125.788
20
-92.2917
11
125.75
21
-92.0985
0
LINE
8
BLACK
6
CONTINUOUS
10
125.75
20
-92.0985
11
125.75
21
-91.9015
0
LINE
8
BLACK
6
CONTINUOUS
10
125.75
20
-91.9015
11
125.788
21
-91.7083
0
LINE
8
BLACK
6
CONTINUOUS
10
125.788
20
-91.7083
11
125.864
21
-91.5263
0
LINE
8
BLACK
6
CONTINUOUS
10
125.864
20
-91.5263
11
125.973
21
-91.3625
0
LINE
8
BLACK
6
CONTINUOUS
10
125.973
20
-91.3625
11
126.113
21
-91.2232
0
LINE
8
BLACK
6
CONTINUOUS
10
126.113
20
-91.2232
11
126.276
21
-91.1138
0
LINE
8
BLACK
6
CONTINUOUS
10
126.276
20
-91.1138
11
126.458
21
-91.0384
0
LINE
8
BLACK
6
CONTINUOUS
10
126.458
20
-91.0384
11
126.652
21
-91
0
LINE
8
BLACK
6
CONTINUOUS
10
126.652
20
-91
11
126.848
21
-91
0
LINE
8
BLACK
6
CONTINUOUS
10
126.848
20
-91
11
127.042
21
-91.0384
0
LINE
8
BLACK
6
CONTINUOUS
10
133.542
20
-91.0384
11
133.724
21
-91.1138
0
LINE
8
BLACK
6
CONTINUOUS
10
133.724
20
-91.1138
11
133.887
21
-91.2232
0
LINE
8
BLACK
6
CONTINUOUS
10
133.887
20
-91.2232
11
134.027
21
-91.3625
0
LINE
8
BLACK
6
CONTINUOUS
10
134.027
20
-91.3625
11
134.136
21
-91.5263
0
LINE
8
BLACK
6
CONTINUOUS
10
134.136
20
-91.5263
11
134.212
21
-91.7083
0
LINE
8
BLACK
6
CONTINUOUS
10
134.212
20
-91.7083
11
134.25
21
-91.9015
0
LINE
8
BLACK
6
CONTINUOUS
10
134.25
20
-91.9015
11
134.25
21
-92.0985
0
LINE
8
BLACK
6
CONTINUOUS
10
134.25
20
-92.0985
11
134.212
21
-92.2917
0
LINE
8
BLACK
6
CONTINUOUS
10
134.212
20
-92.2917
11
134.136
21
-92.4737
0
LINE
8
BLACK
6
CONTINUOUS
10
134.136
20
-92.4737
11
134.027
21
-92.6375
0
LINE
8
BLACK
6
CONTINUOUS
10
134.027
20
-92.6375
11
133.887
21
-92.7768
0
LINE
8
BLACK
6
CONTINUOUS
10
133.887
20
-92.7768
11
133.724
21
-92.8862
0
LINE
8
BLACK
6
CONTINUOUS
10
133.724
20
-92.8862
11
133.542
21
-92.9616
0
LINE
8
BLACK
6
CONTINUOUS
10
133.542
20
-92.9616
11
133.348
21
-93
0
LINE
8
BLACK
6
CONTINUOUS
10
133.348
20
-93
11
133.152
21
-93
0
LINE
8
BLACK
6
CONTINUOUS
10
133.152
20
-93
11
132.958
21
-92.9616
0
LINE
8
BLACK
6
CONTINUOUS
10
132.958
20
-92.9616
11
132.776
21
-92.8862
0
LINE
8
BLACK
6
CONTINUOUS
10
132.776
20
-92.8862
11
132.613
21
-92.7768
0
LINE
8
BLACK
6
CONTINUOUS
10
132.613
20
-92.7768
11
132.473
21
-92.6375
0
LINE
8
BLACK
6
CONTINUOUS
10
132.473
20
-92.6375
11
132.364
21
-92.4737
0
LINE
8
BLACK
6
CONTINUOUS
10
132.364
20
-92.4737
11
132.288
21
-92.2917
0
LINE
8
BLACK
6
CONTINUOUS
10
132.288
20
-92.2917
11
132.25
21
-92.0985
0
LINE
8
BLACK
6
CONTINUOUS
10
132.25
20
-92.0985
11
132.25
21
-91.9015
0
LINE
8
BLACK
6
CONTINUOUS
10
132.25
20
-91.9015
11
132.288
21
-91.7083
0
LINE
8
BLACK
6
CONTINUOUS
10
132.288
20
-91.7083
11
132.364
21
-91.5263
0
LINE
8
BLACK
6
CONTINUOUS
10
132.364
20
-91.5263
11
132.473
21
-91.3625
0
LINE
8
BLACK
6
CONTINUOUS
10
132.473
20
-91.3625
11
132.613
21
-91.2232
0
LINE
8
BLACK
6
CONTINUOUS
10
132.613
20
-91.2232
11
132.776
21
-91.1138
0
LINE
8
BLACK
6
CONTINUOUS
10
132.776
20
-91.1138
11
132.958
21
-91.0384
0
LINE
8
BLACK
6
CONTINUOUS
10
132.958
20
-91.0384
11
133.152
21
-91
0
LINE
8
BLACK
6
CONTINUOUS
10
133.152
20
-91
11
133.348
21
-91
0
LINE
8
BLACK
6
CONTINUOUS
10
133.348
20
-91
11
133.542
21
-91.0384
0
LINE
8
BLACK
6
CONTINUOUS
10
138.15
20
-87
11
135.65
21
-87
0
LINE
8
BLACK
6
CONTINUOUS
10
135.65
20
-87
11
135.65
21
-84
0
LINE
8
BLACK
6
CONTINUOUS
10
135.65
20
-84
11
138.15
21
-84
0
LINE
8
BLACK
6
CONTINUOUS
10
138.15
20
-84
11
138.15
21
-87
0
LINE
8
BLACK
6
CONTINUOUS
10
149.35
20
-87
11
146.85
21
-87
0
LINE
8
BLACK
6
CONTINUOUS
10
146.85
20
-87
11
146.85
21
-84
0
LINE
8
BLACK
6
CONTINUOUS
10
146.85
20
-84
11
149.35
21
-84
0
LINE
8
BLACK
6
CONTINUOUS
10
149.35
20
-84
11
149.35
21
-87
0
LINE
8
BLACK
6
CONTINUOUS
10
158.542
20
-84.0384
11
158.724
21
-84.1138
0
LINE
8
BLACK
6
CONTINUOUS
10
158.724
20
-84.1138
11
158.887
21
-84.2232
0
LINE
8
BLACK
6
CONTINUOUS
10
158.887
20
-84.2232
11
159.027
21
-84.3625
0
LINE
8
BLACK
6
CONTINUOUS
10
159.027
20
-84.3625
11
159.136
21
-84.5263
0
LINE
8
BLACK
6
CONTINUOUS
10
159.136
20
-84.5263
11
159.212
21
-84.7083
0
LINE
8
BLACK
6
CONTINUOUS
10
159.212
20
-84.7083
11
159.25
21
-84.9015
0
LINE
8
BLACK
6
CONTINUOUS
10
159.25
20
-84.9015
11
159.25
21
-85.0985
0
LINE
8
BLACK
6
CONTINUOUS
10
159.25
20
-85.0985
11
159.212
21
-85.2917
0
LINE
8
BLACK
6
CONTINUOUS
10
159.212
20
-85.2917
11
159.136
21
-85.4737
0
LINE
8
BLACK
6
CONTINUOUS
10
159.136
20
-85.4737
11
159.027
21
-85.6375
0
LINE
8
BLACK
6
CONTINUOUS
10
159.027
20
-85.6375
11
158.887
21
-85.7768
0
LINE
8
BLACK
6
CONTINUOUS
10
158.887
20
-85.7768
11
158.724
21
-85.8862
0
LINE
8
BLACK
6
CONTINUOUS
10
158.724
20
-85.8862
11
158.542
21
-85.9616
0
LINE
8
BLACK
6
CONTINUOUS
10
158.542
20
-85.9616
11
158.348
21
-86
0
LINE
8
BLACK
6
CONTINUOUS
10
158.348
20
-86
11
158.152
21
-86
0
LINE
8
BLACK
6
CONTINUOUS
10
158.152
20
-86
11
157.958
21
-85.9616
0
LINE
8
BLACK
6
CONTINUOUS
10
157.958
20
-85.9616
11
157.776
21
-85.8862
0
LINE
8
BLACK
6
CONTINUOUS
10
157.776
20
-85.8862
11
157.613
21
-85.7768
0
LINE
8
BLACK
6
CONTINUOUS
10
157.613
20
-85.7768
11
157.473
21
-85.6375
0
LINE
8
BLACK
6
CONTINUOUS
10
157.473
20
-85.6375
11
157.364
21
-85.4737
0
LINE
8
BLACK
6
CONTINUOUS
10
157.364
20
-85.4737
11
157.288
21
-85.2917
0
LINE
8
BLACK
6
CONTINUOUS
10
157.288
20
-85.2917
11
157.25
21
-85.0985
0
LINE
8
BLACK
6
CONTINUOUS
10
157.25
20
-85.0985
11
157.25
21
-84.9015
0
LINE
8
BLACK
6
CONTINUOUS
10
157.25
20
-84.9015
11
157.288
21
-84.7083
0
LINE
8
BLACK
6
CONTINUOUS
10
157.288
20
-84.7083
11
157.364
21
-84.5263
0
LINE
8
BLACK
6
CONTINUOUS
10
157.364
20
-84.5263
11
157.473
21
-84.3625
0
LINE
8
BLACK
6
CONTINUOUS
10
157.473
20
-84.3625
11
157.613
21
-84.2232
0
LINE
8
BLACK
6
CONTINUOUS
10
157.613
20
-84.2232
11
157.776
21
-84.1138
0
LINE
8
BLACK
6
CONTINUOUS
10
157.776
20
-84.1138
11
157.958
21
-84.0384
0
LINE
8
BLACK
6
CONTINUOUS
10
157.958
20
-84.0384
11
158.152
21
-84
0
LINE
8
BLACK
6
CONTINUOUS
10
158.152
20
-84
11
158.348
21
-84
0
LINE
8
BLACK
6
CONTINUOUS
10
158.348
20
-84
11
158.542
21
-84.0384
0
LINE
8
BLACK
6
CONTINUOUS
10
133.542
20
-84.0384
11
133.724
21
-84.1138
0
LINE
8
BLACK
6
CONTINUOUS
10
133.724
20
-84.1138
11
133.887
21
-84.2232
0
LINE
8
BLACK
6
CONTINUOUS
10
133.887
20
-84.2232
11
134.027
21
-84.3625
0
LINE
8
BLACK
6
CONTINUOUS
10
134.027
20
-84.3625
11
134.136
21
-84.5263
0
LINE
8
BLACK
6
CONTINUOUS
10
134.136
20
-84.5263
11
134.212
21
-84.7083
0
LINE
8
BLACK
6
CONTINUOUS
10
134.212
20
-84.7083
11
134.25
21
-84.9015
0
LINE
8
BLACK
6
CONTINUOUS
10
134.25
20
-84.9015
11
134.25
21
-85.0985
0
LINE
8
BLACK
6
CONTINUOUS
10
134.25
20
-85.0985
11
134.212
21
-85.2917
0
LINE
8
BLACK
6
CONTINUOUS
10
134.212
20
-85.2917
11
134.136
21
-85.4737
0
LINE
8
BLACK
6
CONTINUOUS
10
134.136
20
-85.4737
11
134.027
21
-85.6375
0
LINE
8
BLACK
6
CONTINUOUS
10
134.027
20
-85.6375
11
133.887
21
-85.7768
0
LINE
8
BLACK
6
CONTINUOUS
10
133.887
20
-85.7768
11
133.724
21
-85.8862
0
LINE
8
BLACK
6
CONTINUOUS
10
133.724
20
-85.8862
11
133.542
21
-85.9616
0
LINE
8
BLACK
6
CONTINUOUS
10
133.542
20
-85.9616
11
133.348
21
-86
0
LINE
8
BLACK
6
CONTINUOUS
10
133.348
20
-86
11
133.152
21
-86
0
LINE
8
BLACK
6
CONTINUOUS
10
133.152
20
-86
11
132.958
21
-85.9616
0
LINE
8
BLACK
6
CONTINUOUS
10
132.958
20
-85.9616
11
132.776
21
-85.8862
0
LINE
8
BLACK
6
CONTINUOUS
10
132.776
20
-85.8862
11
132.613
21
-85.7768
0
LINE
8
BLACK
6
CONTINUOUS
10
132.613
20
-85.7768
11
132.473
21
-85.6375
0
LINE
8
BLACK
6
CONTINUOUS
10
132.473
20
-85.6375
11
132.364
21
-85.4737
0
LINE
8
BLACK
6
CONTINUOUS
10
132.364
20
-85.4737
11
132.288
21
-85.2917
0
LINE
8
BLACK
6
CONTINUOUS
10
132.288
20
-85.2917
11
132.25
21
-85.0985
0
LINE
8
BLACK
6
CONTINUOUS
10
132.25
20
-85.0985
11
132.25
21
-84.9015
0
LINE
8
BLACK
6
CONTINUOUS
10
132.25
20
-84.9015
11
132.288
21
-84.7083
0
LINE
8
BLACK
6
CONTINUOUS
10
132.288
20
-84.7083
11
132.364
21
-84.5263
0
LINE
8
BLACK
6
CONTINUOUS
10
132.364
20
-84.5263
11
132.473
21
-84.3625
0
LINE
8
BLACK
6
CONTINUOUS
10
132.473
20
-84.3625
11
132.613
21
-84.2232
0
LINE
8
BLACK
6
CONTINUOUS
10
132.613
20
-84.2232
11
132.776
21
-84.1138
0
LINE
8
BLACK
6
CONTINUOUS
10
132.776
20
-84.1138
11
132.958
21
-84.0384
0
LINE
8
BLACK
6
CONTINUOUS
10
132.958
20
-84.0384
11
133.152
21
-84
0
LINE
8
BLACK
6
CONTINUOUS
10
133.152
20
-84
11
133.348
21
-84
0
LINE
8
BLACK
6
CONTINUOUS
10
133.348
20
-84
11
133.542
21
-84.0384
0
LINE
8
BLACK
6
CONTINUOUS
10
152.042
20
-84.0384
11
152.224
21
-84.1138
0
LINE
8
BLACK
6
CONTINUOUS
10
152.224
20
-84.1138
11
152.387
21
-84.2232
0
LINE
8
BLACK
6
CONTINUOUS
10
152.387
20
-84.2232
11
152.527
21
-84.3625
0
LINE
8
BLACK
6
CONTINUOUS
10
152.527
20
-84.3625
11
152.636
21
-84.5263
0
LINE
8
BLACK
6
CONTINUOUS
10
152.636
20
-84.5263
11
152.712
21
-84.7083
0
LINE
8
BLACK
6
CONTINUOUS
10
152.712
20
-84.7083
11
152.75
21
-84.9015
0
LINE
8
BLACK
6
CONTINUOUS
10
152.75
20
-84.9015
11
152.75
21
-85.0985
0
LINE
8
BLACK
6
CONTINUOUS
10
152.75
20
-85.0985
11
152.712
21
-85.2917
0
LINE
8
BLACK
6
CONTINUOUS
10
152.712
20
-85.2917
11
152.636
21
-85.4737
0
LINE
8
BLACK
6
CONTINUOUS
10
152.636
20
-85.4737
11
152.527
21
-85.6375
0
LINE
8
BLACK
6
CONTINUOUS
10
152.527
20
-85.6375
11
152.387
21
-85.7768
0
LINE
8
BLACK
6
CONTINUOUS
10
152.387
20
-85.7768
11
152.224
21
-85.8862
0
LINE
8
BLACK
6
CONTINUOUS
10
152.224
20
-85.8862
11
152.042
21
-85.9616
0
LINE
8
BLACK
6
CONTINUOUS
10
152.042
20
-85.9616
11
151.848
21
-86
0
LINE
8
BLACK
6
CONTINUOUS
10
151.848
20
-86
11
151.652
21
-86
0
LINE
8
BLACK
6
CONTINUOUS
10
151.652
20
-86
11
151.458
21
-85.9616
0
LINE
8
BLACK
6
CONTINUOUS
10
151.458
20
-85.9616
11
151.276
21
-85.8862
0
LINE
8
BLACK
6
CONTINUOUS
10
151.276
20
-85.8862
11
151.113
21
-85.7768
0
LINE
8
BLACK
6
CONTINUOUS
10
151.113
20
-85.7768
11
150.973
21
-85.6375
0
LINE
8
BLACK
6
CONTINUOUS
10
150.973
20
-85.6375
11
150.864
21
-85.4737
0
LINE
8
BLACK
6
CONTINUOUS
10
150.864
20
-85.4737
11
150.788
21
-85.2917
0
LINE
8
BLACK
6
CONTINUOUS
10
150.788
20
-85.2917
11
150.75
21
-85.0985
0
LINE
8
BLACK
6
CONTINUOUS
10
150.75
20
-85.0985
11
150.75
21
-84.9015
0
LINE
8
BLACK
6
CONTINUOUS
10
150.75
20
-84.9015
11
150.788
21
-84.7083
0
LINE
8
BLACK
6
CONTINUOUS
10
150.788
20
-84.7083
11
150.864
21
-84.5263
0
LINE
8
BLACK
6
CONTINUOUS
10
150.864
20
-84.5263
11
150.973
21
-84.3625
0
LINE
8
BLACK
6
CONTINUOUS
10
150.973
20
-84.3625
11
151.113
21
-84.2232
0
LINE
8
BLACK
6
CONTINUOUS
10
151.113
20
-84.2232
11
151.276
21
-84.1138
0
LINE
8
BLACK
6
CONTINUOUS
10
151.276
20
-84.1138
11
151.458
21
-84.0384
0
LINE
8
BLACK
6
CONTINUOUS
10
151.458
20
-84.0384
11
151.652
21
-84
0
LINE
8
BLACK
6
CONTINUOUS
10
151.652
20
-84
11
151.848
21
-84
0
LINE
8
BLACK
6
CONTINUOUS
10
151.848
20
-84
11
152.042
21
-84.0384
0
LINE
8
BLACK
6
CONTINUOUS
10
127.042
20
-84.0384
11
127.224
21
-84.1138
0
LINE
8
BLACK
6
CONTINUOUS
10
127.224
20
-84.1138
11
127.387
21
-84.2232
0
LINE
8
BLACK
6
CONTINUOUS
10
127.387
20
-84.2232
11
127.527
21
-84.3625
0
LINE
8
BLACK
6
CONTINUOUS
10
127.527
20
-84.3625
11
127.636
21
-84.5263
0
LINE
8
BLACK
6
CONTINUOUS
10
127.636
20
-84.5263
11
127.712
21
-84.7083
0
LINE
8
BLACK
6
CONTINUOUS
10
127.712
20
-84.7083
11
127.75
21
-84.9015
0
LINE
8
BLACK
6
CONTINUOUS
10
127.75
20
-84.9015
11
127.75
21
-85.0985
0
LINE
8
BLACK
6
CONTINUOUS
10
127.75
20
-85.0985
11
127.712
21
-85.2917
0
LINE
8
BLACK
6
CONTINUOUS
10
127.712
20
-85.2917
11
127.636
21
-85.4737
0
LINE
8
BLACK
6
CONTINUOUS
10
127.636
20
-85.4737
11
127.527
21
-85.6375
0
LINE
8
BLACK
6
CONTINUOUS
10
127.527
20
-85.6375
11
127.387
21
-85.7768
0
LINE
8
BLACK
6
CONTINUOUS
10
127.387
20
-85.7768
11
127.224
21
-85.8862
0
LINE
8
BLACK
6
CONTINUOUS
10
127.224
20
-85.8862
11
127.042
21
-85.9616
0
LINE
8
BLACK
6
CONTINUOUS
10
127.042
20
-85.9616
11
126.848
21
-86
0
LINE
8
BLACK
6
CONTINUOUS
10
126.848
20
-86
11
126.652
21
-86
0
LINE
8
BLACK
6
CONTINUOUS
10
126.652
20
-86
11
126.458
21
-85.9616
0
LINE
8
BLACK
6
CONTINUOUS
10
126.458
20
-85.9616
11
126.276
21
-85.8862
0
LINE
8
BLACK
6
CONTINUOUS
10
126.276
20
-85.8862
11
126.113
21
-85.7768
0
LINE
8
BLACK
6
CONTINUOUS
10
126.113
20
-85.7768
11
125.973
21
-85.6375
0
LINE
8
BLACK
6
CONTINUOUS
10
125.973
20
-85.6375
11
125.864
21
-85.4737
0
LINE
8
BLACK
6
CONTINUOUS
10
125.864
20
-85.4737
11
125.788
21
-85.2917
0
LINE
8
BLACK
6
CONTINUOUS
10
125.788
20
-85.2917
11
125.75
21
-85.0985
0
LINE
8
BLACK
6
CONTINUOUS
10
125.75
20
-85.0985
11
125.75
21
-84.9015
0
LINE
8
BLACK
6
CONTINUOUS
10
125.75
20
-84.9015
11
125.788
21
-84.7083
0
LINE
8
BLACK
6
CONTINUOUS
10
125.788
20
-84.7083
11
125.864
21
-84.5263
0
LINE
8
BLACK
6
CONTINUOUS
10
125.864
20
-84.5263
11
125.973
21
-84.3625
0
LINE
8
BLACK
6
CONTINUOUS
10
125.973
20
-84.3625
11
126.113
21
-84.2232
0
LINE
8
BLACK
6
CONTINUOUS
10
126.113
20
-84.2232
11
126.276
21
-84.1138
0
LINE
8
BLACK
6
CONTINUOUS
10
126.276
20
-84.1138
11
126.458
21
-84.0384
0
LINE
8
BLACK
6
CONTINUOUS
10
126.458
20
-84.0384
11
126.652
21
-84
0
LINE
8
BLACK
6
CONTINUOUS
10
126.652
20
-84
11
126.848
21
-84
0
LINE
8
BLACK
6
CONTINUOUS
10
126.848
20
-84
11
127.042
21
-84.0384
0
LINE
8
BLACK
6
CONTINUOUS
10
133.542
20
-77.0384
11
133.724
21
-77.1138
0
LINE
8
BLACK
6
CONTINUOUS
10
133.724
20
-77.1138
11
133.887
21
-77.2232
0
LINE
8
BLACK
6
CONTINUOUS
10
133.887
20
-77.2232
11
134.027
21
-77.3625
0
LINE
8
BLACK
6
CONTINUOUS
10
134.027
20
-77.3625
11
134.136
21
-77.5263
0
LINE
8
BLACK
6
CONTINUOUS
10
134.136
20
-77.5263
11
134.212
21
-77.7083
0
LINE
8
BLACK
6
CONTINUOUS
10
134.212
20
-77.7083
11
134.25
21
-77.9015
0
LINE
8
BLACK
6
CONTINUOUS
10
134.25
20
-77.9015
11
134.25
21
-78.0985
0
LINE
8
BLACK
6
CONTINUOUS
10
134.25
20
-78.0985
11
134.212
21
-78.2917
0
LINE
8
BLACK
6
CONTINUOUS
10
134.212
20
-78.2917
11
134.136
21
-78.4737
0
LINE
8
BLACK
6
CONTINUOUS
10
134.136
20
-78.4737
11
134.027
21
-78.6375
0
LINE
8
BLACK
6
CONTINUOUS
10
134.027
20
-78.6375
11
133.887
21
-78.7768
0
LINE
8
BLACK
6
CONTINUOUS
10
133.887
20
-78.7768
11
133.724
21
-78.8862
0
LINE
8
BLACK
6
CONTINUOUS
10
133.724
20
-78.8862
11
133.542
21
-78.9616
0
LINE
8
BLACK
6
CONTINUOUS
10
133.542
20
-78.9616
11
133.348
21
-79
0
LINE
8
BLACK
6
CONTINUOUS
10
133.348
20
-79
11
133.152
21
-79
0
LINE
8
BLACK
6
CONTINUOUS
10
133.152
20
-79
11
132.958
21
-78.9616
0
LINE
8
BLACK
6
CONTINUOUS
10
132.958
20
-78.9616
11
132.776
21
-78.8862
0
LINE
8
BLACK
6
CONTINUOUS
10
132.776
20
-78.8862
11
132.613
21
-78.7768
0
LINE
8
BLACK
6
CONTINUOUS
10
132.613
20
-78.7768
11
132.473
21
-78.6375
0
LINE
8
BLACK
6
CONTINUOUS
10
132.473
20
-78.6375
11
132.364
21
-78.4737
0
LINE
8
BLACK
6
CONTINUOUS
10
132.364
20
-78.4737
11
132.288
21
-78.2917
0
LINE
8
BLACK
6
CONTINUOUS
10
132.288
20
-78.2917
11
132.25
21
-78.0985
0
LINE
8
BLACK
6
CONTINUOUS
10
132.25
20
-78.0985
11
132.25
21
-77.9015
0
LINE
8
BLACK
6
CONTINUOUS
10
132.25
20
-77.9015
11
132.288
21
-77.7083
0
LINE
8
BLACK
6
CONTINUOUS
10
132.288
20
-77.7083
11
132.364
21
-77.5263
0
LINE
8
BLACK
6
CONTINUOUS
10
132.364
20
-77.5263
11
132.473
21
-77.3625
0
LINE
8
BLACK
6
CONTINUOUS
10
132.473
20
-77.3625
11
132.613
21
-77.2232
0
LINE
8
BLACK
6
CONTINUOUS
10
132.613
20
-77.2232
11
132.776
21
-77.1138
0
LINE
8
BLACK
6
CONTINUOUS
10
132.776
20
-77.1138
11
132.958
21
-77.0384
0
LINE
8
BLACK
6
CONTINUOUS
10
132.958
20
-77.0384
11
133.152
21
-77
0
LINE
8
BLACK
6
CONTINUOUS
10
133.152
20
-77
11
133.348
21
-77
0
LINE
8
BLACK
6
CONTINUOUS
10
133.348
20
-77
11
133.542
21
-77.0384
0
LINE
8
BLACK
6
CONTINUOUS
10
127.042
20
-77.0384
11
127.224
21
-77.1138
0
LINE
8
BLACK
6
CONTINUOUS
10
127.224
20
-77.1138
11
127.387
21
-77.2232
0
LINE
8
BLACK
6
CONTINUOUS
10
127.387
20
-77.2232
11
127.527
21
-77.3625
0
LINE
8
BLACK
6
CONTINUOUS
10
127.527
20
-77.3625
11
127.636
21
-77.5263
0
LINE
8
BLACK
6
CONTINUOUS
10
127.636
20
-77.5263
11
127.712
21
-77.7083
0
LINE
8
BLACK
6
CONTINUOUS
10
127.712
20
-77.7083
11
127.75
21
-77.9015
0
LINE
8
BLACK
6
CONTINUOUS
10
127.75
20
-77.9015
11
127.75
21
-78.0985
0
LINE
8
BLACK
6
CONTINUOUS
10
127.75
20
-78.0985
11
127.712
21
-78.2917
0
LINE
8
BLACK
6
CONTINUOUS
10
127.712
20
-78.2917
11
127.636
21
-78.4737
0
LINE
8
BLACK
6
CONTINUOUS
10
127.636
20
-78.4737
11
127.527
21
-78.6375
0
LINE
8
BLACK
6
CONTINUOUS
10
127.527
20
-78.6375
11
127.387
21
-78.7768
0
LINE
8
BLACK
6
CONTINUOUS
10
127.387
20
-78.7768
11
127.224
21
-78.8862
0
LINE
8
BLACK
6
CONTINUOUS
10
127.224
20
-78.8862
11
127.042
21
-78.9616
0
LINE
8
BLACK
6
CONTINUOUS
10
127.042
20
-78.9616
11
126.848
21
-79
0
LINE
8
BLACK
6
CONTINUOUS
10
126.848
20
-79
11
126.652
21
-79
0
LINE
8
BLACK
6
CONTINUOUS
10
126.652
20
-79
11
126.458
21
-78.9616
0
LINE
8
BLACK
6
CONTINUOUS
10
126.458
20
-78.9616
11
126.276
21
-78.8862
0
LINE
8
BLACK
6
CONTINUOUS
10
126.276
20
-78.8862
11
126.113
21
-78.7768
0
LINE
8
BLACK
6
CONTINUOUS
10
126.113
20
-78.7768
11
125.973
21
-78.6375
0
LINE
8
BLACK
6
CONTINUOUS
10
125.973
20
-78.6375
11
125.864
21
-78.4737
0
LINE
8
BLACK
6
CONTINUOUS
10
125.864
20
-78.4737
11
125.788
21
-78.2917
0
LINE
8
BLACK
6
CONTINUOUS
10
125.788
20
-78.2917
11
125.75
21
-78.0985
0
LINE
8
BLACK
6
CONTINUOUS
10
125.75
20
-78.0985
11
125.75
21
-77.9015
0
LINE
8
BLACK
6
CONTINUOUS
10
125.75
20
-77.9015
11
125.788
21
-77.7083
0
LINE
8
BLACK
6
CONTINUOUS
10
125.788
20
-77.7083
11
125.864
21
-77.5263
0
LINE
8
BLACK
6
CONTINUOUS
10
125.864
20
-77.5263
11
125.973
21
-77.3625
0
LINE
8
BLACK
6
CONTINUOUS
10
125.973
20
-77.3625
11
126.113
21
-77.2232
0
LINE
8
BLACK
6
CONTINUOUS
10
126.113
20
-77.2232
11
126.276
21
-77.1138
0
LINE
8
BLACK
6
CONTINUOUS
10
126.276
20
-77.1138
11
126.458
21
-77.0384
0
LINE
8
BLACK
6
CONTINUOUS
10
126.458
20
-77.0384
11
126.652
21
-77
0
LINE
8
BLACK
6
CONTINUOUS
10
126.652
20
-77
11
126.848
21
-77
0
LINE
8
BLACK
6
CONTINUOUS
10
126.848
20
-77
11
127.042
21
-77.0384
0
LINE
8
BLACK
6
CONTINUOUS
10
152.042
20
-77.0384
11
152.224
21
-77.1138
0
LINE
8
BLACK
6
CONTINUOUS
10
152.224
20
-77.1138
11
152.387
21
-77.2232
0
LINE
8
BLACK
6
CONTINUOUS
10
152.387
20
-77.2232
11
152.527
21
-77.3625
0
LINE
8
BLACK
6
CONTINUOUS
10
152.527
20
-77.3625
11
152.636
21
-77.5263
0
LINE
8
BLACK
6
CONTINUOUS
10
152.636
20
-77.5263
11
152.712
21
-77.7083
0
LINE
8
BLACK
6
CONTINUOUS
10
152.712
20
-77.7083
11
152.75
21
-77.9015
0
LINE
8
BLACK
6
CONTINUOUS
10
152.75
20
-77.9015
11
152.75
21
-78.0985
0
LINE
8
BLACK
6
CONTINUOUS
10
152.75
20
-78.0985
11
152.712
21
-78.2917
0
LINE
8
BLACK
6
CONTINUOUS
10
152.712
20
-78.2917
11
152.636
21
-78.4737
0
LINE
8
BLACK
6
CONTINUOUS
10
152.636
20
-78.4737
11
152.527
21
-78.6375
0
LINE
8
BLACK
6
CONTINUOUS
10
152.527
20
-78.6375
11
152.387
21
-78.7768
0
LINE
8
BLACK
6
CONTINUOUS
10
152.387
20
-78.7768
11
152.224
21
-78.8862
0
LINE
8
BLACK
6
CONTINUOUS
10
152.224
20
-78.8862
11
152.042
21
-78.9616
0
LINE
8
BLACK
6
CONTINUOUS
10
152.042
20
-78.9616
11
151.848
21
-79
0
LINE
8
BLACK
6
CONTINUOUS
10
151.848
20
-79
11
151.652
21
-79
0
LINE
8
BLACK
6
CONTINUOUS
10
151.652
20
-79
11
151.458
21
-78.9616
0
LINE
8
BLACK
6
CONTINUOUS
10
151.458
20
-78.9616
11
151.276
21
-78.8862
0
LINE
8
BLACK
6
CONTINUOUS
10
151.276
20
-78.8862
11
151.113
21
-78.7768
0
LINE
8
BLACK
6
CONTINUOUS
10
151.113
20
-78.7768
11
150.973
21
-78.6375
0
LINE
8
BLACK
6
CONTINUOUS
10
150.973
20
-78.6375
11
150.864
21
-78.4737
0
LINE
8
BLACK
6
CONTINUOUS
10
150.864
20
-78.4737
11
150.788
21
-78.2917
0
LINE
8
BLACK
6
CONTINUOUS
10
150.788
20
-78.2917
11
150.75
21
-78.0985
0
LINE
8
BLACK
6
CONTINUOUS
10
150.75
20
-78.0985
11
150.75
21
-77.9015
0
LINE
8
BLACK
6
CONTINUOUS
10
150.75
20
-77.9015
11
150.788
21
-77.7083
0
LINE
8
BLACK
6
CONTINUOUS
10
150.788
20
-77.7083
11
150.864
21
-77.5263
0
LINE
8
BLACK
6
CONTINUOUS
10
150.864
20
-77.5263
11
150.973
21
-77.3625
0
LINE
8
BLACK
6
CONTINUOUS
10
150.973
20
-77.3625
11
151.113
21
-77.2232
0
LINE
8
BLACK
6
CONTINUOUS
10
151.113
20
-77.2232
11
151.276
21
-77.1138
0
LINE
8
BLACK
6
CONTINUOUS
10
151.276
20
-77.1138
11
151.458
21
-77.0384
0
LINE
8
BLACK
6
CONTINUOUS
10
151.458
20
-77.0384
11
151.652
21
-77
0
LINE
8
BLACK
6
CONTINUOUS
10
151.652
20
-77
11
151.848
21
-77
0
LINE
8
BLACK
6
CONTINUOUS
10
151.848
20
-77
11
152.042
21
-77.0384
0
LINE
8
BLACK
6
CONTINUOUS
10
158.542
20
-77.0384
11
158.724
21
-77.1138
0
LINE
8
BLACK
6
CONTINUOUS
10
158.724
20
-77.1138
11
158.887
21
-77.2232
0
LINE
8
BLACK
6
CONTINUOUS
10
158.887
20
-77.2232
11
159.027
21
-77.3625
0
LINE
8
BLACK
6
CONTINUOUS
10
159.027
20
-77.3625
11
159.136
21
-77.5263
0
LINE
8
BLACK
6
CONTINUOUS
10
159.136
20
-77.5263
11
159.212
21
-77.7083
0
LINE
8
BLACK
6
CONTINUOUS
10
159.212
20
-77.7083
11
159.25
21
-77.9015
0
LINE
8
BLACK
6
CONTINUOUS
10
159.25
20
-77.9015
11
159.25
21
-78.0985
0
LINE
8
BLACK
6
CONTINUOUS
10
159.25
20
-78.0985
11
159.212
21
-78.2917
0
LINE
8
BLACK
6
CONTINUOUS
10
159.212
20
-78.2917
11
159.136
21
-78.4737
0
LINE
8
BLACK
6
CONTINUOUS
10
159.136
20
-78.4737
11
159.027
21
-78.6375
0
LINE
8
BLACK
6
CONTINUOUS
10
159.027
20
-78.6375
11
158.887
21
-78.7768
0
LINE
8
BLACK
6
CONTINUOUS
10
158.887
20
-78.7768
11
158.724
21
-78.8862
0
LINE
8
BLACK
6
CONTINUOUS
10
158.724
20
-78.8862
11
158.542
21
-78.9616
0
LINE
8
BLACK
6
CONTINUOUS
10
158.542
20
-78.9616
11
158.348
21
-79
0
LINE
8
BLACK
6
CONTINUOUS
10
158.348
20
-79
11
158.152
21
-79
0
LINE
8
BLACK
6
CONTINUOUS
10
158.152
20
-79
11
157.958
21
-78.9616
0
LINE
8
BLACK
6
CONTINUOUS
10
157.958
20
-78.9616
11
157.776
21
-78.8862
0
LINE
8
BLACK
6
CONTINUOUS
10
157.776
20
-78.8862
11
157.613
21
-78.7768
0
LINE
8
BLACK
6
CONTINUOUS
10
157.613
20
-78.7768
11
157.473
21
-78.6375
0
LINE
8
BLACK
6
CONTINUOUS
10
157.473
20
-78.6375
11
157.364
21
-78.4737
0
LINE
8
BLACK
6
CONTINUOUS
10
157.364
20
-78.4737
11
157.288
21
-78.2917
0
LINE
8
BLACK
6
CONTINUOUS
10
157.288
20
-78.2917
11
157.25
21
-78.0985
0
LINE
8
BLACK
6
CONTINUOUS
10
157.25
20
-78.0985
11
157.25
21
-77.9015
0
LINE
8
BLACK
6
CONTINUOUS
10
157.25
20
-77.9015
11
157.288
21
-77.7083
0
LINE
8
BLACK
6
CONTINUOUS
10
157.288
20
-77.7083
11
157.364
21
-77.5263
0
LINE
8
BLACK
6
CONTINUOUS
10
157.364
20
-77.5263
11
157.473
21
-77.3625
0
LINE
8
BLACK
6
CONTINUOUS
10
157.473
20
-77.3625
11
157.613
21
-77.2232
0
LINE
8
BLACK
6
CONTINUOUS
10
157.613
20
-77.2232
11
157.776
21
-77.1138
0
LINE
8
BLACK
6
CONTINUOUS
10
157.776
20
-77.1138
11
157.958
21
-77.0384
0
LINE
8
BLACK
6
CONTINUOUS
10
157.958
20
-77.0384
11
158.152
21
-77
0
LINE
8
BLACK
6
CONTINUOUS
10
158.152
20
-77
11
158.348
21
-77
0
LINE
8
BLACK
6
CONTINUOUS
10
158.348
20
-77
11
158.542
21
-77.0384
0
LINE
8
BLACK
6
CONTINUOUS
10
138.6
20
-75.1
11
138.25
21
-75.1
0
LINE
8
BLACK
6
CONTINUOUS
10
138.25
20
-75.1
11
138.25
21
-76.1376
0
LINE
8
BLACK
6
CONTINUOUS
10
138.25
20
-76.1376
11
138.379
21
-76.191
0
LINE
8
BLACK
6
CONTINUOUS
10
138.379
20
-76.191
11
138.51
21
-76.2786
0
LINE
8
BLACK
6
CONTINUOUS
10
138.51
20
-76.2786
11
138.621
21
-76.39
0
LINE
8
BLACK
6
CONTINUOUS
10
138.621
20
-76.39
11
138.709
21
-76.5211
0
LINE
8
BLACK
6
CONTINUOUS
10
138.709
20
-76.5211
11
138.769
21
-76.6666
0
LINE
8
BLACK
6
CONTINUOUS
10
138.769
20
-76.6666
11
138.8
21
-76.8212
0
LINE
8
BLACK
6
CONTINUOUS
10
138.8
20
-76.8212
11
138.8
21
-76.9788
0
LINE
8
BLACK
6
CONTINUOUS
10
138.8
20
-76.9788
11
138.769
21
-77.1334
0
LINE
8
BLACK
6
CONTINUOUS
10
138.769
20
-77.1334
11
138.709
21
-77.2789
0
LINE
8
BLACK
6
CONTINUOUS
10
138.709
20
-77.2789
11
138.621
21
-77.41
0
LINE
8
BLACK
6
CONTINUOUS
10
138.621
20
-77.41
11
138.51
21
-77.5214
0
LINE
8
BLACK
6
CONTINUOUS
10
138.51
20
-77.5214
11
138.379
21
-77.609
0
LINE
8
BLACK
6
CONTINUOUS
10
138.379
20
-77.609
11
138.233
21
-77.6693
0
LINE
8
BLACK
6
CONTINUOUS
10
138.233
20
-77.6693
11
138.079
21
-77.7
0
LINE
8
BLACK
6
CONTINUOUS
10
138.079
20
-77.7
11
137.921
21
-77.7
0
LINE
8
BLACK
6
CONTINUOUS
10
137.921
20
-77.7
11
137.767
21
-77.6693
0
LINE
8
BLACK
6
CONTINUOUS
10
137.767
20
-77.6693
11
137.621
21
-77.609
0
LINE
8
BLACK
6
CONTINUOUS
10
137.621
20
-77.609
11
137.49
21
-77.5214
0
LINE
8
BLACK
6
CONTINUOUS
10
137.49
20
-77.5214
11
137.379
21
-77.41
0
LINE
8
BLACK
6
CONTINUOUS
10
137.379
20
-77.41
11
137.291
21
-77.2789
0
LINE
8
BLACK
6
CONTINUOUS
10
137.291
20
-77.2789
11
137.231
21
-77.1334
0
LINE
8
BLACK
6
CONTINUOUS
10
137.231
20
-77.1334
11
137.2
21
-76.9788
0
LINE
8
BLACK
6
CONTINUOUS
10
137.2
20
-76.9788
11
137.2
21
-76.8212
0
LINE
8
BLACK
6
CONTINUOUS
10
137.2
20
-76.8212
11
137.231
21
-76.6666
0
LINE
8
BLACK
6
CONTINUOUS
10
137.231
20
-76.6666
11
137.291
21
-76.5211
0
LINE
8
BLACK
6
CONTINUOUS
10
137.291
20
-76.5211
11
137.379
21
-76.39
0
LINE
8
BLACK
6
CONTINUOUS
10
137.379
20
-76.39
11
137.49
21
-76.2786
0
LINE
8
BLACK
6
CONTINUOUS
10
137.49
20
-76.2786
11
137.621
21
-76.191
0
LINE
8
BLACK
6
CONTINUOUS
10
137.621
20
-76.191
11
137.75
21
-76.1376
0
LINE
8
BLACK
6
CONTINUOUS
10
137.75
20
-76.1376
11
137.75
21
-75.1
0
LINE
8
BLACK
6
CONTINUOUS
10
137.75
20
-75.1
11
137.4
21
-75.1
0
LINE
8
BLACK
6
CONTINUOUS
10
137.4
20
-75.1
11
137.4
21
-73.6
0
LINE
8
BLACK
6
CONTINUOUS
10
137.4
20
-73.6
11
138.6
21
-73.6
0
LINE
8
BLACK
6
CONTINUOUS
10
138.6
20
-73.6
11
138.6
21
-75.1
0
LINE
8
BLACK
6
CONTINUOUS
10
147.204
20
-76.1383
11
147.331
21
-76.191
0
LINE
8
BLACK
6
CONTINUOUS
10
147.331
20
-76.191
11
147.445
21
-76.2674
0
LINE
8
BLACK
6
CONTINUOUS
10
147.445
20
-76.2674
11
147.543
21
-76.3647
0
LINE
8
BLACK
6
CONTINUOUS
10
147.543
20
-76.3647
11
147.619
21
-76.4791
0
LINE
8
BLACK
6
CONTINUOUS
10
147.619
20
-76.4791
11
147.672
21
-76.6063
0
LINE
8
BLACK
6
CONTINUOUS
10
147.672
20
-76.6063
11
147.698
21
-76.7412
0
LINE
8
BLACK
6
CONTINUOUS
10
147.698
20
-76.7412
11
147.698
21
-76.8788
0
LINE
8
BLACK
6
CONTINUOUS
10
147.698
20
-76.8788
11
147.672
21
-77.0137
0
LINE
8
BLACK
6
CONTINUOUS
10
147.672
20
-77.0137
11
147.619
21
-77.1409
0
LINE
8
BLACK
6
CONTINUOUS
10
147.619
20
-77.1409
11
147.543
21
-77.2553
0
LINE
8
BLACK
6
CONTINUOUS
10
147.543
20
-77.2553
11
147.445
21
-77.3526
0
LINE
8
BLACK
6
CONTINUOUS
10
147.445
20
-77.3526
11
147.331
21
-77.429
0
LINE
8
BLACK
6
CONTINUOUS
10
147.331
20
-77.429
11
147.204
21
-77.4817
0
LINE
8
BLACK
6
CONTINUOUS
10
147.204
20
-77.4817
11
147.069
21
-77.5085
0
LINE
8
BLACK
6
CONTINUOUS
10
147.069
20
-77.5085
11
146.931
21
-77.5085
0
LINE
8
BLACK
6
CONTINUOUS
10
146.931
20
-77.5085
11
146.796
21
-77.4817
0
LINE
8
BLACK
6
CONTINUOUS
10
146.796
20
-77.4817
11
146.669
21
-77.429
0
LINE
8
BLACK
6
CONTINUOUS
10
146.669
20
-77.429
11
146.555
21
-77.3526
0
LINE
8
BLACK
6
CONTINUOUS
10
146.555
20
-77.3526
11
146.457
21
-77.2553
0
LINE
8
BLACK
6
CONTINUOUS
10
146.457
20
-77.2553
11
146.381
21
-77.1409
0
LINE
8
BLACK
6
CONTINUOUS
10
146.381
20
-77.1409
11
146.328
21
-77.0137
0
LINE
8
BLACK
6
CONTINUOUS
10
146.328
20
-77.0137
11
146.302
21
-76.8788
0
LINE
8
BLACK
6
CONTINUOUS
10
146.302
20
-76.8788
11
146.302
21
-76.7412
0
LINE
8
BLACK
6
CONTINUOUS
10
146.302
20
-76.7412
11
146.328
21
-76.6063
0
LINE
8
BLACK
6
CONTINUOUS
10
146.328
20
-76.6063
11
146.381
21
-76.4791
0
LINE
8
BLACK
6
CONTINUOUS
10
146.381
20
-76.4791
11
146.457
21
-76.3647
0
LINE
8
BLACK
6
CONTINUOUS
10
146.457
20
-76.3647
11
146.555
21
-76.2674
0
LINE
8
BLACK
6
CONTINUOUS
10
146.555
20
-76.2674
11
146.669
21
-76.191
0
LINE
8
BLACK
6
CONTINUOUS
10
146.669
20
-76.191
11
146.796
21
-76.1383
0
LINE
8
BLACK
6
CONTINUOUS
10
146.796
20
-76.1383
11
146.931
21
-76.1115
0
LINE
8
BLACK
6
CONTINUOUS
10
146.931
20
-76.1115
11
147.069
21
-76.1115
0
LINE
8
BLACK
6
CONTINUOUS
10
147.069
20
-76.1115
11
147.204
21
-76.1383
0
LINE
8
BLACK
6
CONTINUOUS
10
147.475
20
-75.425
11
146.525
21
-75.425
0
LINE
8
BLACK
6
CONTINUOUS
10
146.525
20
-75.425
11
146.525
21
-74.125
0
LINE
8
BLACK
6
CONTINUOUS
10
146.525
20
-74.125
11
147.475
21
-74.125
0
LINE
8
BLACK
6
CONTINUOUS
10
147.475
20
-74.125
11
147.475
21
-75.425
0
LINE
8
BLACK
6
CONTINUOUS
10
138.233
20
-68.3307
11
138.379
21
-68.391
0
LINE
8
BLACK
6
CONTINUOUS
10
138.379
20
-68.391
11
138.51
21
-68.4786
0
LINE
8
BLACK
6
CONTINUOUS
10
138.51
20
-68.4786
11
138.621
21
-68.59
0
LINE
8
BLACK
6
CONTINUOUS
10
138.621
20
-68.59
11
138.709
21
-68.7211
0
LINE
8
BLACK
6
CONTINUOUS
10
138.709
20
-68.7211
11
138.769
21
-68.8666
0
LINE
8
BLACK
6
CONTINUOUS
10
138.769
20
-68.8666
11
138.8
21
-69.0212
0
LINE
8
BLACK
6
CONTINUOUS
10
138.8
20
-69.0212
11
138.8
21
-69.1788
0
LINE
8
BLACK
6
CONTINUOUS
10
138.8
20
-69.1788
11
138.769
21
-69.3334
0
LINE
8
BLACK
6
CONTINUOUS
10
138.769
20
-69.3334
11
138.709
21
-69.4789
0
LINE
8
BLACK
6
CONTINUOUS
10
138.709
20
-69.4789
11
138.621
21
-69.61
0
LINE
8
BLACK
6
CONTINUOUS
10
138.621
20
-69.61
11
138.51
21
-69.7214
0
LINE
8
BLACK
6
CONTINUOUS
10
138.51
20
-69.7214
11
138.379
21
-69.809
0
LINE
8
BLACK
6
CONTINUOUS
10
138.379
20
-69.809
11
138.25
21
-69.8624
0
LINE
8
BLACK
6
CONTINUOUS
10
138.25
20
-69.8624
11
138.25
21
-70.9
0
LINE
8
BLACK
6
CONTINUOUS
10
138.25
20
-70.9
11
138.6
21
-70.9
0
LINE
8
BLACK
6
CONTINUOUS
10
138.6
20
-70.9
11
138.6
21
-72.4
0
LINE
8
BLACK
6
CONTINUOUS
10
138.6
20
-72.4
11
137.4
21
-72.4
0
LINE
8
BLACK
6
CONTINUOUS
10
137.4
20
-72.4
11
137.4
21
-70.9
0
LINE
8
BLACK
6
CONTINUOUS
10
137.4
20
-70.9
11
137.75
21
-70.9
0
LINE
8
BLACK
6
CONTINUOUS
10
137.75
20
-70.9
11
137.75
21
-69.8624
0
LINE
8
BLACK
6
CONTINUOUS
10
137.75
20
-69.8624
11
137.621
21
-69.809
0
LINE
8
BLACK
6
CONTINUOUS
10
137.621
20
-69.809
11
137.49
21
-69.7214
0
LINE
8
BLACK
6
CONTINUOUS
10
137.49
20
-69.7214
11
137.379
21
-69.61
0
LINE
8
BLACK
6
CONTINUOUS
10
137.379
20
-69.61
11
137.291
21
-69.4789
0
LINE
8
BLACK
6
CONTINUOUS
10
137.291
20
-69.4789
11
137.231
21
-69.3334
0
LINE
8
BLACK
6
CONTINUOUS
10
137.231
20
-69.3334
11
137.2
21
-69.1788
0
LINE
8
BLACK
6
CONTINUOUS
10
137.2
20
-69.1788
11
137.2
21
-69.0212
0
LINE
8
BLACK
6
CONTINUOUS
10
137.2
20
-69.0212
11
137.231
21
-68.8666
0
LINE
8
BLACK
6
CONTINUOUS
10
137.231
20
-68.8666
11
137.291
21
-68.7211
0
LINE
8
BLACK
6
CONTINUOUS
10
137.291
20
-68.7211
11
137.379
21
-68.59
0
LINE
8
BLACK
6
CONTINUOUS
10
137.379
20
-68.59
11
137.49
21
-68.4786
0
LINE
8
BLACK
6
CONTINUOUS
10
137.49
20
-68.4786
11
137.621
21
-68.391
0
LINE
8
BLACK
6
CONTINUOUS
10
137.621
20
-68.391
11
137.767
21
-68.3307
0
LINE
8
BLACK
6
CONTINUOUS
10
137.767
20
-68.3307
11
137.921
21
-68.3
0
LINE
8
BLACK
6
CONTINUOUS
10
137.921
20
-68.3
11
138.079
21
-68.3
0
LINE
8
BLACK
6
CONTINUOUS
10
138.079
20
-68.3
11
138.233
21
-68.3307
0
LINE
8
BLACK
6
CONTINUOUS
10
152.042
20
-70.0384
11
152.224
21
-70.1138
0
LINE
8
BLACK
6
CONTINUOUS
10
152.224
20
-70.1138
11
152.387
21
-70.2232
0
LINE
8
BLACK
6
CONTINUOUS
10
152.387
20
-70.2232
11
152.527
21
-70.3625
0
LINE
8
BLACK
6
CONTINUOUS
10
152.527
20
-70.3625
11
152.636
21
-70.5263
0
LINE
8
BLACK
6
CONTINUOUS
10
152.636
20
-70.5263
11
152.712
21
-70.7083
0
LINE
8
BLACK
6
CONTINUOUS
10
152.712
20
-70.7083
11
152.75
21
-70.9015
0
LINE
8
BLACK
6
CONTINUOUS
10
152.75
20
-70.9015
11
152.75
21
-71.0985
0
LINE
8
BLACK
6
CONTINUOUS
10
152.75
20
-71.0985
11
152.712
21
-71.2917
0
LINE
8
BLACK
6
CONTINUOUS
10
152.712
20
-71.2917
11
152.636
21
-71.4737
0
LINE
8
BLACK
6
CONTINUOUS
10
152.636
20
-71.4737
11
152.527
21
-71.6375
0
LINE
8
BLACK
6
CONTINUOUS
10
152.527
20
-71.6375
11
152.387
21
-71.7768
0
LINE
8
BLACK
6
CONTINUOUS
10
152.387
20
-71.7768
11
152.224
21
-71.8862
0
LINE
8
BLACK
6
CONTINUOUS
10
152.224
20
-71.8862
11
152.042
21
-71.9616
0
LINE
8
BLACK
6
CONTINUOUS
10
152.042
20
-71.9616
11
151.848
21
-72
0
LINE
8
BLACK
6
CONTINUOUS
10
151.848
20
-72
11
151.652
21
-72
0
LINE
8
BLACK
6
CONTINUOUS
10
151.652
20
-72
11
151.458
21
-71.9616
0
LINE
8
BLACK
6
CONTINUOUS
10
151.458
20
-71.9616
11
151.276
21
-71.8862
0
LINE
8
BLACK
6
CONTINUOUS
10
151.276
20
-71.8862
11
151.113
21
-71.7768
0
LINE
8
BLACK
6
CONTINUOUS
10
151.113
20
-71.7768
11
150.973
21
-71.6375
0
LINE
8
BLACK
6
CONTINUOUS
10
150.973
20
-71.6375
11
150.864
21
-71.4737
0
LINE
8
BLACK
6
CONTINUOUS
10
150.864
20
-71.4737
11
150.788
21
-71.2917
0
LINE
8
BLACK
6
CONTINUOUS
10
150.788
20
-71.2917
11
150.75
21
-71.0985
0
LINE
8
BLACK
6
CONTINUOUS
10
150.75
20
-71.0985
11
150.75
21
-70.9015
0
LINE
8
BLACK
6
CONTINUOUS
10
150.75
20
-70.9015
11
150.788
21
-70.7083
0
LINE
8
BLACK
6
CONTINUOUS
10
150.788
20
-70.7083
11
150.864
21
-70.5263
0
LINE
8
BLACK
6
CONTINUOUS
10
150.864
20
-70.5263
11
150.973
21
-70.3625
0
LINE
8
BLACK
6
CONTINUOUS
10
150.973
20
-70.3625
11
151.113
21
-70.2232
0
LINE
8
BLACK
6
CONTINUOUS
10
151.113
20
-70.2232
11
151.276
21
-70.1138
0
LINE
8
BLACK
6
CONTINUOUS
10
151.276
20
-70.1138
11
151.458
21
-70.0384
0
LINE
8
BLACK
6
CONTINUOUS
10
151.458
20
-70.0384
11
151.652
21
-70
0
LINE
8
BLACK
6
CONTINUOUS
10
151.652
20
-70
11
151.848
21
-70
0
LINE
8
BLACK
6
CONTINUOUS
10
151.848
20
-70
11
152.042
21
-70.0384
0
LINE
8
BLACK
6
CONTINUOUS
10
158.542
20
-70.0384
11
158.724
21
-70.1138
0
LINE
8
BLACK
6
CONTINUOUS
10
158.724
20
-70.1138
11
158.887
21
-70.2232
0
LINE
8
BLACK
6
CONTINUOUS
10
158.887
20
-70.2232
11
159.027
21
-70.3625
0
LINE
8
BLACK
6
CONTINUOUS
10
159.027
20
-70.3625
11
159.136
21
-70.5263
0
LINE
8
BLACK
6
CONTINUOUS
10
159.136
20
-70.5263
11
159.212
21
-70.7083
0
LINE
8
BLACK
6
CONTINUOUS
10
159.212
20
-70.7083
11
159.25
21
-70.9015
0
LINE
8
BLACK
6
CONTINUOUS
10
159.25
20
-70.9015
11
159.25
21
-71.0985
0
LINE
8
BLACK
6
CONTINUOUS
10
159.25
20
-71.0985
11
159.212
21
-71.2917
0
LINE
8
BLACK
6
CONTINUOUS
10
159.212
20
-71.2917
11
159.136
21
-71.4737
0
LINE
8
BLACK
6
CONTINUOUS
10
159.136
20
-71.4737
11
159.027
21
-71.6375
0
LINE
8
BLACK
6
CONTINUOUS
10
159.027
20
-71.6375
11
158.887
21
-71.7768
0
LINE
8
BLACK
6
CONTINUOUS
10
158.887
20
-71.7768
11
158.724
21
-71.8862
0
LINE
8
BLACK
6
CONTINUOUS
10
158.724
20
-71.8862
11
158.542
21
-71.9616
0
LINE
8
BLACK
6
CONTINUOUS
10
158.542
20
-71.9616
11
158.348
21
-72
0
LINE
8
BLACK
6
CONTINUOUS
10
158.348
20
-72
11
158.152
21
-72
0
LINE
8
BLACK
6
CONTINUOUS
10
158.152
20
-72
11
157.958
21
-71.9616
0
LINE
8
BLACK
6
CONTINUOUS
10
157.958
20
-71.9616
11
157.776
21
-71.8862
0
LINE
8
BLACK
6
CONTINUOUS
10
157.776
20
-71.8862
11
157.613
21
-71.7768
0
LINE
8
BLACK
6
CONTINUOUS
10
157.613
20
-71.7768
11
157.473
21
-71.6375
0
LINE
8
BLACK
6
CONTINUOUS
10
157.473
20
-71.6375
11
157.364
21
-71.4737
0
LINE
8
BLACK
6
CONTINUOUS
10
157.364
20
-71.4737
11
157.288
21
-71.2917
0
LINE
8
BLACK
6
CONTINUOUS
10
157.288
20
-71.2917
11
157.25
21
-71.0985
0
LINE
8
BLACK
6
CONTINUOUS
10
157.25
20
-71.0985
11
157.25
21
-70.9015
0
LINE
8
BLACK
6
CONTINUOUS
10
157.25
20
-70.9015
11
157.288
21
-70.7083
0
LINE
8
BLACK
6
CONTINUOUS
10
157.288
20
-70.7083
11
157.364
21
-70.5263
0
LINE
8
BLACK
6
CONTINUOUS
10
157.364
20
-70.5263
11
157.473
21
-70.3625
0
LINE
8
BLACK
6
CONTINUOUS
10
157.473
20
-70.3625
11
157.613
21
-70.2232
0
LINE
8
BLACK
6
CONTINUOUS
10
157.613
20
-70.2232
11
157.776
21
-70.1138
0
LINE
8
BLACK
6
CONTINUOUS
10
157.776
20
-70.1138
11
157.958
21
-70.0384
0
LINE
8
BLACK
6
CONTINUOUS
10
157.958
20
-70.0384
11
158.152
21
-70
0
LINE
8
BLACK
6
CONTINUOUS
10
158.152
20
-70
11
158.348
21
-70
0
LINE
8
BLACK
6
CONTINUOUS
10
158.348
20
-70
11
158.542
21
-70.0384
0
LINE
8
BLACK
6
CONTINUOUS
10
133.542
20
-70.0384
11
133.724
21
-70.1138
0
LINE
8
BLACK
6
CONTINUOUS
10
133.724
20
-70.1138
11
133.887
21
-70.2232
0
LINE
8
BLACK
6
CONTINUOUS
10
133.887
20
-70.2232
11
134.027
21
-70.3625
0
LINE
8
BLACK
6
CONTINUOUS
10
134.027
20
-70.3625
11
134.136
21
-70.5263
0
LINE
8
BLACK
6
CONTINUOUS
10
134.136
20
-70.5263
11
134.212
21
-70.7083
0
LINE
8
BLACK
6
CONTINUOUS
10
134.212
20
-70.7083
11
134.25
21
-70.9015
0
LINE
8
BLACK
6
CONTINUOUS
10
134.25
20
-70.9015
11
134.25
21
-71.0985
0
LINE
8
BLACK
6
CONTINUOUS
10
134.25
20
-71.0985
11
134.212
21
-71.2917
0
LINE
8
BLACK
6
CONTINUOUS
10
134.212
20
-71.2917
11
134.136
21
-71.4737
0
LINE
8
BLACK
6
CONTINUOUS
10
134.136
20
-71.4737
11
134.027
21
-71.6375
0
LINE
8
BLACK
6
CONTINUOUS
10
134.027
20
-71.6375
11
133.887
21
-71.7768
0
LINE
8
BLACK
6
CONTINUOUS
10
133.887
20
-71.7768
11
133.724
21
-71.8862
0
LINE
8
BLACK
6
CONTINUOUS
10
133.724
20
-71.8862
11
133.542
21
-71.9616
0
LINE
8
BLACK
6
CONTINUOUS
10
133.542
20
-71.9616
11
133.348
21
-72
0
LINE
8
BLACK
6
CONTINUOUS
10
133.348
20
-72
11
133.152
21
-72
0
LINE
8
BLACK
6
CONTINUOUS
10
133.152
20
-72
11
132.958
21
-71.9616
0
LINE
8
BLACK
6
CONTINUOUS
10
132.958
20
-71.9616
11
132.776
21
-71.8862
0
LINE
8
BLACK
6
CONTINUOUS
10
132.776
20
-71.8862
11
132.613
21
-71.7768
0
LINE
8
BLACK
6
CONTINUOUS
10
132.613
20
-71.7768
11
132.473
21
-71.6375
0
LINE
8
BLACK
6
CONTINUOUS
10
132.473
20
-71.6375
11
132.364
21
-71.4737
0
LINE
8
BLACK
6
CONTINUOUS
10
132.364
20
-71.4737
11
132.288
21
-71.2917
0
LINE
8
BLACK
6
CONTINUOUS
10
132.288
20
-71.2917
11
132.25
21
-71.0985
0
LINE
8
BLACK
6
CONTINUOUS
10
132.25
20
-71.0985
11
132.25
21
-70.9015
0
LINE
8
BLACK
6
CONTINUOUS
10
132.25
20
-70.9015
11
132.288
21
-70.7083
0
LINE
8
BLACK
6
CONTINUOUS
10
132.288
20
-70.7083
11
132.364
21
-70.5263
0
LINE
8
BLACK
6
CONTINUOUS
10
132.364
20
-70.5263
11
132.473
21
-70.3625
0
LINE
8
BLACK
6
CONTINUOUS
10
132.473
20
-70.3625
11
132.613
21
-70.2232
0
LINE
8
BLACK
6
CONTINUOUS
10
132.613
20
-70.2232
11
132.776
21
-70.1138
0
LINE
8
BLACK
6
CONTINUOUS
10
132.776
20
-70.1138
11
132.958
21
-70.0384
0
LINE
8
BLACK
6
CONTINUOUS
10
132.958
20
-70.0384
11
133.152
21
-70
0
LINE
8
BLACK
6
CONTINUOUS
10
133.152
20
-70
11
133.348
21
-70
0
LINE
8
BLACK
6
CONTINUOUS
10
133.348
20
-70
11
133.542
21
-70.0384
0
LINE
8
BLACK
6
CONTINUOUS
10
127.042
20
-70.0384
11
127.224
21
-70.1138
0
LINE
8
BLACK
6
CONTINUOUS
10
127.224
20
-70.1138
11
127.387
21
-70.2232
0
LINE
8
BLACK
6
CONTINUOUS
10
127.387
20
-70.2232
11
127.527
21
-70.3625
0
LINE
8
BLACK
6
CONTINUOUS
10
127.527
20
-70.3625
11
127.636
21
-70.5263
0
LINE
8
BLACK
6
CONTINUOUS
10
127.636
20
-70.5263
11
127.712
21
-70.7083
0
LINE
8
BLACK
6
CONTINUOUS
10
127.712
20
-70.7083
11
127.75
21
-70.9015
0
LINE
8
BLACK
6
CONTINUOUS
10
127.75
20
-70.9015
11
127.75
21
-71.0985
0
LINE
8
BLACK
6
CONTINUOUS
10
127.75
20
-71.0985
11
127.712
21
-71.2917
0
LINE
8
BLACK
6
CONTINUOUS
10
127.712
20
-71.2917
11
127.636
21
-71.4737
0
LINE
8
BLACK
6
CONTINUOUS
10
127.636
20
-71.4737
11
127.527
21
-71.6375
0
LINE
8
BLACK
6
CONTINUOUS
10
127.527
20
-71.6375
11
127.387
21
-71.7768
0
LINE
8
BLACK
6
CONTINUOUS
10
127.387
20
-71.7768
11
127.224
21
-71.8862
0
LINE
8
BLACK
6
CONTINUOUS
10
127.224
20
-71.8862
11
127.042
21
-71.9616
0
LINE
8
BLACK
6
CONTINUOUS
10
127.042
20
-71.9616
11
126.848
21
-72
0
LINE
8
BLACK
6
CONTINUOUS
10
126.848
20
-72
11
126.652
21
-72
0
LINE
8
BLACK
6
CONTINUOUS
10
126.652
20
-72
11
126.458
21
-71.9616
0
LINE
8
BLACK
6
CONTINUOUS
10
126.458
20
-71.9616
11
126.276
21
-71.8862
0
LINE
8
BLACK
6
CONTINUOUS
10
126.276
20
-71.8862
11
126.113
21
-71.7768
0
LINE
8
BLACK
6
CONTINUOUS
10
126.113
20
-71.7768
11
125.973
21
-71.6375
0
LINE
8
BLACK
6
CONTINUOUS
10
125.973
20
-71.6375
11
125.864
21
-71.4737
0
LINE
8
BLACK
6
CONTINUOUS
10
125.864
20
-71.4737
11
125.788
21
-71.2917
0
LINE
8
BLACK
6
CONTINUOUS
10
125.788
20
-71.2917
11
125.75
21
-71.0985
0
LINE
8
BLACK
6
CONTINUOUS
10
125.75
20
-71.0985
11
125.75
21
-70.9015
0
LINE
8
BLACK
6
CONTINUOUS
10
125.75
20
-70.9015
11
125.788
21
-70.7083
0
LINE
8
BLACK
6
CONTINUOUS
10
125.788
20
-70.7083
11
125.864
21
-70.5263
0
LINE
8
BLACK
6
CONTINUOUS
10
125.864
20
-70.5263
11
125.973
21
-70.3625
0
LINE
8
BLACK
6
CONTINUOUS
10
125.973
20
-70.3625
11
126.113
21
-70.2232
0
LINE
8
BLACK
6
CONTINUOUS
10
126.113
20
-70.2232
11
126.276
21
-70.1138
0
LINE
8
BLACK
6
CONTINUOUS
10
126.276
20
-70.1138
11
126.458
21
-70.0384
0
LINE
8
BLACK
6
CONTINUOUS
10
126.458
20
-70.0384
11
126.652
21
-70
0
LINE
8
BLACK
6
CONTINUOUS
10
126.652
20
-70
11
126.848
21
-70
0
LINE
8
BLACK
6
CONTINUOUS
10
126.848
20
-70
11
127.042
21
-70.0384
0
LINE
8
BLACK
6
CONTINUOUS
10
147.475
20
-71.875
11
146.525
21
-71.875
0
LINE
8
BLACK
6
CONTINUOUS
10
146.525
20
-71.875
11
146.525
21
-70.575
0
LINE
8
BLACK
6
CONTINUOUS
10
146.525
20
-70.575
11
147.475
21
-70.575
0
LINE
8
BLACK
6
CONTINUOUS
10
147.475
20
-70.575
11
147.475
21
-71.875
0
LINE
8
BLACK
6
CONTINUOUS
10
147.698
20
-69.8885
11
146.302
21
-69.8885
0
LINE
8
BLACK
6
CONTINUOUS
10
146.302
20
-69.8885
11
146.302
21
-68.4915
0
LINE
8
BLACK
6
CONTINUOUS
10
146.302
20
-68.4915
11
147.698
21
-68.4915
0
LINE
8
BLACK
6
CONTINUOUS
10
147.698
20
-68.4915
11
147.698
21
-69.8885
0
LINE
8
BLACK
6
CONTINUOUS
10
158.542
20
-63.0384
11
158.724
21
-63.1138
0
LINE
8
BLACK
6
CONTINUOUS
10
158.724
20
-63.1138
11
158.887
21
-63.2232
0
LINE
8
BLACK
6
CONTINUOUS
10
158.887
20
-63.2232
11
159.027
21
-63.3625
0
LINE
8
BLACK
6
CONTINUOUS
10
159.027
20
-63.3625
11
159.136
21
-63.5263
0
LINE
8
BLACK
6
CONTINUOUS
10
159.136
20
-63.5263
11
159.212
21
-63.7083
0
LINE
8
BLACK
6
CONTINUOUS
10
159.212
20
-63.7083
11
159.25
21
-63.9015
0
LINE
8
BLACK
6
CONTINUOUS
10
159.25
20
-63.9015
11
159.25
21
-64.0985
0
LINE
8
BLACK
6
CONTINUOUS
10
159.25
20
-64.0985
11
159.212
21
-64.2917
0
LINE
8
BLACK
6
CONTINUOUS
10
159.212
20
-64.2917
11
159.136
21
-64.4737
0
LINE
8
BLACK
6
CONTINUOUS
10
159.136
20
-64.4737
11
159.027
21
-64.6375
0
LINE
8
BLACK
6
CONTINUOUS
10
159.027
20
-64.6375
11
158.887
21
-64.7768
0
LINE
8
BLACK
6
CONTINUOUS
10
158.887
20
-64.7768
11
158.724
21
-64.8862
0
LINE
8
BLACK
6
CONTINUOUS
10
158.724
20
-64.8862
11
158.542
21
-64.9616
0
LINE
8
BLACK
6
CONTINUOUS
10
158.542
20
-64.9616
11
158.348
21
-65
0
LINE
8
BLACK
6
CONTINUOUS
10
158.348
20
-65
11
158.152
21
-65
0
LINE
8
BLACK
6
CONTINUOUS
10
158.152
20
-65
11
157.958
21
-64.9616
0
LINE
8
BLACK
6
CONTINUOUS
10
157.958
20
-64.9616
11
157.776
21
-64.8862
0
LINE
8
BLACK
6
CONTINUOUS
10
157.776
20
-64.8862
11
157.613
21
-64.7768
0
LINE
8
BLACK
6
CONTINUOUS
10
157.613
20
-64.7768
11
157.473
21
-64.6375
0
LINE
8
BLACK
6
CONTINUOUS
10
157.473
20
-64.6375
11
157.364
21
-64.4737
0
LINE
8
BLACK
6
CONTINUOUS
10
157.364
20
-64.4737
11
157.288
21
-64.2917
0
LINE
8
BLACK
6
CONTINUOUS
10
157.288
20
-64.2917
11
157.25
21
-64.0985
0
LINE
8
BLACK
6
CONTINUOUS
10
157.25
20
-64.0985
11
157.25
21
-63.9015
0
LINE
8
BLACK
6
CONTINUOUS
10
157.25
20
-63.9015
11
157.288
21
-63.7083
0
LINE
8
BLACK
6
CONTINUOUS
10
157.288
20
-63.7083
11
157.364
21
-63.5263
0
LINE
8
BLACK
6
CONTINUOUS
10
157.364
20
-63.5263
11
157.473
21
-63.3625
0
LINE
8
BLACK
6
CONTINUOUS
10
157.473
20
-63.3625
11
157.613
21
-63.2232
0
LINE
8
BLACK
6
CONTINUOUS
10
157.613
20
-63.2232
11
157.776
21
-63.1138
0
LINE
8
BLACK
6
CONTINUOUS
10
157.776
20
-63.1138
11
157.958
21
-63.0384
0
LINE
8
BLACK
6
CONTINUOUS
10
157.958
20
-63.0384
11
158.152
21
-63
0
LINE
8
BLACK
6
CONTINUOUS
10
158.152
20
-63
11
158.348
21
-63
0
LINE
8
BLACK
6
CONTINUOUS
10
158.348
20
-63
11
158.542
21
-63.0384
0
LINE
8
BLACK
6
CONTINUOUS
10
152.042
20
-63.0384
11
152.224
21
-63.1138
0
LINE
8
BLACK
6
CONTINUOUS
10
152.224
20
-63.1138
11
152.387
21
-63.2232
0
LINE
8
BLACK
6
CONTINUOUS
10
152.387
20
-63.2232
11
152.527
21
-63.3625
0
LINE
8
BLACK
6
CONTINUOUS
10
152.527
20
-63.3625
11
152.636
21
-63.5263
0
LINE
8
BLACK
6
CONTINUOUS
10
152.636
20
-63.5263
11
152.712
21
-63.7083
0
LINE
8
BLACK
6
CONTINUOUS
10
152.712
20
-63.7083
11
152.75
21
-63.9015
0
LINE
8
BLACK
6
CONTINUOUS
10
152.75
20
-63.9015
11
152.75
21
-64.0985
0
LINE
8
BLACK
6
CONTINUOUS
10
152.75
20
-64.0985
11
152.712
21
-64.2917
0
LINE
8
BLACK
6
CONTINUOUS
10
152.712
20
-64.2917
11
152.636
21
-64.4737
0
LINE
8
BLACK
6
CONTINUOUS
10
152.636
20
-64.4737
11
152.527
21
-64.6375
0
LINE
8
BLACK
6
CONTINUOUS
10
152.527
20
-64.6375
11
152.387
21
-64.7768
0
LINE
8
BLACK
6
CONTINUOUS
10
152.387
20
-64.7768
11
152.224
21
-64.8862
0
LINE
8
BLACK
6
CONTINUOUS
10
152.224
20
-64.8862
11
152.042
21
-64.9616
0
LINE
8
BLACK
6
CONTINUOUS
10
152.042
20
-64.9616
11
151.848
21
-65
0
LINE
8
BLACK
6
CONTINUOUS
10
151.848
20
-65
11
151.652
21
-65
0
LINE
8
BLACK
6
CONTINUOUS
10
151.652
20
-65
11
151.458
21
-64.9616
0
LINE
8
BLACK
6
CONTINUOUS
10
151.458
20
-64.9616
11
151.276
21
-64.8862
0
LINE
8
BLACK
6
CONTINUOUS
10
151.276
20
-64.8862
11
151.113
21
-64.7768
0
LINE
8
BLACK
6
CONTINUOUS
10
151.113
20
-64.7768
11
150.973
21
-64.6375
0
LINE
8
BLACK
6
CONTINUOUS
10
150.973
20
-64.6375
11
150.864
21
-64.4737
0
LINE
8
BLACK
6
CONTINUOUS
10
150.864
20
-64.4737
11
150.788
21
-64.2917
0
LINE
8
BLACK
6
CONTINUOUS
10
150.788
20
-64.2917
11
150.75
21
-64.0985
0
LINE
8
BLACK
6
CONTINUOUS
10
150.75
20
-64.0985
11
150.75
21
-63.9015
0
LINE
8
BLACK
6
CONTINUOUS
10
150.75
20
-63.9015
11
150.788
21
-63.7083
0
LINE
8
BLACK
6
CONTINUOUS
10
150.788
20
-63.7083
11
150.864
21
-63.5263
0
LINE
8
BLACK
6
CONTINUOUS
10
150.864
20
-63.5263
11
150.973
21
-63.3625
0
LINE
8
BLACK
6
CONTINUOUS
10
150.973
20
-63.3625
11
151.113
21
-63.2232
0
LINE
8
BLACK
6
CONTINUOUS
10
151.113
20
-63.2232
11
151.276
21
-63.1138
0
LINE
8
BLACK
6
CONTINUOUS
10
151.276
20
-63.1138
11
151.458
21
-63.0384
0
LINE
8
BLACK
6
CONTINUOUS
10
151.458
20
-63.0384
11
151.652
21
-63
0
LINE
8
BLACK
6
CONTINUOUS
10
151.652
20
-63
11
151.848
21
-63
0
LINE
8
BLACK
6
CONTINUOUS
10
151.848
20
-63
11
152.042
21
-63.0384
0
LINE
8
BLACK
6
CONTINUOUS
10
127.042
20
-63.0384
11
127.224
21
-63.1138
0
LINE
8
BLACK
6
CONTINUOUS
10
127.224
20
-63.1138
11
127.387
21
-63.2232
0
LINE
8
BLACK
6
CONTINUOUS
10
127.387
20
-63.2232
11
127.527
21
-63.3625
0
LINE
8
BLACK
6
CONTINUOUS
10
127.527
20
-63.3625
11
127.636
21
-63.5263
0
LINE
8
BLACK
6
CONTINUOUS
10
127.636
20
-63.5263
11
127.712
21
-63.7083
0
LINE
8
BLACK
6
CONTINUOUS
10
127.712
20
-63.7083
11
127.75
21
-63.9015
0
LINE
8
BLACK
6
CONTINUOUS
10
127.75
20
-63.9015
11
127.75
21
-64.0985
0
LINE
8
BLACK
6
CONTINUOUS
10
127.75
20
-64.0985
11
127.712
21
-64.2917
0
LINE
8
BLACK
6
CONTINUOUS
10
127.712
20
-64.2917
11
127.636
21
-64.4737
0
LINE
8
BLACK
6
CONTINUOUS
10
127.636
20
-64.4737
11
127.527
21
-64.6375
0
LINE
8
BLACK
6
CONTINUOUS
10
127.527
20
-64.6375
11
127.387
21
-64.7768
0
LINE
8
BLACK
6
CONTINUOUS
10
127.387
20
-64.7768
11
127.224
21
-64.8862
0
LINE
8
BLACK
6
CONTINUOUS
10
127.224
20
-64.8862
11
127.042
21
-64.9616
0
LINE
8
BLACK
6
CONTINUOUS
10
127.042
20
-64.9616
11
126.848
21
-65
0
LINE
8
BLACK
6
CONTINUOUS
10
126.848
20
-65
11
126.652
21
-65
0
LINE
8
BLACK
6
CONTINUOUS
10
126.652
20
-65
11
126.458
21
-64.9616
0
LINE
8
BLACK
6
CONTINUOUS
10
126.458
20
-64.9616
11
126.276
21
-64.8862
0
LINE
8
BLACK
6
CONTINUOUS
10
126.276
20
-64.8862
11
126.113
21
-64.7768
0
LINE
8
BLACK
6
CONTINUOUS
10
126.113
20
-64.7768
11
125.973
21
-64.6375
0
LINE
8
BLACK
6
CONTINUOUS
10
125.973
20
-64.6375
11
125.864
21
-64.4737
0
LINE
8
BLACK
6
CONTINUOUS
10
125.864
20
-64.4737
11
125.788
21
-64.2917
0
LINE
8
BLACK
6
CONTINUOUS
10
125.788
20
-64.2917
11
125.75
21
-64.0985
0
LINE
8
BLACK
6
CONTINUOUS
10
125.75
20
-64.0985
11
125.75
21
-63.9015
0
LINE
8
BLACK
6
CONTINUOUS
10
125.75
20
-63.9015
11
125.788
21
-63.7083
0
LINE
8
BLACK
6
CONTINUOUS
10
125.788
20
-63.7083
11
125.864
21
-63.5263
0
LINE
8
BLACK
6
CONTINUOUS
10
125.864
20
-63.5263
11
125.973
21
-63.3625
0
LINE
8
BLACK
6
CONTINUOUS
10
125.973
20
-63.3625
11
126.113
21
-63.2232
0
LINE
8
BLACK
6
CONTINUOUS
10
126.113
20
-63.2232
11
126.276
21
-63.1138
0
LINE
8
BLACK
6
CONTINUOUS
10
126.276
20
-63.1138
11
126.458
21
-63.0384
0
LINE
8
BLACK
6
CONTINUOUS
10
126.458
20
-63.0384
11
126.652
21
-63
0
LINE
8
BLACK
6
CONTINUOUS
10
126.652
20
-63
11
126.848
21
-63
0
LINE
8
BLACK
6
CONTINUOUS
10
126.848
20
-63
11
127.042
21
-63.0384
0
LINE
8
BLACK
6
CONTINUOUS
10
133.542
20
-63.0384
11
133.724
21
-63.1138
0
LINE
8
BLACK
6
CONTINUOUS
10
133.724
20
-63.1138
11
133.887
21
-63.2232
0
LINE
8
BLACK
6
CONTINUOUS
10
133.887
20
-63.2232
11
134.027
21
-63.3625
0
LINE
8
BLACK
6
CONTINUOUS
10
134.027
20
-63.3625
11
134.136
21
-63.5263
0
LINE
8
BLACK
6
CONTINUOUS
10
134.136
20
-63.5263
11
134.212
21
-63.7083
0
LINE
8
BLACK
6
CONTINUOUS
10
134.212
20
-63.7083
11
134.25
21
-63.9015
0
LINE
8
BLACK
6
CONTINUOUS
10
134.25
20
-63.9015
11
134.25
21
-64.0985
0
LINE
8
BLACK
6
CONTINUOUS
10
134.25
20
-64.0985
11
134.212
21
-64.2917
0
LINE
8
BLACK
6
CONTINUOUS
10
134.212
20
-64.2917
11
134.136
21
-64.4737
0
LINE
8
BLACK
6
CONTINUOUS
10
134.136
20
-64.4737
11
134.027
21
-64.6375
0
LINE
8
BLACK
6
CONTINUOUS
10
134.027
20
-64.6375
11
133.887
21
-64.7768
0
LINE
8
BLACK
6
CONTINUOUS
10
133.887
20
-64.7768
11
133.724
21
-64.8862
0
LINE
8
BLACK
6
CONTINUOUS
10
133.724
20
-64.8862
11
133.542
21
-64.9616
0
LINE
8
BLACK
6
CONTINUOUS
10
133.542
20
-64.9616
11
133.348
21
-65
0
LINE
8
BLACK
6
CONTINUOUS
10
133.348
20
-65
11
133.152
21
-65
0
LINE
8
BLACK
6
CONTINUOUS
10
133.152
20
-65
11
132.958
21
-64.9616
0
LINE
8
BLACK
6
CONTINUOUS
10
132.958
20
-64.9616
11
132.776
21
-64.8862
0
LINE
8
BLACK
6
CONTINUOUS
10
132.776
20
-64.8862
11
132.613
21
-64.7768
0
LINE
8
BLACK
6
CONTINUOUS
10
132.613
20
-64.7768
11
132.473
21
-64.6375
0
LINE
8
BLACK
6
CONTINUOUS
10
132.473
20
-64.6375
11
132.364
21
-64.4737
0
LINE
8
BLACK
6
CONTINUOUS
10
132.364
20
-64.4737
11
132.288
21
-64.2917
0
LINE
8
BLACK
6
CONTINUOUS
10
132.288
20
-64.2917
11
132.25
21
-64.0985
0
LINE
8
BLACK
6
CONTINUOUS
10
132.25
20
-64.0985
11
132.25
21
-63.9015
0
LINE
8
BLACK
6
CONTINUOUS
10
132.25
20
-63.9015
11
132.288
21
-63.7083
0
LINE
8
BLACK
6
CONTINUOUS
10
132.288
20
-63.7083
11
132.364
21
-63.5263
0
LINE
8
BLACK
6
CONTINUOUS
10
132.364
20
-63.5263
11
132.473
21
-63.3625
0
LINE
8
BLACK
6
CONTINUOUS
10
132.473
20
-63.3625
11
132.613
21
-63.2232
0
LINE
8
BLACK
6
CONTINUOUS
10
132.613
20
-63.2232
11
132.776
21
-63.1138
0
LINE
8
BLACK
6
CONTINUOUS
10
132.776
20
-63.1138
11
132.958
21
-63.0384
0
LINE
8
BLACK
6
CONTINUOUS
10
132.958
20
-63.0384
11
133.152
21
-63
0
LINE
8
BLACK
6
CONTINUOUS
10
133.152
20
-63
11
133.348
21
-63
0
LINE
8
BLACK
6
CONTINUOUS
10
133.348
20
-63
11
133.542
21
-63.0384
0
LINE
8
BLACK
6
CONTINUOUS
10
133.542
20
-56.0384
11
133.724
21
-56.1138
0
LINE
8
BLACK
6
CONTINUOUS
10
133.724
20
-56.1138
11
133.887
21
-56.2232
0
LINE
8
BLACK
6
CONTINUOUS
10
133.887
20
-56.2232
11
134.027
21
-56.3625
0
LINE
8
BLACK
6
CONTINUOUS
10
134.027
20
-56.3625
11
134.136
21
-56.5263
0
LINE
8
BLACK
6
CONTINUOUS
10
134.136
20
-56.5263
11
134.212
21
-56.7083
0
LINE
8
BLACK
6
CONTINUOUS
10
134.212
20
-56.7083
11
134.25
21
-56.9015
0
LINE
8
BLACK
6
CONTINUOUS
10
134.25
20
-56.9015
11
134.25
21
-57.0985
0
LINE
8
BLACK
6
CONTINUOUS
10
134.25
20
-57.0985
11
134.212
21
-57.2917
0
LINE
8
BLACK
6
CONTINUOUS
10
134.212
20
-57.2917
11
134.136
21
-57.4737
0
LINE
8
BLACK
6
CONTINUOUS
10
134.136
20
-57.4737
11
134.027
21
-57.6375
0
LINE
8
BLACK
6
CONTINUOUS
10
134.027
20
-57.6375
11
133.887
21
-57.7768
0
LINE
8
BLACK
6
CONTINUOUS
10
133.887
20
-57.7768
11
133.724
21
-57.8862
0
LINE
8
BLACK
6
CONTINUOUS
10
133.724
20
-57.8862
11
133.542
21
-57.9616
0
LINE
8
BLACK
6
CONTINUOUS
10
133.542
20
-57.9616
11
133.348
21
-58
0
LINE
8
BLACK
6
CONTINUOUS
10
133.348
20
-58
11
133.152
21
-58
0
LINE
8
BLACK
6
CONTINUOUS
10
133.152
20
-58
11
132.958
21
-57.9616
0
LINE
8
BLACK
6
CONTINUOUS
10
132.958
20
-57.9616
11
132.776
21
-57.8862
0
LINE
8
BLACK
6
CONTINUOUS
10
132.776
20
-57.8862
11
132.613
21
-57.7768
0
LINE
8
BLACK
6
CONTINUOUS
10
132.613
20
-57.7768
11
132.473
21
-57.6375
0
LINE
8
BLACK
6
CONTINUOUS
10
132.473
20
-57.6375
11
132.364
21
-57.4737
0
LINE
8
BLACK
6
CONTINUOUS
10
132.364
20
-57.4737
11
132.288
21
-57.2917
0
LINE
8
BLACK
6
CONTINUOUS
10
132.288
20
-57.2917
11
132.25
21
-57.0985
0
LINE
8
BLACK
6
CONTINUOUS
10
132.25
20
-57.0985
11
132.25
21
-56.9015
0
LINE
8
BLACK
6
CONTINUOUS
10
132.25
20
-56.9015
11
132.288
21
-56.7083
0
LINE
8
BLACK
6
CONTINUOUS
10
132.288
20
-56.7083
11
132.364
21
-56.5263
0
LINE
8
BLACK
6
CONTINUOUS
10
132.364
20
-56.5263
11
132.473
21
-56.3625
0
LINE
8
BLACK
6
CONTINUOUS
10
132.473
20
-56.3625
11
132.613
21
-56.2232
0
LINE
8
BLACK
6
CONTINUOUS
10
132.613
20
-56.2232
11
132.776
21
-56.1138
0
LINE
8
BLACK
6
CONTINUOUS
10
132.776
20
-56.1138
11
132.958
21
-56.0384
0
LINE
8
BLACK
6
CONTINUOUS
10
132.958
20
-56.0384
11
133.152
21
-56
0
LINE
8
BLACK
6
CONTINUOUS
10
133.152
20
-56
11
133.348
21
-56
0
LINE
8
BLACK
6
CONTINUOUS
10
133.348
20
-56
11
133.542
21
-56.0384
0
LINE
8
BLACK
6
CONTINUOUS
10
158.542
20
-56.0384
11
158.724
21
-56.1138
0
LINE
8
BLACK
6
CONTINUOUS
10
158.724
20
-56.1138
11
158.887
21
-56.2232
0
LINE
8
BLACK
6
CONTINUOUS
10
158.887
20
-56.2232
11
159.027
21
-56.3625
0
LINE
8
BLACK
6
CONTINUOUS
10
159.027
20
-56.3625
11
159.136
21
-56.5263
0
LINE
8
BLACK
6
CONTINUOUS
10
159.136
20
-56.5263
11
159.212
21
-56.7083
0
LINE
8
BLACK
6
CONTINUOUS
10
159.212
20
-56.7083
11
159.25
21
-56.9015
0
LINE
8
BLACK
6
CONTINUOUS
10
159.25
20
-56.9015
11
159.25
21
-57.0985
0
LINE
8
BLACK
6
CONTINUOUS
10
159.25
20
-57.0985
11
159.212
21
-57.2917
0
LINE
8
BLACK
6
CONTINUOUS
10
159.212
20
-57.2917
11
159.136
21
-57.4737
0
LINE
8
BLACK
6
CONTINUOUS
10
159.136
20
-57.4737
11
159.027
21
-57.6375
0
LINE
8
BLACK
6
CONTINUOUS
10
159.027
20
-57.6375
11
158.887
21
-57.7768
0
LINE
8
BLACK
6
CONTINUOUS
10
158.887
20
-57.7768
11
158.724
21
-57.8862
0
LINE
8
BLACK
6
CONTINUOUS
10
158.724
20
-57.8862
11
158.542
21
-57.9616
0
LINE
8
BLACK
6
CONTINUOUS
10
158.542
20
-57.9616
11
158.348
21
-58
0
LINE
8
BLACK
6
CONTINUOUS
10
158.348
20
-58
11
158.152
21
-58
0
LINE
8
BLACK
6
CONTINUOUS
10
158.152
20
-58
11
157.958
21
-57.9616
0
LINE
8
BLACK
6
CONTINUOUS
10
157.958
20
-57.9616
11
157.776
21
-57.8862
0
LINE
8
BLACK
6
CONTINUOUS
10
157.776
20
-57.8862
11
157.613
21
-57.7768
0
LINE
8
BLACK
6
CONTINUOUS
10
157.613
20
-57.7768
11
157.473
21
-57.6375
0
LINE
8
BLACK
6
CONTINUOUS
10
157.473
20
-57.6375
11
157.364
21
-57.4737
0
LINE
8
BLACK
6
CONTINUOUS
10
157.364
20
-57.4737
11
157.288
21
-57.2917
0
LINE
8
BLACK
6
CONTINUOUS
10
157.288
20
-57.2917
11
157.25
21
-57.0985
0
LINE
8
BLACK
6
CONTINUOUS
10
157.25
20
-57.0985
11
157.25
21
-56.9015
0
LINE
8
BLACK
6
CONTINUOUS
10
157.25
20
-56.9015
11
157.288
21
-56.7083
0
LINE
8
BLACK
6
CONTINUOUS
10
157.288
20
-56.7083
11
157.364
21
-56.5263
0
LINE
8
BLACK
6
CONTINUOUS
10
157.364
20
-56.5263
11
157.473
21
-56.3625
0
LINE
8
BLACK
6
CONTINUOUS
10
157.473
20
-56.3625
11
157.613
21
-56.2232
0
LINE
8
BLACK
6
CONTINUOUS
10
157.613
20
-56.2232
11
157.776
21
-56.1138
0
LINE
8
BLACK
6
CONTINUOUS
10
157.776
20
-56.1138
11
157.958
21
-56.0384
0
LINE
8
BLACK
6
CONTINUOUS
10
157.958
20
-56.0384
11
158.152
21
-56
0
LINE
8
BLACK
6
CONTINUOUS
10
158.152
20
-56
11
158.348
21
-56
0
LINE
8
BLACK
6
CONTINUOUS
10
158.348
20
-56
11
158.542
21
-56.0384
0
LINE
8
BLACK
6
CONTINUOUS
10
152.042
20
-56.0384
11
152.224
21
-56.1138
0
LINE
8
BLACK
6
CONTINUOUS
10
152.224
20
-56.1138
11
152.387
21
-56.2232
0
LINE
8
BLACK
6
CONTINUOUS
10
152.387
20
-56.2232
11
152.527
21
-56.3625
0
LINE
8
BLACK
6
CONTINUOUS
10
152.527
20
-56.3625
11
152.636
21
-56.5263
0
LINE
8
BLACK
6
CONTINUOUS
10
152.636
20
-56.5263
11
152.712
21
-56.7083
0
LINE
8
BLACK
6
CONTINUOUS
10
152.712
20
-56.7083
11
152.75
21
-56.9015
0
LINE
8
BLACK
6
CONTINUOUS
10
152.75
20
-56.9015
11
152.75
21
-57.0985
0
LINE
8
BLACK
6
CONTINUOUS
10
152.75
20
-57.0985
11
152.712
21
-57.2917
0
LINE
8
BLACK
6
CONTINUOUS
10
152.712
20
-57.2917
11
152.636
21
-57.4737
0
LINE
8
BLACK
6
CONTINUOUS
10
152.636
20
-57.4737
11
152.527
21
-57.6375
0
LINE
8
BLACK
6
CONTINUOUS
10
152.527
20
-57.6375
11
152.387
21
-57.7768
0
LINE
8
BLACK
6
CONTINUOUS
10
152.387
20
-57.7768
11
152.224
21
-57.8862
0
LINE
8
BLACK
6
CONTINUOUS
10
152.224
20
-57.8862
11
152.042
21
-57.9616
0
LINE
8
BLACK
6
CONTINUOUS
10
152.042
20
-57.9616
11
151.848
21
-58
0
LINE
8
BLACK
6
CONTINUOUS
10
151.848
20
-58
11
151.652
21
-58
0
LINE
8
BLACK
6
CONTINUOUS
10
151.652
20
-58
11
151.458
21
-57.9616
0
LINE
8
BLACK
6
CONTINUOUS
10
151.458
20
-57.9616
11
151.276
21
-57.8862
0
LINE
8
BLACK
6
CONTINUOUS
10
151.276
20
-57.8862
11
151.113
21
-57.7768
0
LINE
8
BLACK
6
CONTINUOUS
10
151.113
20
-57.7768
11
150.973
21
-57.6375
0
LINE
8
BLACK
6
CONTINUOUS
10
150.973
20
-57.6375
11
150.864
21
-57.4737
0
LINE
8
BLACK
6
CONTINUOUS
10
150.864
20
-57.4737
11
150.788
21
-57.2917
0
LINE
8
BLACK
6
CONTINUOUS
10
150.788
20
-57.2917
11
150.75
21
-57.0985
0
LINE
8
BLACK
6
CONTINUOUS
10
150.75
20
-57.0985
11
150.75
21
-56.9015
0
LINE
8
BLACK
6
CONTINUOUS
10
150.75
20
-56.9015
11
150.788
21
-56.7083
0
LINE
8
BLACK
6
CONTINUOUS
10
150.788
20
-56.7083
11
150.864
21
-56.5263
0
LINE
8
BLACK
6
CONTINUOUS
10
150.864
20
-56.5263
11
150.973
21
-56.3625
0
LINE
8
BLACK
6
CONTINUOUS
10
150.973
20
-56.3625
11
151.113
21
-56.2232
0
LINE
8
BLACK
6
CONTINUOUS
10
151.113
20
-56.2232
11
151.276
21
-56.1138
0
LINE
8
BLACK
6
CONTINUOUS
10
151.276
20
-56.1138
11
151.458
21
-56.0384
0
LINE
8
BLACK
6
CONTINUOUS
10
151.458
20
-56.0384
11
151.652
21
-56
0
LINE
8
BLACK
6
CONTINUOUS
10
151.652
20
-56
11
151.848
21
-56
0
LINE
8
BLACK
6
CONTINUOUS
10
151.848
20
-56
11
152.042
21
-56.0384
0
LINE
8
BLACK
6
CONTINUOUS
10
127.042
20
-56.0384
11
127.224
21
-56.1138
0
LINE
8
BLACK
6
CONTINUOUS
10
127.224
20
-56.1138
11
127.387
21
-56.2232
0
LINE
8
BLACK
6
CONTINUOUS
10
127.387
20
-56.2232
11
127.527
21
-56.3625
0
LINE
8
BLACK
6
CONTINUOUS
10
127.527
20
-56.3625
11
127.636
21
-56.5263
0
LINE
8
BLACK
6
CONTINUOUS
10
127.636
20
-56.5263
11
127.712
21
-56.7083
0
LINE
8
BLACK
6
CONTINUOUS
10
127.712
20
-56.7083
11
127.75
21
-56.9015
0
LINE
8
BLACK
6
CONTINUOUS
10
127.75
20
-56.9015
11
127.75
21
-57.0985
0
LINE
8
BLACK
6
CONTINUOUS
10
127.75
20
-57.0985
11
127.712
21
-57.2917
0
LINE
8
BLACK
6
CONTINUOUS
10
127.712
20
-57.2917
11
127.636
21
-57.4737
0
LINE
8
BLACK
6
CONTINUOUS
10
127.636
20
-57.4737
11
127.527
21
-57.6375
0
LINE
8
BLACK
6
CONTINUOUS
10
127.527
20
-57.6375
11
127.387
21
-57.7768
0
LINE
8
BLACK
6
CONTINUOUS
10
127.387
20
-57.7768
11
127.224
21
-57.8862
0
LINE
8
BLACK
6
CONTINUOUS
10
127.224
20
-57.8862
11
127.042
21
-57.9616
0
LINE
8
BLACK
6
CONTINUOUS
10
127.042
20
-57.9616
11
126.848
21
-58
0
LINE
8
BLACK
6
CONTINUOUS
10
126.848
20
-58
11
126.652
21
-58
0
LINE
8
BLACK
6
CONTINUOUS
10
126.652
20
-58
11
126.458
21
-57.9616
0
LINE
8
BLACK
6
CONTINUOUS
10
126.458
20
-57.9616
11
126.276
21
-57.8862
0
LINE
8
BLACK
6
CONTINUOUS
10
126.276
20
-57.8862
11
126.113
21
-57.7768
0
LINE
8
BLACK
6
CONTINUOUS
10
126.113
20
-57.7768
11
125.973
21
-57.6375
0
LINE
8
BLACK
6
CONTINUOUS
10
125.973
20
-57.6375
11
125.864
21
-57.4737
0
LINE
8
BLACK
6
CONTINUOUS
10
125.864
20
-57.4737
11
125.788
21
-57.2917
0
LINE
8
BLACK
6
CONTINUOUS
10
125.788
20
-57.2917
11
125.75
21
-57.0985
0
LINE
8
BLACK
6
CONTINUOUS
10
125.75
20
-57.0985
11
125.75
21
-56.9015
0
LINE
8
BLACK
6
CONTINUOUS
10
125.75
20
-56.9015
11
125.788
21
-56.7083
0
LINE
8
BLACK
6
CONTINUOUS
10
125.788
20
-56.7083
11
125.864
21
-56.5263
0
LINE
8
BLACK
6
CONTINUOUS
10
125.864
20
-56.5263
11
125.973
21
-56.3625
0
LINE
8
BLACK
6
CONTINUOUS
10
125.973
20
-56.3625
11
126.113
21
-56.2232
0
LINE
8
BLACK
6
CONTINUOUS
10
126.113
20
-56.2232
11
126.276
21
-56.1138
0
LINE
8
BLACK
6
CONTINUOUS
10
126.276
20
-56.1138
11
126.458
21
-56.0384
0
LINE
8
BLACK
6
CONTINUOUS
10
126.458
20
-56.0384
11
126.652
21
-56
0
LINE
8
BLACK
6
CONTINUOUS
10
126.652
20
-56
11
126.848
21
-56
0
LINE
8
BLACK
6
CONTINUOUS
10
126.848
20
-56
11
127.042
21
-56.0384
0
LINE
8
BLACK
6
CONTINUOUS
10
123.506
20
-49.5317
11
123.822
21
-49.6625
0
LINE
8
BLACK
6
CONTINUOUS
10
123.822
20
-49.6625
11
124.106
21
-49.8523
0
LINE
8
BLACK
6
CONTINUOUS
10
124.106
20
-49.8523
11
124.348
21
-50.094
0
LINE
8
BLACK
6
CONTINUOUS
10
124.348
20
-50.094
11
124.538
21
-50.3782
0
LINE
8
BLACK
6
CONTINUOUS
10
124.538
20
-50.3782
11
124.668
21
-50.6939
0
LINE
8
BLACK
6
CONTINUOUS
10
124.668
20
-50.6939
11
124.735
21
-51.0291
0
LINE
8
BLACK
6
CONTINUOUS
10
124.735
20
-51.0291
11
124.735
21
-51.3709
0
LINE
8
BLACK
6
CONTINUOUS
10
124.735
20
-51.3709
11
124.668
21
-51.7061
0
LINE
8
BLACK
6
CONTINUOUS
10
124.668
20
-51.7061
11
124.538
21
-52.0218
0
LINE
8
BLACK
6
CONTINUOUS
10
124.538
20
-52.0218
11
124.348
21
-52.306
0
LINE
8
BLACK
6
CONTINUOUS
10
124.348
20
-52.306
11
124.106
21
-52.5477
0
LINE
8
BLACK
6
CONTINUOUS
10
124.106
20
-52.5477
11
123.822
21
-52.7375
0
LINE
8
BLACK
6
CONTINUOUS
10
123.822
20
-52.7375
11
123.506
21
-52.8683
0
LINE
8
BLACK
6
CONTINUOUS
10
123.506
20
-52.8683
11
123.171
21
-52.935
0
LINE
8
BLACK
6
CONTINUOUS
10
123.171
20
-52.935
11
122.829
21
-52.935
0
LINE
8
BLACK
6
CONTINUOUS
10
122.829
20
-52.935
11
122.494
21
-52.8683
0
LINE
8
BLACK
6
CONTINUOUS
10
122.494
20
-52.8683
11
122.178
21
-52.7375
0
LINE
8
BLACK
6
CONTINUOUS
10
122.178
20
-52.7375
11
121.894
21
-52.5477
0
LINE
8
BLACK
6
CONTINUOUS
10
121.894
20
-52.5477
11
121.652
21
-52.306
0
LINE
8
BLACK
6
CONTINUOUS
10
121.652
20
-52.306
11
121.462
21
-52.0218
0
LINE
8
BLACK
6
CONTINUOUS
10
121.462
20
-52.0218
11
121.332
21
-51.7061
0
LINE
8
BLACK
6
CONTINUOUS
10
121.332
20
-51.7061
11
121.265
21
-51.3709
0
LINE
8
BLACK
6
CONTINUOUS
10
121.265
20
-51.3709
11
121.265
21
-51.0291
0
LINE
8
BLACK
6
CONTINUOUS
10
121.265
20
-51.0291
11
121.332
21
-50.6939
0
LINE
8
BLACK
6
CONTINUOUS
10
121.332
20
-50.6939
11
121.462
21
-50.3782
0
LINE
8
BLACK
6
CONTINUOUS
10
121.462
20
-50.3782
11
121.652
21
-50.094
0
LINE
8
BLACK
6
CONTINUOUS
10
121.652
20
-50.094
11
121.894
21
-49.8523
0
LINE
8
BLACK
6
CONTINUOUS
10
121.894
20
-49.8523
11
122.178
21
-49.6625
0
LINE
8
BLACK
6
CONTINUOUS
10
122.178
20
-49.6625
11
122.494
21
-49.5317
0
LINE
8
BLACK
6
CONTINUOUS
10
122.494
20
-49.5317
11
122.829
21
-49.465
0
LINE
8
BLACK
6
CONTINUOUS
10
122.829
20
-49.465
11
123.171
21
-49.465
0
LINE
8
BLACK
6
CONTINUOUS
10
123.171
20
-49.465
11
123.506
21
-49.5317
0
LINE
8
BLACK
6
CONTINUOUS
10
130.624
20
-43.3787
11
130.763
21
-43.4361
0
LINE
8
BLACK
6
CONTINUOUS
10
130.763
20
-43.4361
11
130.888
21
-43.5195
0
LINE
8
BLACK
6
CONTINUOUS
10
130.888
20
-43.5195
11
130.994
21
-43.6257
0
LINE
8
BLACK
6
CONTINUOUS
10
130.994
20
-43.6257
11
131.077
21
-43.7505
0
LINE
8
BLACK
6
CONTINUOUS
10
131.077
20
-43.7505
11
131.135
21
-43.8891
0
LINE
8
BLACK
6
CONTINUOUS
10
131.135
20
-43.8891
11
131.164
21
-44.0363
0
LINE
8
BLACK
6
CONTINUOUS
10
131.164
20
-44.0363
11
131.164
21
-44.1865
0
LINE
8
BLACK
6
CONTINUOUS
10
131.164
20
-44.1865
11
131.135
21
-44.3337
0
LINE
8
BLACK
6
CONTINUOUS
10
131.135
20
-44.3337
11
131.077
21
-44.4723
0
LINE
8
BLACK
6
CONTINUOUS
10
131.077
20
-44.4723
11
130.994
21
-44.5971
0
LINE
8
BLACK
6
CONTINUOUS
10
130.994
20
-44.5971
11
130.888
21
-44.7033
0
LINE
8
BLACK
6
CONTINUOUS
10
130.888
20
-44.7033
11
130.763
21
-44.7867
0
LINE
8
BLACK
6
CONTINUOUS
10
130.763
20
-44.7867
11
130.624
21
-44.8441
0
LINE
8
BLACK
6
CONTINUOUS
10
130.624
20
-44.8441
11
130.477
21
-44.8734
0
LINE
8
BLACK
6
CONTINUOUS
10
130.477
20
-44.8734
11
130.327
21
-44.8734
0
LINE
8
BLACK
6
CONTINUOUS
10
130.327
20
-44.8734
11
130.18
21
-44.8441
0
LINE
8
BLACK
6
CONTINUOUS
10
130.18
20
-44.8441
11
130.041
21
-44.7867
0
LINE
8
BLACK
6
CONTINUOUS
10
130.041
20
-44.7867
11
129.916
21
-44.7033
0
LINE
8
BLACK
6
CONTINUOUS
10
129.916
20
-44.7033
11
129.81
21
-44.5971
0
LINE
8
BLACK
6
CONTINUOUS
10
129.81
20
-44.5971
11
129.727
21
-44.4723
0
LINE
8
BLACK
6
CONTINUOUS
10
129.727
20
-44.4723
11
129.669
21
-44.3337
0
LINE
8
BLACK
6
CONTINUOUS
10
129.669
20
-44.3337
11
129.64
21
-44.1865
0
LINE
8
BLACK
6
CONTINUOUS
10
129.64
20
-44.1865
11
129.64
21
-44.0363
0
LINE
8
BLACK
6
CONTINUOUS
10
129.64
20
-44.0363
11
129.669
21
-43.8891
0
LINE
8
BLACK
6
CONTINUOUS
10
129.669
20
-43.8891
11
129.727
21
-43.7505
0
LINE
8
BLACK
6
CONTINUOUS
10
129.727
20
-43.7505
11
129.81
21
-43.6257
0
LINE
8
BLACK
6
CONTINUOUS
10
129.81
20
-43.6257
11
129.916
21
-43.5195
0
LINE
8
BLACK
6
CONTINUOUS
10
129.916
20
-43.5195
11
130.041
21
-43.4361
0
LINE
8
BLACK
6
CONTINUOUS
10
130.041
20
-43.4361
11
130.18
21
-43.3787
0
LINE
8
BLACK
6
CONTINUOUS
10
130.18
20
-43.3787
11
130.327
21
-43.3494
0
LINE
8
BLACK
6
CONTINUOUS
10
130.327
20
-43.3494
11
130.477
21
-43.3494
0
LINE
8
BLACK
6
CONTINUOUS
10
130.477
20
-43.3494
11
130.624
21
-43.3787
0
LINE
8
BLACK
6
CONTINUOUS
10
128.084
20
-43.3787
11
128.223
21
-43.4361
0
LINE
8
BLACK
6
CONTINUOUS
10
128.223
20
-43.4361
11
128.348
21
-43.5195
0
LINE
8
BLACK
6
CONTINUOUS
10
128.348
20
-43.5195
11
128.454
21
-43.6257
0
LINE
8
BLACK
6
CONTINUOUS
10
128.454
20
-43.6257
11
128.537
21
-43.7505
0
LINE
8
BLACK
6
CONTINUOUS
10
128.537
20
-43.7505
11
128.595
21
-43.8891
0
LINE
8
BLACK
6
CONTINUOUS
10
128.595
20
-43.8891
11
128.624
21
-44.0363
0
LINE
8
BLACK
6
CONTINUOUS
10
128.624
20
-44.0363
11
128.624
21
-44.1865
0
LINE
8
BLACK
6
CONTINUOUS
10
128.624
20
-44.1865
11
128.595
21
-44.3337
0
LINE
8
BLACK
6
CONTINUOUS
10
128.595
20
-44.3337
11
128.537
21
-44.4723
0
LINE
8
BLACK
6
CONTINUOUS
10
128.537
20
-44.4723
11
128.454
21
-44.5971
0
LINE
8
BLACK
6
CONTINUOUS
10
128.454
20
-44.5971
11
128.348
21
-44.7033
0
LINE
8
BLACK
6
CONTINUOUS
10
128.348
20
-44.7033
11
128.223
21
-44.7867
0
LINE
8
BLACK
6
CONTINUOUS
10
128.223
20
-44.7867
11
128.084
21
-44.8441
0
LINE
8
BLACK
6
CONTINUOUS
10
128.084
20
-44.8441
11
127.937
21
-44.8734
0
LINE
8
BLACK
6
CONTINUOUS
10
127.937
20
-44.8734
11
127.787
21
-44.8734
0
LINE
8
BLACK
6
CONTINUOUS
10
127.787
20
-44.8734
11
127.64
21
-44.8441
0
LINE
8
BLACK
6
CONTINUOUS
10
127.64
20
-44.8441
11
127.501
21
-44.7867
0
LINE
8
BLACK
6
CONTINUOUS
10
127.501
20
-44.7867
11
127.376
21
-44.7033
0
LINE
8
BLACK
6
CONTINUOUS
10
127.376
20
-44.7033
11
127.27
21
-44.5971
0
LINE
8
BLACK
6
CONTINUOUS
10
127.27
20
-44.5971
11
127.187
21
-44.4723
0
LINE
8
BLACK
6
CONTINUOUS
10
127.187
20
-44.4723
11
127.129
21
-44.3337
0
LINE
8
BLACK
6
CONTINUOUS
10
127.129
20
-44.3337
11
127.1
21
-44.1865
0
LINE
8
BLACK
6
CONTINUOUS
10
127.1
20
-44.1865
11
127.1
21
-44.0363
0
LINE
8
BLACK
6
CONTINUOUS
10
127.1
20
-44.0363
11
127.129
21
-43.8891
0
LINE
8
BLACK
6
CONTINUOUS
10
127.129
20
-43.8891
11
127.187
21
-43.7505
0
LINE
8
BLACK
6
CONTINUOUS
10
127.187
20
-43.7505
11
127.27
21
-43.6257
0
LINE
8
BLACK
6
CONTINUOUS
10
127.27
20
-43.6257
11
127.376
21
-43.5195
0
LINE
8
BLACK
6
CONTINUOUS
10
127.376
20
-43.5195
11
127.501
21
-43.4361
0
LINE
8
BLACK
6
CONTINUOUS
10
127.501
20
-43.4361
11
127.64
21
-43.3787
0
LINE
8
BLACK
6
CONTINUOUS
10
127.64
20
-43.3787
11
127.787
21
-43.3494
0
LINE
8
BLACK
6
CONTINUOUS
10
127.787
20
-43.3494
11
127.937
21
-43.3494
0
LINE
8
BLACK
6
CONTINUOUS
10
127.937
20
-43.3494
11
128.084
21
-43.3787
0
LINE
8
BLACK
6
CONTINUOUS
10
125.544
20
-43.3787
11
125.683
21
-43.4361
0
LINE
8
BLACK
6
CONTINUOUS
10
125.683
20
-43.4361
11
125.808
21
-43.5195
0
LINE
8
BLACK
6
CONTINUOUS
10
125.808
20
-43.5195
11
125.914
21
-43.6257
0
LINE
8
BLACK
6
CONTINUOUS
10
125.914
20
-43.6257
11
125.997
21
-43.7505
0
LINE
8
BLACK
6
CONTINUOUS
10
125.997
20
-43.7505
11
126.055
21
-43.8891
0
LINE
8
BLACK
6
CONTINUOUS
10
126.055
20
-43.8891
11
126.084
21
-44.0363
0
LINE
8
BLACK
6
CONTINUOUS
10
126.084
20
-44.0363
11
126.084
21
-44.1865
0
LINE
8
BLACK
6
CONTINUOUS
10
126.084
20
-44.1865
11
126.055
21
-44.3337
0
LINE
8
BLACK
6
CONTINUOUS
10
126.055
20
-44.3337
11
125.997
21
-44.4723
0
LINE
8
BLACK
6
CONTINUOUS
10
125.997
20
-44.4723
11
125.914
21
-44.5971
0
LINE
8
BLACK
6
CONTINUOUS
10
125.914
20
-44.5971
11
125.808
21
-44.7033
0
LINE
8
BLACK
6
CONTINUOUS
10
125.808
20
-44.7033
11
125.683
21
-44.7867
0
LINE
8
BLACK
6
CONTINUOUS
10
125.683
20
-44.7867
11
125.544
21
-44.8441
0
LINE
8
BLACK
6
CONTINUOUS
10
125.544
20
-44.8441
11
125.397
21
-44.8734
0
LINE
8
BLACK
6
CONTINUOUS
10
125.397
20
-44.8734
11
125.247
21
-44.8734
0
LINE
8
BLACK
6
CONTINUOUS
10
125.247
20
-44.8734
11
125.1
21
-44.8441
0
LINE
8
BLACK
6
CONTINUOUS
10
125.1
20
-44.8441
11
124.961
21
-44.7867
0
LINE
8
BLACK
6
CONTINUOUS
10
124.961
20
-44.7867
11
124.836
21
-44.7033
0
LINE
8
BLACK
6
CONTINUOUS
10
124.836
20
-44.7033
11
124.73
21
-44.5971
0
LINE
8
BLACK
6
CONTINUOUS
10
124.73
20
-44.5971
11
124.647
21
-44.4723
0
LINE
8
BLACK
6
CONTINUOUS
10
124.647
20
-44.4723
11
124.589
21
-44.3337
0
LINE
8
BLACK
6
CONTINUOUS
10
124.589
20
-44.3337
11
124.56
21
-44.1865
0
LINE
8
BLACK
6
CONTINUOUS
10
124.56
20
-44.1865
11
124.56
21
-44.0363
0
LINE
8
BLACK
6
CONTINUOUS
10
124.56
20
-44.0363
11
124.589
21
-43.8891
0
LINE
8
BLACK
6
CONTINUOUS
10
124.589
20
-43.8891
11
124.647
21
-43.7505
0
LINE
8
BLACK
6
CONTINUOUS
10
124.647
20
-43.7505
11
124.73
21
-43.6257
0
LINE
8
BLACK
6
CONTINUOUS
10
124.73
20
-43.6257
11
124.836
21
-43.5195
0
LINE
8
BLACK
6
CONTINUOUS
10
124.836
20
-43.5195
11
124.961
21
-43.4361
0
LINE
8
BLACK
6
CONTINUOUS
10
124.961
20
-43.4361
11
125.1
21
-43.3787
0
LINE
8
BLACK
6
CONTINUOUS
10
125.1
20
-43.3787
11
125.247
21
-43.3494
0
LINE
8
BLACK
6
CONTINUOUS
10
125.247
20
-43.3494
11
125.397
21
-43.3494
0
LINE
8
BLACK
6
CONTINUOUS
10
125.397
20
-43.3494
11
125.544
21
-43.3787
0
LINE
8
BLACK
6
CONTINUOUS
10
153.484
20
-43.3787
11
153.623
21
-43.4361
0
LINE
8
BLACK
6
CONTINUOUS
10
153.623
20
-43.4361
11
153.748
21
-43.5195
0
LINE
8
BLACK
6
CONTINUOUS
10
153.748
20
-43.5195
11
153.854
21
-43.6257
0
LINE
8
BLACK
6
CONTINUOUS
10
153.854
20
-43.6257
11
153.937
21
-43.7505
0
LINE
8
BLACK
6
CONTINUOUS
10
153.937
20
-43.7505
11
153.995
21
-43.8891
0
LINE
8
BLACK
6
CONTINUOUS
10
153.995
20
-43.8891
11
154.024
21
-44.0363
0
LINE
8
BLACK
6
CONTINUOUS
10
154.024
20
-44.0363
11
154.024
21
-44.1865
0
LINE
8
BLACK
6
CONTINUOUS
10
154.024
20
-44.1865
11
153.995
21
-44.3337
0
LINE
8
BLACK
6
CONTINUOUS
10
153.995
20
-44.3337
11
153.937
21
-44.4723
0
LINE
8
BLACK
6
CONTINUOUS
10
153.937
20
-44.4723
11
153.854
21
-44.5971
0
LINE
8
BLACK
6
CONTINUOUS
10
153.854
20
-44.5971
11
153.748
21
-44.7033
0
LINE
8
BLACK
6
CONTINUOUS
10
153.748
20
-44.7033
11
153.623
21
-44.7867
0
LINE
8
BLACK
6
CONTINUOUS
10
153.623
20
-44.7867
11
153.484
21
-44.8441
0
LINE
8
BLACK
6
CONTINUOUS
10
153.484
20
-44.8441
11
153.337
21
-44.8734
0
LINE
8
BLACK
6
CONTINUOUS
10
153.337
20
-44.8734
11
153.187
21
-44.8734
0
LINE
8
BLACK
6
CONTINUOUS
10
153.187
20
-44.8734
11
153.04
21
-44.8441
0
LINE
8
BLACK
6
CONTINUOUS
10
153.04
20
-44.8441
11
152.901
21
-44.7867
0
LINE
8
BLACK
6
CONTINUOUS
10
152.901
20
-44.7867
11
152.776
21
-44.7033
0
LINE
8
BLACK
6
CONTINUOUS
10
152.776
20
-44.7033
11
152.67
21
-44.5971
0
LINE
8
BLACK
6
CONTINUOUS
10
152.67
20
-44.5971
11
152.587
21
-44.4723
0
LINE
8
BLACK
6
CONTINUOUS
10
152.587
20
-44.4723
11
152.529
21
-44.3337
0
LINE
8
BLACK
6
CONTINUOUS
10
152.529
20
-44.3337
11
152.5
21
-44.1865
0
LINE
8
BLACK
6
CONTINUOUS
10
152.5
20
-44.1865
11
152.5
21
-44.0363
0
LINE
8
BLACK
6
CONTINUOUS
10
152.5
20
-44.0363
11
152.529
21
-43.8891
0
LINE
8
BLACK
6
CONTINUOUS
10
152.529
20
-43.8891
11
152.587
21
-43.7505
0
LINE
8
BLACK
6
CONTINUOUS
10
152.587
20
-43.7505
11
152.67
21
-43.6257
0
LINE
8
BLACK
6
CONTINUOUS
10
152.67
20
-43.6257
11
152.776
21
-43.5195
0
LINE
8
BLACK
6
CONTINUOUS
10
152.776
20
-43.5195
11
152.901
21
-43.4361
0
LINE
8
BLACK
6
CONTINUOUS
10
152.901
20
-43.4361
11
153.04
21
-43.3787
0
LINE
8
BLACK
6
CONTINUOUS
10
153.04
20
-43.3787
11
153.187
21
-43.3494
0
LINE
8
BLACK
6
CONTINUOUS
10
153.187
20
-43.3494
11
153.337
21
-43.3494
0
LINE
8
BLACK
6
CONTINUOUS
10
153.337
20
-43.3494
11
153.484
21
-43.3787
0
LINE
8
BLACK
6
CONTINUOUS
10
150.944
20
-43.3787
11
151.083
21
-43.4361
0
LINE
8
BLACK
6
CONTINUOUS
10
151.083
20
-43.4361
11
151.208
21
-43.5195
0
LINE
8
BLACK
6
CONTINUOUS
10
151.208
20
-43.5195
11
151.314
21
-43.6257
0
LINE
8
BLACK
6
CONTINUOUS
10
151.314
20
-43.6257
11
151.397
21
-43.7505
0
LINE
8
BLACK
6
CONTINUOUS
10
151.397
20
-43.7505
11
151.455
21
-43.8891
0
LINE
8
BLACK
6
CONTINUOUS
10
151.455
20
-43.8891
11
151.484
21
-44.0363
0
LINE
8
BLACK
6
CONTINUOUS
10
151.484
20
-44.0363
11
151.484
21
-44.1865
0
LINE
8
BLACK
6
CONTINUOUS
10
151.484
20
-44.1865
11
151.455
21
-44.3337
0
LINE
8
BLACK
6
CONTINUOUS
10
151.455
20
-44.3337
11
151.397
21
-44.4723
0
LINE
8
BLACK
6
CONTINUOUS
10
151.397
20
-44.4723
11
151.314
21
-44.5971
0
LINE
8
BLACK
6
CONTINUOUS
10
151.314
20
-44.5971
11
151.208
21
-44.7033
0
LINE
8
BLACK
6
CONTINUOUS
10
151.208
20
-44.7033
11
151.083
21
-44.7867
0
LINE
8
BLACK
6
CONTINUOUS
10
151.083
20
-44.7867
11
150.944
21
-44.8441
0
LINE
8
BLACK
6
CONTINUOUS
10
150.944
20
-44.8441
11
150.797
21
-44.8734
0
LINE
8
BLACK
6
CONTINUOUS
10
150.797
20
-44.8734
11
150.647
21
-44.8734
0
LINE
8
BLACK
6
CONTINUOUS
10
150.647
20
-44.8734
11
150.5
21
-44.8441
0
LINE
8
BLACK
6
CONTINUOUS
10
150.5
20
-44.8441
11
150.361
21
-44.7867
0
LINE
8
BLACK
6
CONTINUOUS
10
150.361
20
-44.7867
11
150.236
21
-44.7033
0
LINE
8
BLACK
6
CONTINUOUS
10
150.236
20
-44.7033
11
150.13
21
-44.5971
0
LINE
8
BLACK
6
CONTINUOUS
10
150.13
20
-44.5971
11
150.047
21
-44.4723
0
LINE
8
BLACK
6
CONTINUOUS
10
150.047
20
-44.4723
11
149.989
21
-44.3337
0
LINE
8
BLACK
6
CONTINUOUS
10
149.989
20
-44.3337
11
149.96
21
-44.1865
0
LINE
8
BLACK
6
CONTINUOUS
10
149.96
20
-44.1865
11
149.96
21
-44.0363
0
LINE
8
BLACK
6
CONTINUOUS
10
149.96
20
-44.0363
11
149.989
21
-43.8891
0
LINE
8
BLACK
6
CONTINUOUS
10
149.989
20
-43.8891
11
150.047
21
-43.7505
0
LINE
8
BLACK
6
CONTINUOUS
10
150.047
20
-43.7505
11
150.13
21
-43.6257
0
LINE
8
BLACK
6
CONTINUOUS
10
150.13
20
-43.6257
11
150.236
21
-43.5195
0
LINE
8
BLACK
6
CONTINUOUS
10
150.236
20
-43.5195
11
150.361
21
-43.4361
0
LINE
8
BLACK
6
CONTINUOUS
10
150.361
20
-43.4361
11
150.5
21
-43.3787
0
LINE
8
BLACK
6
CONTINUOUS
10
150.5
20
-43.3787
11
150.647
21
-43.3494
0
LINE
8
BLACK
6
CONTINUOUS
10
150.647
20
-43.3494
11
150.797
21
-43.3494
0
LINE
8
BLACK
6
CONTINUOUS
10
150.797
20
-43.3494
11
150.944
21
-43.3787
0
LINE
8
BLACK
6
CONTINUOUS
10
148.404
20
-43.3787
11
148.543
21
-43.4361
0
LINE
8
BLACK
6
CONTINUOUS
10
148.543
20
-43.4361
11
148.668
21
-43.5195
0
LINE
8
BLACK
6
CONTINUOUS
10
148.668
20
-43.5195
11
148.774
21
-43.6257
0
LINE
8
BLACK
6
CONTINUOUS
10
148.774
20
-43.6257
11
148.857
21
-43.7505
0
LINE
8
BLACK
6
CONTINUOUS
10
148.857
20
-43.7505
11
148.915
21
-43.8891
0
LINE
8
BLACK
6
CONTINUOUS
10
148.915
20
-43.8891
11
148.944
21
-44.0363
0
LINE
8
BLACK
6
CONTINUOUS
10
148.944
20
-44.0363
11
148.944
21
-44.1865
0
LINE
8
BLACK
6
CONTINUOUS
10
148.944
20
-44.1865
11
148.915
21
-44.3337
0
LINE
8
BLACK
6
CONTINUOUS
10
148.915
20
-44.3337
11
148.857
21
-44.4723
0
LINE
8
BLACK
6
CONTINUOUS
10
148.857
20
-44.4723
11
148.774
21
-44.5971
0
LINE
8
BLACK
6
CONTINUOUS
10
148.774
20
-44.5971
11
148.668
21
-44.7033
0
LINE
8
BLACK
6
CONTINUOUS
10
148.668
20
-44.7033
11
148.543
21
-44.7867
0
LINE
8
BLACK
6
CONTINUOUS
10
148.543
20
-44.7867
11
148.404
21
-44.8441
0
LINE
8
BLACK
6
CONTINUOUS
10
148.404
20
-44.8441
11
148.257
21
-44.8734
0
LINE
8
BLACK
6
CONTINUOUS
10
148.257
20
-44.8734
11
148.107
21
-44.8734
0
LINE
8
BLACK
6
CONTINUOUS
10
148.107
20
-44.8734
11
147.96
21
-44.8441
0
LINE
8
BLACK
6
CONTINUOUS
10
147.96
20
-44.8441
11
147.821
21
-44.7867
0
LINE
8
BLACK
6
CONTINUOUS
10
147.821
20
-44.7867
11
147.696
21
-44.7033
0
LINE
8
BLACK
6
CONTINUOUS
10
147.696
20
-44.7033
11
147.59
21
-44.5971
0
LINE
8
BLACK
6
CONTINUOUS
10
147.59
20
-44.5971
11
147.507
21
-44.4723
0
LINE
8
BLACK
6
CONTINUOUS
10
147.507
20
-44.4723
11
147.449
21
-44.3337
0
LINE
8
BLACK
6
CONTINUOUS
10
147.449
20
-44.3337
11
147.42
21
-44.1865
0
LINE
8
BLACK
6
CONTINUOUS
10
147.42
20
-44.1865
11
147.42
21
-44.0363
0
LINE
8
BLACK
6
CONTINUOUS
10
147.42
20
-44.0363
11
147.449
21
-43.8891
0
LINE
8
BLACK
6
CONTINUOUS
10
147.449
20
-43.8891
11
147.507
21
-43.7505
0
LINE
8
BLACK
6
CONTINUOUS
10
147.507
20
-43.7505
11
147.59
21
-43.6257
0
LINE
8
BLACK
6
CONTINUOUS
10
147.59
20
-43.6257
11
147.696
21
-43.5195
0
LINE
8
BLACK
6
CONTINUOUS
10
147.696
20
-43.5195
11
147.821
21
-43.4361
0
LINE
8
BLACK
6
CONTINUOUS
10
147.821
20
-43.4361
11
147.96
21
-43.3787
0
LINE
8
BLACK
6
CONTINUOUS
10
147.96
20
-43.3787
11
148.107
21
-43.3494
0
LINE
8
BLACK
6
CONTINUOUS
10
148.107
20
-43.3494
11
148.257
21
-43.3494
0
LINE
8
BLACK
6
CONTINUOUS
10
148.257
20
-43.3494
11
148.404
21
-43.3787
0
LINE
8
BLACK
6
CONTINUOUS
10
145.864
20
-43.3787
11
146.003
21
-43.4361
0
LINE
8
BLACK
6
CONTINUOUS
10
146.003
20
-43.4361
11
146.128
21
-43.5195
0
LINE
8
BLACK
6
CONTINUOUS
10
146.128
20
-43.5195
11
146.234
21
-43.6257
0
LINE
8
BLACK
6
CONTINUOUS
10
146.234
20
-43.6257
11
146.317
21
-43.7505
0
LINE
8
BLACK
6
CONTINUOUS
10
146.317
20
-43.7505
11
146.375
21
-43.8891
0
LINE
8
BLACK
6
CONTINUOUS
10
146.375
20
-43.8891
11
146.404
21
-44.0363
0
LINE
8
BLACK
6
CONTINUOUS
10
146.404
20
-44.0363
11
146.404
21
-44.1865
0
LINE
8
BLACK
6
CONTINUOUS
10
146.404
20
-44.1865
11
146.375
21
-44.3337
0
LINE
8
BLACK
6
CONTINUOUS
10
146.375
20
-44.3337
11
146.317
21
-44.4723
0
LINE
8
BLACK
6
CONTINUOUS
10
146.317
20
-44.4723
11
146.234
21
-44.5971
0
LINE
8
BLACK
6
CONTINUOUS
10
146.234
20
-44.5971
11
146.128
21
-44.7033
0
LINE
8
BLACK
6
CONTINUOUS
10
146.128
20
-44.7033
11
146.003
21
-44.7867
0
LINE
8
BLACK
6
CONTINUOUS
10
146.003
20
-44.7867
11
145.864
21
-44.8441
0
LINE
8
BLACK
6
CONTINUOUS
10
145.864
20
-44.8441
11
145.717
21
-44.8734
0
LINE
8
BLACK
6
CONTINUOUS
10
145.717
20
-44.8734
11
145.567
21
-44.8734
0
LINE
8
BLACK
6
CONTINUOUS
10
145.567
20
-44.8734
11
145.42
21
-44.8441
0
LINE
8
BLACK
6
CONTINUOUS
10
145.42
20
-44.8441
11
145.281
21
-44.7867
0
LINE
8
BLACK
6
CONTINUOUS
10
145.281
20
-44.7867
11
145.156
21
-44.7033
0
LINE
8
BLACK
6
CONTINUOUS
10
145.156
20
-44.7033
11
145.05
21
-44.5971
0
LINE
8
BLACK
6
CONTINUOUS
10
145.05
20
-44.5971
11
144.967
21
-44.4723
0
LINE
8
BLACK
6
CONTINUOUS
10
144.967
20
-44.4723
11
144.909
21
-44.3337
0
LINE
8
BLACK
6
CONTINUOUS
10
144.909
20
-44.3337
11
144.88
21
-44.1865
0
LINE
8
BLACK
6
CONTINUOUS
10
144.88
20
-44.1865
11
144.88
21
-44.0363
0
LINE
8
BLACK
6
CONTINUOUS
10
144.88
20
-44.0363
11
144.909
21
-43.8891
0
LINE
8
BLACK
6
CONTINUOUS
10
144.909
20
-43.8891
11
144.967
21
-43.7505
0
LINE
8
BLACK
6
CONTINUOUS
10
144.967
20
-43.7505
11
145.05
21
-43.6257
0
LINE
8
BLACK
6
CONTINUOUS
10
145.05
20
-43.6257
11
145.156
21
-43.5195
0
LINE
8
BLACK
6
CONTINUOUS
10
145.156
20
-43.5195
11
145.281
21
-43.4361
0
LINE
8
BLACK
6
CONTINUOUS
10
145.281
20
-43.4361
11
145.42
21
-43.3787
0
LINE
8
BLACK
6
CONTINUOUS
10
145.42
20
-43.3787
11
145.567
21
-43.3494
0
LINE
8
BLACK
6
CONTINUOUS
10
145.567
20
-43.3494
11
145.717
21
-43.3494
0
LINE
8
BLACK
6
CONTINUOUS
10
145.717
20
-43.3494
11
145.864
21
-43.3787
0
LINE
8
BLACK
6
CONTINUOUS
10
143.324
20
-43.3787
11
143.463
21
-43.4361
0
LINE
8
BLACK
6
CONTINUOUS
10
143.463
20
-43.4361
11
143.588
21
-43.5195
0
LINE
8
BLACK
6
CONTINUOUS
10
143.588
20
-43.5195
11
143.694
21
-43.6257
0
LINE
8
BLACK
6
CONTINUOUS
10
143.694
20
-43.6257
11
143.777
21
-43.7505
0
LINE
8
BLACK
6
CONTINUOUS
10
143.777
20
-43.7505
11
143.835
21
-43.8891
0
LINE
8
BLACK
6
CONTINUOUS
10
143.835
20
-43.8891
11
143.864
21
-44.0363
0
LINE
8
BLACK
6
CONTINUOUS
10
143.864
20
-44.0363
11
143.864
21
-44.1865
0
LINE
8
BLACK
6
CONTINUOUS
10
143.864
20
-44.1865
11
143.835
21
-44.3337
0
LINE
8
BLACK
6
CONTINUOUS
10
143.835
20
-44.3337
11
143.777
21
-44.4723
0
LINE
8
BLACK
6
CONTINUOUS
10
143.777
20
-44.4723
11
143.694
21
-44.5971
0
LINE
8
BLACK
6
CONTINUOUS
10
143.694
20
-44.5971
11
143.588
21
-44.7033
0
LINE
8
BLACK
6
CONTINUOUS
10
143.588
20
-44.7033
11
143.463
21
-44.7867
0
LINE
8
BLACK
6
CONTINUOUS
10
143.463
20
-44.7867
11
143.324
21
-44.8441
0
LINE
8
BLACK
6
CONTINUOUS
10
143.324
20
-44.8441
11
143.177
21
-44.8734
0
LINE
8
BLACK
6
CONTINUOUS
10
143.177
20
-44.8734
11
143.027
21
-44.8734
0
LINE
8
BLACK
6
CONTINUOUS
10
143.027
20
-44.8734
11
142.88
21
-44.8441
0
LINE
8
BLACK
6
CONTINUOUS
10
142.88
20
-44.8441
11
142.741
21
-44.7867
0
LINE
8
BLACK
6
CONTINUOUS
10
142.741
20
-44.7867
11
142.616
21
-44.7033
0
LINE
8
BLACK
6
CONTINUOUS
10
142.616
20
-44.7033
11
142.51
21
-44.5971
0
LINE
8
BLACK
6
CONTINUOUS
10
142.51
20
-44.5971
11
142.427
21
-44.4723
0
LINE
8
BLACK
6
CONTINUOUS
10
142.427
20
-44.4723
11
142.369
21
-44.3337
0
LINE
8
BLACK
6
CONTINUOUS
10
142.369
20
-44.3337
11
142.34
21
-44.1865
0
LINE
8
BLACK
6
CONTINUOUS
10
142.34
20
-44.1865
11
142.34
21
-44.0363
0
LINE
8
BLACK
6
CONTINUOUS
10
142.34
20
-44.0363
11
142.369
21
-43.8891
0
LINE
8
BLACK
6
CONTINUOUS
10
142.369
20
-43.8891
11
142.427
21
-43.7505
0
LINE
8
BLACK
6
CONTINUOUS
10
142.427
20
-43.7505
11
142.51
21
-43.6257
0
LINE
8
BLACK
6
CONTINUOUS
10
142.51
20
-43.6257
11
142.616
21
-43.5195
0
LINE
8
BLACK
6
CONTINUOUS
10
142.616
20
-43.5195
11
142.741
21
-43.4361
0
LINE
8
BLACK
6
CONTINUOUS
10
142.741
20
-43.4361
11
142.88
21
-43.3787
0
LINE
8
BLACK
6
CONTINUOUS
10
142.88
20
-43.3787
11
143.027
21
-43.3494
0
LINE
8
BLACK
6
CONTINUOUS
10
143.027
20
-43.3494
11
143.177
21
-43.3494
0
LINE
8
BLACK
6
CONTINUOUS
10
143.177
20
-43.3494
11
143.324
21
-43.3787
0
LINE
8
BLACK
6
CONTINUOUS
10
140.784
20
-43.3787
11
140.923
21
-43.4361
0
LINE
8
BLACK
6
CONTINUOUS
10
140.923
20
-43.4361
11
141.048
21
-43.5195
0
LINE
8
BLACK
6
CONTINUOUS
10
141.048
20
-43.5195
11
141.154
21
-43.6257
0
LINE
8
BLACK
6
CONTINUOUS
10
141.154
20
-43.6257
11
141.237
21
-43.7505
0
LINE
8
BLACK
6
CONTINUOUS
10
141.237
20
-43.7505
11
141.295
21
-43.8891
0
LINE
8
BLACK
6
CONTINUOUS
10
141.295
20
-43.8891
11
141.324
21
-44.0363
0
LINE
8
BLACK
6
CONTINUOUS
10
141.324
20
-44.0363
11
141.324
21
-44.1865
0
LINE
8
BLACK
6
CONTINUOUS
10
141.324
20
-44.1865
11
141.295
21
-44.3337
0
LINE
8
BLACK
6
CONTINUOUS
10
141.295
20
-44.3337
11
141.237
21
-44.4723
0
LINE
8
BLACK
6
CONTINUOUS
10
141.237
20
-44.4723
11
141.154
21
-44.5971
0
LINE
8
BLACK
6
CONTINUOUS
10
141.154
20
-44.5971
11
141.048
21
-44.7033
0
LINE
8
BLACK
6
CONTINUOUS
10
141.048
20
-44.7033
11
140.923
21
-44.7867
0
LINE
8
BLACK
6
CONTINUOUS
10
140.923
20
-44.7867
11
140.784
21
-44.8441
0
LINE
8
BLACK
6
CONTINUOUS
10
140.784
20
-44.8441
11
140.637
21
-44.8734
0
LINE
8
BLACK
6
CONTINUOUS
10
140.637
20
-44.8734
11
140.487
21
-44.8734
0
LINE
8
BLACK
6
CONTINUOUS
10
140.487
20
-44.8734
11
140.34
21
-44.8441
0
LINE
8
BLACK
6
CONTINUOUS
10
140.34
20
-44.8441
11
140.201
21
-44.7867
0
LINE
8
BLACK
6
CONTINUOUS
10
140.201
20
-44.7867
11
140.076
21
-44.7033
0
LINE
8
BLACK
6
CONTINUOUS
10
140.076
20
-44.7033
11
139.97
21
-44.5971
0
LINE
8
BLACK
6
CONTINUOUS
10
139.97
20
-44.5971
11
139.887
21
-44.4723
0
LINE
8
BLACK
6
CONTINUOUS
10
139.887
20
-44.4723
11
139.829
21
-44.3337
0
LINE
8
BLACK
6
CONTINUOUS
10
139.829
20
-44.3337
11
139.8
21
-44.1865
0
LINE
8
BLACK
6
CONTINUOUS
10
139.8
20
-44.1865
11
139.8
21
-44.0363
0
LINE
8
BLACK
6
CONTINUOUS
10
139.8
20
-44.0363
11
139.829
21
-43.8891
0
LINE
8
BLACK
6
CONTINUOUS
10
139.829
20
-43.8891
11
139.887
21
-43.7505
0
LINE
8
BLACK
6
CONTINUOUS
10
139.887
20
-43.7505
11
139.97
21
-43.6257
0
LINE
8
BLACK
6
CONTINUOUS
10
139.97
20
-43.6257
11
140.076
21
-43.5195
0
LINE
8
BLACK
6
CONTINUOUS
10
140.076
20
-43.5195
11
140.201
21
-43.4361
0
LINE
8
BLACK
6
CONTINUOUS
10
140.201
20
-43.4361
11
140.34
21
-43.3787
0
LINE
8
BLACK
6
CONTINUOUS
10
140.34
20
-43.3787
11
140.487
21
-43.3494
0
LINE
8
BLACK
6
CONTINUOUS
10
140.487
20
-43.3494
11
140.637
21
-43.3494
0
LINE
8
BLACK
6
CONTINUOUS
10
140.637
20
-43.3494
11
140.784
21
-43.3787
0
LINE
8
BLACK
6
CONTINUOUS
10
138.244
20
-43.3787
11
138.383
21
-43.4361
0
LINE
8
BLACK
6
CONTINUOUS
10
138.383
20
-43.4361
11
138.508
21
-43.5195
0
LINE
8
BLACK
6
CONTINUOUS
10
138.508
20
-43.5195
11
138.614
21
-43.6257
0
LINE
8
BLACK
6
CONTINUOUS
10
138.614
20
-43.6257
11
138.697
21
-43.7505
0
LINE
8
BLACK
6
CONTINUOUS
10
138.697
20
-43.7505
11
138.755
21
-43.8891
0
LINE
8
BLACK
6
CONTINUOUS
10
138.755
20
-43.8891
11
138.784
21
-44.0363
0
LINE
8
BLACK
6
CONTINUOUS
10
138.784
20
-44.0363
11
138.784
21
-44.1865
0
LINE
8
BLACK
6
CONTINUOUS
10
138.784
20
-44.1865
11
138.755
21
-44.3337
0
LINE
8
BLACK
6
CONTINUOUS
10
138.755
20
-44.3337
11
138.697
21
-44.4723
0
LINE
8
BLACK
6
CONTINUOUS
10
138.697
20
-44.4723
11
138.614
21
-44.5971
0
LINE
8
BLACK
6
CONTINUOUS
10
138.614
20
-44.5971
11
138.508
21
-44.7033
0
LINE
8
BLACK
6
CONTINUOUS
10
138.508
20
-44.7033
11
138.383
21
-44.7867
0
LINE
8
BLACK
6
CONTINUOUS
10
138.383
20
-44.7867
11
138.244
21
-44.8441
0
LINE
8
BLACK
6
CONTINUOUS
10
138.244
20
-44.8441
11
138.097
21
-44.8734
0
LINE
8
BLACK
6
CONTINUOUS
10
138.097
20
-44.8734
11
137.947
21
-44.8734
0
LINE
8
BLACK
6
CONTINUOUS
10
137.947
20
-44.8734
11
137.8
21
-44.8441
0
LINE
8
BLACK
6
CONTINUOUS
10
137.8
20
-44.8441
11
137.661
21
-44.7867
0
LINE
8
BLACK
6
CONTINUOUS
10
137.661
20
-44.7867
11
137.536
21
-44.7033
0
LINE
8
BLACK
6
CONTINUOUS
10
137.536
20
-44.7033
11
137.43
21
-44.5971
0
LINE
8
BLACK
6
CONTINUOUS
10
137.43
20
-44.5971
11
137.347
21
-44.4723
0
LINE
8
BLACK
6
CONTINUOUS
10
137.347
20
-44.4723
11
137.289
21
-44.3337
0
LINE
8
BLACK
6
CONTINUOUS
10
137.289
20
-44.3337
11
137.26
21
-44.1865
0
LINE
8
BLACK
6
CONTINUOUS
10
137.26
20
-44.1865
11
137.26
21
-44.0363
0
LINE
8
BLACK
6
CONTINUOUS
10
137.26
20
-44.0363
11
137.289
21
-43.8891
0
LINE
8
BLACK
6
CONTINUOUS
10
137.289
20
-43.8891
11
137.347
21
-43.7505
0
LINE
8
BLACK
6
CONTINUOUS
10
137.347
20
-43.7505
11
137.43
21
-43.6257
0
LINE
8
BLACK
6
CONTINUOUS
10
137.43
20
-43.6257
11
137.536
21
-43.5195
0
LINE
8
BLACK
6
CONTINUOUS
10
137.536
20
-43.5195
11
137.661
21
-43.4361
0
LINE
8
BLACK
6
CONTINUOUS
10
137.661
20
-43.4361
11
137.8
21
-43.3787
0
LINE
8
BLACK
6
CONTINUOUS
10
137.8
20
-43.3787
11
137.947
21
-43.3494
0
LINE
8
BLACK
6
CONTINUOUS
10
137.947
20
-43.3494
11
138.097
21
-43.3494
0
LINE
8
BLACK
6
CONTINUOUS
10
138.097
20
-43.3494
11
138.244
21
-43.3787
0
LINE
8
BLACK
6
CONTINUOUS
10
135.704
20
-43.3787
11
135.843
21
-43.4361
0
LINE
8
BLACK
6
CONTINUOUS
10
135.843
20
-43.4361
11
135.968
21
-43.5195
0
LINE
8
BLACK
6
CONTINUOUS
10
135.968
20
-43.5195
11
136.074
21
-43.6257
0
LINE
8
BLACK
6
CONTINUOUS
10
136.074
20
-43.6257
11
136.157
21
-43.7505
0
LINE
8
BLACK
6
CONTINUOUS
10
136.157
20
-43.7505
11
136.215
21
-43.8891
0
LINE
8
BLACK
6
CONTINUOUS
10
136.215
20
-43.8891
11
136.244
21
-44.0363
0
LINE
8
BLACK
6
CONTINUOUS
10
136.244
20
-44.0363
11
136.244
21
-44.1865
0
LINE
8
BLACK
6
CONTINUOUS
10
136.244
20
-44.1865
11
136.215
21
-44.3337
0
LINE
8
BLACK
6
CONTINUOUS
10
136.215
20
-44.3337
11
136.157
21
-44.4723
0
LINE
8
BLACK
6
CONTINUOUS
10
136.157
20
-44.4723
11
136.074
21
-44.5971
0
LINE
8
BLACK
6
CONTINUOUS
10
136.074
20
-44.5971
11
135.968
21
-44.7033
0
LINE
8
BLACK
6
CONTINUOUS
10
135.968
20
-44.7033
11
135.843
21
-44.7867
0
LINE
8
BLACK
6
CONTINUOUS
10
135.843
20
-44.7867
11
135.704
21
-44.8441
0
LINE
8
BLACK
6
CONTINUOUS
10
135.704
20
-44.8441
11
135.557
21
-44.8734
0
LINE
8
BLACK
6
CONTINUOUS
10
135.557
20
-44.8734
11
135.407
21
-44.8734
0
LINE
8
BLACK
6
CONTINUOUS
10
135.407
20
-44.8734
11
135.26
21
-44.8441
0
LINE
8
BLACK
6
CONTINUOUS
10
135.26
20
-44.8441
11
135.121
21
-44.7867
0
LINE
8
BLACK
6
CONTINUOUS
10
135.121
20
-44.7867
11
134.996
21
-44.7033
0
LINE
8
BLACK
6
CONTINUOUS
10
134.996
20
-44.7033
11
134.89
21
-44.5971
0
LINE
8
BLACK
6
CONTINUOUS
10
134.89
20
-44.5971
11
134.807
21
-44.4723
0
LINE
8
BLACK
6
CONTINUOUS
10
134.807
20
-44.4723
11
134.749
21
-44.3337
0
LINE
8
BLACK
6
CONTINUOUS
10
134.749
20
-44.3337
11
134.72
21
-44.1865
0
LINE
8
BLACK
6
CONTINUOUS
10
134.72
20
-44.1865
11
134.72
21
-44.0363
0
LINE
8
BLACK
6
CONTINUOUS
10
134.72
20
-44.0363
11
134.749
21
-43.8891
0
LINE
8
BLACK
6
CONTINUOUS
10
134.749
20
-43.8891
11
134.807
21
-43.7505
0
LINE
8
BLACK
6
CONTINUOUS
10
134.807
20
-43.7505
11
134.89
21
-43.6257
0
LINE
8
BLACK
6
CONTINUOUS
10
134.89
20
-43.6257
11
134.996
21
-43.5195
0
LINE
8
BLACK
6
CONTINUOUS
10
134.996
20
-43.5195
11
135.121
21
-43.4361
0
LINE
8
BLACK
6
CONTINUOUS
10
135.121
20
-43.4361
11
135.26
21
-43.3787
0
LINE
8
BLACK
6
CONTINUOUS
10
135.26
20
-43.3787
11
135.407
21
-43.3494
0
LINE
8
BLACK
6
CONTINUOUS
10
135.407
20
-43.3494
11
135.557
21
-43.3494
0
LINE
8
BLACK
6
CONTINUOUS
10
135.557
20
-43.3494
11
135.704
21
-43.3787
0
LINE
8
BLACK
6
CONTINUOUS
10
133.164
20
-43.3787
11
133.303
21
-43.4361
0
LINE
8
BLACK
6
CONTINUOUS
10
133.303
20
-43.4361
11
133.428
21
-43.5195
0
LINE
8
BLACK
6
CONTINUOUS
10
133.428
20
-43.5195
11
133.534
21
-43.6257
0
LINE
8
BLACK
6
CONTINUOUS
10
133.534
20
-43.6257
11
133.617
21
-43.7505
0
LINE
8
BLACK
6
CONTINUOUS
10
133.617
20
-43.7505
11
133.675
21
-43.8891
0
LINE
8
BLACK
6
CONTINUOUS
10
133.675
20
-43.8891
11
133.704
21
-44.0363
0
LINE
8
BLACK
6
CONTINUOUS
10
133.704
20
-44.0363
11
133.704
21
-44.1865
0
LINE
8
BLACK
6
CONTINUOUS
10
133.704
20
-44.1865
11
133.675
21
-44.3337
0
LINE
8
BLACK
6
CONTINUOUS
10
133.675
20
-44.3337
11
133.617
21
-44.4723
0
LINE
8
BLACK
6
CONTINUOUS
10
133.617
20
-44.4723
11
133.534
21
-44.5971
0
LINE
8
BLACK
6
CONTINUOUS
10
133.534
20
-44.5971
11
133.428
21
-44.7033
0
LINE
8
BLACK
6
CONTINUOUS
10
133.428
20
-44.7033
11
133.303
21
-44.7867
0
LINE
8
BLACK
6
CONTINUOUS
10
133.303
20
-44.7867
11
133.164
21
-44.8441
0
LINE
8
BLACK
6
CONTINUOUS
10
133.164
20
-44.8441
11
133.017
21
-44.8734
0
LINE
8
BLACK
6
CONTINUOUS
10
133.017
20
-44.8734
11
132.867
21
-44.8734
0
LINE
8
BLACK
6
CONTINUOUS
10
132.867
20
-44.8734
11
132.72
21
-44.8441
0
LINE
8
BLACK
6
CONTINUOUS
10
132.72
20
-44.8441
11
132.581
21
-44.7867
0
LINE
8
BLACK
6
CONTINUOUS
10
132.581
20
-44.7867
11
132.456
21
-44.7033
0
LINE
8
BLACK
6
CONTINUOUS
10
132.456
20
-44.7033
11
132.35
21
-44.5971
0
LINE
8
BLACK
6
CONTINUOUS
10
132.35
20
-44.5971
11
132.267
21
-44.4723
0
LINE
8
BLACK
6
CONTINUOUS
10
132.267
20
-44.4723
11
132.209
21
-44.3337
0
LINE
8
BLACK
6
CONTINUOUS
10
132.209
20
-44.3337
11
132.18
21
-44.1865
0
LINE
8
BLACK
6
CONTINUOUS
10
132.18
20
-44.1865
11
132.18
21
-44.0363
0
LINE
8
BLACK
6
CONTINUOUS
10
132.18
20
-44.0363
11
132.209
21
-43.8891
0
LINE
8
BLACK
6
CONTINUOUS
10
132.209
20
-43.8891
11
132.267
21
-43.7505
0
LINE
8
BLACK
6
CONTINUOUS
10
132.267
20
-43.7505
11
132.35
21
-43.6257
0
LINE
8
BLACK
6
CONTINUOUS
10
132.35
20
-43.6257
11
132.456
21
-43.5195
0
LINE
8
BLACK
6
CONTINUOUS
10
132.456
20
-43.5195
11
132.581
21
-43.4361
0
LINE
8
BLACK
6
CONTINUOUS
10
132.581
20
-43.4361
11
132.72
21
-43.3787
0
LINE
8
BLACK
6
CONTINUOUS
10
132.72
20
-43.3787
11
132.867
21
-43.3494
0
LINE
8
BLACK
6
CONTINUOUS
10
132.867
20
-43.3494
11
133.017
21
-43.3494
0
LINE
8
BLACK
6
CONTINUOUS
10
133.017
20
-43.3494
11
133.164
21
-43.3787
0
LINE
8
BLACK
6
CONTINUOUS
10
129.16
20
-40.05
11
128.34
21
-40.05
0
LINE
8
BLACK
6
CONTINUOUS
10
128.34
20
-40.05
11
128.34
21
-38.25
0
LINE
8
BLACK
6
CONTINUOUS
10
128.34
20
-38.25
11
129.16
21
-38.25
0
LINE
8
BLACK
6
CONTINUOUS
10
129.16
20
-38.25
11
129.16
21
-40.05
0
LINE
8
BLACK
6
CONTINUOUS
10
134.66
20
-40.05
11
133.84
21
-40.05
0
LINE
8
BLACK
6
CONTINUOUS
10
133.84
20
-40.05
11
133.84
21
-38.25
0
LINE
8
BLACK
6
CONTINUOUS
10
133.84
20
-38.25
11
134.66
21
-38.25
0
LINE
8
BLACK
6
CONTINUOUS
10
134.66
20
-38.25
11
134.66
21
-40.05
0
LINE
8
BLACK
6
CONTINUOUS
10
136.16
20
-40.05
11
135.34
21
-40.05
0
LINE
8
BLACK
6
CONTINUOUS
10
135.34
20
-40.05
11
135.34
21
-38.25
0
LINE
8
BLACK
6
CONTINUOUS
10
135.34
20
-38.25
11
136.16
21
-38.25
0
LINE
8
BLACK
6
CONTINUOUS
10
136.16
20
-38.25
11
136.16
21
-40.05
0
LINE
8
BLACK
6
CONTINUOUS
10
143.16
20
-40.05
11
142.34
21
-40.05
0
LINE
8
BLACK
6
CONTINUOUS
10
142.34
20
-40.05
11
142.34
21
-38.25
0
LINE
8
BLACK
6
CONTINUOUS
10
142.34
20
-38.25
11
143.16
21
-38.25
0
LINE
8
BLACK
6
CONTINUOUS
10
143.16
20
-38.25
11
143.16
21
-40.05
0
LINE
8
BLACK
6
CONTINUOUS
10
141.66
20
-40.05
11
140.84
21
-40.05
0
LINE
8
BLACK
6
CONTINUOUS
10
140.84
20
-40.05
11
140.84
21
-38.25
0
LINE
8
BLACK
6
CONTINUOUS
10
140.84
20
-38.25
11
141.66
21
-38.25
0
LINE
8
BLACK
6
CONTINUOUS
10
141.66
20
-38.25
11
141.66
21
-40.05
0
LINE
8
BLACK
6
CONTINUOUS
10
150.16
20
-40.05
11
149.34
21
-40.05
0
LINE
8
BLACK
6
CONTINUOUS
10
149.34
20
-40.05
11
149.34
21
-38.25
0
LINE
8
BLACK
6
CONTINUOUS
10
149.34
20
-38.25
11
150.16
21
-38.25
0
LINE
8
BLACK
6
CONTINUOUS
10
150.16
20
-38.25
11
150.16
21
-40.05
0
LINE
8
BLACK
6
CONTINUOUS
10
148.66
20
-40.05
11
147.84
21
-40.05
0
LINE
8
BLACK
6
CONTINUOUS
10
147.84
20
-40.05
11
147.84
21
-38.25
0
LINE
8
BLACK
6
CONTINUOUS
10
147.84
20
-38.25
11
148.66
21
-38.25
0
LINE
8
BLACK
6
CONTINUOUS
10
148.66
20
-38.25
11
148.66
21
-40.05
0
LINE
8
BLACK
6
CONTINUOUS
10
155.66
20
-40.05
11
154.84
21
-40.05
0
LINE
8
BLACK
6
CONTINUOUS
10
154.84
20
-40.05
11
154.84
21
-38.25
0
LINE
8
BLACK
6
CONTINUOUS
10
154.84
20
-38.25
11
155.66
21
-38.25
0
LINE
8
BLACK
6
CONTINUOUS
10
155.66
20
-38.25
11
155.66
21
-40.05
0
LINE
8
BLACK
6
CONTINUOUS
10
157.16
20
-40.05
11
156.34
21
-40.05
0
LINE
8
BLACK
6
CONTINUOUS
10
156.34
20
-40.05
11
156.34
21
-38.25
0
LINE
8
BLACK
6
CONTINUOUS
10
156.34
20
-38.25
11
157.16
21
-38.25
0
LINE
8
BLACK
6
CONTINUOUS
10
157.16
20
-38.25
11
157.16
21
-40.05
0
LINE
8
BLACK
6
CONTINUOUS
10
127.66
20
-40.05
11
126.84
21
-40.05
0
LINE
8
BLACK
6
CONTINUOUS
10
126.84
20
-40.05
11
126.84
21
-38.25
0
LINE
8
BLACK
6
CONTINUOUS
10
126.84
20
-38.25
11
127.66
21
-38.25
0
LINE
8
BLACK
6
CONTINUOUS
10
127.66
20
-38.25
11
127.66
21
-40.05
0
LINE
8
BLACK
6
CONTINUOUS
10
129.16
20
-35.05
11
128.34
21
-35.05
0
LINE
8
BLACK
6
CONTINUOUS
10
128.34
20
-35.05
11
128.34
21
-33.25
0
LINE
8
BLACK
6
CONTINUOUS
10
128.34
20
-33.25
11
129.16
21
-33.25
0
LINE
8
BLACK
6
CONTINUOUS
10
129.16
20
-33.25
11
129.16
21
-35.05
0
LINE
8
BLACK
6
CONTINUOUS
10
127.66
20
-35.05
11
126.84
21
-35.05
0
LINE
8
BLACK
6
CONTINUOUS
10
126.84
20
-35.05
11
126.84
21
-33.25
0
LINE
8
BLACK
6
CONTINUOUS
10
126.84
20
-33.25
11
127.66
21
-33.25
0
LINE
8
BLACK
6
CONTINUOUS
10
127.66
20
-33.25
11
127.66
21
-35.05
0
LINE
8
BLACK
6
CONTINUOUS
10
136.16
20
-35.05
11
135.34
21
-35.05
0
LINE
8
BLACK
6
CONTINUOUS
10
135.34
20
-35.05
11
135.34
21
-33.25
0
LINE
8
BLACK
6
CONTINUOUS
10
135.34
20
-33.25
11
136.16
21
-33.25
0
LINE
8
BLACK
6
CONTINUOUS
10
136.16
20
-33.25
11
136.16
21
-35.05
0
LINE
8
BLACK
6
CONTINUOUS
10
134.66
20
-35.05
11
133.84
21
-35.05
0
LINE
8
BLACK
6
CONTINUOUS
10
133.84
20
-35.05
11
133.84
21
-33.25
0
LINE
8
BLACK
6
CONTINUOUS
10
133.84
20
-33.25
11
134.66
21
-33.25
0
LINE
8
BLACK
6
CONTINUOUS
10
134.66
20
-33.25
11
134.66
21
-35.05
0
LINE
8
BLACK
6
CONTINUOUS
10
141.66
20
-35.05
11
140.84
21
-35.05
0
LINE
8
BLACK
6
CONTINUOUS
10
140.84
20
-35.05
11
140.84
21
-33.25
0
LINE
8
BLACK
6
CONTINUOUS
10
140.84
20
-33.25
11
141.66
21
-33.25
0
LINE
8
BLACK
6
CONTINUOUS
10
141.66
20
-33.25
11
141.66
21
-35.05
0
LINE
8
BLACK
6
CONTINUOUS
10
143.16
20
-35.05
11
142.34
21
-35.05
0
LINE
8
BLACK
6
CONTINUOUS
10
142.34
20
-35.05
11
142.34
21
-33.25
0
LINE
8
BLACK
6
CONTINUOUS
10
142.34
20
-33.25
11
143.16
21
-33.25
0
LINE
8
BLACK
6
CONTINUOUS
10
143.16
20
-33.25
11
143.16
21
-35.05
0
LINE
8
BLACK
6
CONTINUOUS
10
148.66
20
-35.05
11
147.84
21
-35.05
0
LINE
8
BLACK
6
CONTINUOUS
10
147.84
20
-35.05
11
147.84
21
-33.25
0
LINE
8
BLACK
6
CONTINUOUS
10
147.84
20
-33.25
11
148.66
21
-33.25
0
LINE
8
BLACK
6
CONTINUOUS
10
148.66
20
-33.25
11
148.66
21
-35.05
0
LINE
8
BLACK
6
CONTINUOUS
10
150.16
20
-35.05
11
149.34
21
-35.05
0
LINE
8
BLACK
6
CONTINUOUS
10
149.34
20
-35.05
11
149.34
21
-33.25
0
LINE
8
BLACK
6
CONTINUOUS
10
149.34
20
-33.25
11
150.16
21
-33.25
0
LINE
8
BLACK
6
CONTINUOUS
10
150.16
20
-33.25
11
150.16
21
-35.05
0
LINE
8
BLACK
6
CONTINUOUS
10
157.16
20
-35.05
11
156.34
21
-35.05
0
LINE
8
BLACK
6
CONTINUOUS
10
156.34
20
-35.05
11
156.34
21
-33.25
0
LINE
8
BLACK
6
CONTINUOUS
10
156.34
20
-33.25
11
157.16
21
-33.25
0
LINE
8
BLACK
6
CONTINUOUS
10
157.16
20
-33.25
11
157.16
21
-35.05
0
LINE
8
BLACK
6
CONTINUOUS
10
155.66
20
-35.05
11
154.84
21
-35.05
0
LINE
8
BLACK
6
CONTINUOUS
10
154.84
20
-35.05
11
154.84
21
-33.25
0
LINE
8
BLACK
6
CONTINUOUS
10
154.84
20
-33.25
11
155.66
21
-33.25
0
LINE
8
BLACK
6
CONTINUOUS
10
155.66
20
-33.25
11
155.66
21
-35.05
0
LINE
8
BLACK
6
CONTINUOUS
10
128.084
20
-28.1587
11
128.223
21
-28.2161
0
LINE
8
BLACK
6
CONTINUOUS
10
128.223
20
-28.2161
11
128.348
21
-28.2995
0
LINE
8
BLACK
6
CONTINUOUS
10
128.348
20
-28.2995
11
128.454
21
-28.4057
0
LINE
8
BLACK
6
CONTINUOUS
10
128.454
20
-28.4057
11
128.537
21
-28.5305
0
LINE
8
BLACK
6
CONTINUOUS
10
128.537
20
-28.5305
11
128.595
21
-28.6691
0
LINE
8
BLACK
6
CONTINUOUS
10
128.595
20
-28.6691
11
128.624
21
-28.8163
0
LINE
8
BLACK
6
CONTINUOUS
10
128.624
20
-28.8163
11
128.624
21
-28.9664
0
LINE
8
BLACK
6
CONTINUOUS
10
128.624
20
-28.9664
11
128.595
21
-29.1137
0
LINE
8
BLACK
6
CONTINUOUS
10
128.595
20
-29.1137
11
128.537
21
-29.2523
0
LINE
8
BLACK
6
CONTINUOUS
10
128.537
20
-29.2523
11
128.454
21
-29.3771
0
LINE
8
BLACK
6
CONTINUOUS
10
128.454
20
-29.3771
11
128.348
21
-29.4833
0
LINE
8
BLACK
6
CONTINUOUS
10
128.348
20
-29.4833
11
128.223
21
-29.5667
0
LINE
8
BLACK
6
CONTINUOUS
10
128.223
20
-29.5667
11
128.084
21
-29.6241
0
LINE
8
BLACK
6
CONTINUOUS
10
128.084
20
-29.6241
11
127.937
21
-29.6534
0
LINE
8
BLACK
6
CONTINUOUS
10
127.937
20
-29.6534
11
127.787
21
-29.6534
0
LINE
8
BLACK
6
CONTINUOUS
10
127.787
20
-29.6534
11
127.64
21
-29.6241
0
LINE
8
BLACK
6
CONTINUOUS
10
127.64
20
-29.6241
11
127.501
21
-29.5667
0
LINE
8
BLACK
6
CONTINUOUS
10
127.501
20
-29.5667
11
127.376
21
-29.4833
0
LINE
8
BLACK
6
CONTINUOUS
10
127.376
20
-29.4833
11
127.27
21
-29.3771
0
LINE
8
BLACK
6
CONTINUOUS
10
127.27
20
-29.3771
11
127.187
21
-29.2523
0
LINE
8
BLACK
6
CONTINUOUS
10
127.187
20
-29.2523
11
127.129
21
-29.1137
0
LINE
8
BLACK
6
CONTINUOUS
10
127.129
20
-29.1137
11
127.1
21
-28.9664
0
LINE
8
BLACK
6
CONTINUOUS
10
127.1
20
-28.9664
11
127.1
21
-28.8163
0
LINE
8
BLACK
6
CONTINUOUS
10
127.1
20
-28.8163
11
127.129
21
-28.6691
0
LINE
8
BLACK
6
CONTINUOUS
10
127.129
20
-28.6691
11
127.187
21
-28.5305
0
LINE
8
BLACK
6
CONTINUOUS
10
127.187
20
-28.5305
11
127.27
21
-28.4057
0
LINE
8
BLACK
6
CONTINUOUS
10
127.27
20
-28.4057
11
127.376
21
-28.2995
0
LINE
8
BLACK
6
CONTINUOUS
10
127.376
20
-28.2995
11
127.501
21
-28.2161
0
LINE
8
BLACK
6
CONTINUOUS
10
127.501
20
-28.2161
11
127.64
21
-28.1587
0
LINE
8
BLACK
6
CONTINUOUS
10
127.64
20
-28.1587
11
127.787
21
-28.1294
0
LINE
8
BLACK
6
CONTINUOUS
10
127.787
20
-28.1294
11
127.937
21
-28.1294
0
LINE
8
BLACK
6
CONTINUOUS
10
127.937
20
-28.1294
11
128.084
21
-28.1587
0
LINE
8
BLACK
6
CONTINUOUS
10
153.484
20
-28.1587
11
153.623
21
-28.2161
0
LINE
8
BLACK
6
CONTINUOUS
10
153.623
20
-28.2161
11
153.748
21
-28.2995
0
LINE
8
BLACK
6
CONTINUOUS
10
153.748
20
-28.2995
11
153.854
21
-28.4057
0
LINE
8
BLACK
6
CONTINUOUS
10
153.854
20
-28.4057
11
153.937
21
-28.5305
0
LINE
8
BLACK
6
CONTINUOUS
10
153.937
20
-28.5305
11
153.995
21
-28.6691
0
LINE
8
BLACK
6
CONTINUOUS
10
153.995
20
-28.6691
11
154.024
21
-28.8163
0
LINE
8
BLACK
6
CONTINUOUS
10
154.024
20
-28.8163
11
154.024
21
-28.9664
0
LINE
8
BLACK
6
CONTINUOUS
10
154.024
20
-28.9664
11
153.995
21
-29.1137
0
LINE
8
BLACK
6
CONTINUOUS
10
153.995
20
-29.1137
11
153.937
21
-29.2523
0
LINE
8
BLACK
6
CONTINUOUS
10
153.937
20
-29.2523
11
153.854
21
-29.3771
0
LINE
8
BLACK
6
CONTINUOUS
10
153.854
20
-29.3771
11
153.748
21
-29.4833
0
LINE
8
BLACK
6
CONTINUOUS
10
153.748
20
-29.4833
11
153.623
21
-29.5667
0
LINE
8
BLACK
6
CONTINUOUS
10
153.623
20
-29.5667
11
153.484
21
-29.6241
0
LINE
8
BLACK
6
CONTINUOUS
10
153.484
20
-29.6241
11
153.337
21
-29.6534
0
LINE
8
BLACK
6
CONTINUOUS
10
153.337
20
-29.6534
11
153.187
21
-29.6534
0
LINE
8
BLACK
6
CONTINUOUS
10
153.187
20
-29.6534
11
153.04
21
-29.6241
0
LINE
8
BLACK
6
CONTINUOUS
10
153.04
20
-29.6241
11
152.901
21
-29.5667
0
LINE
8
BLACK
6
CONTINUOUS
10
152.901
20
-29.5667
11
152.776
21
-29.4833
0
LINE
8
BLACK
6
CONTINUOUS
10
152.776
20
-29.4833
11
152.67
21
-29.3771
0
LINE
8
BLACK
6
CONTINUOUS
10
152.67
20
-29.3771
11
152.587
21
-29.2523
0
LINE
8
BLACK
6
CONTINUOUS
10
152.587
20
-29.2523
11
152.529
21
-29.1137
0
LINE
8
BLACK
6
CONTINUOUS
10
152.529
20
-29.1137
11
152.5
21
-28.9664
0
LINE
8
BLACK
6
CONTINUOUS
10
152.5
20
-28.9664
11
152.5
21
-28.8163
0
LINE
8
BLACK
6
CONTINUOUS
10
152.5
20
-28.8163
11
152.529
21
-28.6691
0
LINE
8
BLACK
6
CONTINUOUS
10
152.529
20
-28.6691
11
152.587
21
-28.5305
0
LINE
8
BLACK
6
CONTINUOUS
10
152.587
20
-28.5305
11
152.67
21
-28.4057
0
LINE
8
BLACK
6
CONTINUOUS
10
152.67
20
-28.4057
11
152.776
21
-28.2995
0
LINE
8
BLACK
6
CONTINUOUS
10
152.776
20
-28.2995
11
152.901
21
-28.2161
0
LINE
8
BLACK
6
CONTINUOUS
10
152.901
20
-28.2161
11
153.04
21
-28.1587
0
LINE
8
BLACK
6
CONTINUOUS
10
153.04
20
-28.1587
11
153.187
21
-28.1294
0
LINE
8
BLACK
6
CONTINUOUS
10
153.187
20
-28.1294
11
153.337
21
-28.1294
0
LINE
8
BLACK
6
CONTINUOUS
10
153.337
20
-28.1294
11
153.484
21
-28.1587
0
LINE
8
BLACK
6
CONTINUOUS
10
150.944
20
-28.1587
11
151.083
21
-28.2161
0
LINE
8
BLACK
6
CONTINUOUS
10
151.083
20
-28.2161
11
151.208
21
-28.2995
0
LINE
8
BLACK
6
CONTINUOUS
10
151.208
20
-28.2995
11
151.314
21
-28.4057
0
LINE
8
BLACK
6
CONTINUOUS
10
151.314
20
-28.4057
11
151.397
21
-28.5305
0
LINE
8
BLACK
6
CONTINUOUS
10
151.397
20
-28.5305
11
151.455
21
-28.6691
0
LINE
8
BLACK
6
CONTINUOUS
10
151.455
20
-28.6691
11
151.484
21
-28.8163
0
LINE
8
BLACK
6
CONTINUOUS
10
151.484
20
-28.8163
11
151.484
21
-28.9664
0
LINE
8
BLACK
6
CONTINUOUS
10
151.484
20
-28.9664
11
151.455
21
-29.1137
0
LINE
8
BLACK
6
CONTINUOUS
10
151.455
20
-29.1137
11
151.397
21
-29.2523
0
LINE
8
BLACK
6
CONTINUOUS
10
151.397
20
-29.2523
11
151.314
21
-29.3771
0
LINE
8
BLACK
6
CONTINUOUS
10
151.314
20
-29.3771
11
151.208
21
-29.4833
0
LINE
8
BLACK
6
CONTINUOUS
10
151.208
20
-29.4833
11
151.083
21
-29.5667
0
LINE
8
BLACK
6
CONTINUOUS
10
151.083
20
-29.5667
11
150.944
21
-29.6241
0
LINE
8
BLACK
6
CONTINUOUS
10
150.944
20
-29.6241
11
150.797
21
-29.6534
0
LINE
8
BLACK
6
CONTINUOUS
10
150.797
20
-29.6534
11
150.647
21
-29.6534
0
LINE
8
BLACK
6
CONTINUOUS
10
150.647
20
-29.6534
11
150.5
21
-29.6241
0
LINE
8
BLACK
6
CONTINUOUS
10
150.5
20
-29.6241
11
150.361
21
-29.5667
0
LINE
8
BLACK
6
CONTINUOUS
10
150.361
20
-29.5667
11
150.236
21
-29.4833
0
LINE
8
BLACK
6
CONTINUOUS
10
150.236
20
-29.4833
11
150.13
21
-29.3771
0
LINE
8
BLACK
6
CONTINUOUS
10
150.13
20
-29.3771
11
150.047
21
-29.2523
0
LINE
8
BLACK
6
CONTINUOUS
10
150.047
20
-29.2523
11
149.989
21
-29.1137
0
LINE
8
BLACK
6
CONTINUOUS
10
149.989
20
-29.1137
11
149.96
21
-28.9664
0
LINE
8
BLACK
6
CONTINUOUS
10
149.96
20
-28.9664
11
149.96
21
-28.8163
0
LINE
8
BLACK
6
CONTINUOUS
10
149.96
20
-28.8163
11
149.989
21
-28.6691
0
LINE
8
BLACK
6
CONTINUOUS
10
149.989
20
-28.6691
11
150.047
21
-28.5305
0
LINE
8
BLACK
6
CONTINUOUS
10
150.047
20
-28.5305
11
150.13
21
-28.4057
0
LINE
8
BLACK
6
CONTINUOUS
10
150.13
20
-28.4057
11
150.236
21
-28.2995
0
LINE
8
BLACK
6
CONTINUOUS
10
150.236
20
-28.2995
11
150.361
21
-28.2161
0
LINE
8
BLACK
6
CONTINUOUS
10
150.361
20
-28.2161
11
150.5
21
-28.1587
0
LINE
8
BLACK
6
CONTINUOUS
10
150.5
20
-28.1587
11
150.647
21
-28.1294
0
LINE
8
BLACK
6
CONTINUOUS
10
150.647
20
-28.1294
11
150.797
21
-28.1294
0
LINE
8
BLACK
6
CONTINUOUS
10
150.797
20
-28.1294
11
150.944
21
-28.1587
0
LINE
8
BLACK
6
CONTINUOUS
10
148.404
20
-28.1587
11
148.543
21
-28.2161
0
LINE
8
BLACK
6
CONTINUOUS
10
148.543
20
-28.2161
11
148.668
21
-28.2995
0
LINE
8
BLACK
6
CONTINUOUS
10
148.668
20
-28.2995
11
148.774
21
-28.4057
0
LINE
8
BLACK
6
CONTINUOUS
10
148.774
20
-28.4057
11
148.857
21
-28.5305
0
LINE
8
BLACK
6
CONTINUOUS
10
148.857
20
-28.5305
11
148.915
21
-28.6691
0
LINE
8
BLACK
6
CONTINUOUS
10
148.915
20
-28.6691
11
148.944
21
-28.8163
0
LINE
8
BLACK
6
CONTINUOUS
10
148.944
20
-28.8163
11
148.944
21
-28.9664
0
LINE
8
BLACK
6
CONTINUOUS
10
148.944
20
-28.9664
11
148.915
21
-29.1137
0
LINE
8
BLACK
6
CONTINUOUS
10
148.915
20
-29.1137
11
148.857
21
-29.2523
0
LINE
8
BLACK
6
CONTINUOUS
10
148.857
20
-29.2523
11
148.774
21
-29.3771
0
LINE
8
BLACK
6
CONTINUOUS
10
148.774
20
-29.3771
11
148.668
21
-29.4833
0
LINE
8
BLACK
6
CONTINUOUS
10
148.668
20
-29.4833
11
148.543
21
-29.5667
0
LINE
8
BLACK
6
CONTINUOUS
10
148.543
20
-29.5667
11
148.404
21
-29.6241
0
LINE
8
BLACK
6
CONTINUOUS
10
148.404
20
-29.6241
11
148.257
21
-29.6534
0
LINE
8
BLACK
6
CONTINUOUS
10
148.257
20
-29.6534
11
148.107
21
-29.6534
0
LINE
8
BLACK
6
CONTINUOUS
10
148.107
20
-29.6534
11
147.96
21
-29.6241
0
LINE
8
BLACK
6
CONTINUOUS
10
147.96
20
-29.6241
11
147.821
21
-29.5667
0
LINE
8
BLACK
6
CONTINUOUS
10
147.821
20
-29.5667
11
147.696
21
-29.4833
0
LINE
8
BLACK
6
CONTINUOUS
10
147.696
20
-29.4833
11
147.59
21
-29.3771
0
LINE
8
BLACK
6
CONTINUOUS
10
147.59
20
-29.3771
11
147.507
21
-29.2523
0
LINE
8
BLACK
6
CONTINUOUS
10
147.507
20
-29.2523
11
147.449
21
-29.1137
0
LINE
8
BLACK
6
CONTINUOUS
10
147.449
20
-29.1137
11
147.42
21
-28.9664
0
LINE
8
BLACK
6
CONTINUOUS
10
147.42
20
-28.9664
11
147.42
21
-28.8163
0
LINE
8
BLACK
6
CONTINUOUS
10
147.42
20
-28.8163
11
147.449
21
-28.6691
0
LINE
8
BLACK
6
CONTINUOUS
10
147.449
20
-28.6691
11
147.507
21
-28.5305
0
LINE
8
BLACK
6
CONTINUOUS
10
147.507
20
-28.5305
11
147.59
21
-28.4057
0
LINE
8
BLACK
6
CONTINUOUS
10
147.59
20
-28.4057
11
147.696
21
-28.2995
0
LINE
8
BLACK
6
CONTINUOUS
10
147.696
20
-28.2995
11
147.821
21
-28.2161
0
LINE
8
BLACK
6
CONTINUOUS
10
147.821
20
-28.2161
11
147.96
21
-28.1587
0
LINE
8
BLACK
6
CONTINUOUS
10
147.96
20
-28.1587
11
148.107
21
-28.1294
0
LINE
8
BLACK
6
CONTINUOUS
10
148.107
20
-28.1294
11
148.257
21
-28.1294
0
LINE
8
BLACK
6
CONTINUOUS
10
148.257
20
-28.1294
11
148.404
21
-28.1587
0
LINE
8
BLACK
6
CONTINUOUS
10
145.864
20
-28.1587
11
146.003
21
-28.2161
0
LINE
8
BLACK
6
CONTINUOUS
10
146.003
20
-28.2161
11
146.128
21
-28.2995
0
LINE
8
BLACK
6
CONTINUOUS
10
146.128
20
-28.2995
11
146.234
21
-28.4057
0
LINE
8
BLACK
6
CONTINUOUS
10
146.234
20
-28.4057
11
146.317
21
-28.5305
0
LINE
8
BLACK
6
CONTINUOUS
10
146.317
20
-28.5305
11
146.375
21
-28.6691
0
LINE
8
BLACK
6
CONTINUOUS
10
146.375
20
-28.6691
11
146.404
21
-28.8163
0
LINE
8
BLACK
6
CONTINUOUS
10
146.404
20
-28.8163
11
146.404
21
-28.9664
0
LINE
8
BLACK
6
CONTINUOUS
10
146.404
20
-28.9664
11
146.375
21
-29.1137
0
LINE
8
BLACK
6
CONTINUOUS
10
146.375
20
-29.1137
11
146.317
21
-29.2523
0
LINE
8
BLACK
6
CONTINUOUS
10
146.317
20
-29.2523
11
146.234
21
-29.3771
0
LINE
8
BLACK
6
CONTINUOUS
10
146.234
20
-29.3771
11
146.128
21
-29.4833
0
LINE
8
BLACK
6
CONTINUOUS
10
146.128
20
-29.4833
11
146.003
21
-29.5667
0
LINE
8
BLACK
6
CONTINUOUS
10
146.003
20
-29.5667
11
145.864
21
-29.6241
0
LINE
8
BLACK
6
CONTINUOUS
10
145.864
20
-29.6241
11
145.717
21
-29.6534
0
LINE
8
BLACK
6
CONTINUOUS
10
145.717
20
-29.6534
11
145.567
21
-29.6534
0
LINE
8
BLACK
6
CONTINUOUS
10
145.567
20
-29.6534
11
145.42
21
-29.6241
0
LINE
8
BLACK
6
CONTINUOUS
10
145.42
20
-29.6241
11
145.281
21
-29.5667
0
LINE
8
BLACK
6
CONTINUOUS
10
145.281
20
-29.5667
11
145.156
21
-29.4833
0
LINE
8
BLACK
6
CONTINUOUS
10
145.156
20
-29.4833
11
145.05
21
-29.3771
0
LINE
8
BLACK
6
CONTINUOUS
10
145.05
20
-29.3771
11
144.967
21
-29.2523
0
LINE
8
BLACK
6
CONTINUOUS
10
144.967
20
-29.2523
11
144.909
21
-29.1137
0
LINE
8
BLACK
6
CONTINUOUS
10
144.909
20
-29.1137
11
144.88
21
-28.9664
0
LINE
8
BLACK
6
CONTINUOUS
10
144.88
20
-28.9664
11
144.88
21
-28.8163
0
LINE
8
BLACK
6
CONTINUOUS
10
144.88
20
-28.8163
11
144.909
21
-28.6691
0
LINE
8
BLACK
6
CONTINUOUS
10
144.909
20
-28.6691
11
144.967
21
-28.5305
0
LINE
8
BLACK
6
CONTINUOUS
10
144.967
20
-28.5305
11
145.05
21
-28.4057
0
LINE
8
BLACK
6
CONTINUOUS
10
145.05
20
-28.4057
11
145.156
21
-28.2995
0
LINE
8
BLACK
6
CONTINUOUS
10
145.156
20
-28.2995
11
145.281
21
-28.2161
0
LINE
8
BLACK
6
CONTINUOUS
10
145.281
20
-28.2161
11
145.42
21
-28.1587
0
LINE
8
BLACK
6
CONTINUOUS
10
145.42
20
-28.1587
11
145.567
21
-28.1294
0
LINE
8
BLACK
6
CONTINUOUS
10
145.567
20
-28.1294
11
145.717
21
-28.1294
0
LINE
8
BLACK
6
CONTINUOUS
10
145.717
20
-28.1294
11
145.864
21
-28.1587
0
LINE
8
BLACK
6
CONTINUOUS
10
143.324
20
-28.1587
11
143.463
21
-28.2161
0
LINE
8
BLACK
6
CONTINUOUS
10
143.463
20
-28.2161
11
143.588
21
-28.2995
0
LINE
8
BLACK
6
CONTINUOUS
10
143.588
20
-28.2995
11
143.694
21
-28.4057
0
LINE
8
BLACK
6
CONTINUOUS
10
143.694
20
-28.4057
11
143.777
21
-28.5305
0
LINE
8
BLACK
6
CONTINUOUS
10
143.777
20
-28.5305
11
143.835
21
-28.6691
0
LINE
8
BLACK
6
CONTINUOUS
10
143.835
20
-28.6691
11
143.864
21
-28.8163
0
LINE
8
BLACK
6
CONTINUOUS
10
143.864
20
-28.8163
11
143.864
21
-28.9664
0
LINE
8
BLACK
6
CONTINUOUS
10
143.864
20
-28.9664
11
143.835
21
-29.1137
0
LINE
8
BLACK
6
CONTINUOUS
10
143.835
20
-29.1137
11
143.777
21
-29.2523
0
LINE
8
BLACK
6
CONTINUOUS
10
143.777
20
-29.2523
11
143.694
21
-29.3771
0
LINE
8
BLACK
6
CONTINUOUS
10
143.694
20
-29.3771
11
143.588
21
-29.4833
0
LINE
8
BLACK
6
CONTINUOUS
10
143.588
20
-29.4833
11
143.463
21
-29.5667
0
LINE
8
BLACK
6
CONTINUOUS
10
143.463
20
-29.5667
11
143.324
21
-29.6241
0
LINE
8
BLACK
6
CONTINUOUS
10
143.324
20
-29.6241
11
143.177
21
-29.6534
0
LINE
8
BLACK
6
CONTINUOUS
10
143.177
20
-29.6534
11
143.027
21
-29.6534
0
LINE
8
BLACK
6
CONTINUOUS
10
143.027
20
-29.6534
11
142.88
21
-29.6241
0
LINE
8
BLACK
6
CONTINUOUS
10
142.88
20
-29.6241
11
142.741
21
-29.5667
0
LINE
8
BLACK
6
CONTINUOUS
10
142.741
20
-29.5667
11
142.616
21
-29.4833
0
LINE
8
BLACK
6
CONTINUOUS
10
142.616
20
-29.4833
11
142.51
21
-29.3771
0
LINE
8
BLACK
6
CONTINUOUS
10
142.51
20
-29.3771
11
142.427
21
-29.2523
0
LINE
8
BLACK
6
CONTINUOUS
10
142.427
20
-29.2523
11
142.369
21
-29.1137
0
LINE
8
BLACK
6
CONTINUOUS
10
142.369
20
-29.1137
11
142.34
21
-28.9664
0
LINE
8
BLACK
6
CONTINUOUS
10
142.34
20
-28.9664
11
142.34
21
-28.8163
0
LINE
8
BLACK
6
CONTINUOUS
10
142.34
20
-28.8163
11
142.369
21
-28.6691
0
LINE
8
BLACK
6
CONTINUOUS
10
142.369
20
-28.6691
11
142.427
21
-28.5305
0
LINE
8
BLACK
6
CONTINUOUS
10
142.427
20
-28.5305
11
142.51
21
-28.4057
0
LINE
8
BLACK
6
CONTINUOUS
10
142.51
20
-28.4057
11
142.616
21
-28.2995
0
LINE
8
BLACK
6
CONTINUOUS
10
142.616
20
-28.2995
11
142.741
21
-28.2161
0
LINE
8
BLACK
6
CONTINUOUS
10
142.741
20
-28.2161
11
142.88
21
-28.1587
0
LINE
8
BLACK
6
CONTINUOUS
10
142.88
20
-28.1587
11
143.027
21
-28.1294
0
LINE
8
BLACK
6
CONTINUOUS
10
143.027
20
-28.1294
11
143.177
21
-28.1294
0
LINE
8
BLACK
6
CONTINUOUS
10
143.177
20
-28.1294
11
143.324
21
-28.1587
0
LINE
8
BLACK
6
CONTINUOUS
10
140.784
20
-28.1587
11
140.923
21
-28.2161
0
LINE
8
BLACK
6
CONTINUOUS
10
140.923
20
-28.2161
11
141.048
21
-28.2995
0
LINE
8
BLACK
6
CONTINUOUS
10
141.048
20
-28.2995
11
141.154
21
-28.4057
0
LINE
8
BLACK
6
CONTINUOUS
10
141.154
20
-28.4057
11
141.237
21
-28.5305
0
LINE
8
BLACK
6
CONTINUOUS
10
141.237
20
-28.5305
11
141.295
21
-28.6691
0
LINE
8
BLACK
6
CONTINUOUS
10
141.295
20
-28.6691
11
141.324
21
-28.8163
0
LINE
8
BLACK
6
CONTINUOUS
10
141.324
20
-28.8163
11
141.324
21
-28.9664
0
LINE
8
BLACK
6
CONTINUOUS
10
141.324
20
-28.9664
11
141.295
21
-29.1137
0
LINE
8
BLACK
6
CONTINUOUS
10
141.295
20
-29.1137
11
141.237
21
-29.2523
0
LINE
8
BLACK
6
CONTINUOUS
10
141.237
20
-29.2523
11
141.154
21
-29.3771
0
LINE
8
BLACK
6
CONTINUOUS
10
141.154
20
-29.3771
11
141.048
21
-29.4833
0
LINE
8
BLACK
6
CONTINUOUS
10
141.048
20
-29.4833
11
140.923
21
-29.5667
0
LINE
8
BLACK
6
CONTINUOUS
10
140.923
20
-29.5667
11
140.784
21
-29.6241
0
LINE
8
BLACK
6
CONTINUOUS
10
140.784
20
-29.6241
11
140.637
21
-29.6534
0
LINE
8
BLACK
6
CONTINUOUS
10
140.637
20
-29.6534
11
140.487
21
-29.6534
0
LINE
8
BLACK
6
CONTINUOUS
10
140.487
20
-29.6534
11
140.34
21
-29.6241
0
LINE
8
BLACK
6
CONTINUOUS
10
140.34
20
-29.6241
11
140.201
21
-29.5667
0
LINE
8
BLACK
6
CONTINUOUS
10
140.201
20
-29.5667
11
140.076
21
-29.4833
0
LINE
8
BLACK
6
CONTINUOUS
10
140.076
20
-29.4833
11
139.97
21
-29.3771
0
LINE
8
BLACK
6
CONTINUOUS
10
139.97
20
-29.3771
11
139.887
21
-29.2523
0
LINE
8
BLACK
6
CONTINUOUS
10
139.887
20
-29.2523
11
139.829
21
-29.1137
0
LINE
8
BLACK
6
CONTINUOUS
10
139.829
20
-29.1137
11
139.8
21
-28.9664
0
LINE
8
BLACK
6
CONTINUOUS
10
139.8
20
-28.9664
11
139.8
21
-28.8163
0
LINE
8
BLACK
6
CONTINUOUS
10
139.8
20
-28.8163
11
139.829
21
-28.6691
0
LINE
8
BLACK
6
CONTINUOUS
10
139.829
20
-28.6691
11
139.887
21
-28.5305
0
LINE
8
BLACK
6
CONTINUOUS
10
139.887
20
-28.5305
11
139.97
21
-28.4057
0
LINE
8
BLACK
6
CONTINUOUS
10
139.97
20
-28.4057
11
140.076
21
-28.2995
0
LINE
8
BLACK
6
CONTINUOUS
10
140.076
20
-28.2995
11
140.201
21
-28.2161
0
LINE
8
BLACK
6
CONTINUOUS
10
140.201
20
-28.2161
11
140.34
21
-28.1587
0
LINE
8
BLACK
6
CONTINUOUS
10
140.34
20
-28.1587
11
140.487
21
-28.1294
0
LINE
8
BLACK
6
CONTINUOUS
10
140.487
20
-28.1294
11
140.637
21
-28.1294
0
LINE
8
BLACK
6
CONTINUOUS
10
140.637
20
-28.1294
11
140.784
21
-28.1587
0
LINE
8
BLACK
6
CONTINUOUS
10
138.244
20
-28.1587
11
138.383
21
-28.2161
0
LINE
8
BLACK
6
CONTINUOUS
10
138.383
20
-28.2161
11
138.508
21
-28.2995
0
LINE
8
BLACK
6
CONTINUOUS
10
138.508
20
-28.2995
11
138.614
21
-28.4057
0
LINE
8
BLACK
6
CONTINUOUS
10
138.614
20
-28.4057
11
138.697
21
-28.5305
0
LINE
8
BLACK
6
CONTINUOUS
10
138.697
20
-28.5305
11
138.755
21
-28.6691
0
LINE
8
BLACK
6
CONTINUOUS
10
138.755
20
-28.6691
11
138.784
21
-28.8163
0
LINE
8
BLACK
6
CONTINUOUS
10
138.784
20
-28.8163
11
138.784
21
-28.9664
0
LINE
8
BLACK
6
CONTINUOUS
10
138.784
20
-28.9664
11
138.755
21
-29.1137
0
LINE
8
BLACK
6
CONTINUOUS
10
138.755
20
-29.1137
11
138.697
21
-29.2523
0
LINE
8
BLACK
6
CONTINUOUS
10
138.697
20
-29.2523
11
138.614
21
-29.3771
0
LINE
8
BLACK
6
CONTINUOUS
10
138.614
20
-29.3771
11
138.508
21
-29.4833
0
LINE
8
BLACK
6
CONTINUOUS
10
138.508
20
-29.4833
11
138.383
21
-29.5667
0
LINE
8
BLACK
6
CONTINUOUS
10
138.383
20
-29.5667
11
138.244
21
-29.6241
0
LINE
8
BLACK
6
CONTINUOUS
10
138.244
20
-29.6241
11
138.097
21
-29.6534
0
LINE
8
BLACK
6
CONTINUOUS
10
138.097
20
-29.6534
11
137.947
21
-29.6534
0
LINE
8
BLACK
6
CONTINUOUS
10
137.947
20
-29.6534
11
137.8
21
-29.6241
0
LINE
8
BLACK
6
CONTINUOUS
10
137.8
20
-29.6241
11
137.661
21
-29.5667
0
LINE
8
BLACK
6
CONTINUOUS
10
137.661
20
-29.5667
11
137.536
21
-29.4833
0
LINE
8
BLACK
6
CONTINUOUS
10
137.536
20
-29.4833
11
137.43
21
-29.3771
0
LINE
8
BLACK
6
CONTINUOUS
10
137.43
20
-29.3771
11
137.347
21
-29.2523
0
LINE
8
BLACK
6
CONTINUOUS
10
137.347
20
-29.2523
11
137.289
21
-29.1137
0
LINE
8
BLACK
6
CONTINUOUS
10
137.289
20
-29.1137
11
137.26
21
-28.9664
0
LINE
8
BLACK
6
CONTINUOUS
10
137.26
20
-28.9664
11
137.26
21
-28.8163
0
LINE
8
BLACK
6
CONTINUOUS
10
137.26
20
-28.8163
11
137.289
21
-28.6691
0
LINE
8
BLACK
6
CONTINUOUS
10
137.289
20
-28.6691
11
137.347
21
-28.5305
0
LINE
8
BLACK
6
CONTINUOUS
10
137.347
20
-28.5305
11
137.43
21
-28.4057
0
LINE
8
BLACK
6
CONTINUOUS
10
137.43
20
-28.4057
11
137.536
21
-28.2995
0
LINE
8
BLACK
6
CONTINUOUS
10
137.536
20
-28.2995
11
137.661
21
-28.2161
0
LINE
8
BLACK
6
CONTINUOUS
10
137.661
20
-28.2161
11
137.8
21
-28.1587
0
LINE
8
BLACK
6
CONTINUOUS
10
137.8
20
-28.1587
11
137.947
21
-28.1294
0
LINE
8
BLACK
6
CONTINUOUS
10
137.947
20
-28.1294
11
138.097
21
-28.1294
0
LINE
8
BLACK
6
CONTINUOUS
10
138.097
20
-28.1294
11
138.244
21
-28.1587
0
LINE
8
BLACK
6
CONTINUOUS
10
135.704
20
-28.1587
11
135.843
21
-28.2161
0
LINE
8
BLACK
6
CONTINUOUS
10
135.843
20
-28.2161
11
135.968
21
-28.2995
0
LINE
8
BLACK
6
CONTINUOUS
10
135.968
20
-28.2995
11
136.074
21
-28.4057
0
LINE
8
BLACK
6
CONTINUOUS
10
136.074
20
-28.4057
11
136.157
21
-28.5305
0
LINE
8
BLACK
6
CONTINUOUS
10
136.157
20
-28.5305
11
136.215
21
-28.6691
0
LINE
8
BLACK
6
CONTINUOUS
10
136.215
20
-28.6691
11
136.244
21
-28.8163
0
LINE
8
BLACK
6
CONTINUOUS
10
136.244
20
-28.8163
11
136.244
21
-28.9664
0
LINE
8
BLACK
6
CONTINUOUS
10
136.244
20
-28.9664
11
136.215
21
-29.1137
0
LINE
8
BLACK
6
CONTINUOUS
10
136.215
20
-29.1137
11
136.157
21
-29.2523
0
LINE
8
BLACK
6
CONTINUOUS
10
136.157
20
-29.2523
11
136.074
21
-29.3771
0
LINE
8
BLACK
6
CONTINUOUS
10
136.074
20
-29.3771
11
135.968
21
-29.4833
0
LINE
8
BLACK
6
CONTINUOUS
10
135.968
20
-29.4833
11
135.843
21
-29.5667
0
LINE
8
BLACK
6
CONTINUOUS
10
135.843
20
-29.5667
11
135.704
21
-29.6241
0
LINE
8
BLACK
6
CONTINUOUS
10
135.704
20
-29.6241
11
135.557
21
-29.6534
0
LINE
8
BLACK
6
CONTINUOUS
10
135.557
20
-29.6534
11
135.407
21
-29.6534
0
LINE
8
BLACK
6
CONTINUOUS
10
135.407
20
-29.6534
11
135.26
21
-29.6241
0
LINE
8
BLACK
6
CONTINUOUS
10
135.26
20
-29.6241
11
135.121
21
-29.5667
0
LINE
8
BLACK
6
CONTINUOUS
10
135.121
20
-29.5667
11
134.996
21
-29.4833
0
LINE
8
BLACK
6
CONTINUOUS
10
134.996
20
-29.4833
11
134.89
21
-29.3771
0
LINE
8
BLACK
6
CONTINUOUS
10
134.89
20
-29.3771
11
134.807
21
-29.2523
0
LINE
8
BLACK
6
CONTINUOUS
10
134.807
20
-29.2523
11
134.749
21
-29.1137
0
LINE
8
BLACK
6
CONTINUOUS
10
134.749
20
-29.1137
11
134.72
21
-28.9664
0
LINE
8
BLACK
6
CONTINUOUS
10
134.72
20
-28.9664
11
134.72
21
-28.8163
0
LINE
8
BLACK
6
CONTINUOUS
10
134.72
20
-28.8163
11
134.749
21
-28.6691
0
LINE
8
BLACK
6
CONTINUOUS
10
134.749
20
-28.6691
11
134.807
21
-28.5305
0
LINE
8
BLACK
6
CONTINUOUS
10
134.807
20
-28.5305
11
134.89
21
-28.4057
0
LINE
8
BLACK
6
CONTINUOUS
10
134.89
20
-28.4057
11
134.996
21
-28.2995
0
LINE
8
BLACK
6
CONTINUOUS
10
134.996
20
-28.2995
11
135.121
21
-28.2161
0
LINE
8
BLACK
6
CONTINUOUS
10
135.121
20
-28.2161
11
135.26
21
-28.1587
0
LINE
8
BLACK
6
CONTINUOUS
10
135.26
20
-28.1587
11
135.407
21
-28.1294
0
LINE
8
BLACK
6
CONTINUOUS
10
135.407
20
-28.1294
11
135.557
21
-28.1294
0
LINE
8
BLACK
6
CONTINUOUS
10
135.557
20
-28.1294
11
135.704
21
-28.1587
0
LINE
8
BLACK
6
CONTINUOUS
10
133.164
20
-28.1587
11
133.303
21
-28.2161
0
LINE
8
BLACK
6
CONTINUOUS
10
133.303
20
-28.2161
11
133.428
21
-28.2995
0
LINE
8
BLACK
6
CONTINUOUS
10
133.428
20
-28.2995
11
133.534
21
-28.4057
0
LINE
8
BLACK
6
CONTINUOUS
10
133.534
20
-28.4057
11
133.617
21
-28.5305
0
LINE
8
BLACK
6
CONTINUOUS
10
133.617
20
-28.5305
11
133.675
21
-28.6691
0
LINE
8
BLACK
6
CONTINUOUS
10
133.675
20
-28.6691
11
133.704
21
-28.8163
0
LINE
8
BLACK
6
CONTINUOUS
10
133.704
20
-28.8163
11
133.704
21
-28.9664
0
LINE
8
BLACK
6
CONTINUOUS
10
133.704
20
-28.9664
11
133.675
21
-29.1137
0
LINE
8
BLACK
6
CONTINUOUS
10
133.675
20
-29.1137
11
133.617
21
-29.2523
0
LINE
8
BLACK
6
CONTINUOUS
10
133.617
20
-29.2523
11
133.534
21
-29.3771
0
LINE
8
BLACK
6
CONTINUOUS
10
133.534
20
-29.3771
11
133.428
21
-29.4833
0
LINE
8
BLACK
6
CONTINUOUS
10
133.428
20
-29.4833
11
133.303
21
-29.5667
0
LINE
8
BLACK
6
CONTINUOUS
10
133.303
20
-29.5667
11
133.164
21
-29.6241
0
LINE
8
BLACK
6
CONTINUOUS
10
133.164
20
-29.6241
11
133.017
21
-29.6534
0
LINE
8
BLACK
6
CONTINUOUS
10
133.017
20
-29.6534
11
132.867
21
-29.6534
0
LINE
8
BLACK
6
CONTINUOUS
10
132.867
20
-29.6534
11
132.72
21
-29.6241
0
LINE
8
BLACK
6
CONTINUOUS
10
132.72
20
-29.6241
11
132.581
21
-29.5667
0
LINE
8
BLACK
6
CONTINUOUS
10
132.581
20
-29.5667
11
132.456
21
-29.4833
0
LINE
8
BLACK
6
CONTINUOUS
10
132.456
20
-29.4833
11
132.35
21
-29.3771
0
LINE
8
BLACK
6
CONTINUOUS
10
132.35
20
-29.3771
11
132.267
21
-29.2523
0
LINE
8
BLACK
6
CONTINUOUS
10
132.267
20
-29.2523
11
132.209
21
-29.1137
0
LINE
8
BLACK
6
CONTINUOUS
10
132.209
20
-29.1137
11
132.18
21
-28.9664
0
LINE
8
BLACK
6
CONTINUOUS
10
132.18
20
-28.9664
11
132.18
21
-28.8163
0
LINE
8
BLACK
6
CONTINUOUS
10
132.18
20
-28.8163
11
132.209
21
-28.6691
0
LINE
8
BLACK
6
CONTINUOUS
10
132.209
20
-28.6691
11
132.267
21
-28.5305
0
LINE
8
BLACK
6
CONTINUOUS
10
132.267
20
-28.5305
11
132.35
21
-28.4057
0
LINE
8
BLACK
6
CONTINUOUS
10
132.35
20
-28.4057
11
132.456
21
-28.2995
0
LINE
8
BLACK
6
CONTINUOUS
10
132.456
20
-28.2995
11
132.581
21
-28.2161
0
LINE
8
BLACK
6
CONTINUOUS
10
132.581
20
-28.2161
11
132.72
21
-28.1587
0
LINE
8
BLACK
6
CONTINUOUS
10
132.72
20
-28.1587
11
132.867
21
-28.1294
0
LINE
8
BLACK
6
CONTINUOUS
10
132.867
20
-28.1294
11
133.017
21
-28.1294
0
LINE
8
BLACK
6
CONTINUOUS
10
133.017
20
-28.1294
11
133.164
21
-28.1587
0
LINE
8
BLACK
6
CONTINUOUS
10
130.624
20
-28.1587
11
130.763
21
-28.2161
0
LINE
8
BLACK
6
CONTINUOUS
10
130.763
20
-28.2161
11
130.888
21
-28.2995
0
LINE
8
BLACK
6
CONTINUOUS
10
130.888
20
-28.2995
11
130.994
21
-28.4057
0
LINE
8
BLACK
6
CONTINUOUS
10
130.994
20
-28.4057
11
131.077
21
-28.5305
0
LINE
8
BLACK
6
CONTINUOUS
10
131.077
20
-28.5305
11
131.135
21
-28.6691
0
LINE
8
BLACK
6
CONTINUOUS
10
131.135
20
-28.6691
11
131.164
21
-28.8163
0
LINE
8
BLACK
6
CONTINUOUS
10
131.164
20
-28.8163
11
131.164
21
-28.9664
0
LINE
8
BLACK
6
CONTINUOUS
10
131.164
20
-28.9664
11
131.135
21
-29.1137
0
LINE
8
BLACK
6
CONTINUOUS
10
131.135
20
-29.1137
11
131.077
21
-29.2523
0
LINE
8
BLACK
6
CONTINUOUS
10
131.077
20
-29.2523
11
130.994
21
-29.3771
0
LINE
8
BLACK
6
CONTINUOUS
10
130.994
20
-29.3771
11
130.888
21
-29.4833
0
LINE
8
BLACK
6
CONTINUOUS
10
130.888
20
-29.4833
11
130.763
21
-29.5667
0
LINE
8
BLACK
6
CONTINUOUS
10
130.763
20
-29.5667
11
130.624
21
-29.6241
0
LINE
8
BLACK
6
CONTINUOUS
10
130.624
20
-29.6241
11
130.477
21
-29.6534
0
LINE
8
BLACK
6
CONTINUOUS
10
130.477
20
-29.6534
11
130.327
21
-29.6534
0
LINE
8
BLACK
6
CONTINUOUS
10
130.327
20
-29.6534
11
130.18
21
-29.6241
0
LINE
8
BLACK
6
CONTINUOUS
10
130.18
20
-29.6241
11
130.041
21
-29.5667
0
LINE
8
BLACK
6
CONTINUOUS
10
130.041
20
-29.5667
11
129.916
21
-29.4833
0
LINE
8
BLACK
6
CONTINUOUS
10
129.916
20
-29.4833
11
129.81
21
-29.3771
0
LINE
8
BLACK
6
CONTINUOUS
10
129.81
20
-29.3771
11
129.727
21
-29.2523
0
LINE
8
BLACK
6
CONTINUOUS
10
129.727
20
-29.2523
11
129.669
21
-29.1137
0
LINE
8
BLACK
6
CONTINUOUS
10
129.669
20
-29.1137
11
129.64
21
-28.9664
0
LINE
8
BLACK
6
CONTINUOUS
10
129.64
20
-28.9664
11
129.64
21
-28.8163
0
LINE
8
BLACK
6
CONTINUOUS
10
129.64
20
-28.8163
11
129.669
21
-28.6691
0
LINE
8
BLACK
6
CONTINUOUS
10
129.669
20
-28.6691
11
129.727
21
-28.5305
0
LINE
8
BLACK
6
CONTINUOUS
10
129.727
20
-28.5305
11
129.81
21
-28.4057
0
LINE
8
BLACK
6
CONTINUOUS
10
129.81
20
-28.4057
11
129.916
21
-28.2995
0
LINE
8
BLACK
6
CONTINUOUS
10
129.916
20
-28.2995
11
130.041
21
-28.2161
0
LINE
8
BLACK
6
CONTINUOUS
10
130.041
20
-28.2161
11
130.18
21
-28.1587
0
LINE
8
BLACK
6
CONTINUOUS
10
130.18
20
-28.1587
11
130.327
21
-28.1294
0
LINE
8
BLACK
6
CONTINUOUS
10
130.327
20
-28.1294
11
130.477
21
-28.1294
0
LINE
8
BLACK
6
CONTINUOUS
10
130.477
20
-28.1294
11
130.624
21
-28.1587
0
LINE
8
BLACK
6
CONTINUOUS
10
125.544
20
-28.1587
11
125.683
21
-28.2161
0
LINE
8
BLACK
6
CONTINUOUS
10
125.683
20
-28.2161
11
125.808
21
-28.2995
0
LINE
8
BLACK
6
CONTINUOUS
10
125.808
20
-28.2995
11
125.914
21
-28.4057
0
LINE
8
BLACK
6
CONTINUOUS
10
125.914
20
-28.4057
11
125.997
21
-28.5305
0
LINE
8
BLACK
6
CONTINUOUS
10
125.997
20
-28.5305
11
126.055
21
-28.6691
0
LINE
8
BLACK
6
CONTINUOUS
10
126.055
20
-28.6691
11
126.084
21
-28.8163
0
LINE
8
BLACK
6
CONTINUOUS
10
126.084
20
-28.8163
11
126.084
21
-28.9664
0
LINE
8
BLACK
6
CONTINUOUS
10
126.084
20
-28.9664
11
126.055
21
-29.1137
0
LINE
8
BLACK
6
CONTINUOUS
10
126.055
20
-29.1137
11
125.997
21
-29.2523
0
LINE
8
BLACK
6
CONTINUOUS
10
125.997
20
-29.2523
11
125.914
21
-29.3771
0
LINE
8
BLACK
6
CONTINUOUS
10
125.914
20
-29.3771
11
125.808
21
-29.4833
0
LINE
8
BLACK
6
CONTINUOUS
10
125.808
20
-29.4833
11
125.683
21
-29.5667
0
LINE
8
BLACK
6
CONTINUOUS
10
125.683
20
-29.5667
11
125.544
21
-29.6241
0
LINE
8
BLACK
6
CONTINUOUS
10
125.544
20
-29.6241
11
125.397
21
-29.6534
0
LINE
8
BLACK
6
CONTINUOUS
10
125.397
20
-29.6534
11
125.247
21
-29.6534
0
LINE
8
BLACK
6
CONTINUOUS
10
125.247
20
-29.6534
11
125.1
21
-29.6241
0
LINE
8
BLACK
6
CONTINUOUS
10
125.1
20
-29.6241
11
124.961
21
-29.5667
0
LINE
8
BLACK
6
CONTINUOUS
10
124.961
20
-29.5667
11
124.836
21
-29.4833
0
LINE
8
BLACK
6
CONTINUOUS
10
124.836
20
-29.4833
11
124.73
21
-29.3771
0
LINE
8
BLACK
6
CONTINUOUS
10
124.73
20
-29.3771
11
124.647
21
-29.2523
0
LINE
8
BLACK
6
CONTINUOUS
10
124.647
20
-29.2523
11
124.589
21
-29.1137
0
LINE
8
BLACK
6
CONTINUOUS
10
124.589
20
-29.1137
11
124.56
21
-28.9664
0
LINE
8
BLACK
6
CONTINUOUS
10
124.56
20
-28.9664
11
124.56
21
-28.8163
0
LINE
8
BLACK
6
CONTINUOUS
10
124.56
20
-28.8163
11
124.589
21
-28.6691
0
LINE
8
BLACK
6
CONTINUOUS
10
124.589
20
-28.6691
11
124.647
21
-28.5305
0
LINE
8
BLACK
6
CONTINUOUS
10
124.647
20
-28.5305
11
124.73
21
-28.4057
0
LINE
8
BLACK
6
CONTINUOUS
10
124.73
20
-28.4057
11
124.836
21
-28.2995
0
LINE
8
BLACK
6
CONTINUOUS
10
124.836
20
-28.2995
11
124.961
21
-28.2161
0
LINE
8
BLACK
6
CONTINUOUS
10
124.961
20
-28.2161
11
125.1
21
-28.1587
0
LINE
8
BLACK
6
CONTINUOUS
10
125.1
20
-28.1587
11
125.247
21
-28.1294
0
LINE
8
BLACK
6
CONTINUOUS
10
125.247
20
-28.1294
11
125.397
21
-28.1294
0
LINE
8
BLACK
6
CONTINUOUS
10
125.397
20
-28.1294
11
125.544
21
-28.1587
0
LINE
8
BLACK
6
CONTINUOUS
10
123.506
20
-20.1317
11
123.822
21
-20.2625
0
LINE
8
BLACK
6
CONTINUOUS
10
123.822
20
-20.2625
11
124.106
21
-20.4523
0
LINE
8
BLACK
6
CONTINUOUS
10
124.106
20
-20.4523
11
124.348
21
-20.694
0
LINE
8
BLACK
6
CONTINUOUS
10
124.348
20
-20.694
11
124.538
21
-20.9782
0
LINE
8
BLACK
6
CONTINUOUS
10
124.538
20
-20.9782
11
124.668
21
-21.2939
0
LINE
8
BLACK
6
CONTINUOUS
10
124.668
20
-21.2939
11
124.735
21
-21.6291
0
LINE
8
BLACK
6
CONTINUOUS
10
124.735
20
-21.6291
11
124.735
21
-21.9709
0
LINE
8
BLACK
6
CONTINUOUS
10
124.735
20
-21.9709
11
124.668
21
-22.3061
0
LINE
8
BLACK
6
CONTINUOUS
10
124.668
20
-22.3061
11
124.538
21
-22.6218
0
LINE
8
BLACK
6
CONTINUOUS
10
124.538
20
-22.6218
11
124.348
21
-22.906
0
LINE
8
BLACK
6
CONTINUOUS
10
124.348
20
-22.906
11
124.106
21
-23.1477
0
LINE
8
BLACK
6
CONTINUOUS
10
124.106
20
-23.1477
11
123.822
21
-23.3375
0
LINE
8
BLACK
6
CONTINUOUS
10
123.822
20
-23.3375
11
123.506
21
-23.4683
0
LINE
8
BLACK
6
CONTINUOUS
10
123.506
20
-23.4683
11
123.171
21
-23.535
0
LINE
8
BLACK
6
CONTINUOUS
10
123.171
20
-23.535
11
122.829
21
-23.535
0
LINE
8
BLACK
6
CONTINUOUS
10
122.829
20
-23.535
11
122.494
21
-23.4683
0
LINE
8
BLACK
6
CONTINUOUS
10
122.494
20
-23.4683
11
122.178
21
-23.3375
0
LINE
8
BLACK
6
CONTINUOUS
10
122.178
20
-23.3375
11
121.894
21
-23.1477
0
LINE
8
BLACK
6
CONTINUOUS
10
121.894
20
-23.1477
11
121.652
21
-22.906
0
LINE
8
BLACK
6
CONTINUOUS
10
121.652
20
-22.906
11
121.462
21
-22.6218
0
LINE
8
BLACK
6
CONTINUOUS
10
121.462
20
-22.6218
11
121.332
21
-22.3061
0
LINE
8
BLACK
6
CONTINUOUS
10
121.332
20
-22.3061
11
121.265
21
-21.9709
0
LINE
8
BLACK
6
CONTINUOUS
10
121.265
20
-21.9709
11
121.265
21
-21.6291
0
LINE
8
BLACK
6
CONTINUOUS
10
121.265
20
-21.6291
11
121.332
21
-21.2939
0
LINE
8
BLACK
6
CONTINUOUS
10
121.332
20
-21.2939
11
121.462
21
-20.9782
0
LINE
8
BLACK
6
CONTINUOUS
10
121.462
20
-20.9782
11
121.652
21
-20.694
0
LINE
8
BLACK
6
CONTINUOUS
10
121.652
20
-20.694
11
121.894
21
-20.4523
0
LINE
8
BLACK
6
CONTINUOUS
10
121.894
20
-20.4523
11
122.178
21
-20.2625
0
LINE
8
BLACK
6
CONTINUOUS
10
122.178
20
-20.2625
11
122.494
21
-20.1317
0
LINE
8
BLACK
6
CONTINUOUS
10
122.494
20
-20.1317
11
122.829
21
-20.065
0
LINE
8
BLACK
6
CONTINUOUS
10
122.829
20
-20.065
11
123.171
21
-20.065
0
LINE
8
BLACK
6
CONTINUOUS
10
123.171
20
-20.065
11
123.506
21
-20.1317
0
LINE
8
BLACK
6
CONTINUOUS
10
160.756
20
-20.1317
11
161.072
21
-20.2625
0
LINE
8
BLACK
6
CONTINUOUS
10
161.072
20
-20.2625
11
161.356
21
-20.4523
0
LINE
8
BLACK
6
CONTINUOUS
10
161.356
20
-20.4523
11
161.598
21
-20.694
0
LINE
8
BLACK
6
CONTINUOUS
10
161.598
20
-20.694
11
161.788
21
-20.9782
0
LINE
8
BLACK
6
CONTINUOUS
10
161.788
20
-20.9782
11
161.918
21
-21.2939
0
LINE
8
BLACK
6
CONTINUOUS
10
161.918
20
-21.2939
11
161.985
21
-21.6291
0
LINE
8
BLACK
6
CONTINUOUS
10
161.985
20
-21.6291
11
161.985
21
-21.9709
0
LINE
8
BLACK
6
CONTINUOUS
10
161.985
20
-21.9709
11
161.918
21
-22.3061
0
LINE
8
BLACK
6
CONTINUOUS
10
161.918
20
-22.3061
11
161.788
21
-22.6218
0
LINE
8
BLACK
6
CONTINUOUS
10
161.788
20
-22.6218
11
161.598
21
-22.906
0
LINE
8
BLACK
6
CONTINUOUS
10
161.598
20
-22.906
11
161.356
21
-23.1477
0
LINE
8
BLACK
6
CONTINUOUS
10
161.356
20
-23.1477
11
161.072
21
-23.3375
0
LINE
8
BLACK
6
CONTINUOUS
10
161.072
20
-23.3375
11
160.756
21
-23.4683
0
LINE
8
BLACK
6
CONTINUOUS
10
160.756
20
-23.4683
11
160.421
21
-23.535
0
LINE
8
BLACK
6
CONTINUOUS
10
160.421
20
-23.535
11
160.079
21
-23.535
0
LINE
8
BLACK
6
CONTINUOUS
10
160.079
20
-23.535
11
159.744
21
-23.4683
0
LINE
8
BLACK
6
CONTINUOUS
10
159.744
20
-23.4683
11
159.428
21
-23.3375
0
LINE
8
BLACK
6
CONTINUOUS
10
159.428
20
-23.3375
11
159.144
21
-23.1477
0
LINE
8
BLACK
6
CONTINUOUS
10
159.144
20
-23.1477
11
158.902
21
-22.906
0
LINE
8
BLACK
6
CONTINUOUS
10
158.902
20
-22.906
11
158.712
21
-22.6218
0
LINE
8
BLACK
6
CONTINUOUS
10
158.712
20
-22.6218
11
158.582
21
-22.3061
0
LINE
8
BLACK
6
CONTINUOUS
10
158.582
20
-22.3061
11
158.515
21
-21.9709
0
LINE
8
BLACK
6
CONTINUOUS
10
158.515
20
-21.9709
11
158.515
21
-21.6291
0
LINE
8
BLACK
6
CONTINUOUS
10
158.515
20
-21.6291
11
158.582
21
-21.2939
0
LINE
8
BLACK
6
CONTINUOUS
10
158.582
20
-21.2939
11
158.712
21
-20.9782
0
LINE
8
BLACK
6
CONTINUOUS
10
158.712
20
-20.9782
11
158.902
21
-20.694
0
LINE
8
BLACK
6
CONTINUOUS
10
158.902
20
-20.694
11
159.144
21
-20.4523
0
LINE
8
BLACK
6
CONTINUOUS
10
159.144
20
-20.4523
11
159.428
21
-20.2625
0
LINE
8
BLACK
6
CONTINUOUS
10
159.428
20
-20.2625
11
159.744
21
-20.1317
0
LINE
8
BLACK
6
CONTINUOUS
10
159.744
20
-20.1317
11
160.079
21
-20.065
0
LINE
8
BLACK
6
CONTINUOUS
10
160.079
20
-20.065
11
160.421
21
-20.065
0
LINE
8
BLACK
6
CONTINUOUS
10
160.421
20
-20.065
11
160.756
21
-20.1317
  0
ENDSEC
  0
EOF
