0
SECTION
2
HEADER
9
$INSUNITS
70
4
9
$ACADVER
1
AC1014
9
$HANDSEED
5
FFFF
0
ENDSEC
0
SECTION
2
TABLES
0
TABLE
2
VPORT
5
8
100
AcDbSymbolTable
0
ENDTAB
0
TABLE
2
LTYPE
5
5
100
AcDbSymbolTable
0
LTYPE
5
14
100
AcDbSymbolTableRecord
100
AcDbLinetypeTableRecord
2
BYBLOCK
70
0
0
LTYPE
5
15
100
AcDbSymbolTableRecord
100
AcDbLinetypeTableRecord
2
BYLAYER
70
0
0
ENDTAB
0
TABLE
2
LAYER
5
2
100
AcDbSymbolTable
70
2
0
LAYER
5
50
100
AcDbSymbolTableRecord
100
AcDbLayerTableRecord
2
0
70
0
6
CONTINUOUS
0
ENDTAB
0
TABLE
2
STYLE
5
3
100
AcDbSymbolTable
70
1
0
STYLE
5
11
100
AcDbSymbolTableRecord
100
AcDbTextStyleTableRecord
2
STANDARD
70
0
0
ENDTAB
0
TABLE
2
VIEW
5
6
100
AcDbSymbolTable
70
0
0
ENDTAB
0
TABLE
2
UCS
5
7
100
AcDbSymbolTable
70
0
0
ENDTAB
0
TABLE
2
APPID
5
9
100
AcDbSymbolTable
70
2
0
APPID
5
12
100
AcDbSymbolTableRecord
100
AcDbRegAppTableRecord
2
ACAD
70
0
0
ENDTAB
0
TABLE
2
DIMSTYLE
5
A
100
AcDbSymbolTable
70
1
0
ENDTAB
0
TABLE
2
BLOCK_RECORD
5
1
100
AcDbSymbolTable
70
1
0
BLOCK_RECORD
5
1F
100
AcDbSymbolTableRecord
100
AcDbBlockTableRecord
2
*MODEL_SPACE
0
BLOCK_RECORD
5
1B
100
AcDbSymbolTableRecord
100
AcDbBlockTableRecord
2
*PAPER_SPACE
0
ENDTAB
0
ENDSEC
0
SECTION
2
BLOCKS
0
BLOCK
5
20
100
AcDbEntity
100
AcDbBlockBegin
2
*MODEL_SPACE
0
ENDBLK
5
21
100
AcDbEntity
100
AcDbBlockEnd
0
BLOCK
5
1C
100
AcDbEntity
100
AcDbBlockBegin
2
*PAPER_SPACE
0
ENDBLK
5
1D
100
AcDbEntity
100
AcDbBlockEnd
0
ENDSEC
0
SECTION
2
ENTITIES
0
LWPOLYLINE
5
100
100
AcDbEntity
8
0
100
AcDbPolyline
90
8
70
1
43
0.0
10
-19.599999999999994
20
-12.550000000000043
42
-0.41421356237309503
10
-23.999999999999989
20
-8.1500000000000483
10
-24.000000000000004
20
71.80000000000004
42
-0.41421356237309581
10
-19.600000000000005
20
76.200000000000031
10
19.650000000000002
20
76.19999999999996
42
-0.41421356237309476
10
24.049999999999969
20
71.799999999999969
10
24.049999999999883
20
-8.1500000000001105
42
-0.41421356237309631
10
19.649999999999899
20
-12.550000000000104
0
CIRCLE
5
101
100
AcDbEntity
8
0
100
AcDbCircle
10
-19.599999999999994
20
-8.1500000000000483
30
0
40
1.199999999999998
210
0
220
0
230
1
0
ARC
5
102
100
AcDbEntity
8
0
100
AcDbCircle
10
-19.599999999999969
20
-8.150000000000075
30
0
40
4.4000000000000199
210
0
220
0
230
1
100
AcDbArc
50
180
51
269.99999999999972
0
LWPOLYLINE
5
103
100
AcDbEntity
8
0
100
AcDbPolyline
90
10
70
1
43
0.0
10
15.25
20
71.799999999999997
42
0.41421356237309431
10
19.650000000000009
20
67.399999999999977
10
19.649999999999928
20
-3.7500000000000977
42
0.41421356237309509
10
15.249999999999961
20
-8.1500000000000501
10
-15.200000000000038
20
-8.1500000000000501
42
0.4142135623730952
10
-19.599999999999994
20
-3.7500000000000933
10
-19.600000000000001
20
37.999999999999972
42
0.99999999999999989
10
-19.59999999999992
20
46.799999999999997
10
-19.600000000000005
20
67.400000000000006
42
0.41421356237309503
10
-15.199999999999996
20
71.80000000000004
0
CIRCLE
5
104
100
AcDbEntity
8
0
100
AcDbCircle
10
-19.600000000000005
20
71.80000000000004
30
0
40
1.199999999999998
210
0
220
0
230
1
0
ARC
5
105
100
AcDbEntity
8
0
100
AcDbCircle
10
19.599999999999969
20
42.399999999999984
30
0
40
4.4000000000000128
210
0
220
0
230
-1
100
AcDbArc
50
90.000000000000654
51
270.0000000000004
0
ARC
5
106
100
AcDbEntity
8
0
100
AcDbCircle
10
19.64999999999992
20
-8.1500000000000732
30
0
40
4.4000000000000297
210
0
220
-0
230
1
100
AcDbArc
50
89.999999999999972
51
180
0
ARC
5
107
100
AcDbEntity
8
0
100
AcDbCircle
10
19.649999999999906
20
-8.1500000000001052
30
0
40
4.3999999999999968
210
0
220
0
230
1
100
AcDbArc
50
269.99999999999989
51
360
0
CIRCLE
5
108
100
AcDbEntity
8
0
100
AcDbCircle
10
19.650000000000006
20
-8.1500000000000679
30
0
40
1.199999999999998
210
0
220
0
230
1
0
ARC
5
109
100
AcDbEntity
8
0
100
AcDbCircle
10
-19.599999999999994
20
-8.1500000000000483
30
0
40
4.3999999999999595
210
0
220
0
230
1
100
AcDbArc
50
0
51
90
0
ARC
5
110
100
AcDbEntity
8
0
100
AcDbCircle
10
19.650000000000013
20
71.799999999999983
30
0
40
4.400000000000011
210
0
220
0
230
1
100
AcDbArc
50
180
51
269.99999999999994
0
CIRCLE
5
111
100
AcDbEntity
8
0
100
AcDbCircle
10
19.649999999999999
20
71.799999999999997
30
0
40
1.199999999999998
210
0
220
0
230
1
0
CIRCLE
5
112
100
AcDbEntity
8
0
100
AcDbCircle
10
-19.599999999999969
20
42.399999999999984
30
0
40
1.199999999999998
210
0
220
0
230
1
0
ARC
5
113
100
AcDbEntity
8
0
100
AcDbCircle
10
-19.600000000000005
20
71.80000000000004
30
0
40
4.4000000000000039
210
0
220
-0
230
1
100
AcDbArc
50
90
51
180
0
ARC
5
114
100
AcDbEntity
8
0
100
AcDbCircle
10
-19.600000000000005
20
71.80000000000004
30
0
40
4.4000000000000217
210
0
220
0
230
1
100
AcDbArc
50
-90
51
0
0
ARC
5
115
100
AcDbEntity
8
0
100
AcDbCircle
10
19.649999999999995
20
71.79999999999994
30
0
40
4.3999999999999728
210
0
220
-0
230
1
100
AcDbArc
50
0
51
89.999999999999915
0
ENDSEC
0
SECTION
2
OBJECTS
0
DICTIONARY
5
C
100
AcDbDictionary
3
ACAD_GROUP
350
D
3
ACAD_MLINESTYLE
350
17
0
DICTIONARY
5
D
100
AcDbDictionary
0
DICTIONARY
5
1A
330
C
100
AcDbDictionary
0
DICTIONARY
5
17
100
AcDbDictionary
0
ENDSEC
0
EOF
