  0
SECTION
  2
HEADER
  9
$ANGBASE
  50
0.0
  9
$ANGDIR
  70
1
  9
$MEASUREMENT
  70
1
  0
ENDSEC
  0
SECTION
  2
TABLES
  0
TABLE
  2
LTYPE
  70
4
  0
LTYPE
  5
40F
  2
CONTINUOUS
  70
0
  3
Solid line
  72
65
  73
0
  40
0.0
  0
LTYPE
  5
410
  2
DASHDOT
 70
0
  3
Dash Dot ____ _ ____ _
 72
65
 73
4
 40
2.0
 49
1.25
 49
-0.25
 49
0.25
 49
-0.25
  0
LTYPE
  5
411
  2
DASHED
 70
0
  3
Dashed __ __ __ __ __
 72
65
 73
2
 40
0.75
 49
0.5
 49
-0.25
  0
LTYPE
  5
43B
  2
DOTTED
 70
0
  3
Dotted .  .  .  .
 72
65
 73
2
 40
0.2
 49
0.0
 49
-0.2
  0
ENDTAB
  0
TABLE
  2
STYLE
  70
4
  0
STYLE
  2
KICAD
  70
0
  40
0
  41
1
  42
1
  50
0
  71
0
  3
isocp.shx
  0
STYLE
  2
KICADB
  70
0
  40
0
  41
1
  42
1
  50
0
  71
0
  3
isocp.shx
  0
STYLE
  2
KICADI
  70
0
  40
0
  41
1
  42
1
  50
15
  71
0
  3
isocp.shx
  0
STYLE
  2
KICADBI
  70
0
  40
0
  41
1
  42
1
  50
15
  71
0
  3
isocp.shx
  0
ENDTAB
  0
TABLE
  2
LAYER
  70
1
  0
LAYER
  2
BLACK
  70
0
  62
7
  6
CONTINUOUS
  0
ENDTAB
  0
ENDSEC
  0
SECTION
  2
ENTITIES
0
LINE
8
BLACK
6
CONTINUOUS
10
106
20
-109.45
11
106
21
-104.95
0
CIRCLE
8
BLACK
10
129.25
20
-30
40
1.2
0
LINE
8
BLACK
6
CONTINUOUS
10
129.25
20
-114.35
11
90
21
-114.35
0
LINE
8
BLACK
6
CONTINUOUS
10
113
20
-109.45
11
106
21
-109.45
0
CIRCLE
8
BLACK
10
90
20
-109.95
40
1.2
0
LINE
8
BLACK
6
CONTINUOUS
10
113
20
-104.95
11
113
21
-109.45
0
ARC
8
BLACK
10
90
20
-109.95
40
4.4
50
180
51
270
0
CIRCLE
8
BLACK
10
129.25
20
-109.95
40
1.2
0
ARC
8
BLACK
10
129.25
20
-30
40
4.4
50
-0
51
90
0
CIRCLE
8
BLACK
10
90
20
-59.4
40
1.2
0
LINE
8
BLACK
6
CONTINUOUS
10
90
20
-25.6
11
129.25
21
-25.6
0
LINE
8
BLACK
6
CONTINUOUS
10
85.6
20
-109.95
11
85.6
21
-30
0
LINE
8
BLACK
6
CONTINUOUS
10
106
20
-104.95
11
113
21
-104.95
0
CIRCLE
8
BLACK
10
90
20
-30
40
1.2
0
ARC
8
BLACK
10
129.25
20
-109.95
40
4.4
50
-90
51
-0
0
LINE
8
BLACK
6
CONTINUOUS
10
133.65
20
-30
11
133.65
21
-109.95
0
ARC
8
BLACK
10
90
20
-30
40
4.4
50
90
51
180
0
CIRCLE
8
BLACK
10
52.5
20
-62.5
40
0.75
0
CIRCLE
8
BLACK
10
60
20
-65
40
0.75
0
LINE
8
BLACK
6
CONTINUOUS
10
75.2
20
-81.95
11
75.2
21
-77.45
0
LINE
8
BLACK
6
CONTINUOUS
10
43.2
20
-43.65
11
43.2
21
-47.05
0
LINE
8
BLACK
6
CONTINUOUS
10
50.2
20
-91.45
11
43.2
21
-91.45
0
LINE
8
BLACK
6
CONTINUOUS
10
68.2
20
-81.95
11
75.2
21
-81.95
0
LINE
8
BLACK
6
CONTINUOUS
10
78.95
20
-26.1
11
39.7
21
-26.1
0
ARC
8
BLACK
10
78.95
20
-30.5
40
4.4
50
-0
51
90
0
LINE
8
BLACK
6
CONTINUOUS
10
68.2
20
-95.95
11
75.2
21
-95.95
0
LINE
8
BLACK
6
CONTINUOUS
10
43.2
20
-63.45
11
43.2
21
-67.95
0
LINE
8
BLACK
6
CONTINUOUS
10
50.2
20
-63.45
11
43.2
21
-63.45
0
CIRCLE
8
BLACK
10
62.5
20
-67.5
40
0.75
0
LINE
8
BLACK
6
CONTINUOUS
10
71.2
20
-43.65
11
71.2
21
-47.05
0
LINE
8
BLACK
6
CONTINUOUS
10
74.2
20
-43.65
11
71.2
21
-43.65
0
LINE
8
BLACK
6
CONTINUOUS
10
68.2
20
-88.95
11
75.2
21
-88.95
0
LINE
8
BLACK
6
CONTINUOUS
10
75.2
20
-63.45
11
68.2
21
-63.45
0
LINE
8
BLACK
6
CONTINUOUS
10
75.2
20
-67.95
11
75.2
21
-63.45
0
CIRCLE
8
BLACK
10
78.95
20
-30.5
40
1.2
0
CIRCLE
8
BLACK
10
78.95
20
-110.45
40
1.2
0
LINE
8
BLACK
6
CONTINUOUS
10
50.2
20
-95.95
11
50.2
21
-91.45
0
LINE
8
BLACK
6
CONTINUOUS
10
50.2
20
-84.45
11
43.2
21
-84.45
0
LINE
8
BLACK
6
CONTINUOUS
10
67.2
20
-47.05
11
67.2
21
-43.65
0
LINE
8
BLACK
6
CONTINUOUS
10
64.2
20
-47.05
11
67.2
21
-47.05
0
LINE
8
BLACK
6
CONTINUOUS
10
57.2
20
-43.65
11
57.2
21
-47.05
0
LINE
8
BLACK
6
CONTINUOUS
10
50.2
20
-70.45
11
43.2
21
-70.45
0
CIRCLE
8
BLACK
10
62.5
20
-72.5
40
0.75
0
LINE
8
BLACK
6
CONTINUOUS
10
60.2
20
-43.65
11
57.2
21
-43.65
0
LINE
8
BLACK
6
CONTINUOUS
10
68.2
20
-102.95
11
75.2
21
-102.95
0
LINE
8
BLACK
6
CONTINUOUS
10
50.2
20
-81.95
11
50.2
21
-77.45
0
LINE
8
BLACK
6
CONTINUOUS
10
50.2
20
-77.45
11
43.2
21
-77.45
0
CIRCLE
8
BLACK
10
57.5
20
-75
40
0.75
0
CIRCLE
8
BLACK
10
57.5
20
-70
40
0.75
0
LINE
8
BLACK
6
CONTINUOUS
10
68.2
20
-98.45
11
68.2
21
-102.95
0
LINE
8
BLACK
6
CONTINUOUS
10
46.2
20
-47.05
11
46.2
21
-43.65
0
CIRCLE
8
BLACK
10
57.5
20
-62.5
40
0.75
0
LINE
8
BLACK
6
CONTINUOUS
10
75.2
20
-70.45
11
68.2
21
-70.45
0
LINE
8
BLACK
6
CONTINUOUS
10
75.2
20
-74.95
11
75.2
21
-70.45
0
LINE
8
BLACK
6
CONTINUOUS
10
68.2
20
-67.95
11
75.2
21
-67.95
0
LINE
8
BLACK
6
CONTINUOUS
10
68.2
20
-63.45
11
68.2
21
-67.95
0
LINE
8
BLACK
6
CONTINUOUS
10
75.2
20
-102.95
11
75.2
21
-98.45
0
LINE
8
BLACK
6
CONTINUOUS
10
43.2
20
-102.95
11
50.2
21
-102.95
0
CIRCLE
8
BLACK
10
55
20
-65
40
0.75
0
LINE
8
BLACK
6
CONTINUOUS
10
35.3
20
-30.5
11
35.3
21
-110.45
0
ARC
8
BLACK
10
39.7
20
-30.5
40
4.4
50
90
51
180
0
LINE
8
BLACK
6
CONTINUOUS
10
43.2
20
-74.95
11
50.2
21
-74.95
0
CIRCLE
8
BLACK
10
57.5
20
-72.5
40
0.75
0
LINE
8
BLACK
6
CONTINUOUS
10
43.2
20
-84.45
11
43.2
21
-88.95
0
LINE
8
BLACK
6
CONTINUOUS
10
50.2
20
-102.95
11
50.2
21
-98.45
0
LINE
8
BLACK
6
CONTINUOUS
10
43.2
20
-47.05
11
46.2
21
-47.05
0
LINE
8
BLACK
6
CONTINUOUS
10
43.2
20
-98.45
11
43.2
21
-102.95
0
CIRCLE
8
BLACK
10
62.5
20
-65
40
0.75
0
LINE
8
BLACK
6
CONTINUOUS
10
50.2
20
-88.95
11
50.2
21
-84.45
0
CIRCLE
8
BLACK
10
55
20
-75
40
0.75
0
LINE
8
BLACK
6
CONTINUOUS
10
64.2
20
-43.65
11
64.2
21
-47.05
0
LINE
8
BLACK
6
CONTINUOUS
10
67.2
20
-43.65
11
64.2
21
-43.65
0
LINE
8
BLACK
6
CONTINUOUS
10
43.2
20
-70.45
11
43.2
21
-74.95
0
CIRCLE
8
BLACK
10
60
20
-72.5
40
0.75
0
LINE
8
BLACK
6
CONTINUOUS
10
53.2
20
-47.05
11
53.2
21
-43.65
0
LINE
8
BLACK
6
CONTINUOUS
10
50.2
20
-98.45
11
43.2
21
-98.45
0
LINE
8
BLACK
6
CONTINUOUS
10
83.35
20
-110.45
11
83.35
21
-30.5
0
ARC
8
BLACK
10
78.95
20
-110.45
40
4.4
50
-90
51
-0
0
CIRCLE
8
BLACK
10
55
20
-62.5
40
0.75
0
CIRCLE
8
BLACK
10
39.7
20
-110.45
40
1.2
0
LINE
8
BLACK
6
CONTINUOUS
10
53.2
20
-43.65
11
50.2
21
-43.65
0
CIRCLE
8
BLACK
10
52.5
20
-65
40
0.75
0
CIRCLE
8
BLACK
10
55
20
-67.5
40
0.75
0
CIRCLE
8
BLACK
10
65
20
-67.5
40
0.75
0
CIRCLE
8
BLACK
10
65
20
-62.5
40
0.75
0
CIRCLE
8
BLACK
10
62.5
20
-62.5
40
0.75
0
LINE
8
BLACK
6
CONTINUOUS
10
43.2
20
-81.95
11
50.2
21
-81.95
0
LINE
8
BLACK
6
CONTINUOUS
10
66
20
-87
11
52.4
21
-87
0
LINE
8
BLACK
6
CONTINUOUS
10
66
20
-101.4
11
66
21
-87
0
LINE
8
BLACK
6
CONTINUOUS
10
43.2
20
-88.95
11
50.2
21
-88.95
0
LINE
8
BLACK
6
CONTINUOUS
10
39.7
20
-114.85
11
78.95
21
-114.85
0
ARC
8
BLACK
10
39.7
20
-110.45
40
4.4
50
180
51
270
0
LINE
8
BLACK
6
CONTINUOUS
10
43.2
20
-77.45
11
43.2
21
-81.95
0
LINE
8
BLACK
6
CONTINUOUS
10
60.2
20
-47.05
11
60.2
21
-43.65
0
LINE
8
BLACK
6
CONTINUOUS
10
68.2
20
-91.45
11
68.2
21
-95.95
0
LINE
8
BLACK
6
CONTINUOUS
10
50.2
20
-47.05
11
53.2
21
-47.05
0
LINE
8
BLACK
6
CONTINUOUS
10
50.2
20
-43.65
11
50.2
21
-47.05
0
CIRCLE
8
BLACK
10
60
20
-70
40
0.75
0
CIRCLE
8
BLACK
10
62.5
20
-75
40
0.75
0
LINE
8
BLACK
6
CONTINUOUS
10
46.2
20
-43.65
11
43.2
21
-43.65
0
LINE
8
BLACK
6
CONTINUOUS
10
75.2
20
-98.45
11
68.2
21
-98.45
0
LINE
8
BLACK
6
CONTINUOUS
10
52.4
20
-101.4
11
66
21
-101.4
0
LINE
8
BLACK
6
CONTINUOUS
10
52.4
20
-87
11
52.4
21
-101.4
0
LINE
8
BLACK
6
CONTINUOUS
10
68.2
20
-77.45
11
68.2
21
-81.95
0
LINE
8
BLACK
6
CONTINUOUS
10
68.2
20
-84.45
11
68.2
21
-88.95
0
CIRCLE
8
BLACK
10
65
20
-70
40
0.75
0
CIRCLE
8
BLACK
10
39.7
20
-30.5
40
1.2
0
LINE
8
BLACK
6
CONTINUOUS
10
75.2
20
-91.45
11
68.2
21
-91.45
0
CIRCLE
8
BLACK
10
52.5
20
-67.5
40
0.75
0
CIRCLE
8
BLACK
10
60
20
-67.5
40
0.75
0
CIRCLE
8
BLACK
10
62.5
20
-70
40
0.75
0
LINE
8
BLACK
6
CONTINUOUS
10
75.2
20
-77.45
11
68.2
21
-77.45
0
LINE
8
BLACK
6
CONTINUOUS
10
57.2
20
-47.05
11
60.2
21
-47.05
0
CIRCLE
8
BLACK
10
65
20
-72.5
40
0.75
0
CIRCLE
8
BLACK
10
65
20
-75
40
0.75
0
LINE
8
BLACK
6
CONTINUOUS
10
68.2
20
-74.95
11
75.2
21
-74.95
0
LINE
8
BLACK
6
CONTINUOUS
10
68.2
20
-70.45
11
68.2
21
-74.95
0
LINE
8
BLACK
6
CONTINUOUS
10
43.2
20
-95.95
11
50.2
21
-95.95
0
CIRCLE
8
BLACK
10
60
20
-62.5
40
0.75
0
LINE
8
BLACK
6
CONTINUOUS
10
43.2
20
-91.45
11
43.2
21
-95.95
0
CIRCLE
8
BLACK
10
60
20
-75
40
0.75
0
LINE
8
BLACK
6
CONTINUOUS
10
75.2
20
-95.95
11
75.2
21
-91.45
0
CIRCLE
8
BLACK
10
57.5
20
-67.5
40
0.75
0
LINE
8
BLACK
6
CONTINUOUS
10
50.2
20
-74.95
11
50.2
21
-70.45
0
CIRCLE
8
BLACK
10
55
20
-70
40
0.75
0
LINE
8
BLACK
6
CONTINUOUS
10
50.2
20
-67.95
11
50.2
21
-63.45
0
LINE
8
BLACK
6
CONTINUOUS
10
43.2
20
-67.95
11
50.2
21
-67.95
0
CIRCLE
8
BLACK
10
57.5
20
-65
40
0.75
0
CIRCLE
8
BLACK
10
52.5
20
-72.5
40
0.75
0
LINE
8
BLACK
6
CONTINUOUS
10
75.2
20
-84.45
11
68.2
21
-84.45
0
LINE
8
BLACK
6
CONTINUOUS
10
75.2
20
-88.95
11
75.2
21
-84.45
0
CIRCLE
8
BLACK
10
52.5
20
-75
40
0.75
0
CIRCLE
8
BLACK
10
55
20
-72.5
40
0.75
0
LINE
8
BLACK
6
CONTINUOUS
10
74.2
20
-47.05
11
74.2
21
-43.65
0
LINE
8
BLACK
6
CONTINUOUS
10
71.2
20
-47.05
11
74.2
21
-47.05
0
CIRCLE
8
BLACK
10
39.7
20
-59.9
40
1.2
0
CIRCLE
8
BLACK
10
52.5
20
-70
40
0.75
0
CIRCLE
8
BLACK
10
65
20
-65
40
0.75
  0
ENDSEC
  0
EOF
